ply
format ascii 1.0
comment PCL generated
element vertex 269
property float x
property float y
property float z
property uchar red
property uchar green
property uchar blue
property float nx
property float ny
property float nz
property float curvature
element camera 1
property float view_px
property float view_py
property float view_pz
property float x_axisx
property float x_axisy
property float x_axisz
property float y_axisx
property float y_axisy
property float y_axisz
property float z_axisx
property float z_axisy
property float z_axisz
property float focal
property float scalex
property float scaley
property float centerx
property float centery
property int viewportx
property int viewporty
property float k1
property float k2
end_header
1.3303519 0.02071221 0.021939132 0 0 250 0 0 0 0
2.6911821 0.031351686 0.04491147 0 0 250 0 0 0 0
4.0472007 0.041021388 0.068739034 0 0 250 0 0 0 0
5.3660302 0.054780189 0.09727639 0 0 250 0 0 0 0
6.7082891 0.077714197 0.12217353 0 0 250 0 0 0 0
8.0603895 0.089638077 0.14534815 0 0 250 0 0 0 0
9.4128351 0.10115059 0.16943325 0 0 250 0 0 0 0
10.771922 0.11946339 0.19366109 0 0 250 0 0 0 0
12.11695 0.14549243 0.22400904 0 0 250 0 0 0 0
13.473088 0.16841985 0.25255129 0 0 250 0 0 0 0
14.841528 0.17858467 0.28032529 0 0 250 0 0 0 0
16.230829 0.19451976 0.30564651 0 0 250 0 0 0 0
17.607086 0.20055889 0.33561283 0 0 250 0 0 0 0
18.978086 0.21310163 0.35725895 0 0 250 0 0 0 0
20.336395 0.23554583 0.3818073 0 0 250 0 0 0 0
21.715508 0.25712657 0.40612581 0 0 250 0 0 0 0
23.113537 0.27728975 0.43255064 0 0 250 0 0 0 0
24.505003 0.29785195 0.45783365 0 0 250 0 0 0 0
25.901945 0.30992872 0.47872576 0 0 250 0 0 0 0
27.299191 0.30942667 0.49215001 0 0 250 0 0 0 0
28.680193 0.32808092 0.51638967 0 0 250 0 0 0 0
30.094189 0.33349681 0.54395473 0 0 250 0 0 0 0
31.506409 0.35177171 0.5782277 0 0 250 0 0 0 0
32.909389 0.36553392 0.60757905 0 0 250 0 0 0 0
34.306271 0.38388905 0.63618302 0 0 250 0 0 0 0
35.729908 0.39272079 0.67111486 0 0 250 0 0 0 0
37.14069 0.40132385 0.69903046 0 0 250 0 0 0 0
38.562691 0.42176038 0.72641414 0 0 250 0 0 0 0
39.995899 0.43650126 0.74950314 0 0 250 0 0 0 0
41.412922 0.44956675 0.77728671 0 0 250 0 0 0 0
42.839966 0.45842355 0.81072092 0 0 250 0 0 0 0
44.277004 0.48069954 0.84001583 0 0 250 0 0 0 0
45.684494 0.50233364 0.87510341 0 0 250 0 0 0 0
47.103775 0.52488345 0.90587044 0 0 250 0 0 0 0
48.525394 0.54078859 0.92971617 0 0 250 0 0 0 0
49.970192 0.55547422 0.96115458 0 0 250 0 0 0 0
51.41473 0.58242434 0.9858216 0 0 250 0 0 0 0
52.88266 0.60022628 1.0147719 0 0 250 0 0 0 0
54.345043 0.62369716 1.0439047 0 0 250 0 0 0 0
55.810291 0.64150202 1.0730187 0 0 250 0 0 0 0
57.263222 0.67375982 1.097474 0 0 250 0 0 0 0
58.72216 0.68208337 1.1321833 0 0 250 0 0 0 0
60.172409 0.7068674 1.1570716 0 0 250 0 0 0 0
61.617264 0.73177314 1.1819764 0 0 250 0 0 0 0
63.056732 0.75007945 1.2059669 0 0 250 0 0 0 0
64.489754 0.77072686 1.2334766 0 0 250 0 0 0 0
65.92012 0.79336298 1.2691433 0 0 250 0 0 0 0
67.36821 0.81890422 1.2801347 0 0 250 0 0 0 0
68.791252 0.83547038 1.3089265 0 0 250 0 0 0 0
70.186424 0.86587584 1.3409021 0 0 250 0 0 0 0
71.624001 0.88485014 1.3604119 0 0 250 0 0 0 0
73.057655 0.91067487 1.3824973 0 0 250 0 0 0 0
74.477905 0.92763227 1.40608 0 0 250 0 0 0 0
75.924355 0.93278807 1.4296961 0 0 250 0 0 0 0
77.362823 0.94330728 1.4542778 0 0 250 0 0 0 0
78.788872 0.96095437 1.4740224 0 0 250 0 0 0 0
80.184166 0.98159456 1.5025473 0 0 250 0 0 0 0
81.58683 1.0046777 1.5314097 0 0 250 0 0 0 0
83.004295 1.0109674 1.556863 0 0 250 0 0 0 0
84.39991 1.0252972 1.5824 0 0 250 0 0 0 0
85.811073 1.0447028 1.5955051 0 0 250 0 0 0 0
87.243141 1.0487354 1.6189837 0 0 250 0 0 0 0
88.625031 1.069369 1.6437448 0 0 250 0 0 0 0
90.023895 1.0784949 1.6614883 0 0 250 0 0 0 0
91.40844 1.0878315 1.6897784 0 0 250 0 0 0 0
92.820923 1.1056013 1.7102238 0 0 250 0 0 0 0
94.223869 1.1207061 1.7259605 0 0 250 0 0 0 0
95.611687 1.1391932 1.7508192 0 0 250 0 0 0 0
96.993355 1.1600833 1.7763255 0 0 250 0 0 0 0
98.376595 1.1840316 1.8025504 0 0 250 0 0 0 0
99.736244 1.2189016 1.825846 0 0 250 0 0 0 0
101.09501 1.24652 1.8495411 0 0 250 0 0 0 0
102.45494 1.2812027 1.8709414 0 0 250 0 0 0 0
103.80389 1.3060683 1.8986598 0 0 250 0 0 0 0
105.16579 1.3123997 1.9257218 0 0 250 0 0 0 0
106.53266 1.342958 1.9488171 0 0 250 0 0 0 0
107.89906 1.3583117 1.9745913 0 0 250 0 0 0 0
109.27451 1.377138 1.9932358 0 0 250 0 0 0 0
110.62789 1.39252 2.0138912 0 0 250 0 0 0 0
111.98244 1.4205806 2.0399826 0 0 250 0 0 0 0
113.34826 1.439975 2.0649102 0 0 250 0 0 0 0
114.69736 1.4655675 2.0961237 0 0 250 0 0 0 0
116.0709 1.4829195 2.1207623 0 0 250 0 0 0 0
117.39984 1.4950984 2.1539037 0 0 250 0 0 0 0
118.75555 1.5030721 2.1759026 0 0 250 0 0 0 0
120.10424 1.5155842 2.1996779 0 0 250 0 0 0 0
121.48112 1.508162 2.2203641 0 0 250 0 0 0 0
122.84643 1.5096933 2.2468743 0 0 250 0 0 0 0
124.19755 1.5152334 2.2677398 0 0 250 0 0 0 0
125.58973 1.5155462 2.2936609 0 0 250 0 0 0 0
126.94537 1.5178337 2.3218715 0 0 250 0 0 0 0
128.30229 1.5176404 2.3490655 0 0 250 0 0 0 0
129.68408 1.5181493 2.3757014 0 0 250 0 0 0 0
131.04553 1.5186511 2.4054012 0 0 250 0 0 0 0
132.42264 1.5138857 2.425487 0 0 250 0 0 0 0
133.80968 1.5189849 2.4534266 0 0 250 0 0 0 0
135.18781 1.5231611 2.4708443 0 0 250 0 0 0 0
136.56441 1.5182034 2.5043914 0 0 250 0 0 0 0
137.92775 1.5242039 2.5274122 0 0 250 0 0 0 0
139.30765 1.5319923 2.5532491 0 0 250 0 0 0 0
140.70221 1.53153 2.579021 0 0 250 0 0 0 0
142.06747 1.5302695 2.6063719 0 0 250 0 0 0 0
143.42847 1.5381733 2.632189 0 0 250 0 0 0 0
144.79593 1.5453914 2.6606171 0 0 250 0 0 0 0
146.15523 1.5598509 2.6899393 0 0 250 0 0 0 0
147.5421 1.5509666 2.720211 0 0 250 0 0 0 0
148.91325 1.5583589 2.7429924 0 0 250 0 0 0 0
150.28821 1.5464078 2.7661695 0 0 250 0 0 0 0
151.65707 1.5484805 2.7970126 0 0 250 0 0 0 0
153.04424 1.5619522 2.8197913 0 0 250 0 0 0 0
154.41496 1.5716437 2.8688331 0 0 250 0 0 0 0
155.79674 1.5849944 2.902777 0 0 250 0 0 0 0
157.17696 1.5881989 2.9393926 0 0 250 0 0 0 0
158.55283 1.5850267 2.9691067 0 0 250 0 0 0 0
159.93246 1.5883061 2.9913647 0 0 250 0 0 0 0
161.30527 1.59391 3.0094199 0 0 250 0 0 0 0
162.67313 1.6009007 3.0437057 0 0 250 0 0 0 0
164.03616 1.6199863 3.0675621 0 0 250 0 0 0 0
165.38837 1.6357808 3.0975697 0 0 250 0 0 0 0
166.7433 1.646811 3.1244855 0 0 250 0 0 0 0
168.14339 1.6423601 3.1505597 0 0 250 0 0 0 0
169.53026 1.6407186 3.1718013 0 0 250 0 0 0 0
170.90947 1.6483043 3.2068431 0 0 250 0 0 0 0
172.29529 1.6554186 3.2408884 0 0 250 0 0 0 0
173.6776 1.6823822 3.2742236 0 0 250 0 0 0 0
175.07021 1.6921529 3.311682 0 0 250 0 0 0 0
176.46606 1.7107513 3.3456864 0 0 250 0 0 0 0
177.86545 1.7254804 3.3817341 0 0 250 0 0 0 0
179.27676 1.7250224 3.4086399 0 0 250 0 0 0 0
180.67912 1.7337227 3.4392064 0 0 250 0 0 0 0
182.09038 1.7403252 3.471426 0 0 250 0 0 0 0
183.49216 1.7624692 3.5119603 0 0 250 0 0 0 0
184.9173 1.7837414 3.5489063 0 0 250 0 0 0 0
186.35469 1.8049129 3.5881615 0 0 250 0 0 0 0
187.78703 1.8212495 3.6203156 0 0 250 0 0 0 0
189.22894 1.8353546 3.6544697 0 0 250 0 0 0 0
190.66325 1.8431245 3.6796265 0 0 250 0 0 0 0
192.08604 1.8530566 3.7131283 0 0 250 0 0 0 0
193.52098 1.8639909 3.7476435 0 0 250 0 0 0 0
194.97366 1.8750058 3.7706051 0 0 250 0 0 0 0
196.40993 1.8942889 3.7897499 0 0 250 0 0 0 0
197.8976 1.8859787 3.8147578 0 0 250 0 0 0 0
199.35777 1.8904039 3.8423009 0 0 250 0 0 0 0
200.80568 1.8957158 3.8782144 0 0 250 0 0 0 0
202.26302 1.9228939 3.9083512 0 0 250 0 0 0 0
203.71005 1.9469475 3.9496934 0 0 250 0 0 0 0
205.17497 1.972801 3.9870708 0 0 250 0 0 0 0
206.62915 1.9854718 4.0225549 0 0 250 0 0 0 0
208.08948 1.9905459 4.0525708 0 0 250 0 0 0 0
209.5732 1.9937766 4.0886078 0 0 250 0 0 0 0
211.05872 2.0011508 4.1191697 0 0 250 0 0 0 0
212.53314 2.0185983 4.1511259 0 0 250 0 0 0 0
214.01889 2.0271759 4.1809545 0 0 250 0 0 0 0
215.50914 2.048068 4.2145662 0 0 250 0 0 0 0
217.00157 2.0644326 4.2588639 0 0 250 0 0 0 0
218.47115 2.0757489 4.2965136 0 0 250 0 0 0 0
219.98192 2.089596 4.32621 0 0 250 0 0 0 0
221.4758 2.1059067 4.3660269 0 0 250 0 0 0 0
222.97411 2.1165917 4.4085155 0 0 250 0 0 0 0
224.47034 2.1376398 4.4482512 0 0 250 0 0 0 0
225.97873 2.1546516 4.488174 0 0 250 0 0 0 0
227.49007 2.1688278 4.5243754 0 0 250 0 0 0 0
228.98991 2.1908052 4.5606771 0 0 250 0 0 0 0
230.50249 2.2165172 4.6006494 0 0 250 0 0 0 0
232.02493 2.237699 4.6410971 0 0 250 0 0 0 0
233.54309 2.2658792 4.6841574 0 0 250 0 0 0 0
235.08791 2.2735307 4.7199244 0 0 250 0 0 0 0
236.62064 2.3027666 4.7545958 0 0 250 0 0 0 0
238.13557 2.3226852 4.7956533 0 0 250 0 0 0 0
239.67122 2.3281131 4.83956 0 0 250 0 0 0 0
241.18211 2.3637321 4.8789501 0 0 250 0 0 0 0
242.70815 2.3759003 4.9196782 0 0 250 0 0 0 0
244.24257 2.3925316 4.9533801 0 0 250 0 0 0 0
245.78476 2.411293 4.9894071 0 0 250 0 0 0 0
247.31137 2.4289076 5.0279174 0 0 250 0 0 0 0
248.8833 2.442421 5.0685053 0 0 250 0 0 0 0
250.43095 2.4575913 5.1050296 0 0 250 0 0 0 0
252.00383 2.4857421 5.1377707 0 0 250 0 0 0 0
253.55254 2.4909639 5.172101 0 0 250 0 0 0 0
255.11833 2.5006249 5.2143955 0 0 250 0 0 0 0
256.66916 2.5257747 5.2572412 0 0 250 0 0 0 0
258.23453 2.5375903 5.2975812 0 0 250 0 0 0 0
259.79388 2.5454426 5.3327608 0 0 250 0 0 0 0
261.34476 2.5471032 5.361774 0 0 250 0 0 0 0
262.87961 2.5831769 5.407548 0 0 250 0 0 0 0
264.44409 2.5949321 5.4426112 0 0 250 0 0 0 0
266.00919 2.617646 5.4898686 0 0 250 0 0 0 0
267.57309 2.6218193 5.5218015 0 0 250 0 0 0 0
269.11133 2.6342025 5.5555797 0 0 250 0 0 0 0
270.70773 2.6313722 5.5713344 0 0 250 0 0 0 0
272.2789 2.6281598 5.6046629 0 0 250 0 0 0 0
273.84689 2.6422105 5.6400323 0 0 250 0 0 0 0
275.39386 2.6601117 5.6769991 0 0 250 0 0 0 0
276.952 2.6748934 5.7139177 0 0 250 0 0 0 0
278.51654 2.681005 5.7522173 0 0 250 0 0 0 0
280.09067 2.6789744 5.7931781 0 0 250 0 0 0 0
281.66217 2.6791432 5.8271589 0 0 250 0 0 0 0
283.23318 2.6794364 5.865449 0 0 250 0 0 0 0
284.83511 2.6550748 5.898087 0 0 250 0 0 0 0
286.41852 2.6468563 5.935452 0 0 250 0 0 0 0
288.02658 2.6531665 5.9634089 0 0 250 0 0 0 0
289.6153 2.6512303 5.9995074 0 0 250 0 0 0 0
291.21262 2.6469653 6.0352445 0 0 250 0 0 0 0
292.79138 2.6365752 6.0748029 0 0 250 0 0 0 0
294.37082 2.6380844 6.1133986 0 0 250 0 0 0 0
295.94455 2.6490703 6.1594262 0 0 250 0 0 0 0
297.54779 2.6440458 6.1937547 0 0 250 0 0 0 0
299.14536 2.6459653 6.2265086 0 0 250 0 0 0 0
300.74255 2.6406193 6.2652116 0 0 250 0 0 0 0
302.34753 2.653796 6.3092675 0 0 250 0 0 0 0
303.95605 2.6463654 6.352499 0 0 250 0 0 0 0
305.56198 2.6595719 6.3791556 0 0 250 0 0 0 0
307.17178 2.6617806 6.4127774 0 0 250 0 0 0 0
308.78329 2.6700015 6.4436126 0 0 250 0 0 0 0
310.41574 2.6692109 6.4711914 0 0 250 0 0 0 0
312.02423 2.6606965 6.5160871 0 0 250 0 0 0 0
313.6431 2.6759095 6.553977 0 0 250 0 0 0 0
315.24582 2.6945961 6.6052761 0 0 250 0 0 0 0
316.90546 2.7004354 6.6403022 0 0 250 0 0 0 0
318.57544 2.7121196 6.6819553 0 0 250 0 0 0 0
320.23511 2.7220354 6.7173948 0 0 250 0 0 0 0
321.89771 2.7256753 6.7503452 0 0 250 0 0 0 0
323.53561 2.7361307 6.7875862 0 0 250 0 0 0 0
325.18378 2.7520862 6.8200426 0 0 250 0 0 0 0
326.83795 2.773155 6.8574634 0 0 250 0 0 0 0
328.48544 2.7794623 6.8983979 0 0 250 0 0 0 0
330.14297 2.8026836 6.930057 0 0 250 0 0 0 0
331.7926 2.8111401 6.9795923 0 0 250 0 0 0 0
333.42621 2.8318145 7.0222893 0 0 250 0 0 0 0
335.05185 2.8524401 7.056407 0 0 250 0 0 0 0
336.69846 2.8578546 7.093801 0 0 250 0 0 0 0
338.34814 2.8695452 7.1299438 0 0 250 0 0 0 0
339.98694 2.8846974 7.1696653 0 0 250 0 0 0 0
341.61349 2.9058197 7.2141995 0 0 250 0 0 0 0
343.25711 2.9190199 7.2508721 0 0 250 0 0 0 0
344.8876 2.9274318 7.2940578 0 0 250 0 0 0 0
346.52206 2.9566073 7.3322997 0 0 250 0 0 0 0
348.14703 2.9693995 7.3665128 0 0 250 0 0 0 0
349.75543 2.9843295 7.4031987 0 0 250 0 0 0 0
351.40622 2.9979143 7.4397726 0 0 250 0 0 0 0
353.02673 3.0170352 7.4755464 0 0 250 0 0 0 0
354.64108 3.042412 7.5091553 0 0 250 0 0 0 0
356.27399 3.0614552 7.5477004 0 0 250 0 0 0 0
357.8812 3.0852103 7.5918446 0 0 250 0 0 0 0
359.49915 3.1154027 7.6276875 0 0 250 0 0 0 0
361.10349 3.1375139 7.668407 0 0 250 0 0 0 0
362.74197 3.1736341 7.7007203 0 0 250 0 0 0 0
364.37082 3.2057023 7.7411065 0 0 250 0 0 0 0
365.98672 3.2308879 7.7785764 0 0 250 0 0 0 0
367.5878 3.2647142 7.8168421 0 0 250 0 0 0 0
369.19461 3.283175 7.8618979 0 0 250 0 0 0 0
370.81726 3.3105164 7.9022517 0 0 250 0 0 0 0
372.43182 3.3392382 7.9340196 0 0 250 0 0 0 0
374.05643 3.3577888 7.9659209 0 0 250 0 0 0 0
375.69788 3.3801844 8.0042973 0 0 250 0 0 0 0
377.33591 3.4054856 8.0389147 0 0 250 0 0 0 0
378.96512 3.4382334 8.0840797 0 0 250 0 0 0 0
380.58954 3.465831 8.1212397 0 0 250 0 0 0 0
382.24609 3.4840569 8.1647758 0 0 250 0 0 0 0
383.88879 3.5086031 8.2103596 0 0 250 0 0 0 0
385.53134 3.5259697 8.2541723 0 0 250 0 0 0 0
387.17227 3.5619764 8.2941074 0 0 250 0 0 0 0
388.79428 3.5945387 8.3323269 0 0 250 0 0 0 0
390.43741 3.6122832 8.3621254 0 0 250 0 0 0 0
392.08853 3.6310322 8.3992243 0 0 250 0 0 0 0
393.75131 3.6552277 8.430439 0 0 250 0 0 0 0
395.4108 3.6754117 8.4656506 0 0 250 0 0 0 0
397.07758 3.6897953 8.5063381 0 0 250 0 0 0 0
398.73907 3.7142389 8.5479078 0 0 250 0 0 0 0
0 0 0 1 0 0 0 1 0 0 0 1 0 0 0 0 0 269 1 0 0
