ply
format ascii 1.0
comment PCL generated
element vertex 271
property float x
property float y
property float z
property uchar red
property uchar green
property uchar blue
property float nx
property float ny
property float nz
property float curvature
element camera 1
property float view_px
property float view_py
property float view_pz
property float x_axisx
property float x_axisy
property float x_axisz
property float y_axisx
property float y_axisy
property float y_axisz
property float z_axisx
property float z_axisy
property float z_axisz
property float focal
property float scalex
property float scaley
property float centerx
property float centery
property int viewportx
property int viewporty
property float k1
property float k2
end_header
0 0 0 0 250 0 0 -0 0 0
-0.0023093845 1.181542 -0.015809732 0 250 0 -0.0013097925 7.8619836e-05 0.00013784471 0
-0.016901392 2.3501792 -0.036992513 0 250 0 -0.001355557 1.6559381e-05 0.0012746692 0
-0.015974108 3.5156577 -0.066133991 0 250 0 -0.00054616248 -0.00030291511 0.0033393963 0
-0.021717558 4.705019 -0.086157016 0 250 0 -0.00047232219 -7.1775445e-05 0.0034381282 0
-0.026449976 5.8831396 -0.10438212 0 250 0 -0.0012353203 -1.2458251e-05 0.0042908071 0
-0.029729314 7.0792642 -0.11937678 0 250 0 -0.002219582 0.00029405608 0.0056202887 0
-0.028376574 8.3001814 -0.12948732 0 250 0 -0.0023949763 0.0001080218 0.0048366152 0
-0.030327069 9.4801397 -0.14794496 0 250 0 -0.00089964981 -0.00036889286 0.0042188312 0
-0.044273935 10.687157 -0.17015554 0 250 0 0.0011423083 -0.00022025933 0.0013372108 0
-0.053847846 11.873874 -0.19879524 0 250 0 0.0018351392 7.5945492e-05 -0.0017501455 0
-0.061363507 13.06482 -0.21135297 0 250 0 0.0021395013 0.00012195273 -0.0043038321 0
-0.075844914 14.250033 -0.23483367 0 250 0 0.0013949556 0.00035330199 -0.0052863327 0
-0.067242555 15.460999 -0.25493416 0 250 0 -0.00155055 0.00045903912 -0.0031241376 0
-0.061241969 16.660135 -0.27558959 0 250 0 -0.0033253073 0.00016537285 0.0011911481 0
-0.059242655 17.869368 -0.2986609 0 250 0 -0.0012175752 -0.00028008831 0.0040536569 0
-0.051103286 19.092531 -0.31353992 0 250 0 0.00092876394 -0.00041646647 0.0047158035 0
-0.050480753 20.323601 -0.33707547 0 250 0 0.0024827218 -1.7881159e-05 0.0028547356 0
-0.060566273 21.545933 -0.3610236 0 250 0 0.00026194568 0.00081372645 0.00035349315 0
-0.065394431 22.773226 -0.38805389 0 250 0 -0.0036783987 0.0010974002 0.00021106165 0
-0.052896138 24.002043 -0.39105126 0 250 0 -0.0051892023 0.0010972338 0.0018857653 0
-0.053510215 25.205975 -0.40439516 0 250 0 -0.0034814002 0.00075466884 0.0055276137 0
-0.057136964 26.423132 -0.42531151 0 250 0 -0.001411726 0.00070655358 0.0061764498 0
-0.05438621 27.649687 -0.44133171 0 250 0 0.0011883617 0.0010312534 0.0065270122 0
-0.061392531 28.875364 -0.46285468 0 250 0 0.0020592578 0.0017466695 0.0032094792 0
-0.065448336 30.122946 -0.47871584 0 250 0 0.0045398353 0.0022107163 0.0017736731 0
-0.071475804 31.355522 -0.50061297 0 250 0 0.0041754558 0.0023131929 0.00078134047 0
-0.078031681 32.576836 -0.52561092 0 250 0 0.0029537315 0.0023213939 0.00097089098 0
-0.078911744 33.840927 -0.54280674 0 250 0 0.0015334957 0.0019431555 -0.00032724143 0
-0.1083074 35.056976 -0.5704543 0 250 0 0.0012104333 0.00238577 -0.0025532243 0
-0.11969012 36.285561 -0.59642786 0 250 0 0.0015085912 0.0027369712 -0.0049269819 0
-0.12937377 37.533031 -0.61250108 0 250 0 0.001252306 0.002799738 -0.0075063864 0
-0.12697282 38.787041 -0.64085084 0 250 0 0.0011300789 0.0025454524 -0.007363264 0
-0.136425 40.011108 -0.66170716 0 250 0 0.0014540532 0.002277079 -0.0063209655 0
-0.13667747 41.274746 -0.68873876 0 250 0 0.0018204872 0.0016603178 -0.0054845694 0
-0.13461158 42.539711 -0.71360838 0 250 0 0.0014649362 0.0004933179 -0.0050955447 0
-0.13527997 43.796864 -0.73773438 0 250 0 0.0001127408 -0.00064568833 -0.0055799219 0
-0.14057745 45.064816 -0.76001245 0 250 0 0.00063807674 -0.0018205723 -0.0059903688 0
-0.15510701 46.30426 -0.77273649 0 250 0 0.0003531955 -0.0027142183 -0.0072958418 0
-0.16398805 47.579315 -0.80085969 0 250 0 -0.00045861662 -0.0039300327 -0.0066096555 0
-0.17195912 48.861961 -0.82918799 0 250 0 -0.0015445877 -0.0046879156 -0.0050029596 0
-0.18542971 50.128971 -0.84988439 0 250 0 -0.0017771109 -0.0049018553 -0.0031464256 0
-0.20330493 51.390526 -0.8770113 0 250 0 -0.0013867459 -0.0051319222 0.0001939504 0
-0.21723279 52.651337 -0.89975512 0 250 0 -0.0017692946 -0.0050791479 0.0010221743 0
-0.22914937 53.91991 -0.92872769 0 250 0 -0.0027491336 -0.0044794353 0.0028844972 0
-0.23555246 55.210644 -0.94773769 0 250 0 -0.0033501156 -0.0040960251 0.0034150407 0
-0.2401869 56.484783 -0.9747678 0 250 0 -0.0033779852 -0.0038228156 0.0053642015 0
-0.25130421 57.726994 -0.99967092 0 250 0 -0.0031235332 -0.0034704898 0.006955354 0
-0.25069636 59.000446 -1.0153627 0 250 0 -0.0026405081 -0.0031488806 0.0068562827 0
-0.26294824 60.267475 -1.0357527 0 250 0 -0.0023313113 -0.0020922399 0.0050140931 0
-0.27546817 61.526482 -1.0537325 0 250 0 -0.0034541492 -0.0016096528 0.0019135044 0
-0.28399587 62.746906 -1.0768756 0 250 0 -0.0048259883 -0.0011157952 -0.00064412056 0
-0.287155 64.012192 -1.094409 0 250 0 -0.0052508018 -0.00070319598 -0.004140208 0
-0.29761949 65.291779 -1.1184863 0 250 0 -0.00503546 -4.0668358e-05 -0.0086960709 0
-0.30903968 66.524811 -1.1419508 0 250 0 -0.0047988626 0.00047931456 -0.011688856 0
-0.31323427 67.781189 -1.1627408 0 250 0 -0.0050653312 0.00081985584 -0.013449496 0
-0.32501793 68.996094 -1.1831259 0 250 0 -0.0056883981 0.0012879334 -0.013586272 0
-0.32423195 70.243896 -1.1956732 0 250 0 -0.0053115729 0.001378407 -0.013018481 0
-0.33346173 71.490196 -1.2102858 0 250 0 -0.0045436351 0.0014560455 -0.011645814 0
-0.33512905 72.74968 -1.2273065 0 250 0 -0.0046025133 0.0010224638 -0.010137078 0
-0.34008464 73.987564 -1.244428 0 250 0 -0.0049437559 0.00054688979 -0.0092795976 0
-0.34972718 75.191231 -1.2612194 0 250 0 -0.0044407165 3.4928004e-08 -0.0091605457 0
-0.36521479 76.440643 -1.2704439 0 250 0 -0.0043231309 -0.00051879563 -0.0094907498 0
-0.36621982 77.738258 -1.2773644 0 250 0 -0.0048298095 -0.0015624514 -0.0082206354 0
-0.37330058 78.957237 -1.2947711 0 250 0 -0.0059026163 -0.0027417089 -0.0066528292 0
-0.38130823 80.173935 -1.3139793 0 250 0 -0.0065080174 -0.0038052651 -0.0043341885 0
-0.39278647 81.379044 -1.3361523 0 250 0 -0.0067506679 -0.0044166381 -0.0023076984 0
-0.4097366 82.586517 -1.3548036 0 250 0 -0.0062332726 -0.0045629907 -0.0016843618 0
-0.41675454 83.825203 -1.3686726 0 250 0 -0.0055955146 -0.0049434532 -0.00076211657 0
-0.43678829 85.000565 -1.3896108 0 250 0 -0.0047750445 -0.0048438353 -0.0015177988 0
-0.4431735 86.194984 -1.4038109 0 250 0 -0.0038069424 -0.0053320723 -0.0015539487 0
-0.45738864 87.395416 -1.4319497 0 250 0 -0.0036932938 -0.0052108942 -0.0015833332 0
-0.47037351 88.601791 -1.4549104 0 250 0 -0.0041537378 -0.0050691199 -0.0028512646 0
-0.47865206 89.8088 -1.4719186 0 250 0 -0.0054036141 -0.0050564781 -0.0036869554 0
-0.49407291 91.024384 -1.4847236 0 250 0 -0.0065560499 -0.0047562243 -0.0049827043 0
-0.51719576 92.238876 -1.5031655 0 250 0 -0.0050844154 -0.0041397363 -0.004637287 0
-0.52623355 93.442101 -1.5144157 0 250 0 -0.0023405943 -0.0041806349 -0.0041603493 0
-0.54618478 94.624458 -1.5322905 0 250 0 -0.00097397476 -0.0039737602 -0.0034778779 0
-0.55695474 95.804222 -1.5436875 0 250 0 -0.0019287036 -0.0036148005 -0.0020462521 0
-0.56522459 97.00309 -1.5639293 0 250 0 -0.0039722635 -0.0029227072 0.00059086742 0
-0.56798214 98.205185 -1.5895697 0 250 0 -0.0047025136 -0.0022621604 0.0017408108 0
-0.57705873 99.38044 -1.6068957 0 250 0 -0.0031575586 -0.0014022287 0.0034035954 0
-0.57934958 100.57405 -1.6360315 0 250 0 -0.0013124765 -0.00090855511 0.0021267855 0
-0.57867676 101.81109 -1.6463523 0 250 0 0.0010617587 0.00019867071 -0.00044818252 0
-0.59242749 102.98653 -1.6673715 0 250 0 0.00091664708 0.0016790569 -0.0042034602 0
-0.59105641 104.19938 -1.7015231 0 250 0 -0.0013130798 0.0029039183 -0.004291499 0
-0.59656781 105.35026 -1.7248111 0 250 0 -0.003741774 0.0040169707 -0.0040532174 0
-0.59451735 106.54983 -1.7351711 0 250 0 -0.0039583882 0.004959479 -0.0041601341 0
-0.59352672 107.73379 -1.7470745 0 250 0 -0.0030976322 0.005917714 -0.0049792137 0
-0.60195833 108.91785 -1.7650672 0 250 0 -0.0026246111 0.0073177232 -0.0072283167 0
-0.60376525 110.0525 -1.7949805 0 250 0 -0.0028135991 0.0084542595 -0.0097414386 0
-0.60786933 111.24889 -1.8075722 0 250 0 -0.0016266082 0.0097481841 -0.010437669 0
-0.59479594 112.43624 -1.8192508 0 250 0 -0.00035411157 0.010584579 -0.012250852 0
-0.59373105 113.60522 -1.8327733 0 250 0 -3.5382694e-05 0.011709827 -0.011362014 0
-0.59306717 114.80209 -1.8487968 0 250 0 -0.00081424112 0.012704626 -0.01129572 0
-0.58812517 115.99042 -1.8692533 0 250 0 -0.0015964388 0.013679379 -0.010522322 0
-0.57356459 117.15978 -1.8922191 0 250 0 -0.0021498397 0.013653927 -0.0090834638 0
-0.55628163 118.36013 -1.9041408 0 250 0 -0.0019209924 0.013437254 -0.0071012871 0
-0.55958927 119.56351 -1.9206717 0 250 0 -0.002493138 0.013562236 -0.0055045881 0
-0.54735476 120.76637 -1.938355 0 250 0 -0.0019943491 0.013179381 -0.0042435075 0
-0.54194838 121.95831 -1.9510902 0 250 0 -0.0015061002 0.012235362 -0.0032111029 0
-0.52643013 123.18541 -1.9790459 0 250 0 -0.0027758509 0.010914771 -0.0014371967 0
-0.52001315 124.36681 -2.0001035 0 250 0 -0.003018179 0.0098238243 9.8304605e-05 0
-0.51474833 125.59944 -2.0178924 0 250 0 -0.0030109733 0.0080029564 0.00055884366 0
-0.50382102 126.80451 -2.0334134 0 250 0 -0.0025230611 0.0065406468 0.00084485678 0
-0.49518171 128.01089 -2.0565348 0 250 0 -0.0021758997 0.0054788142 0.0012878415 0
-0.49232414 129.20378 -2.0750751 0 250 0 0.00027217498 0.0045942599 0.0040676617 0
-0.48792395 130.39104 -2.0924625 0 250 0 0.00078570883 0.0034787506 0.0091385422 0
-0.48527005 131.59473 -2.1193242 0 250 0 -0.0016809694 0.0027891188 0.01675936 0
-0.46800467 132.81438 -2.1455781 0 250 0 -0.0032291329 0.0010595465 0.024188209 0
-0.46589079 133.98732 -2.171948 0 250 0 -0.00023535753 -7.6050164e-05 0.027786335 0
-0.47453636 135.17903 -2.1917894 0 250 0 0.0029604773 0.00013357011 0.027186908 0
-0.47770619 136.36969 -2.2235789 0 250 0 0.0048277681 0.00066097773 0.024829347 0
-0.48197636 137.56451 -2.2476273 0 250 0 0.0048578107 0.0014013733 0.02477641 0
-0.4858236 138.75655 -2.2840035 0 250 0 0.001061476 0.0020602315 0.02878313 0
-0.48777506 139.97134 -2.3129852 0 250 0 -0.0020057831 0.0028342782 0.034782942 0
-0.47636017 141.16801 -2.3351529 0 250 0 -0.0034007989 0.0027015547 0.03862004 0
-0.47246125 142.35942 -2.3472178 0 250 0 -0.0029347639 0.0029241813 0.039002351 0
-0.47738126 143.53781 -2.369163 0 250 0 -0.0040514409 0.0038350618 0.037871275 0
-0.47093523 144.74873 -2.4013276 0 250 0 -0.0034754789 0.0047397795 0.034737445 0
-0.47136259 145.94879 -2.4192123 0 250 0 -0.0013145928 0.0054679164 0.031732395 0
-0.46837631 147.17146 -2.4404118 0 250 0 -0.00059124862 0.0062162043 0.027756574 0
-0.46548456 148.39285 -2.4575727 0 250 0 -0.0016569603 0.0064340751 0.025537336 0
-0.46351525 149.61729 -2.4877496 0 250 0 -0.0015500247 0.0060777445 0.02390508 0
-0.45283431 150.84093 -2.5049331 0 250 0 0.0011931768 0.0054275999 0.021922674 0
-0.45768407 152.05045 -2.5258243 0 250 0 0.0038822982 0.004857345 0.018035855 0
-0.4654102 153.28218 -2.5541556 0 250 0 0.0048770267 0.004785724 0.013016141 0
-0.46513334 154.49878 -2.5756197 0 250 0 0.0036793677 0.0049949968 0.0092573883 0
-0.47396681 155.71379 -2.5970352 0 250 0 0.0018465549 0.0059056571 0.0060710046 0
-0.46933377 156.95818 -2.6235664 0 250 0 -0.0004754879 0.0059283148 0.0050920439 0
-0.46435341 158.16415 -2.6427686 0 250 0 -0.0013306958 0.0050583491 0.0078728246 0
-0.46598119 159.39696 -2.6595035 0 250 0 -0.0014447332 0.003321049 0.010453617 0
-0.46982136 160.63544 -2.6850257 0 250 0 0.0026996601 0.0013358033 0.011628064 0
-0.47912776 161.85707 -2.7026494 0 250 0 0.0071022948 -8.4061183e-05 0.0097071538 0
-0.49098286 163.08569 -2.7234988 0 250 0 0.0079423217 -0.00079679338 0.0047924789 0
-0.49723172 164.34148 -2.7531376 0 250 0 0.0068129906 -0.00089550664 0.0017115781 0
-0.5208149 165.63759 -2.7744076 0 250 0 0.0033399058 -0.00066646241 -0.00020450656 0
-0.52892071 166.95201 -2.785594 0 250 0 0.0018404284 -0.00064527214 -0.0010243733 0
-0.52605635 168.23717 -2.8186502 0 250 0 0.00063820888 -0.00067650323 0.00028895072 0
-0.51166427 169.55351 -2.8504384 0 250 0 -0.00011757462 -0.0010440478 0.003039401 0
-0.51416117 170.81052 -2.8694692 0 250 0 -0.00058748736 -0.0011730756 0.0062510436 0
-0.50783241 172.10696 -2.8999438 0 250 0 -0.00066749559 -0.0013114902 0.0096444348 0
-0.5113551 173.3652 -2.9195218 0 250 0 -0.0016200931 -0.00094541162 0.013079594 0
-0.50544208 174.67189 -2.9349992 0 250 0 -0.0030580121 -0.00076434115 0.017682264 0
-0.51375157 175.92155 -2.9552598 0 250 0 -0.0030794258 -0.00027365421 0.020675229 0
-0.52712679 177.17677 -2.9785593 0 250 0 0.0013191515 0.00013615735 0.018446995 0
-0.52648056 178.45567 -2.9961953 0 250 0 0.0062115784 0.00012185374 0.011219919 0
-0.54088813 179.74899 -3.0229778 0 250 0 0.0062149353 0.0013259385 0.002041457 0
-0.57245094 181.0304 -3.0390646 0 250 0 0.0029163712 0.0033449756 -0.0062500811 0
-0.58657604 182.31163 -3.0589685 0 250 0 0.00089913502 0.0041700718 -0.0071491874 0
-0.5787316 183.6272 -3.0865893 0 250 0 0.00036939932 0.0034745666 -0.0048983474 0
-0.57087773 184.92731 -3.1074531 0 250 0 0.0005875873 0.0018484462 -0.0013772584 0
-0.57193923 186.22986 -3.1378157 0 250 0 0.00098737027 0.00087514456 0.00073823635 0
-0.58761752 187.50078 -3.1607513 0 250 0 0.0015199186 0.00068194588 -6.8978836e-05 0
-0.59601861 188.79231 -3.1770005 0 250 0 0.001361238 0.0004362473 -0.0020084267 0
-0.60427821 190.11057 -3.1968293 0 250 0 0.00049835071 0.00037765794 -0.0031629847 0
-0.6084736 191.39653 -3.2197933 0 250 0 0.0010639982 -1.8652654e-05 -0.0021888334 0
-0.62080628 192.70856 -3.2464206 0 250 0 0.0019209748 -0.00035650173 -0.0019293232 0
-0.62922007 194.02271 -3.2758667 0 250 0 0.0020660912 -0.00044219513 -0.0010471448 0
-0.64273977 195.31894 -3.3042595 0 250 0 0.0020284522 -0.00075255323 -0.0017204685 0
-0.65201795 196.61917 -3.3340716 0 250 0 0.0021131246 -0.00089007919 -0.002012315 0
-0.66281289 197.96397 -3.3625493 0 250 0 0.0020297458 -0.0012077416 -0.0020813684 0
-0.67177427 199.27147 -3.3904059 0 250 0 0.002353787 -0.0016422911 -0.0031841756 0
-0.68619573 200.58751 -3.3997302 0 250 0 0.0028719977 -0.0019510225 -0.0032331792 0
-0.69364142 201.9104 -3.4337542 0 250 0 0.0026618356 -0.0023934513 -0.0031174633 0
-0.70985341 203.23915 -3.4610317 0 250 0 0.0027925428 -0.0022676094 -0.0026617174 0
-0.71564364 204.5714 -3.489465 0 250 0 0.0026117538 -0.0022022501 -0.00046342175 0
-0.71817577 205.92567 -3.5150452 0 250 0 0.0023577253 -0.0021760787 0.00080597174 0
-0.7313056 207.26506 -3.5549088 0 250 0 0.0010937775 -0.0020418011 0.003017297 0
-0.7429381 208.60555 -3.5773234 0 250 0 0.001095326 -0.0021491358 0.0035614169 0
-0.74876326 209.94922 -3.606998 0 250 0 0.0013696682 -0.0023733471 0.0036861871 0
-0.75659055 211.30003 -3.6439123 0 250 0 0.0016716672 -0.0021446096 0.0036515652 0
-0.77045065 212.64198 -3.6732006 0 250 0 0.00086167338 -0.0017309393 0.0025592661 0
-0.77359378 214.01559 -3.6968663 0 250 0 -0.001268818 -0.0015541926 0.0034348443 0
-0.78299445 215.35741 -3.7126493 0 250 0 -0.0013875862 -0.00086502323 0.0035312853 0
-0.80017298 216.69205 -3.7333195 0 250 0 0.00037966453 1.7319636e-06 0.0031665128 0
-0.79760593 218.04739 -3.7684612 0 250 0 0.0012095696 0.00029372342 0.0025163493 0
-0.81172419 219.38672 -3.7951269 0 250 0 0.00072950381 0.00098336069 0.0013760427 0
-0.81071156 220.76407 -3.8146799 0 250 0 2.3186709e-05 0.00061123172 0.0014508518 0
-0.8136943 222.10721 -3.8349812 0 250 0 -0.00017313252 -9.8862751e-05 0.0017908642 0
-0.8251543 223.45662 -3.8543637 0 250 0 -7.6566612e-05 -0.00020921721 0.0016666082 0
-0.82928032 224.82272 -3.877903 0 250 0 -0.00032205787 -0.00012852771 0.00029450667 0
-0.84678 226.16628 -3.8979664 0 250 0 -9.0060508e-05 0.00022897605 -0.00068198505 0
-0.8510142 227.53551 -3.9156516 0 250 0 9.351271e-05 3.0505612e-06 -0.00097869569 0
-0.84290534 228.90944 -3.9237006 0 250 0 0.00031612217 -0.00065989333 -0.0012844951 0
-0.85474962 230.29617 -3.9469185 0 250 0 -9.3216724e-05 -0.00018602701 -2.1570402e-05 0
-0.86636257 231.64328 -3.9716418 0 250 0 -0.0009679604 0.00015766574 0.0026285232 0
-0.8648687 233.03708 -4.0045099 0 250 0 -0.00029899858 -0.00026140278 0.0046789339 0
-0.84848285 234.42369 -4.0304146 0 250 0 0.00050179887 -0.0014312972 0.0061727944 0
-0.84781176 235.8087 -4.0654616 0 250 0 -0.0017012738 -0.0014967031 0.0093005076 0
-0.85086042 237.21271 -4.0883136 0 250 0 -0.0034941423 -0.0012831804 0.011153662 0
-0.85338825 238.5889 -4.1156974 0 250 0 -0.002950636 -0.0014579651 0.012613488 0
-0.86240631 239.94017 -4.1369686 0 250 0 -0.0019338442 -0.00098961592 0.013126095 0
-0.8774361 241.29912 -4.1610179 0 250 0 -0.0017833529 -0.00018397949 0.013055451 0
-0.88551897 242.66861 -4.1855736 0 250 0 -0.0020378875 0.00076050701 0.011667178 0
-0.89905185 244.03159 -4.209949 0 250 0 -0.0019902501 0.0021488196 0.010073449 0
-0.90828782 245.3952 -4.2389455 0 250 0 -0.0019881278 0.0031729699 0.0087212166 0
-0.90425634 246.76672 -4.2637258 0 250 0 -0.0020261519 0.003782125 0.0095026959 0
-0.90033829 248.13573 -4.2895551 0 250 0 -0.0014397216 0.0046202433 0.0088259373 0
-0.90018815 249.51685 -4.3086319 0 250 0 -0.0008934185 0.0054507367 0.0096794544 0
-0.89524543 250.86755 -4.3343287 0 250 0 -0.001199581 0.0062107006 0.010337011 0
-0.89645463 252.28151 -4.3639302 0 250 0 -0.0024221081 0.0070412457 0.01156767 0
-0.89206123 253.65869 -4.3984103 0 250 0 -0.0031108705 0.0073559438 0.013334105 0
-0.87769985 255.0699 -4.421773 0 250 0 -0.00038303362 0.0069378871 0.01380601 0
-0.86936957 256.4458 -4.4401507 0 250 0 0.0020588667 0.0065482296 0.01460407 0
-0.8581627 257.83896 -4.4672689 0 250 0 0.0020923133 0.0057691569 0.015191041 0
-0.85356462 259.20596 -4.4903679 0 250 0 0.0023584976 0.0049565928 0.016573302 0
-0.84743792 260.61383 -4.5209231 0 250 0 0.002979876 0.0039132326 0.01658369 0
-0.85158616 262.01944 -4.546649 0 250 0 0.003321009 0.0033975737 0.016618486 0
-0.83676934 263.41577 -4.5878139 0 250 0 0.0024011764 0.0023657903 0.01710036 0
-0.83766836 264.80661 -4.6224818 0 250 0 0.0019350767 0.0010347479 0.017961865 0
-0.84070551 266.21588 -4.6465855 0 250 0 0.00057638821 -5.0930765e-05 0.018484037 0
-0.84888053 267.64853 -4.6654558 0 250 0 -0.00056865811 -0.0006218456 0.016823079 0
-0.8532775 269.06021 -4.6746216 0 250 0 -0.00020910925 -5.8205114e-05 0.017067708 0
-0.86784869 270.43884 -4.7097058 0 250 0 -0.00019449416 0.0010449619 0.016759306 0
-0.87176865 271.84418 -4.7349019 0 250 0 0.00020633324 0.0011195404 0.018451374 0
-0.86325282 273.26233 -4.7646818 0 250 0 0.0011639814 0.0010521564 0.019980861 0
-0.85635012 274.67572 -4.7884402 0 250 0 0.0032125879 0.0011739513 0.020529253 0
-0.86289549 276.13553 -4.8156447 0 250 0 0.0043410184 0.001068988 0.020961504 0
-0.86626321 277.5759 -4.8475599 0 250 0 0.0050765108 -0.0011582519 0.019988636 0
-0.88931727 279.01053 -4.8827758 0 250 0 0.0044813687 -0.0031205271 0.019178765 0
-0.91947663 280.40988 -4.9073658 0 250 0 0.0012231389 -0.0031310855 0.018445041 0
-0.92296147 281.89273 -4.9389691 0 250 0 -0.0018860354 -0.0027151585 0.020064615 0
-0.92884725 283.3743 -4.9602518 0 250 0 -0.0026210737 -0.0026206295 0.021111257 0
-0.93239802 284.82431 -4.9975033 0 250 0 -0.001689068 -0.0024752894 0.02209742 0
-0.93259865 286.31369 -5.0228772 0 250 0 -0.0016827789 -0.0025129591 0.023003284 0
-0.94684261 287.79837 -5.0445423 0 250 0 -0.0018753778 -0.0022396052 0.023299607 0
-0.97130644 289.24979 -5.0660734 0 250 0 -0.00171251 -0.001374568 0.023093756 0
-0.94300145 290.74908 -5.0941262 0 250 0 -0.00070774899 -0.0014817017 0.021315632 0
-0.94182867 292.21268 -5.1188369 0 250 0 -0.00011080164 -0.0010249983 0.020706655 0
-0.93769783 293.68225 -5.1547208 0 250 0 -0.0020846825 -0.00033099414 0.022058018 0
-0.94142884 295.11172 -5.1829543 0 250 0 -0.0031156824 -0.00019166952 0.023206994 0
-0.95432067 296.58878 -5.2189884 0 250 0 -0.0022115551 -0.00011600257 0.025240317 0
-0.96413982 298.03146 -5.2350411 0 250 0 -0.001908229 2.3997933e-05 0.02333986 0
-0.97320735 299.49246 -5.2665076 0 250 0 -1.7950399e-05 -0.00022059696 0.021799902 0
-0.98075318 300.94257 -5.2913189 0 250 0 0.0032239018 -0.00086956483 0.020841362 0
-0.98911637 302.37552 -5.3281307 0 250 0 0.0024596211 -0.0018402826 0.0194334 0
-0.99547184 303.82175 -5.3593287 0 250 0 -0.0015208161 -0.0029815845 0.018939067 0
-0.98479074 305.29565 -5.3702874 0 250 0 -0.0038108642 -0.004400427 0.017899023 0
-0.98616052 306.73364 -5.3949356 0 250 0 -0.0026158204 -0.0062798653 0.018060995 0
-1.0066824 308.18356 -5.4091563 0 250 0 -0.00064020342 -0.0078207571 0.018534411 0
-1.0240154 309.6272 -5.4373741 0 250 0 -0.0021588148 -0.0096856961 0.020329461 0
-1.0485613 311.04092 -5.4578085 0 250 0 -0.0023534207 -0.010719427 0.021984329 0
-1.0672162 312.45563 -5.4872789 0 250 0 -0.0015935105 -0.011236601 0.022212556 0
-1.1007974 313.89935 -5.5239868 0 250 0 -0.0010787708 -0.011267554 0.023077199 0
-1.1240934 315.32745 -5.5526633 0 250 0 -0.0010001786 -0.011429987 0.02351407 0
-1.1881913 316.73236 -5.5641975 0 250 0 -0.00026391918 -0.0099049509 0.023050424 0
-1.2116622 318.17477 -5.5987234 0 250 0 -1.6263966e-05 -0.0097826123 0.023790358 0
-1.2440997 319.58542 -5.6209579 0 250 0 0.00090812263 -0.0095359553 0.024018828 0
-1.2504606 321.04288 -5.6506109 0 250 0 0.00067946204 -0.009706419 0.024658738 0
-1.274034 322.46356 -5.6699972 0 250 0 0.0017609656 -0.0094787097 0.024585178 0
-1.2908088 323.86203 -5.6990404 0 250 0 0.0029270938 -0.009546604 0.026224699 0
-1.3267132 325.28015 -5.7274389 0 250 0 0.001266496 -0.008892335 0.027809562 0
-1.3462948 326.70358 -5.7604923 0 250 0 0.00027550446 -0.0086898934 0.02935932 0
-1.3730993 328.13297 -5.7799902 0 250 0 0.0015001125 -0.0084643988 0.030609723 0
-1.3877176 329.56042 -5.8160148 0 250 0 0.0018299016 -0.0082535334 0.029439226 0
-1.4158762 330.9747 -5.8458891 0 250 0 0.00095466967 -0.0075274091 0.027727077 0
-1.4239317 332.42761 -5.8789091 0 250 0 -1.8667673e-05 -0.0070876996 0.026624016 0
-1.4343954 333.85986 -5.9015722 0 250 0 0.00042976256 -0.0068213749 0.025904095 0
-1.4434562 335.31238 -5.9324255 0 250 0 0.0010723813 -0.0067035505 0.025893269 0
-1.4614754 336.73834 -5.9644203 0 250 0 0.0011684168 -0.0067243464 0.026074881 0
-1.4772226 338.17026 -5.9912515 0 250 0 0.0014061074 -0.0064617433 0.026038235 0
-1.4890004 339.62665 -6.0043077 0 250 0 0.0017486075 -0.0060437396 0.024192562 0
-1.5126028 341.05319 -6.0287304 0 250 0 0.0016164498 -0.0050295186 0.022494631 0
-1.5319266 342.47305 -6.0594902 0 250 0 0.0020455699 -0.0044610063 0.020364668 0
-1.5430142 343.89618 -6.0910392 0 250 0 0.002330893 -0.0042343368 0.019573404 0
-1.5564295 345.3204 -6.1152048 0 250 0 0.0025217282 -0.0040799631 0.018626258 0
-1.5757329 346.75305 -6.1441159 0 250 0 0.0013816416 -0.0041324217 0.017609457 0
-1.5897486 348.20114 -6.1690321 0 250 0 0.0013934617 -0.003759254 0.016540196 0
-1.6045642 349.6553 -6.189249 0 250 0 0.0020749811 -0.0033123163 0.014765128 0
-1.615517 351.07498 -6.2186937 0 250 0 0.0017382795 -0.0032548558 0.014601925 0
0 0 0 1 0 0 0 1 0 0 0 1 0 0 0 0 0 271 1 0 0
