ply
format ascii 1.0
comment PCL generated
element vertex 965
property float x
property float y
property float z
property uchar red
property uchar green
property uchar blue
property float nx
property float ny
property float nz
property float curvature
element camera 1
property float view_px
property float view_py
property float view_pz
property float x_axisx
property float x_axisy
property float x_axisz
property float y_axisx
property float y_axisy
property float y_axisz
property float z_axisx
property float z_axisy
property float z_axisz
property float focal
property float scalex
property float scaley
property float centerx
property float centery
property int viewportx
property int viewporty
property float k1
property float k2
end_header
5.5511151e-17 -4.4408921e-16 3.3306691e-16 0 0 250 0 0 0 0
-0.04690294 0.85869408 -0.028399279 0 0 250 0 0 0 0
-0.093743451 1.716275 -0.056760639 0 0 250 0 0 0 0
-0.1406429 2.574964 -0.085157618 0 0 250 0 0 0 0
-0.1874858 3.4326479 -0.1135202 0 0 250 0 0 0 0
-0.23438179 4.2913351 -0.14191499 0 0 250 0 0 0 0
-0.28121951 5.1489868 -0.1702743 0 0 250 0 0 0 0
-0.32811779 6.0077772 -0.1986703 0 0 250 0 0 0 0
-0.3749547 6.8654771 -0.227029 0 0 250 0 0 0 0
-0.4218367 7.7240362 -0.25541511 0 0 250 0 0 0 0
-0.46873289 8.5828857 -0.2838096 0 0 250 0 0 0 0
-0.51554739 9.4402752 -0.31215471 0 0 250 0 0 0 0
-0.56243098 10.29896 -0.3405416 0 0 250 0 0 0 0
-0.60930872 11.15757 -0.36892501 0 0 250 0 0 0 0
-0.65620518 12.01541 -0.39739639 0 0 250 0 0 0 0
-0.70187879 12.86965 -0.4239119 0 0 250 0 0 0 0
-0.74982411 13.73146 -0.4540039 0 0 250 0 0 0 0
-0.79925108 14.60026 -0.48407701 0 0 250 0 0 0 0
-0.85466421 15.47957 -0.51550698 0 0 250 0 0 0 0
-0.90728682 16.3694 -0.54647052 0 0 250 0 0 0 0
-0.96091628 17.268961 -0.57835948 0 0 250 0 0 0 0
-1.0115891 18.17318 -0.60924029 0 0 250 0 0 0 0
-1.066256 19.08411 -0.63873631 0 0 250 0 0 0 0
-1.118651 19.997219 -0.6686219 0 0 250 0 0 0 0
-1.17184 20.913679 -0.69907779 0 0 250 0 0 0 0
-1.224279 21.84042 -0.72874212 0 0 250 0 0 0 0
-1.280807 22.774321 -0.7604717 0 0 250 0 0 0 0
-1.334841 23.70953 -0.79296732 0 0 250 0 0 0 0
-1.385747 24.651751 -0.8209244 0 0 250 0 0 0 0
-1.436633 25.596939 -0.84562081 0 0 250 0 0 0 0
-1.487044 26.54471 -0.87021267 0 0 250 0 0 0 0
-1.538025 27.496269 -0.89711207 0 0 250 0 0 0 0
-1.586551 28.45466 -0.9254151 0 0 250 0 0 0 0
-1.633363 29.42293 -0.95556301 0 0 250 0 0 0 0
-1.680971 30.39839 -0.98383772 0 0 250 0 0 0 0
-1.728893 31.377649 -1.011772 0 0 250 0 0 0 0
-1.768976 32.35714 -1.036363 0 0 250 0 0 0 0
-1.815834 33.336311 -1.0597889 0 0 250 0 0 0 0
-1.870663 34.32021 -1.088016 0 0 250 0 0 0 0
-1.92978 35.330971 -1.12988 0 0 250 0 0 0 0
-1.9937479 36.387508 -1.194548 0 0 250 0 0 0 0
-2.0611119 37.428501 -1.249881 0 0 250 0 0 0 0
-2.1269529 38.471512 -1.305052 0 0 250 0 0 0 0
-2.1909671 39.503651 -1.349142 0 0 250 0 0 0 0
-2.256115 40.538551 -1.393047 0 0 250 0 0 0 0
-2.3299401 41.561111 -1.426813 0 0 250 0 0 0 0
-2.3997281 42.583031 -1.460731 0 0 250 0 0 0 0
-2.465214 43.593021 -1.489501 0 0 250 0 0 0 0
-2.5358851 44.5979 -1.52285 0 0 250 0 0 0 0
-2.6000161 45.59882 -1.559885 0 0 250 0 0 0 0
-2.661881 46.59803 -1.593756 0 0 250 0 0 0 0
-2.728914 47.592751 -1.629817 0 0 250 0 0 0 0
-2.8007939 48.57856 -1.664529 0 0 250 0 0 0 0
-2.871336 49.556 -1.697621 0 0 250 0 0 0 0
-2.9379351 50.537731 -1.729013 0 0 250 0 0 0 0
-3.0024631 51.518452 -1.766742 0 0 250 0 0 0 0
-3.0658441 52.49501 -1.7989939 0 0 250 0 0 0 0
-3.1301849 53.464981 -1.8300509 0 0 250 0 0 0 0
-3.19152 54.42804 -1.858398 0 0 250 0 0 0 0
-3.248811 55.391781 -1.886487 0 0 250 0 0 0 0
-3.3109219 56.350391 -1.913841 0 0 250 0 0 0 0
-3.3715141 57.312511 -1.938229 0 0 250 0 0 0 0
-3.4389939 58.273998 -1.956763 0 0 250 0 0 0 0
-3.511313 59.225399 -1.975962 0 0 250 0 0 0 0
-3.5791931 60.166328 -1.998111 0 0 250 0 0 0 0
-3.641784 61.091251 -2.021539 0 0 250 0 0 0 0
-3.7033839 62.006321 -2.049159 0 0 250 0 0 0 0
-3.7760351 62.916779 -2.078109 0 0 250 0 0 0 0
-3.84394 63.815189 -2.1120939 0 0 250 0 0 0 0
-3.9126019 64.697861 -2.1453531 0 0 250 0 0 0 0
-3.9782281 65.566719 -2.173835 0 0 250 0 0 0 0
-4.0466251 66.421631 -2.2014091 0 0 250 0 0 0 0
-4.1144419 67.264549 -2.2308221 0 0 250 0 0 0 0
-4.1799941 68.093277 -2.2583661 0 0 250 0 0 0 0
-4.2448559 68.909943 -2.2833099 0 0 250 0 0 0 0
-4.3130212 69.714241 -2.3078451 0 0 250 0 0 0 0
-4.3819351 70.507988 -2.3294761 0 0 250 0 0 0 0
-4.4455099 71.28437 -2.355391 0 0 250 0 0 0 0
-4.5148749 72.037354 -2.382091 0 0 250 0 0 0 0
-4.5802102 72.767906 -2.4097309 0 0 250 0 0 0 0
-4.6443429 73.480652 -2.432982 0 0 250 0 0 0 0
-4.7094941 74.175392 -2.459523 0 0 250 0 0 0 0
-4.7757301 74.851471 -2.4902771 0 0 250 0 0 0 0
-4.8375149 75.507439 -2.525955 0 0 250 0 0 0 0
-4.8918891 76.138283 -2.556654 0 0 250 0 0 0 0
-4.9376769 76.750099 -2.585469 0 0 250 0 0 0 0
-4.985837 77.344093 -2.6167419 0 0 250 0 0 0 0
-5.0390382 77.925339 -2.6460481 0 0 250 0 0 0 0
-5.092732 78.494637 -2.675699 0 0 250 0 0 0 0
-5.133801 79.04953 -2.7018399 0 0 250 0 0 0 0
-5.1597719 79.5923 -2.729207 0 0 250 0 0 0 0
-5.1833568 80.123039 -2.7567999 0 0 250 0 0 0 0
-5.2082691 80.634552 -2.7800219 0 0 250 0 0 0 0
-5.235209 81.135384 -2.8017271 0 0 250 0 0 0 0
-5.2488918 81.622864 -2.822088 0 0 250 0 0 0 0
-5.2368279 82.097008 -2.8398631 0 0 250 0 0 0 0
-5.207469 82.555939 -2.8593061 0 0 250 0 0 0 0
-5.1635432 83.008461 -2.8780041 0 0 250 0 0 0 0
-5.1056199 83.454536 -2.895751 0 0 250 0 0 0 0
-5.0295601 83.8853 -2.9119179 0 0 250 0 0 0 0
-4.934649 84.313377 -2.926167 0 0 250 0 0 0 0
-4.817297 84.728691 -2.942364 0 0 250 0 0 0 0
-4.6809378 85.118202 -2.9618549 0 0 250 0 0 0 0
-4.5191932 85.501709 -2.980545 0 0 250 0 0 0 0
-4.3363438 85.853729 -2.9952331 0 0 250 0 0 0 0
-4.1300888 86.200012 -3.006846 0 0 250 0 0 0 0
-3.9038661 86.525879 -3.018353 0 0 250 0 0 0 0
-3.6563799 86.812103 -3.030941 0 0 250 0 0 0 0
-3.3930659 87.095581 -3.048142 0 0 250 0 0 0 0
-3.1153929 87.345032 -3.0633581 0 0 250 0 0 0 0
-2.8178029 87.594009 -3.074584 0 0 250 0 0 0 0
-2.508137 87.820099 -3.08446 0 0 250 0 0 0 0
-2.1826019 88.008133 -3.0931489 0 0 250 0 0 0 0
-1.847638 88.187988 -3.103538 0 0 250 0 0 0 0
-1.511055 88.343491 -3.1165719 0 0 250 0 0 0 0
-1.1655819 88.502037 -3.1274271 0 0 250 0 0 0 0
-0.8110714 88.641586 -3.138031 0 0 250 0 0 0 0
-0.45002231 88.747948 -3.1462591 0 0 250 0 0 0 0
-0.07268361 88.839951 -3.1504581 0 0 250 0 0 0 0
0.3020916 88.930473 -3.1565859 0 0 250 0 0 0 0
0.67634499 89.023148 -3.1668351 0 0 250 0 0 0 0
1.050891 89.125031 -3.185174 0 0 250 0 0 0 0
1.4345829 89.210564 -3.205997 0 0 250 0 0 0 0
1.8329099 89.277153 -3.2221141 0 0 250 0 0 0 0
2.2407429 89.329498 -3.2342169 0 0 250 0 0 0 0
2.66275 89.372101 -3.232193 0 0 250 0 0 0 0
3.089762 89.418991 -3.233114 0 0 250 0 0 0 0
3.5367701 89.472221 -3.2470131 0 0 250 0 0 0 0
4.0021281 89.520592 -3.2697029 0 0 250 0 0 0 0
4.475771 89.556061 -3.2920771 0 0 250 0 0 0 0
4.962461 89.583412 -3.3116579 0 0 250 0 0 0 0
5.4600492 89.603317 -3.3275781 0 0 250 0 0 0 0
5.9745722 89.62101 -3.3446929 0 0 250 0 0 0 0
6.5046229 89.63826 -3.36274 0 0 250 0 0 0 0
7.0503812 89.654732 -3.3797669 0 0 250 0 0 0 0
7.6140928 89.671532 -3.394968 0 0 250 0 0 0 0
8.197957 89.687851 -3.409306 0 0 250 0 0 0 0
8.8009119 89.701668 -3.4261999 0 0 250 0 0 0 0
9.4202299 89.707863 -3.4422841 0 0 250 0 0 0 0
10.05978 89.71666 -3.4602921 0 0 250 0 0 0 0
10.71458 89.719543 -3.477648 0 0 250 0 0 0 0
11.38837 89.721451 -3.4951971 0 0 250 0 0 0 0
12.07462 89.720177 -3.5116179 0 0 250 0 0 0 0
12.7819 89.727287 -3.529809 0 0 250 0 0 0 0
13.50501 89.738678 -3.549541 0 0 250 0 0 0 0
14.24395 89.752388 -3.570045 0 0 250 0 0 0 0
15.0026 89.776314 -3.5953071 0 0 250 0 0 0 0
15.77368 89.80526 -3.621398 0 0 250 0 0 0 0
16.560551 89.843391 -3.645849 0 0 250 0 0 0 0
17.354731 89.883629 -3.669719 0 0 250 0 0 0 0
18.156509 89.929482 -3.696455 0 0 250 0 0 0 0
18.959961 89.978844 -3.7269959 0 0 250 0 0 0 0
19.76819 90.033379 -3.7586291 0 0 250 0 0 0 0
20.58193 90.082779 -3.789412 0 0 250 0 0 0 0
21.399469 90.132408 -3.8282011 0 0 250 0 0 0 0
22.21735 90.182693 -3.869642 0 0 250 0 0 0 0
23.034321 90.227692 -3.9087889 0 0 250 0 0 0 0
23.85148 90.273743 -3.9487109 0 0 250 0 0 0 0
24.666599 90.317322 -3.991884 0 0 250 0 0 0 0
25.478371 90.364998 -4.0315518 0 0 250 0 0 0 0
26.288799 90.41153 -4.0706749 0 0 250 0 0 0 0
27.10009 90.457817 -4.110043 0 0 250 0 0 0 0
27.90992 90.499222 -4.1492848 0 0 250 0 0 0 0
28.7218 90.537369 -4.1893721 0 0 250 0 0 0 0
29.53344 90.568024 -4.2277122 0 0 250 0 0 0 0
30.340321 90.58889 -4.26442 0 0 250 0 0 0 0
31.14204 90.602592 -4.2989612 0 0 250 0 0 0 0
31.943239 90.604088 -4.3325329 0 0 250 0 0 0 0
32.740688 90.598328 -4.3667998 0 0 250 0 0 0 0
33.532669 90.58651 -4.4009252 0 0 250 0 0 0 0
34.324242 90.562408 -4.4305139 0 0 250 0 0 0 0
35.11039 90.529617 -4.4601512 0 0 250 0 0 0 0
35.889149 90.490028 -4.4904652 0 0 250 0 0 0 0
36.663631 90.442528 -4.5198102 0 0 250 0 0 0 0
37.430828 90.386726 -4.5482569 0 0 250 0 0 0 0
38.189579 90.323608 -4.577147 0 0 250 0 0 0 0
38.940491 90.251648 -4.6070652 0 0 250 0 0 0 0
39.683632 90.176292 -4.6351519 0 0 250 0 0 0 0
40.418758 90.091759 -4.6640201 0 0 250 0 0 0 0
41.145741 90.002899 -4.6922102 0 0 250 0 0 0 0
41.863239 89.910309 -4.7217598 0 0 250 0 0 0 0
42.574829 89.816109 -4.7465792 0 0 250 0 0 0 0
43.274632 89.723991 -4.7700148 0 0 250 0 0 0 0
43.959461 89.634422 -4.7931161 0 0 250 0 0 0 0
44.631161 89.546494 -4.8152628 0 0 250 0 0 0 0
45.284969 89.46022 -4.83706 0 0 250 0 0 0 0
45.922798 89.378563 -4.8586831 0 0 250 0 0 0 0
46.542591 89.306503 -4.8805962 0 0 250 0 0 0 0
47.14397 89.244507 -4.902936 0 0 250 0 0 0 0
47.726311 89.193253 -4.9263458 0 0 250 0 0 0 0
48.288792 89.152802 -4.9500442 0 0 250 0 0 0 0
48.83147 89.126953 -4.9731188 0 0 250 0 0 0 0
49.36647 89.121132 -5.0014091 0 0 250 0 0 0 0
49.893761 89.13018 -5.0299778 0 0 250 0 0 0 0
50.416698 89.148422 -5.056479 0 0 250 0 0 0 0
50.939411 89.191544 -5.0836978 0 0 250 0 0 0 0
51.456791 89.255859 -5.1111221 0 0 250 0 0 0 0
51.96384 89.335564 -5.139956 0 0 250 0 0 0 0
52.464069 89.450928 -5.1683068 0 0 250 0 0 0 0
52.959839 89.592712 -5.197886 0 0 250 0 0 0 0
53.430561 89.750366 -5.228395 0 0 250 0 0 0 0
53.88945 89.945259 -5.2540579 0 0 250 0 0 0 0
54.331539 90.164192 -5.2810378 0 0 250 0 0 0 0
54.738892 90.388603 -5.307765 0 0 250 0 0 0 0
55.13319 90.660973 -5.3368702 0 0 250 0 0 0 0
55.491489 90.941597 -5.362113 0 0 250 0 0 0 0
55.83593 91.271118 -5.3897371 0 0 250 0 0 0 0
56.158451 91.6203 -5.4181652 0 0 250 0 0 0 0
56.448551 91.966148 -5.4480529 0 0 250 0 0 0 0
56.722439 92.356018 -5.4791088 0 0 250 0 0 0 0
56.96793 92.764923 -5.5105338 0 0 250 0 0 0 0
57.175282 93.171272 -5.539453 0 0 250 0 0 0 0
57.370049 93.610619 -5.5644488 0 0 250 0 0 0 0
57.539921 94.061203 -5.5909872 0 0 250 0 0 0 0
57.68438 94.50798 -5.6126661 0 0 250 0 0 0 0
57.81242 94.981598 -5.6280179 0 0 250 0 0 0 0
57.9272 95.446877 -5.638494 0 0 250 0 0 0 0
58.041759 95.924881 -5.6485019 0 0 250 0 0 0 0
58.162239 96.402168 -5.6619768 0 0 250 0 0 0 0
58.277309 96.884369 -5.6801391 0 0 250 0 0 0 0
58.38327 97.380348 -5.6926069 0 0 250 0 0 0 0
58.486938 97.888062 -5.69871 0 0 250 0 0 0 0
58.589458 98.40345 -5.7128811 0 0 250 0 0 0 0
58.696732 98.928299 -5.7323098 0 0 250 0 0 0 0
58.813992 99.460869 -5.7561378 0 0 250 0 0 0 0
58.940361 100.0024 -5.7784872 0 0 250 0 0 0 0
59.074509 100.5505 -5.7978911 0 0 250 0 0 0 0
59.209759 101.1106 -5.818562 0 0 250 0 0 0 0
59.343231 101.6926 -5.84477 0 0 250 0 0 0 0
59.47979 102.2853 -5.8726678 0 0 250 0 0 0 0
59.63546 102.8883 -5.9009709 0 0 250 0 0 0 0
59.798801 103.4998 -5.9280748 0 0 250 0 0 0 0
59.964539 104.1244 -5.9535542 0 0 250 0 0 0 0
60.134239 104.7544 -5.9751902 0 0 250 0 0 0 0
60.309139 105.3923 -5.99825 0 0 250 0 0 0 0
60.480789 106.0354 -6.023068 0 0 250 0 0 0 0
60.649731 106.6923 -6.0490179 0 0 250 0 0 0 0
60.819118 107.3637 -6.075562 0 0 250 0 0 0 0
60.995098 108.0547 -6.1031508 0 0 250 0 0 0 0
61.177219 108.7607 -6.135437 0 0 250 0 0 0 0
61.35508 109.4778 -6.1688142 0 0 250 0 0 0 0
61.527592 110.2002 -6.1980209 0 0 250 0 0 0 0
61.69627 110.9295 -6.2253318 0 0 250 0 0 0 0
61.874142 111.6692 -6.2523012 0 0 250 0 0 0 0
62.05312 112.4214 -6.2820182 0 0 250 0 0 0 0
62.234169 113.1891 -6.3152399 0 0 250 0 0 0 0
62.41758 113.9649 -6.351409 0 0 250 0 0 0 0
62.600239 114.7551 -6.387404 0 0 250 0 0 0 0
62.784828 115.5643 -6.4193282 0 0 250 0 0 0 0
62.973721 116.3732 -6.4505062 0 0 250 0 0 0 0
63.157391 117.1926 -6.483943 0 0 250 0 0 0 0
63.334629 118.0121 -6.5175848 0 0 250 0 0 0 0
63.512459 118.8364 -6.5510311 0 0 250 0 0 0 0
63.691299 119.6659 -6.5833192 0 0 250 0 0 0 0
63.870331 120.5026 -6.6197429 0 0 250 0 0 0 0
64.057358 121.3427 -6.6580791 0 0 250 0 0 0 0
64.25325 122.1809 -6.6952562 0 0 250 0 0 0 0
64.449806 123.0215 -6.7281661 0 0 250 0 0 0 0
64.655861 123.8767 -6.7528672 0 0 250 0 0 0 0
64.864502 124.7241 -6.784235 0 0 250 0 0 0 0
65.066292 125.5712 -6.818192 0 0 250 0 0 0 0
65.262093 126.4226 -6.8493452 0 0 250 0 0 0 0
65.459038 127.2746 -6.8787508 0 0 250 0 0 0 0
65.658089 128.1205 -6.9130449 0 0 250 0 0 0 0
65.864769 128.94099 -6.9550171 0 0 250 0 0 0 0
66.080658 129.7485 -7.0007091 0 0 250 0 0 0 0
66.298363 130.5573 -7.0468392 0 0 250 0 0 0 0
66.510513 131.3828 -7.0921369 0 0 250 0 0 0 0
66.722649 132.2254 -7.1345329 0 0 250 0 0 0 0
66.932083 133.0601 -7.1777649 0 0 250 0 0 0 0
67.13546 133.86749 -7.2034712 0 0 250 0 0 0 0
67.333969 134.6626 -7.221705 0 0 250 0 0 0 0
67.539459 135.4599 -7.240417 0 0 250 0 0 0 0
67.748222 136.2625 -7.275568 0 0 250 0 0 0 0
67.939903 137.0723 -7.307651 0 0 250 0 0 0 0
68.126587 137.8726 -7.3295941 0 0 250 0 0 0 0
68.311478 138.66879 -7.347445 0 0 250 0 0 0 0
68.487381 139.4818 -7.3759942 0 0 250 0 0 0 0
68.65535 140.2662 -7.4006538 0 0 250 0 0 0 0
68.830803 141.06689 -7.431426 0 0 250 0 0 0 0
69.010551 141.8662 -7.4613051 0 0 250 0 0 0 0
69.187889 142.65981 -7.4921541 0 0 250 0 0 0 0
69.359833 143.451 -7.5223269 0 0 250 0 0 0 0
69.532547 144.2346 -7.548491 0 0 250 0 0 0 0
69.69416 145.0284 -7.5798259 0 0 250 0 0 0 0
69.84462 145.8298 -7.612956 0 0 250 0 0 0 0
69.992767 146.6342 -7.6459899 0 0 250 0 0 0 0
70.1315 147.4395 -7.6688619 0 0 250 0 0 0 0
70.257378 148.24071 -7.6903968 0 0 250 0 0 0 0
70.379807 149.033 -7.71208 0 0 250 0 0 0 0
70.507973 149.8199 -7.7327099 0 0 250 0 0 0 0
70.634071 150.6153 -7.7519088 0 0 250 0 0 0 0
70.753319 151.422 -7.7790122 0 0 250 0 0 0 0
70.857033 152.237 -7.812429 0 0 250 0 0 0 0
70.952629 153.0488 -7.841404 0 0 250 0 0 0 0
71.052193 153.8549 -7.8684139 0 0 250 0 0 0 0
71.148277 154.6649 -7.8912492 0 0 250 0 0 0 0
71.236679 155.4826 -7.9169178 0 0 250 0 0 0 0
71.306107 156.3078 -7.9399371 0 0 250 0 0 0 0
71.36837 157.136 -7.9663038 0 0 250 0 0 0 0
71.430748 157.9586 -7.9902968 0 0 250 0 0 0 0
71.4907 158.78 -8.0126123 0 0 250 0 0 0 0
71.545647 159.60181 -8.0363369 0 0 250 0 0 0 0
71.592056 160.4205 -8.0626822 0 0 250 0 0 0 0
71.627541 161.2383 -8.0851774 0 0 250 0 0 0 0
71.665009 162.0549 -8.1053581 0 0 250 0 0 0 0
71.705559 162.8891 -8.1240463 0 0 250 0 0 0 0
71.739578 163.72861 -8.1403723 0 0 250 0 0 0 0
71.775398 164.5638 -8.1582031 0 0 250 0 0 0 0
71.811249 165.3868 -8.1734486 0 0 250 0 0 0 0
71.855659 166.201 -8.1883717 0 0 250 0 0 0 0
71.889122 167.01871 -8.1971254 0 0 250 0 0 0 0
71.901489 167.8465 -8.2097149 0 0 250 0 0 0 0
71.914467 168.68111 -8.2259741 0 0 250 0 0 0 0
71.930656 169.5173 -8.2406588 0 0 250 0 0 0 0
71.944199 170.3582 -8.2512693 0 0 250 0 0 0 0
71.950363 171.2012 -8.2658978 0 0 250 0 0 0 0
71.947121 172.0379 -8.2818947 0 0 250 0 0 0 0
71.944229 172.867 -8.2958946 0 0 250 0 0 0 0
71.946098 173.6993 -8.3149948 0 0 250 0 0 0 0
71.922417 174.5517 -8.3327665 0 0 250 0 0 0 0
71.880768 175.41119 -8.3502178 0 0 250 0 0 0 0
71.838058 176.2661 -8.3692083 0 0 250 0 0 0 0
71.800484 177.1104 -8.3809433 0 0 250 0 0 0 0
71.7593 177.94769 -8.3924875 0 0 250 0 0 0 0
71.70504 178.78529 -8.4087324 0 0 250 0 0 0 0
71.660011 179.63161 -8.4276514 0 0 250 0 0 0 0
71.629379 180.4893 -8.4513149 0 0 250 0 0 0 0
71.586746 181.3511 -8.4719181 0 0 250 0 0 0 0
71.538193 182.2141 -8.495182 0 0 250 0 0 0 0
71.495819 183.0694 -8.5189896 0 0 250 0 0 0 0
71.451637 183.918 -8.5432119 0 0 250 0 0 0 0
71.419632 184.7628 -8.5678463 0 0 250 0 0 0 0
71.389862 185.61099 -8.5960855 0 0 250 0 0 0 0
71.341309 186.47141 -8.6255074 0 0 250 0 0 0 0
71.283989 187.33321 -8.6591797 0 0 250 0 0 0 0
71.229202 188.18179 -8.6881151 0 0 250 0 0 0 0
71.18264 189.0202 -8.7128563 0 0 250 0 0 0 0
71.136848 189.8562 -8.7364664 0 0 250 0 0 0 0
71.075768 190.6947 -8.7613754 0 0 250 0 0 0 0
71.019638 191.53571 -8.7885609 0 0 250 0 0 0 0
70.964249 192.3732 -8.8167105 0 0 250 0 0 0 0
70.908188 193.2083 -8.8388863 0 0 250 0 0 0 0
70.847328 194.03999 -8.8613768 0 0 250 0 0 0 0
70.791153 194.86349 -8.8849068 0 0 250 0 0 0 0
70.732239 195.6763 -8.9060764 0 0 250 0 0 0 0
70.67083 196.4897 -8.9237461 0 0 250 0 0 0 0
70.629112 197.19569 -8.9388742 0 0 250 0 0 0 0
70.587334 197.9026 -8.9540243 0 0 250 0 0 0 0
70.54557 198.6091 -8.969162 0 0 250 0 0 0 0
70.503799 199.3157 -8.9843006 0 0 250 0 0 0 0
70.462021 200.0222 -8.9994411 0 0 250 0 0 0 0
70.420273 200.72839 -9.0145702 0 0 250 0 0 0 0
70.378517 201.4342 -9.0296907 0 0 250 0 0 0 0
70.33667 202.14169 -9.0448494 0 0 250 0 0 0 0
70.294907 202.8477 -9.0599718 0 0 250 0 0 0 0
70.253082 203.5546 -9.0751162 0 0 250 0 0 0 0
70.211281 204.261 -9.0902481 0 0 250 0 0 0 0
70.169518 204.9666 -9.1053619 0 0 250 0 0 0 0
70.127678 205.6732 -9.1204977 0 0 250 0 0 0 0
70.085899 206.379 -9.1356144 0 0 250 0 0 0 0
70.04406 207.0856 -9.1507473 0 0 250 0 0 0 0
69.999046 207.7971 -9.1652899 0 0 250 0 0 0 0
69.986061 208.4453 -9.185709 0 0 250 0 0 0 0
69.983063 209.09309 -9.2081127 0 0 250 0 0 0 0
69.994637 209.74001 -9.2357712 0 0 250 0 0 0 0
70.007782 210.3757 -9.2613707 0 0 250 0 0 0 0
70.01564 211.0139 -9.2835112 0 0 250 0 0 0 0
70.019508 211.6498 -9.3022299 0 0 250 0 0 0 0
70.026077 212.2959 -9.3170338 0 0 250 0 0 0 0
70.030388 212.9445 -9.333416 0 0 250 0 0 0 0
70.030312 213.6019 -9.3469353 0 0 250 0 0 0 0
70.017616 214.2524 -9.3614941 0 0 250 0 0 0 0
70.007889 214.9028 -9.3780642 0 0 250 0 0 0 0
70.006439 215.5565 -9.3971519 0 0 250 0 0 0 0
70.013229 216.21719 -9.4154205 0 0 250 0 0 0 0
70.006119 216.8933 -9.4293289 0 0 250 0 0 0 0
69.982811 217.5788 -9.4521151 0 0 250 0 0 0 0
69.972107 218.27071 -9.4739752 0 0 250 0 0 0 0
69.967628 218.96429 -9.487565 0 0 250 0 0 0 0
69.956512 219.6463 -9.4954109 0 0 250 0 0 0 0
69.934357 220.3174 -9.5103226 0 0 250 0 0 0 0
69.940193 220.9704 -9.5404959 0 0 250 0 0 0 0
69.960541 221.62469 -9.5677509 0 0 250 0 0 0 0
69.972847 222.3055 -9.5918722 0 0 250 0 0 0 0
69.981194 222.99181 -9.6158857 0 0 250 0 0 0 0
69.984299 223.6723 -9.6506033 0 0 250 0 0 0 0
69.981628 224.3537 -9.6837502 0 0 250 0 0 0 0
69.98542 225.0278 -9.716608 0 0 250 0 0 0 0
69.986069 225.71339 -9.7422447 0 0 250 0 0 0 0
69.981873 226.39909 -9.7713432 0 0 250 0 0 0 0
69.96949 227.0898 -9.7927952 0 0 250 0 0 0 0
69.961182 227.77319 -9.8189993 0 0 250 0 0 0 0
69.949188 228.4545 -9.8407078 0 0 250 0 0 0 0
69.938622 229.12579 -9.8635244 0 0 250 0 0 0 0
69.924294 229.79269 -9.8847418 0 0 250 0 0 0 0
69.907173 230.4543 -9.9097815 0 0 250 0 0 0 0
69.886353 231.1122 -9.9376106 0 0 250 0 0 0 0
69.871452 231.769 -9.9645033 0 0 250 0 0 0 0
69.859833 232.4182 -9.9928894 0 0 250 0 0 0 0
69.84446 233.0405 -10.01409 0 0 250 0 0 0 0
69.827103 233.64999 -10.03357 0 0 250 0 0 0 0
69.810204 234.2476 -10.04766 0 0 250 0 0 0 0
69.800957 234.81821 -10.05898 0 0 250 0 0 0 0
69.782791 235.36591 -10.06888 0 0 250 0 0 0 0
69.754959 235.8968 -10.07841 0 0 250 0 0 0 0
69.714561 236.4174 -10.08536 0 0 250 0 0 0 0
69.664047 236.9317 -10.08899 0 0 250 0 0 0 0
69.602959 237.43719 -10.09296 0 0 250 0 0 0 0
69.520866 237.9427 -10.09963 0 0 250 0 0 0 0
69.425423 238.4416 -10.1059 0 0 250 0 0 0 0
69.315002 238.9201 -10.11569 0 0 250 0 0 0 0
69.185112 239.3949 -10.12556 0 0 250 0 0 0 0
69.022171 239.8316 -10.13488 0 0 250 0 0 0 0
68.84642 240.2766 -10.14043 0 0 250 0 0 0 0
68.647751 240.70911 -10.14643 0 0 250 0 0 0 0
68.414948 241.0925 -10.15095 0 0 250 0 0 0 0
68.166092 241.4794 -10.16774 0 0 250 0 0 0 0
67.899063 241.8486 -10.18148 0 0 250 0 0 0 0
67.609367 242.16161 -10.18159 0 0 250 0 0 0 0
67.318268 242.4928 -10.18322 0 0 250 0 0 0 0
67.008904 242.80991 -10.18416 0 0 250 0 0 0 0
66.672913 243.07021 -10.17111 0 0 250 0 0 0 0
66.332237 243.34419 -10.16386 0 0 250 0 0 0 0
65.982468 243.5912 -10.15157 0 0 250 0 0 0 0
65.621048 243.7845 -10.13305 0 0 250 0 0 0 0
65.260109 243.9919 -10.11788 0 0 250 0 0 0 0
64.897842 244.1844 -10.09595 0 0 250 0 0 0 0
64.520416 244.32001 -10.07158 0 0 250 0 0 0 0
64.140297 244.4743 -10.04135 0 0 250 0 0 0 0
63.730469 244.5719 -10.01139 0 0 250 0 0 0 0
63.308498 244.68311 -9.9822493 0 0 250 0 0 0 0
62.867512 244.77271 -9.956809 0 0 250 0 0 0 0
62.405251 244.8251 -9.9298019 0 0 250 0 0 0 0
61.939659 244.8844 -9.9016495 0 0 250 0 0 0 0
61.458939 244.92599 -9.8736467 0 0 250 0 0 0 0
60.961948 244.94141 -9.8443184 0 0 250 0 0 0 0
60.461498 244.9539 -9.8118095 0 0 250 0 0 0 0
59.947418 244.952 -9.7790537 0 0 250 0 0 0 0
59.421841 244.94569 -9.7491522 0 0 250 0 0 0 0
58.88559 244.9283 -9.7206602 0 0 250 0 0 0 0
58.335369 244.9021 -9.6915598 0 0 250 0 0 0 0
57.771179 244.8764 -9.660943 0 0 250 0 0 0 0
57.19241 244.8503 -9.6294899 0 0 250 0 0 0 0
56.595982 244.82401 -9.5984459 0 0 250 0 0 0 0
55.981152 244.79781 -9.5673771 0 0 250 0 0 0 0
55.348171 244.7709 -9.5347433 0 0 250 0 0 0 0
54.694038 244.7438 -9.5018559 0 0 250 0 0 0 0
54.02129 244.7179 -9.467967 0 0 250 0 0 0 0
53.33773 244.6758 -9.4280682 0 0 250 0 0 0 0
52.650421 244.6048 -9.3761969 0 0 250 0 0 0 0
51.944111 244.52789 -9.3215752 0 0 250 0 0 0 0
51.20668 244.4614 -9.271451 0 0 250 0 0 0 0
50.451969 244.3907 -9.2228737 0 0 250 0 0 0 0
49.667259 244.3343 -9.1767464 0 0 250 0 0 0 0
48.868141 244.2845 -9.1396561 0 0 250 0 0 0 0
48.058071 244.235 -9.1089849 0 0 250 0 0 0 0
47.224541 244.1891 -9.0749331 0 0 250 0 0 0 0
46.381859 244.14101 -9.0398197 0 0 250 0 0 0 0
45.515049 244.10091 -9.0026617 0 0 250 0 0 0 0
44.650082 244.0565 -8.9663506 0 0 250 0 0 0 0
43.781979 244.01601 -8.9260321 0 0 250 0 0 0 0
42.921791 243.96919 -8.8888121 0 0 250 0 0 0 0
42.060139 243.9267 -8.8516932 0 0 250 0 0 0 0
41.19342 243.88409 -8.8146791 0 0 250 0 0 0 0
40.316589 243.8403 -8.7778111 0 0 250 0 0 0 0
39.448341 243.7937 -8.7405252 0 0 250 0 0 0 0
38.579041 243.7424 -8.6993551 0 0 250 0 0 0 0
37.70694 243.7224 -8.641674 0 0 250 0 0 0 0
36.83197 243.7018 -8.5843153 0 0 250 0 0 0 0
35.965321 243.6638 -8.5337572 0 0 250 0 0 0 0
35.094891 243.62981 -8.4810953 0 0 250 0 0 0 0
34.227829 243.5838 -8.4287081 0 0 250 0 0 0 0
33.341942 243.5406 -8.3733091 0 0 250 0 0 0 0
32.47295 243.489 -8.3249693 0 0 250 0 0 0 0
31.59247 243.4415 -8.2844744 0 0 250 0 0 0 0
30.71981 243.3929 -8.245801 0 0 250 0 0 0 0
29.85195 243.34821 -8.2145004 0 0 250 0 0 0 0
28.987089 243.315 -8.189127 0 0 250 0 0 0 0
28.124531 243.2849 -8.1519918 0 0 250 0 0 0 0
27.2642 243.2585 -8.1180563 0 0 250 0 0 0 0
26.41452 243.2298 -8.0848246 0 0 250 0 0 0 0
25.563089 243.2081 -8.0457659 0 0 250 0 0 0 0
24.724051 243.1749 -8.0101557 0 0 250 0 0 0 0
23.88069 243.1391 -7.9857569 0 0 250 0 0 0 0
23.047251 243.1145 -7.9584508 0 0 250 0 0 0 0
22.21039 243.091 -7.9334769 0 0 250 0 0 0 0
21.381229 243.0551 -7.9101591 0 0 250 0 0 0 0
20.555361 243.0172 -7.8872519 0 0 250 0 0 0 0
19.73633 242.97951 -7.8654761 0 0 250 0 0 0 0
18.925489 242.94051 -7.8440499 0 0 250 0 0 0 0
18.116449 242.89799 -7.8246279 0 0 250 0 0 0 0
17.311069 242.8504 -7.8025141 0 0 250 0 0 0 0
16.50231 242.7995 -7.7785649 0 0 250 0 0 0 0
15.70147 242.7426 -7.7482319 0 0 250 0 0 0 0
14.90179 242.6828 -7.7231202 0 0 250 0 0 0 0
14.10837 242.61211 -7.6978421 0 0 250 0 0 0 0
13.3226 242.53619 -7.672823 0 0 250 0 0 0 0
12.542 242.45531 -7.6508369 0 0 250 0 0 0 0
11.77083 242.37669 -7.6272569 0 0 250 0 0 0 0
11.00912 242.2959 -7.6046128 0 0 250 0 0 0 0
10.25808 242.21809 -7.58108 0 0 250 0 0 0 0
9.5151167 242.14301 -7.5658212 0 0 250 0 0 0 0
8.7877893 242.0695 -7.5503469 0 0 250 0 0 0 0
8.077281 241.9973 -7.5343409 0 0 250 0 0 0 0
7.3818822 241.929 -7.5134349 0 0 250 0 0 0 0
6.7000942 241.86481 -7.4968758 0 0 250 0 0 0 0
6.032146 241.8054 -7.4783812 0 0 250 0 0 0 0
5.3765569 241.74879 -7.4625049 0 0 250 0 0 0 0
4.7397861 241.6958 -7.443521 0 0 250 0 0 0 0
4.1144199 241.64709 -7.425036 0 0 250 0 0 0 0
3.5050199 241.60561 -7.4037018 0 0 250 0 0 0 0
2.907815 241.5665 -7.3830109 0 0 250 0 0 0 0
2.3259089 241.5237 -7.3638501 0 0 250 0 0 0 0
1.760074 241.4841 -7.3444471 0 0 250 0 0 0 0
1.213038 241.4491 -7.3270488 0 0 250 0 0 0 0
0.68485308 241.4221 -7.3108139 0 0 250 0 0 0 0
0.17033491 241.39951 -7.2995181 0 0 250 0 0 0 0
-0.32478479 241.3788 -7.2851129 0 0 250 0 0 0 0
-0.80469722 241.3618 -7.2706599 0 0 250 0 0 0 0
-1.267287 241.3461 -7.2537618 0 0 250 0 0 0 0
-1.717128 241.33051 -7.2380228 0 0 250 0 0 0 0
-2.1470611 241.3224 -7.2273059 0 0 250 0 0 0 0
-2.5596931 241.3183 -7.217072 0 0 250 0 0 0 0
-2.957329 241.3176 -7.2039409 0 0 250 0 0 0 0
-3.3350451 241.32111 -7.1915379 0 0 250 0 0 0 0
-3.6936929 241.32899 -7.183816 0 0 250 0 0 0 0
-4.0381079 241.33749 -7.1722159 0 0 250 0 0 0 0
-4.3626962 241.3477 -7.164628 0 0 250 0 0 0 0
-4.6635671 241.3569 -7.1561689 0 0 250 0 0 0 0
-4.9431529 241.36549 -7.153234 0 0 250 0 0 0 0
-5.1956081 241.37511 -7.1485658 0 0 250 0 0 0 0
-5.4234791 241.38651 -7.1459451 0 0 250 0 0 0 0
-5.6177402 241.39931 -7.1463761 0 0 250 0 0 0 0
-5.7879748 241.411 -7.145318 0 0 250 0 0 0 0
-5.9356108 241.4211 -7.14152 0 0 250 0 0 0 0
-6.0551829 241.4288 -7.1405339 0 0 250 0 0 0 0
-6.1489429 241.4357 -7.1413622 0 0 250 0 0 0 0
-6.2244439 241.44231 -7.1409249 0 0 250 0 0 0 0
-6.2922192 241.4481 -7.1441822 0 0 250 0 0 0 0
-6.347609 241.45351 -7.147305 0 0 250 0 0 0 0
-6.3919091 241.4576 -7.151484 0 0 250 0 0 0 0
-6.4219012 241.4586 -7.1544619 0 0 250 0 0 0 0
-6.4410338 241.4574 -7.1572781 0 0 250 0 0 0 0
-6.4483399 241.45641 -7.1583238 0 0 250 0 0 0 0
-6.4458809 241.45621 -7.1584258 0 0 250 0 0 0 0
-6.4414401 241.4561 -7.1594 0 0 250 0 0 0 0
-6.4411192 241.4563 -7.161211 0 0 250 0 0 0 0
-6.4411621 241.45911 -7.1619568 0 0 250 0 0 0 0
-6.4399271 241.4626 -7.1609249 0 0 250 0 0 0 0
-6.435729 241.46831 -7.1627269 0 0 250 0 0 0 0
-6.4352322 241.4733 -7.1642489 0 0 250 0 0 0 0
-6.4404402 241.4828 -7.1661429 0 0 250 0 0 0 0
-6.4493251 241.48801 -7.1622939 0 0 250 0 0 0 0
-6.4623532 241.4935 -7.157896 0 0 250 0 0 0 0
-6.480607 241.49809 -7.1532302 0 0 250 0 0 0 0
-6.5024152 241.5018 -7.1525021 0 0 250 0 0 0 0
-6.5283389 241.506 -7.1512551 0 0 250 0 0 0 0
-6.5602641 241.50771 -7.1505098 0 0 250 0 0 0 0
-6.6038551 241.509 -7.1492958 0 0 250 0 0 0 0
-6.6627359 241.5123 -7.1491642 0 0 250 0 0 0 0
-6.7424879 241.5161 -7.14747 0 0 250 0 0 0 0
-6.8412051 241.5229 -7.1467619 0 0 250 0 0 0 0
-6.9605632 241.5303 -7.1460719 0 0 250 0 0 0 0
-7.0992508 241.5417 -7.1450968 0 0 250 0 0 0 0
-7.2567739 241.556 -7.1429682 0 0 250 0 0 0 0
-7.4339819 241.575 -7.138124 0 0 250 0 0 0 0
-7.627305 241.5979 -7.130703 0 0 250 0 0 0 0
-7.83498 241.6234 -7.1225772 0 0 250 0 0 0 0
-8.0557337 241.66119 -7.117187 0 0 250 0 0 0 0
-8.2931709 241.705 -7.1145349 0 0 250 0 0 0 0
-8.540863 241.7596 -7.1110172 0 0 250 0 0 0 0
-8.7933273 241.8206 -7.1028328 0 0 250 0 0 0 0
-9.0506325 241.89079 -7.098001 0 0 250 0 0 0 0
-9.3167238 241.985 -7.0924749 0 0 250 0 0 0 0
-9.5882311 242.0972 -7.0882478 0 0 250 0 0 0 0
-9.8636065 242.2077 -7.0853539 0 0 250 0 0 0 0
-10.14807 242.3512 -7.0814552 0 0 250 0 0 0 0
-10.43713 242.4854 -7.0760312 0 0 250 0 0 0 0
-10.72766 242.66161 -7.0695601 0 0 250 0 0 0 0
-11.01459 242.8586 -7.0643291 0 0 250 0 0 0 0
-11.29588 243.0471 -7.0591688 0 0 250 0 0 0 0
-11.56617 243.2941 -7.058609 0 0 250 0 0 0 0
-11.82781 243.565 -7.0597081 0 0 250 0 0 0 0
-12.07917 243.81 -7.054224 0 0 250 0 0 0 0
-12.31767 244.1218 -7.0480752 0 0 250 0 0 0 0
-12.54841 244.4066 -7.0402012 0 0 250 0 0 0 0
-12.76645 244.7706 -7.039227 0 0 250 0 0 0 0
-12.96987 245.16409 -7.0418701 0 0 250 0 0 0 0
-13.15225 245.5349 -7.0455208 0 0 250 0 0 0 0
-13.31828 245.9798 -7.0564609 0 0 250 0 0 0 0
-13.46958 246.44119 -7.066833 0 0 250 0 0 0 0
-13.60271 246.8869 -7.074069 0 0 250 0 0 0 0
-13.72235 247.3819 -7.081737 0 0 250 0 0 0 0
-13.82811 247.8773 -7.0917058 0 0 250 0 0 0 0
-13.91896 248.42261 -7.1079831 0 0 250 0 0 0 0
-13.99361 248.98911 -7.1260638 0 0 250 0 0 0 0
-14.05752 249.558 -7.1430969 0 0 250 0 0 0 0
-14.10353 250.16859 -7.1613011 0 0 250 0 0 0 0
-14.14237 250.776 -7.1771941 0 0 250 0 0 0 0
-14.17621 251.4059 -7.1941099 0 0 250 0 0 0 0
-14.21087 252.05769 -7.21106 0 0 250 0 0 0 0
-14.24036 252.7243 -7.227459 0 0 250 0 0 0 0
-14.26469 253.405 -7.2444081 0 0 250 0 0 0 0
-14.28735 254.1031 -7.2624879 0 0 250 0 0 0 0
-14.30712 254.81689 -7.2824211 0 0 250 0 0 0 0
-14.32889 255.5442 -7.3024511 0 0 250 0 0 0 0
-14.34971 256.29019 -7.3231182 0 0 250 0 0 0 0
-14.37576 257.05481 -7.3415751 0 0 250 0 0 0 0
-14.39965 257.83759 -7.3584108 0 0 250 0 0 0 0
-14.4226 258.63229 -7.3726602 0 0 250 0 0 0 0
-14.44732 259.44089 -7.3853822 0 0 250 0 0 0 0
-14.47138 260.26321 -7.3960352 0 0 250 0 0 0 0
-14.49886 261.09409 -7.4097748 0 0 250 0 0 0 0
-14.52874 261.94339 -7.4271941 0 0 250 0 0 0 0
-14.56159 262.8078 -7.4480309 0 0 250 0 0 0 0
-14.59164 263.69189 -7.4688601 0 0 250 0 0 0 0
-14.62306 264.5856 -7.489532 0 0 250 0 0 0 0
-14.65282 265.4917 -7.5076408 0 0 250 0 0 0 0
-14.68155 266.40381 -7.522891 0 0 250 0 0 0 0
-14.70869 267.323 -7.5355721 0 0 250 0 0 0 0
-14.73976 268.25439 -7.5521622 0 0 250 0 0 0 0
-14.77556 269.19849 -7.5756159 0 0 250 0 0 0 0
-14.81424 270.1618 -7.6050358 0 0 250 0 0 0 0
-14.85834 271.1348 -7.6363158 0 0 250 0 0 0 0
-14.90154 272.12189 -7.6661758 0 0 250 0 0 0 0
-14.944 273.1257 -7.6920981 0 0 250 0 0 0 0
-14.97353 274.1347 -7.7170501 0 0 250 0 0 0 0
-15.00587 275.1423 -7.7378368 0 0 250 0 0 0 0
-15.03534 276.1557 -7.7615099 0 0 250 0 0 0 0
-15.06955 277.17569 -7.7872262 0 0 250 0 0 0 0
-15.10295 278.20779 -7.8169718 0 0 250 0 0 0 0
-15.14094 279.2453 -7.847445 0 0 250 0 0 0 0
-15.17521 280.29361 -7.874001 0 0 250 0 0 0 0
-15.21559 281.34631 -7.9024758 0 0 250 0 0 0 0
-15.25743 282.39771 -7.9304938 0 0 250 0 0 0 0
-15.29723 283.44641 -7.9559388 0 0 250 0 0 0 0
-15.34119 284.4978 -7.9907589 0 0 250 0 0 0 0
-15.38588 285.55569 -8.031229 0 0 250 0 0 0 0
-15.43659 286.6196 -8.06989 0 0 250 0 0 0 0
-15.48438 287.68521 -8.1051044 0 0 250 0 0 0 0
-15.53562 288.75061 -8.139637 0 0 250 0 0 0 0
-15.58579 289.81091 -8.1712227 0 0 250 0 0 0 0
-15.63834 290.86639 -8.1992493 0 0 250 0 0 0 0
-15.68736 291.9147 -8.2245512 0 0 250 0 0 0 0
-15.73624 292.95959 -8.2516785 0 0 250 0 0 0 0
-15.78736 293.99799 -8.2818766 0 0 250 0 0 0 0
-15.83486 295.0365 -8.3137159 0 0 250 0 0 0 0
-15.88531 296.0719 -8.3487759 0 0 250 0 0 0 0
-15.93564 297.10699 -8.3854961 0 0 250 0 0 0 0
-15.99106 298.1391 -8.4239635 0 0 250 0 0 0 0
-16.04697 299.16559 -8.4615412 0 0 250 0 0 0 0
-16.10293 300.19119 -8.4946661 0 0 250 0 0 0 0
-16.16193 301.2168 -8.522851 0 0 250 0 0 0 0
-16.21966 302.24631 -8.5455313 0 0 250 0 0 0 0
-16.277109 303.27429 -8.564683 0 0 250 0 0 0 0
-16.33433 304.29391 -8.5852327 0 0 250 0 0 0 0
-16.389709 305.31409 -8.6065092 0 0 250 0 0 0 0
-16.44631 306.3356 -8.6318521 0 0 250 0 0 0 0
-16.503429 307.35651 -8.6627016 0 0 250 0 0 0 0
-16.55969 308.3783 -8.6921873 0 0 250 0 0 0 0
-16.613041 309.39981 -8.7226458 0 0 250 0 0 0 0
-16.666321 310.42969 -8.7547274 0 0 250 0 0 0 0
-16.709351 311.45889 -8.7850161 0 0 250 0 0 0 0
-16.75029 312.4903 -8.8130188 0 0 250 0 0 0 0
-16.79627 313.52539 -8.8399639 0 0 250 0 0 0 0
-16.8393 314.56329 -8.8670101 0 0 250 0 0 0 0
-16.88389 315.60818 -8.8947744 0 0 250 0 0 0 0
-16.92691 316.65619 -8.9225864 0 0 250 0 0 0 0
-16.972269 317.7092 -8.9549856 0 0 250 0 0 0 0
-17.02224 318.7691 -8.983779 0 0 250 0 0 0 0
-17.06905 319.8317 -9.0174255 0 0 250 0 0 0 0
-17.118401 320.8931 -9.0484161 0 0 250 0 0 0 0
-17.17214 321.966 -9.0847101 0 0 250 0 0 0 0
-17.22368 323.0455 -9.1220427 0 0 250 0 0 0 0
-17.2817 324.1272 -9.1641483 0 0 250 0 0 0 0
-17.338751 325.2114 -9.2025099 0 0 250 0 0 0 0
-17.395861 326.29401 -9.2381887 0 0 250 0 0 0 0
-17.45438 327.3754 -9.2722855 0 0 250 0 0 0 0
-17.50894 328.45209 -9.3055029 0 0 250 0 0 0 0
-17.56163 329.52441 -9.3391666 0 0 250 0 0 0 0
-17.614189 330.5939 -9.3730154 0 0 250 0 0 0 0
-17.66713 331.66211 -9.4084797 0 0 250 0 0 0 0
-17.719009 332.73129 -9.4426861 0 0 250 0 0 0 0
-17.77586 333.80249 -9.4765368 0 0 250 0 0 0 0
-17.835939 334.8728 -9.5086031 0 0 250 0 0 0 0
-17.900431 335.9393 -9.5419159 0 0 250 0 0 0 0
-17.95961 336.99521 -9.572257 0 0 250 0 0 0 0
-18.01787 338.04691 -9.6022348 0 0 250 0 0 0 0
-18.07196 339.09799 -9.6345472 0 0 250 0 0 0 0
-18.128441 340.13431 -9.6716423 0 0 250 0 0 0 0
-18.184589 341.16351 -9.7085924 0 0 250 0 0 0 0
-18.239731 342.1813 -9.7420578 0 0 250 0 0 0 0
-18.295641 343.19189 -9.7732821 0 0 250 0 0 0 0
-18.346189 344.19229 -9.8006773 0 0 250 0 0 0 0
-18.398211 345.18439 -9.8293695 0 0 250 0 0 0 0
-18.453079 346.16901 -9.855773 0 0 250 0 0 0 0
-18.51181 347.1442 -9.882062 0 0 250 0 0 0 0
-18.572479 348.1059 -9.9088926 0 0 250 0 0 0 0
-18.63261 349.05621 -9.9358711 0 0 250 0 0 0 0
-18.692631 349.9968 -9.9643488 0 0 250 0 0 0 0
-18.75506 350.92499 -9.9930811 0 0 250 0 0 0 0
-18.817711 351.84109 -10.02007 0 0 250 0 0 0 0
-18.87668 352.73761 -10.04361 0 0 250 0 0 0 0
-18.93231 353.61929 -10.06499 0 0 250 0 0 0 0
-18.98645 354.4884 -10.09002 0 0 250 0 0 0 0
-19.03898 355.33881 -10.11649 0 0 250 0 0 0 0
-19.08444 356.172 -10.14361 0 0 250 0 0 0 0
-19.12487 356.98239 -10.17245 0 0 250 0 0 0 0
-19.161699 357.7702 -10.2038 0 0 250 0 0 0 0
-19.19084 358.54471 -10.23706 0 0 250 0 0 0 0
-19.22093 359.28949 -10.26248 0 0 250 0 0 0 0
-19.253851 360.01208 -10.28902 0 0 250 0 0 0 0
-19.281521 360.70911 -10.31346 0 0 250 0 0 0 0
-19.31045 361.37769 -10.34004 0 0 250 0 0 0 0
-19.33791 362.0224 -10.36798 0 0 250 0 0 0 0
-19.36488 362.64819 -10.39159 0 0 250 0 0 0 0
-19.390051 363.254 -10.41291 0 0 250 0 0 0 0
-19.41263 363.84171 -10.43387 0 0 250 0 0 0 0
-19.435381 364.40479 -10.46051 0 0 250 0 0 0 0
-19.45834 364.94589 -10.48547 0 0 250 0 0 0 0
-19.482189 365.45651 -10.50845 0 0 250 0 0 0 0
-19.51293 365.94659 -10.52766 0 0 250 0 0 0 0
-19.552441 366.41739 -10.54957 0 0 250 0 0 0 0
-19.59573 366.87589 -10.57038 0 0 250 0 0 0 0
-19.649891 367.32211 -10.59195 0 0 250 0 0 0 0
-19.716909 367.75562 -10.61419 0 0 250 0 0 0 0
-19.79756 368.19299 -10.63599 0 0 250 0 0 0 0
-19.892229 368.6282 -10.65635 0 0 250 0 0 0 0
-19.99201 369.04419 -10.67197 0 0 250 0 0 0 0
-20.11145 369.47079 -10.69258 0 0 250 0 0 0 0
-20.25209 369.89151 -10.71488 0 0 250 0 0 0 0
-20.413099 370.26721 -10.73262 0 0 250 0 0 0 0
-20.59635 370.6619 -10.74732 0 0 250 0 0 0 0
-20.79175 371.0542 -10.75976 0 0 250 0 0 0 0
-20.99448 371.3905 -10.76923 0 0 250 0 0 0 0
-21.225929 371.75839 -10.77923 0 0 250 0 0 0 0
-21.487329 372.1192 -10.79175 0 0 250 0 0 0 0
-21.76792 372.41199 -10.78903 0 0 250 0 0 0 0
-22.073851 372.7666 -10.78485 0 0 250 0 0 0 0
-22.400061 373.1138 -10.77442 0 0 250 0 0 0 0
-22.74041 373.38129 -10.76969 0 0 250 0 0 0 0
-23.11657 373.69989 -10.76253 0 0 250 0 0 0 0
-23.51416 373.92261 -10.74819 0 0 250 0 0 0 0
-23.9314 374.19949 -10.72974 0 0 250 0 0 0 0
-24.370411 374.4566 -10.71168 0 0 250 0 0 0 0
-24.82872 374.58911 -10.70388 0 0 250 0 0 0 0
-25.311899 374.77539 -10.6949 0 0 250 0 0 0 0
-25.80661 374.93549 -10.68257 0 0 250 0 0 0 0
-26.31378 374.9978 -10.66974 0 0 250 0 0 0 0
-26.849131 375.10269 -10.65755 0 0 250 0 0 0 0
-27.405991 375.1528 -10.64986 0 0 250 0 0 0 0
-27.968969 375.108 -10.63684 0 0 250 0 0 0 0
-28.541321 375.0885 -10.62462 0 0 250 0 0 0 0
-29.12195 375.03271 -10.60557 0 0 250 0 0 0 0
-29.722231 374.9866 -10.58472 0 0 250 0 0 0 0
-30.33161 374.93039 -10.56036 0 0 250 0 0 0 0
-30.946541 374.8624 -10.53899 0 0 250 0 0 0 0
-31.561501 374.78891 -10.51891 0 0 250 0 0 0 0
-32.178581 374.71439 -10.49498 0 0 250 0 0 0 0
-32.807301 374.64609 -10.46742 0 0 250 0 0 0 0
-33.456032 374.5824 -10.44538 0 0 250 0 0 0 0
-34.124599 374.51929 -10.4301 0 0 250 0 0 0 0
-34.806519 374.45432 -10.4195 0 0 250 0 0 0 0
-35.494019 374.38531 -10.40427 0 0 250 0 0 0 0
-36.192509 374.31201 -10.38614 0 0 250 0 0 0 0
-36.902229 374.23721 -10.36462 0 0 250 0 0 0 0
-37.62426 374.16309 -10.34508 0 0 250 0 0 0 0
-38.360352 374.08899 -10.32578 0 0 250 0 0 0 0
-39.111221 374.017 -10.30501 0 0 250 0 0 0 0
-39.88459 373.95709 -10.28617 0 0 250 0 0 0 0
-40.674091 373.8909 -10.26296 0 0 250 0 0 0 0
-41.47522 373.8277 -10.24075 0 0 250 0 0 0 0
-42.29422 373.76779 -10.20926 0 0 250 0 0 0 0
-43.125351 373.71741 -10.17746 0 0 250 0 0 0 0
-43.978111 373.66861 -10.14326 0 0 250 0 0 0 0
-44.851269 373.61859 -10.10567 0 0 250 0 0 0 0
-45.733891 373.57059 -10.07084 0 0 250 0 0 0 0
-46.626259 373.52911 -10.02954 0 0 250 0 0 0 0
-47.522839 373.49091 -9.991003 0 0 250 0 0 0 0
-48.42205 373.45029 -9.9531422 0 0 250 0 0 0 0
-49.32645 373.40891 -9.9143753 0 0 250 0 0 0 0
-50.237358 373.37201 -9.8768883 0 0 250 0 0 0 0
-51.15358 373.33691 -9.8416023 0 0 250 0 0 0 0
-52.07555 373.29681 -9.8066273 0 0 250 0 0 0 0
-53.000111 373.25751 -9.7739334 0 0 250 0 0 0 0
-53.919189 373.21729 -9.7386694 0 0 250 0 0 0 0
-54.836681 373.17419 -9.7019539 0 0 250 0 0 0 0
-55.754608 373.12769 -9.6661453 0 0 250 0 0 0 0
-56.66814 373.0824 -9.6299477 0 0 250 0 0 0 0
-57.582981 373.04041 -9.5953951 0 0 250 0 0 0 0
-58.489491 372.99539 -9.561552 0 0 250 0 0 0 0
-59.399578 372.94958 -9.5253744 0 0 250 0 0 0 0
-60.30854 372.905 -9.4876499 0 0 250 0 0 0 0
-61.21711 372.854 -9.4477587 0 0 250 0 0 0 0
-62.128269 372.79709 -9.4134264 0 0 250 0 0 0 0
-63.03109 372.73651 -9.3792686 0 0 250 0 0 0 0
-63.932819 372.66849 -9.3419008 0 0 250 0 0 0 0
-64.827271 372.59979 -9.3024092 0 0 250 0 0 0 0
-65.721992 372.53229 -9.2676687 0 0 250 0 0 0 0
-66.615189 372.47089 -9.2345858 0 0 250 0 0 0 0
-67.509201 372.4021 -9.2009192 0 0 250 0 0 0 0
-68.40522 372.33331 -9.1715126 0 0 250 0 0 0 0
-69.300011 372.2717 -9.143158 0 0 250 0 0 0 0
-70.186172 372.20871 -9.1126719 0 0 250 0 0 0 0
-71.071381 372.1463 -9.0818272 0 0 250 0 0 0 0
-71.958488 372.0834 -9.0515633 0 0 250 0 0 0 0
-72.845337 372.02841 -9.0219049 0 0 250 0 0 0 0
-73.731483 371.97589 -8.989193 0 0 250 0 0 0 0
-74.613121 371.9277 -8.9551449 0 0 250 0 0 0 0
-75.495323 371.88611 -8.9206533 0 0 250 0 0 0 0
-76.369621 371.8493 -8.8857145 0 0 250 0 0 0 0
-77.24379 371.8176 -8.853528 0 0 250 0 0 0 0
-78.116051 371.78729 -8.82199 0 0 250 0 0 0 0
-78.984741 371.76019 -8.7930727 0 0 250 0 0 0 0
-79.849739 371.73541 -8.7672653 0 0 250 0 0 0 0
-80.71785 371.71851 -8.7392721 0 0 250 0 0 0 0
-81.584084 371.70679 -8.7098427 0 0 250 0 0 0 0
-82.44873 371.69739 -8.6802368 0 0 250 0 0 0 0
-83.311783 371.69479 -8.6483488 0 0 250 0 0 0 0
-84.168777 371.698 -8.6179638 0 0 250 0 0 0 0
-85.015587 371.7041 -8.5896139 0 0 250 0 0 0 0
-85.842712 371.7099 -8.5620155 0 0 250 0 0 0 0
-86.65213 371.71811 -8.5347004 0 0 250 0 0 0 0
-87.44548 371.72531 -8.5114727 0 0 250 0 0 0 0
-88.215691 371.7341 -8.488287 0 0 250 0 0 0 0
-88.966713 371.742 -8.4680996 0 0 250 0 0 0 0
-89.695427 371.74829 -8.4482393 0 0 250 0 0 0 0
-90.402657 371.75531 -8.426609 0 0 250 0 0 0 0
-91.087151 371.7554 -8.4105892 0 0 250 0 0 0 0
-91.744209 371.75381 -8.3969126 0 0 250 0 0 0 0
-92.376862 371.74719 -8.3778038 0 0 250 0 0 0 0
-92.990913 371.73792 -8.3598146 0 0 250 0 0 0 0
-93.584572 371.72131 -8.3435926 0 0 250 0 0 0 0
-94.181168 371.70001 -8.3271236 0 0 250 0 0 0 0
-94.774597 371.67319 -8.3092918 0 0 250 0 0 0 0
-95.366882 371.64551 -8.292758 0 0 250 0 0 0 0
-95.95417 371.61011 -8.2789583 0 0 250 0 0 0 0
-96.537804 371.57059 -8.2638578 0 0 250 0 0 0 0
-97.115997 371.52771 -8.2476215 0 0 250 0 0 0 0
-97.692902 371.48401 -8.2294493 0 0 250 0 0 0 0
-98.269928 371.43881 -8.2134514 0 0 250 0 0 0 0
-98.846359 371.38901 -8.1990337 0 0 250 0 0 0 0
-99.428841 371.3324 -8.186657 0 0 250 0 0 0 0
-100.0168 371.2717 -8.1710958 0 0 250 0 0 0 0
-100.6101 371.2114 -8.1564264 0 0 250 0 0 0 0
-101.2124 371.15009 -8.1414509 0 0 250 0 0 0 0
-101.8198 371.0817 -8.1271553 0 0 250 0 0 0 0
-102.4309 371.00549 -8.112895 0 0 250 0 0 0 0
-103.0491 370.9299 -8.0960464 0 0 250 0 0 0 0
-103.6768 370.85861 -8.07829 0 0 250 0 0 0 0
-104.3134 370.7887 -8.060977 0 0 250 0 0 0 0
-104.9637 370.71289 -8.0423899 0 0 250 0 0 0 0
-105.6283 370.63431 -8.019412 0 0 250 0 0 0 0
-106.3014 370.55319 -7.9951029 0 0 250 0 0 0 0
-106.9999 370.46979 -7.9617672 0 0 250 0 0 0 0
-107.7095 370.3837 -7.9271131 0 0 250 0 0 0 0
-108.4259 370.2999 -7.8922148 0 0 250 0 0 0 0
-109.1474 370.21851 -7.8631868 0 0 250 0 0 0 0
-109.8735 370.14041 -7.822793 0 0 250 0 0 0 0
-110.6253 370.0636 -7.775619 0 0 250 0 0 0 0
-111.4139 369.99051 -7.727221 0 0 250 0 0 0 0
-112.2248 369.91571 -7.6906209 0 0 250 0 0 0 0
-113.0391 369.84949 -7.648582 0 0 250 0 0 0 0
-113.8504 369.78751 -7.5975499 0 0 250 0 0 0 0
-114.671 369.7225 -7.5511432 0 0 250 0 0 0 0
-115.5125 369.6572 -7.5066962 0 0 250 0 0 0 0
-116.3815 369.58789 -7.4707589 0 0 250 0 0 0 0
-117.2754 369.51749 -7.432281 0 0 250 0 0 0 0
-118.1783 369.45511 -7.3925128 0 0 250 0 0 0 0
-119.079 369.40201 -7.3526912 0 0 250 0 0 0 0
-119.9904 369.36371 -7.316884 0 0 250 0 0 0 0
-120.9176 369.33749 -7.2878752 0 0 250 0 0 0 0
-121.8705 369.31241 -7.268012 0 0 250 0 0 0 0
-122.8443 369.29099 -7.242979 0 0 250 0 0 0 0
-123.822 369.26849 -7.2103572 0 0 250 0 0 0 0
-124.798 369.25101 -7.171402 0 0 250 0 0 0 0
-125.7739 369.23599 -7.1297202 0 0 250 0 0 0 0
-126.7573 369.22861 -7.0942588 0 0 250 0 0 0 0
-127.7492 369.22198 -7.067306 0 0 250 0 0 0 0
-128.7442 369.21619 -7.0396161 0 0 250 0 0 0 0
-129.7392 369.2059 -7.0100532 0 0 250 0 0 0 0
-130.7381 369.19131 -6.9787822 0 0 250 0 0 0 0
-131.7386 369.17542 -6.9446578 0 0 250 0 0 0 0
-132.737 369.16129 -6.909152 0 0 250 0 0 0 0
-133.7249 369.151 -6.8730001 0 0 250 0 0 0 0
-134.71069 369.142 -6.836596 0 0 250 0 0 0 0
-135.69949 369.13129 -6.8018522 0 0 250 0 0 0 0
-136.69321 369.1167 -6.7674861 0 0 250 0 0 0 0
-137.686 369.0914 -6.7331319 0 0 250 0 0 0 0
-138.66789 369.06299 -6.6973901 0 0 250 0 0 0 0
-139.6402 369.02621 -6.665761 0 0 250 0 0 0 0
-140.6078 368.98401 -6.6328602 0 0 250 0 0 0 0
-141.5778 368.9429 -6.602139 0 0 250 0 0 0 0
-142.54539 368.90939 -6.5753198 0 0 250 0 0 0 0
-143.51511 368.87341 -6.5476789 0 0 250 0 0 0 0
-144.48599 368.83899 -6.5171018 0 0 250 0 0 0 0
-145.4529 368.80042 -6.4835629 0 0 250 0 0 0 0
-146.42039 368.758 -6.4452171 0 0 250 0 0 0 0
-147.3774 368.7095 -6.403585 0 0 250 0 0 0 0
-148.326 368.65369 -6.3627591 0 0 250 0 0 0 0
-149.27521 368.59811 -6.3214402 0 0 250 0 0 0 0
-150.2278 368.54071 -6.2881751 0 0 250 0 0 0 0
-151.18449 368.4837 -6.2561231 0 0 250 0 0 0 0
-152.1373 368.42499 -6.2191801 0 0 250 0 0 0 0
-153.08389 368.36789 -6.175756 0 0 250 0 0 0 0
-154.0295 368.3067 -6.1383281 0 0 250 0 0 0 0
-154.96851 368.2417 -6.1013961 0 0 250 0 0 0 0
-155.9016 368.1752 -6.064642 0 0 250 0 0 0 0
-156.834 368.11081 -6.0288792 0 0 250 0 0 0 0
-157.7614 368.04489 -5.9922981 0 0 250 0 0 0 0
-158.6835 367.9845 -5.9594851 0 0 250 0 0 0 0
-159.60159 367.92981 -5.9276972 0 0 250 0 0 0 0
-160.51961 367.87369 -5.8943639 0 0 250 0 0 0 0
-161.4371 367.8205 -5.861145 0 0 250 0 0 0 0
-162.35291 367.76971 -5.8265772 0 0 250 0 0 0 0
-163.2549 367.72061 -5.7895041 0 0 250 0 0 0 0
-164.1449 367.67068 -5.7501631 0 0 250 0 0 0 0
-165.0253 367.6228 -5.7090192 0 0 250 0 0 0 0
-165.8914 367.57419 -5.6669798 0 0 250 0 0 0 0
-166.74339 367.52481 -5.627809 0 0 250 0 0 0 0
-167.5871 367.4736 -5.5913978 0 0 250 0 0 0 0
-168.4147 367.42651 -5.5602078 0 0 250 0 0 0 0
-169.21381 367.3848 -5.5305772 0 0 250 0 0 0 0
-169.9897 367.34711 -5.4977069 0 0 250 0 0 0 0
-170.74719 367.30551 -5.465282 0 0 250 0 0 0 0
-171.4949 367.26941 -5.4361501 0 0 250 0 0 0 0
-172.2298 367.2374 -5.4087338 0 0 250 0 0 0 0
-172.9313 367.20129 -5.3846049 0 0 250 0 0 0 0
-173.6069 367.1608 -5.3624511 0 0 250 0 0 0 0
-174.255 367.1185 -5.340548 0 0 250 0 0 0 0
-174.8867 367.07599 -5.3179979 0 0 250 0 0 0 0
-175.5043 367.0285 -5.2946601 0 0 250 0 0 0 0
-176.11349 366.97629 -5.2771802 0 0 250 0 0 0 0
-176.70641 366.92789 -5.259521 0 0 250 0 0 0 0
-177.2879 366.87631 -5.2421021 0 0 250 0 0 0 0
-177.85159 366.8251 -5.2240672 0 0 250 0 0 0 0
-178.40581 366.77081 -5.200726 0 0 250 0 0 0 0
-178.9483 366.70059 -5.1781011 0 0 250 0 0 0 0
-179.48219 366.61911 -5.1576791 0 0 250 0 0 0 0
-180.0128 366.5239 -5.1378632 0 0 250 0 0 0 0
-180.52451 366.39221 -5.1149521 0 0 250 0 0 0 0
-181.041 366.2572 -5.0910048 0 0 250 0 0 0 0
-181.5484 366.1069 -5.0656939 0 0 250 0 0 0 0
-182.02341 365.8942 -5.0424771 0 0 250 0 0 0 0
-182.5069 365.7009 -5.016582 0 0 250 0 0 0 0
-182.9767 365.4859 -4.9902081 0 0 250 0 0 0 0
-183.3992 365.1915 -4.9604979 0 0 250 0 0 0 0
-183.8309 364.9227 -4.9314942 0 0 250 0 0 0 0
-184.24271 364.63281 -4.9064169 0 0 250 0 0 0 0
-184.59599 364.24451 -4.8804522 0 0 250 0 0 0 0
-184.9679 363.90189 -4.85677 0 0 250 0 0 0 0
-185.31799 363.53799 -4.8319988 0 0 250 0 0 0 0
-185.60001 363.06519 -4.8059311 0 0 250 0 0 0 0
-185.9006 362.64529 -4.775507 0 0 250 0 0 0 0
-186.12309 362.11649 -4.7445078 0 0 250 0 0 0 0
-186.36459 361.65149 -4.7132201 0 0 250 0 0 0 0
-186.5757 361.1633 -4.6874199 0 0 250 0 0 0 0
-186.7261 360.5806 -4.6549749 0 0 250 0 0 0 0
-186.88361 360.05139 -4.6256261 0 0 250 0 0 0 0
-186.9996 359.49789 -4.5922351 0 0 250 0 0 0 0
-187.0639 358.88379 -4.5606999 0 0 250 0 0 0 0
-187.12469 358.29709 -4.5312338 0 0 250 0 0 0 0
-187.1523 357.6756 -4.5056229 0 0 250 0 0 0 0
-187.1797 357.05539 -4.4736118 0 0 250 0 0 0 0
0 0 0 1 0 0 0 1 0 0 0 1 0 0 0 0 0 965 1 0 0
