ply
format ascii 1.0
comment PCL generated
element vertex 484
property float x
property float y
property float z
property uchar red
property uchar green
property uchar blue
property float nx
property float ny
property float nz
property float curvature
element camera 1
property float view_px
property float view_py
property float view_pz
property float x_axisx
property float x_axisy
property float x_axisz
property float y_axisx
property float y_axisy
property float y_axisz
property float z_axisx
property float z_axisy
property float z_axisz
property float focal
property float scalex
property float scaley
property float centerx
property float centery
property int viewportx
property int viewporty
property float k1
property float k2
end_header
0 0 0 0 250 0 0 -0 0 0
-0.0082650548 0.85395455 -0.0017215717 0 250 0 0.0048515708 0.0016342081 -0.00072258245 0
-0.0075768391 1.7037463 -0.0041856407 0 250 0 0.0054130885 0.0022573888 0.001371581 0
-0.0076530552 2.5570841 -0.0023800142 0 250 0 0.0016639291 0.0023243967 0.0023480034 0
-0.011325528 3.4092081 -0.0006658241 0 250 0 -0.0043179546 0.0018508037 0.0045806053 0
-0.011197722 4.2655745 0.0033710531 0 250 0 -0.0038436321 0.00061219785 0.007239691 0
-0.0075692432 5.1125269 0.0010392399 0 250 0 -0.0013746313 -0.00054966286 0.0097768661 0
-0.01252422 5.949893 -0.0023285323 0 250 0 0.001678382 -0.0013673163 0.010399258 0
-0.024379563 6.8107991 0.0011112246 0 250 0 0.0023784637 -0.0018308769 0.0095234448 0
-0.031196894 7.6392531 -0.0026092115 0 250 0 0.00033598565 -0.0028476208 0.0095572788 0
-0.038268585 8.4818335 -0.0060889926 0 250 0 -0.0030758276 -0.0036016956 0.009812816 0
-0.047160938 9.3016014 -0.0032583217 0 250 0 -0.0044876277 -0.0043484219 0.010132965 0
-0.048993468 10.120015 0.0033023898 0 250 0 -0.00503544 -0.0051011569 0.011581019 0
-0.054271162 10.952946 0.0060340716 0 250 0 -0.004997592 -0.005971869 0.011461816 0
-0.060257033 11.758479 0.0051826523 0 250 0 -0.0037999116 -0.0068939198 0.012148114 0
-0.071585484 12.576496 0.011324827 0 250 0 -0.0017146239 -0.0083434777 0.01276112 0
-0.080118813 13.382272 0.015147666 0 250 0 -0.00012786606 -0.009894168 0.013846851 0
-0.092468813 14.190593 0.016076062 0 250 0 0.00049318862 -0.011552759 0.01366103 0
-0.10650147 14.99843 0.016334726 0 250 0 0.0014317462 -0.013248903 0.012541443 0
-0.11726703 15.804542 0.015846761 0 250 0 0.0015074507 -0.015207604 0.011113073 0
-0.13491501 16.598782 0.011806342 0 250 0 0.00042844476 -0.016779672 0.011499874 0
-0.15488768 17.390493 0.013976623 0 250 0 -0.00084894564 -0.018169068 0.010847302 0
-0.17273079 18.179499 0.018743316 0 250 0 -0.001085339 -0.01960497 0.010527166 0
-0.18799084 18.974918 0.01960998 0 250 0 -0.0007305356 -0.021478478 0.011688037 0
-0.20640221 19.749113 0.017266544 0 250 0 -0.0007194028 -0.023142794 0.011839682 0
-0.22545093 20.517357 0.012106913 0 250 0 -0.0015886505 -0.024486383 0.012171105 0
-0.24561706 21.283922 0.013355681 0 250 0 -0.0036657159 -0.025798175 0.012167973 0
-0.26407343 22.048162 0.016443841 0 250 0 -0.0066327602 -0.026924016 0.013544211 0
-0.28787896 22.801281 0.015341048 0 250 0 -0.0085354624 -0.02757637 0.013178473 0
-0.31172389 23.543715 0.01417428 0 250 0 -0.0076061725 -0.028338216 0.012334494 0
-0.33551219 24.266006 0.018878473 0 250 0 -0.0049048122 -0.029424392 0.011379983 0
-0.3602635 24.97732 0.018766295 0 250 0 -0.0035479132 -0.030226547 0.011096935 0
-0.38668516 25.676725 0.015822863 0 250 0 -0.0033404415 -0.031265873 0.010337397 0
-0.40900961 26.381054 0.013135456 0 250 0 -0.003007249 -0.032571301 0.010393063 0
-0.43967062 27.064407 0.0096924799 0 250 0 -0.0025072745 -0.034357652 0.010203055 0
-0.46526715 27.750196 0.01499026 0 250 0 -0.0020748144 -0.036507644 0.0096882908 0
-0.49737561 28.426031 0.023672821 0 250 0 -0.0027315782 -0.038328059 0.0093937563 0
-0.52814186 29.102093 0.02820814 0 250 0 -0.0048767887 -0.04026594 0.0094503025 0
-0.56110084 29.764372 0.029346911 0 250 0 -0.0063917008 -0.042197943 0.0086557381 0
-0.59062296 30.424244 0.033013321 0 250 0 -0.0066545685 -0.044407729 0.0073903007 0
-0.63113964 31.061735 0.03602175 0 250 0 -0.005838797 -0.046084959 0.0045050764 0
-0.665537 31.690378 0.037256014 0 250 0 -0.0050893929 -0.048109077 0.0026755601 0
-0.70067483 32.310944 0.04486062 0 250 0 -0.0061374661 -0.049459957 0.0019543397 0
-0.72999531 32.937469 0.048513345 0 250 0 -0.0079063857 -0.050678983 0.00058144715 0
-0.77125806 33.537636 0.05481996 0 250 0 -0.008247342 -0.050561279 -0.0022069719 0
-0.81393015 34.12915 0.056452934 0 250 0 -0.0060124137 -0.049288295 -0.005510591 0
-0.84675735 34.718712 0.059387792 0 250 0 -0.0027215439 -0.047572691 -0.0076848301 0
-0.87847465 35.292194 0.061696876 0 250 0 -0.00091282098 -0.04515462 -0.0084680086 0
-0.90548617 35.872948 0.060756188 0 250 0 -0.0020910976 -0.041958287 -0.0092560202 0
-0.93455935 36.441711 0.062048048 0 250 0 -0.0045858752 -0.038673349 -0.013704604 0
-0.96237409 36.991295 0.062181424 0 250 0 -0.0080617843 -0.034904633 -0.018334746 0
-0.99102467 37.528831 0.062150773 0 250 0 -0.0090074148 -0.030375222 -0.023564283 0
-1.006901 38.060341 0.068865404 0 250 0 -0.0091659455 -0.025306538 -0.027516868 0
-1.0176569 38.571827 0.070297293 0 250 0 -0.011295005 -0.019780476 -0.031360168 0
-1.0305824 39.064953 0.074580863 0 250 0 -0.012526559 -0.013277863 -0.036529742 0
-1.0378741 39.534435 0.075805098 0 250 0 -0.012421777 -0.00647164 -0.040492907 0
-1.0438169 39.984554 0.074717477 0 250 0 -0.01298506 0.00089113438 -0.044153955 0
-1.0393261 40.42625 0.086681254 0 250 0 -0.012367763 0.0081014391 -0.04856595 0
-1.0363173 40.837986 0.08784157 0 250 0 -0.010385545 0.015628804 -0.053025585 0
-1.0287867 41.233231 0.0829916 0 250 0 -0.0079900641 0.023733832 -0.055316839 0
-1.0125916 41.612789 0.086913921 0 250 0 -0.0081456061 0.031442698 -0.055779822 0
-0.99785316 41.978451 0.092432819 0 250 0 -0.009661084 0.039285455 -0.055484753 0
-0.98180544 42.314137 0.093004204 0 250 0 -0.011031906 0.047394238 -0.057469502 0
-0.96598727 42.628685 0.094052829 0 250 0 -0.011740167 0.056098759 -0.060516149 0
-0.95107847 42.921581 0.095332772 0 250 0 -0.012038737 0.064966545 -0.065271512 0
-0.93644428 43.193672 0.099451773 0 250 0 -0.012714844 0.074067093 -0.06910105 0
-0.90909284 43.451515 0.10099486 0 250 0 -0.013739678 0.08346121 -0.068616152 0
-0.88091272 43.692276 0.098589525 0 250 0 -0.012770549 0.094315246 -0.067870989 0
-0.85169071 43.927376 0.10096965 0 250 0 -0.0087152738 0.10670836 -0.066206813 0
-0.81683201 44.163338 0.098720931 0 250 0 -0.0058796322 0.12029687 -0.067164451 0
-0.77459109 44.406181 0.10142405 0 250 0 -0.0045840451 0.13572578 -0.06826067 0
-0.73310596 44.643139 0.09820053 0 250 0 -0.0045719096 0.15210168 -0.069837295 0
-0.68371296 44.87846 0.099633008 0 250 0 -0.0043025534 0.16921189 -0.070473149 0
-0.62774509 45.110058 0.10256629 0 250 0 -0.003943434 0.18753056 -0.069448188 0
-0.56759548 45.323158 0.097671524 0 250 0 -0.0047793044 0.20697752 -0.068449169 0
-0.5024671 45.546181 0.098289028 0 250 0 -0.0048012487 0.22747239 -0.069062397 0
-0.43310824 45.762703 0.095745198 0 250 0 -0.0046113031 0.24924074 -0.071520522 0
-0.35746831 45.982475 0.091175944 0 250 0 -0.0045352965 0.27265406 -0.072949238 0
-0.27078891 46.198967 0.086867481 0 250 0 -0.0054447958 0.29783148 -0.074583806 0
-0.18525438 46.414417 0.082510211 0 250 0 -0.0072173099 0.32479331 -0.078063168 0
-0.089125305 46.624287 0.078151308 0 250 0 -0.0088772522 0.35350984 -0.080704041 0
0.017825745 46.840153 0.070355073 0 250 0 -0.010304566 0.38399732 -0.082644984 0
0.13973051 47.052208 0.065242864 0 250 0 -0.0096932771 0.41669738 -0.081044309 0
0.2715081 47.255615 0.056842443 0 250 0 -0.0080717029 0.45229647 -0.077942714 0
0.41160175 47.458405 0.046614513 0 250 0 -0.0054895333 0.49045095 -0.076121032 0
0.5567348 47.668247 0.038277846 0 250 0 -0.0035731227 0.53044862 -0.077520274 0
0.71839166 47.871246 0.027656388 0 250 0 -0.0019882717 0.57162273 -0.078213833 0
0.89397889 48.075939 0.019201424 0 250 0 -0.0029288586 0.61510956 -0.082007408 0
1.0841742 48.291718 0.010550445 0 250 0 -0.0063259434 0.66047412 -0.088429384 0
1.2897601 48.503132 -0.0023343333 0 250 0 -0.011600353 0.70700246 -0.096420474 0
1.5194416 48.715137 -0.011638003 0 250 0 -0.014998761 0.75615293 -0.10094047 0
1.7718095 48.918125 -0.032345902 0 250 0 -0.017652806 0.80805284 -0.10108171 0
2.049113 49.114994 -0.049516868 0 250 0 -0.020165237 0.86061859 -0.10254084 0
2.3475134 49.312454 -0.069653146 0 250 0 -0.02421388 0.91507733 -0.10587253 0
2.6615446 49.492886 -0.093493402 0 250 0 -0.026400665 0.97175032 -0.1085237 0
2.9974532 49.662922 -0.12065573 0 250 0 -0.031227292 1.0287269 -0.11236185 0
3.3627748 49.841862 -0.14720947 0 250 0 -0.041938376 1.0850761 -0.12111506 0
3.7428601 49.992218 -0.1701254 0 250 0 -0.056956634 1.1399369 -0.13362139 0
4.1452608 50.131554 -0.19364879 0 250 0 -0.081368007 1.1933156 -0.15691309 0
4.5615606 50.249924 -0.21160667 0 250 0 -0.095681123 1.2454581 -0.17257136 0
4.9945617 50.339211 -0.23738804 0 250 0 -0.083313547 1.2959362 -0.15888335 0
5.4460492 50.400997 -0.26574045 0 250 0 -0.058984037 1.3423947 -0.13021897 0
5.8994398 50.451351 -0.29021356 0 250 0 -0.035587605 1.3859512 -0.10680741 0
6.3746371 50.50433 -0.31744558 0 250 0 -0.035067867 1.4250711 -0.107861 0
6.8561387 50.535694 -0.34526652 0 250 0 0.02079186 1.4584247 -0.053569283 0
7.3592973 50.563278 -0.37942547 0 250 0 0.092151523 1.4876777 0.019139849 0
7.8656306 50.573864 -0.41052213 0 250 0 0.22779761 1.5119276 0.1565015 0
8.3889875 50.583645 -0.43693396 0 250 0 0.42586514 1.5299333 0.35553452 0
8.918273 50.588459 -0.46797517 0 250 0 0.71447128 1.5424578 0.64237374 0
9.4535341 50.588612 -0.50029552 0 250 0 1.1508766 1.551052 1.0791857 0
10.002854 50.587597 -0.53829497 0 250 0 1.7870938 1.5527029 1.714672 0
10.554602 50.569153 -0.57366097 0 250 0 2.1133678 1.5454683 2.0382662 0
11.120911 50.552597 -0.61459535 0 250 0 2.2372191 1.5387487 2.1606352 0
11.701649 50.534958 -0.64678711 0 250 0 2.3352721 1.5359675 2.2590637 0
12.293522 50.523129 -0.68504977 0 250 0 2.4384611 1.5348566 2.3651078 0
12.897525 50.506725 -0.72029787 0 250 0 2.5212111 1.5343782 2.4545705 0
13.512668 50.485977 -0.75583029 0 250 0 2.5004299 1.5327879 2.4393678 0
14.132586 50.464893 -0.78864586 0 250 0 2.4591768 1.5308849 2.4006693 0
14.744177 50.442959 -0.82396585 0 250 0 2.4076319 1.5290083 2.3469143 0
15.367411 50.42786 -0.86218154 0 250 0 2.3882451 1.5287237 2.3204007 0
16.012306 50.400192 -0.89249712 0 250 0 2.3386645 1.5300146 2.2626319 0
16.659212 50.38863 -0.92561823 0 250 0 2.2913074 1.5307175 2.21434 0
17.332973 50.36657 -0.96354455 0 250 0 2.2445967 1.5326625 2.1718702 0
18.007557 50.352577 -1.0133663 0 250 0 2.1811366 1.5344449 2.1150343 0
18.671707 50.347473 -1.0564005 0 250 0 2.1375327 1.5375507 2.0727856 0
19.32752 50.320866 -1.1013415 0 250 0 1.9564372 1.532035 1.8865519 0
19.982079 50.311832 -1.142056 0 250 0 1.8655332 1.53133 1.7899758 0
20.638981 50.317612 -1.1867245 0 250 0 1.8371067 1.5379837 1.76106 0
21.305868 50.324566 -1.2330167 0 250 0 1.7422216 1.5426525 1.6697981 0
21.976965 50.323738 -1.2828823 0 250 0 1.5733551 1.5388204 1.5047228 0
22.635897 50.32576 -1.3299115 0 250 0 1.4855864 1.5337095 1.4157619 0
23.300838 50.329193 -1.3734156 0 250 0 1.4107338 1.5328941 1.3363622 0
23.967459 50.346874 -1.4177148 0 250 0 1.2882659 1.535521 1.2132598 0
24.628113 50.361546 -1.4615725 0 250 0 1.1862839 1.534969 1.1117543 0
25.305676 50.372162 -1.5125018 0 250 0 1.1435897 1.5299928 1.0721545 0
25.977285 50.376526 -1.5632901 0 250 0 1.1210362 1.5238273 1.0492395 0
26.653694 50.394012 -1.6070124 0 250 0 1.0918602 1.5197719 1.0192283 0
27.315617 50.413563 -1.6519451 0 250 0 1.0487889 1.5178421 0.97636133 0
27.988892 50.431488 -1.6989651 0 250 0 1.0046682 1.5146831 0.9335053 0
28.668034 50.456024 -1.7510674 0 250 0 0.97352946 1.5109859 0.90341645 0
29.347992 50.489414 -1.7951627 0 250 0 0.91512972 1.510711 0.84445435 0
30.019169 50.517532 -1.8453331 0 250 0 0.84914225 1.5102568 0.77701092 0
30.696033 50.544464 -1.8908511 0 250 0 0.83474118 1.5069209 0.76243073 0
31.382483 50.585155 -1.9368249 0 250 0 0.77781022 1.506698 0.70572001 0
32.053211 50.623791 -1.9857576 0 250 0 0.73423815 1.5059198 0.66210192 0
32.732498 50.665966 -2.0362127 0 250 0 0.6768322 1.5054523 0.60483557 0
33.419594 50.704609 -2.0873926 0 250 0 0.62876689 1.5030782 0.55487347 0
34.103985 50.744667 -2.1348126 0 250 0 0.5909422 1.500623 0.51348615 0
34.787846 50.803703 -2.1849821 0 250 0 0.57490754 1.4977763 0.49498415 0
35.475693 50.858109 -2.2364035 0 250 0 0.4837153 1.4978672 0.40164512 0
36.168926 50.914211 -2.289417 0 250 0 0.4205395 1.4966451 0.33935195 0
36.86496 50.968254 -2.3421547 0 250 0 0.42957696 1.4925547 0.34772769 0
37.579521 51.018902 -2.4001906 0 250 0 0.40575761 1.4886141 0.32262221 0
38.281296 51.074169 -2.4619942 0 250 0 0.34112433 1.4858559 0.25745261 0
38.98867 51.140572 -2.5168023 0 250 0 0.31225634 1.4819511 0.23059434 0
39.705097 51.207027 -2.5756226 0 250 0 0.30844647 1.4768727 0.2268859 0
40.411209 51.288502 -2.6279716 0 250 0 0.26360574 1.4728624 0.17815296 0
41.127098 51.366131 -2.6846294 0 250 0 0.24837479 1.4667816 0.15422928 0
41.841267 51.454624 -2.7425845 0 250 0 0.22648701 1.4599606 0.12729993 0
42.55624 51.546764 -2.8127649 0 250 0 0.18512668 1.453317 0.083376996 0
43.286278 51.654827 -2.8873549 0 250 0 0.14358844 1.4466965 0.043814808 0
44.016376 51.764221 -2.9560881 0 250 0 0.13748261 1.4395359 0.039331619 0
44.751919 51.881733 -3.0218372 0 250 0 0.12767674 1.4324431 0.03288829 0
45.488537 51.999306 -3.0822909 0 250 0 0.1055878 1.425001 0.016173624 0
46.224491 52.120914 -3.1470275 0 250 0 0.084115498 1.4176823 0.002513868 0
46.950134 52.2439 -3.2134476 0 250 0 0.083455384 1.4100262 0.0051052161 0
47.671608 52.368107 -3.2689152 0 250 0 0.083373912 1.4025748 0.0030795087 0
48.384407 52.498016 -3.3216488 0 250 0 0.095580891 1.3966401 0.0085576745 0
49.080502 52.634121 -3.3792005 0 250 0 0.087859236 1.3917109 -0.0025852588 0
49.770039 52.772301 -3.4457474 0 250 0 0.079454392 1.3869034 -0.013778927 0
50.454357 52.912109 -3.5044801 0 250 0 0.06533473 1.3815098 -0.027522597 0
51.140572 53.047665 -3.5748608 0 250 0 0.080177888 1.376538 -0.0097676367 0
51.818092 53.187279 -3.6383488 0 250 0 0.073275097 1.3720855 -0.0097588841 0
52.487885 53.328457 -3.6949635 0 250 0 0.059260126 1.3686247 -0.017334841 0
53.142517 53.475925 -3.7444301 0 250 0 0.039355706 1.3653831 -0.033753205 0
53.784752 53.615726 -3.7910039 0 250 0 0.031155264 1.3618071 -0.041914411 0
54.422787 53.754948 -3.8388679 0 250 0 0.024129653 1.3592043 -0.05082171 0
55.04414 53.899624 -3.8865421 0 250 0 0.0092404131 1.3575119 -0.069806144 0
55.653496 54.037243 -3.9299138 0 250 0 0.0061256788 1.3550682 -0.077516958 0
56.263416 54.17355 -3.9804718 0 250 0 0.0076692719 1.3524482 -0.081594899 0
56.86927 54.309475 -4.0244236 0 250 0 0.014198137 1.3506297 -0.077635646 0
57.455997 54.450642 -4.071856 0 250 0 0.0026394385 1.349133 -0.08906325 0
58.043087 54.586922 -4.1237679 0 250 0 0.0011649153 1.3484503 -0.087540425 0
58.627533 54.724426 -4.1757612 0 250 0 -0.002259003 1.3478514 -0.08837834 0
59.193943 54.853672 -4.2220206 0 250 0 -0.00021659794 1.3480257 -0.085254587 0
59.755379 54.986595 -4.2720222 0 250 0 -0.0030989889 1.3496369 -0.087250888 0
60.316124 55.11681 -4.3208003 0 250 0 -0.0065920046 1.3511629 -0.091273829 0
60.866947 55.248913 -4.3640165 0 250 0 -0.009977879 1.3537213 -0.09781196 0
61.407627 55.370987 -4.4167747 0 250 0 -0.00029156756 1.3563006 -0.091855839 0
61.939137 55.482773 -4.4596653 0 250 0 0.01167425 1.3580979 -0.080813356 0
62.469975 55.599731 -4.498704 0 250 0 0.0083372137 1.3601127 -0.083297707 0
62.988934 55.715076 -4.5448632 0 250 0 0.00099822832 1.3628188 -0.087729648 0
63.504383 55.826027 -4.5950546 0 250 0 -0.0031984309 1.3650656 -0.087801948 0
64.004959 55.923897 -4.6431322 0 250 0 0.013977515 1.3671227 -0.0696126 0
64.497871 56.023415 -4.680769 0 250 0 0.03460246 1.3690828 -0.051123142 0
64.98288 56.11721 -4.722743 0 250 0 0.056741174 1.3717115 -0.031346675 0
65.470093 56.214882 -4.7624407 0 250 0 0.055398446 1.3732201 -0.034440503 0
65.960152 56.317146 -4.8060551 0 250 0 0.056136135 1.374436 -0.036142681 0
66.44706 56.415241 -4.850708 0 250 0 0.063553393 1.3758298 -0.027115909 0
66.939796 56.507679 -4.8924112 0 250 0 0.092277437 1.3752061 0.0028406004 0
67.436745 56.598412 -4.9309697 0 250 0 0.11440127 1.3726499 0.026255609 0
67.931473 56.700481 -4.9697824 0 250 0 0.12777407 1.3705938 0.040026989 0
68.428787 56.819748 -5.0117555 0 250 0 0.11281179 1.3677307 0.025321348 0
68.923859 56.929321 -5.0497265 0 250 0 0.10537409 1.3622229 0.016864866 0
69.430954 57.043262 -5.0844054 0 250 0 0.10976772 1.3555632 0.021969322 0
69.935547 57.170052 -5.1165004 0 250 0 0.099236809 1.3480843 0.010695033 0
70.454643 57.29977 -5.1570797 0 250 0 0.097628064 1.3395996 0.010715726 0
70.972931 57.437981 -5.2009144 0 250 0 0.080650479 1.3305836 -0.0058808126 0
71.501709 57.583115 -5.2457261 0 250 0 0.075102128 1.3207256 -0.010921291 0
72.02639 57.737961 -5.2816691 0 250 0 0.05829386 1.3109215 -0.031535383 0
72.567261 57.900711 -5.3295259 0 250 0 0.049024362 1.3010842 -0.04243299 0
73.107132 58.073944 -5.3736806 0 250 0 0.037079114 1.2902143 -0.057172496 0
73.645195 58.244007 -5.4173031 0 250 0 0.035913203 1.2793429 -0.060639992 0
74.204292 58.427101 -5.4658971 0 250 0 0.02767881 1.268746 -0.069262132 0
74.769829 58.615757 -5.5104403 0 250 0 0.027407294 1.2576709 -0.070166297 0
75.339813 58.822479 -5.558177 0 250 0 0.017301096 1.2467862 -0.080866449 0
75.918159 59.033642 -5.6088572 0 250 0 0.015731623 1.235791 -0.077325046 0
76.512581 59.24881 -5.6603904 0 250 0 0.020548396 1.2245011 -0.065544568 0
77.114082 59.474968 -5.7073274 0 250 0 0.021969939 1.2129802 -0.060026556 0
77.727707 59.717041 -5.7530832 0 250 0 0.019574996 1.2019356 -0.058816269 0
78.325882 59.960758 -5.7972846 0 250 0 0.036024652 1.1922477 -0.040848937 0
78.950104 60.214249 -5.8372903 0 250 0 0.049906675 1.1831871 -0.022477103 0
79.590836 60.472195 -5.8760796 0 250 0 0.066713519 1.1755878 0.0022103149 0
80.24234 60.742657 -5.9185348 0 250 0 0.076095372 1.1677357 0.015224909 0
80.892487 61.02734 -5.9590592 0 250 0 0.080288202 1.1599536 0.018440131 0
81.52861 61.317379 -5.9980378 0 250 0 0.093187697 1.152126 0.023740847 0
82.161873 61.600964 -6.0403337 0 250 0 0.10744307 1.1440612 0.032297224 0
82.796509 61.898918 -6.087079 0 250 0 0.10541734 1.1382523 0.028103575 0
83.420479 62.209656 -6.1378417 0 250 0 0.088330299 1.1337731 0.010433601 0
84.043365 62.525143 -6.1849294 0 250 0 0.076207086 1.1297311 -0.0045679794 0
84.65593 62.827534 -6.2341709 0 250 0 0.076874621 1.1254346 -0.0078531746 0
85.255043 63.125557 -6.2872252 0 250 0 0.073337778 1.1210897 -0.015405633 0
85.846542 63.425079 -6.3419461 0 250 0 0.066985615 1.1173294 -0.024658041 0
86.430489 63.724571 -6.4006529 0 250 0 0.062379874 1.1131151 -0.027473824 0
87.012787 64.019226 -6.4516902 0 250 0 0.061615601 1.1087701 -0.025310831 0
87.58033 64.31382 -6.5067134 0 250 0 0.058758967 1.1047155 -0.025026005 0
88.142578 64.606323 -6.5670567 0 250 0 0.055162366 1.1006622 -0.027002988 0
88.7015 64.898949 -6.6231904 0 250 0 0.052581474 1.0965538 -0.03091735 0
89.23819 65.183411 -6.6701064 0 250 0 0.055460479 1.0936786 -0.028995022 0
89.776596 65.461578 -6.7161689 0 250 0 0.059071902 1.0912763 -0.023989897 0
90.30471 65.739548 -6.7622142 0 250 0 0.062637039 1.089254 -0.019915111 0
90.820885 66.021019 -6.8119507 0 250 0 0.059026394 1.0874157 -0.023216894 0
91.327744 66.291824 -6.8578892 0 250 0 0.062126804 1.0851027 -0.019997971 0
91.827095 66.558853 -6.9034705 0 250 0 0.062841386 1.0820137 -0.021186639 0
92.326508 66.820244 -6.9487333 0 250 0 0.07097961 1.078118 -0.013463203 0
92.818771 67.088554 -6.9966059 0 250 0 0.075291127 1.074616 -0.0088147642 0
93.301056 67.350616 -7.0401349 0 250 0 0.080399677 1.0708873 -0.0028029005 0
93.764679 67.606537 -7.0835052 0 250 0 0.081984811 1.0669557 -0.00060682197 0
94.234039 67.8657 -7.1267848 0 250 0 0.083780058 1.062953 0.0012409142 0
94.691086 68.121628 -7.1759653 0 250 0 0.083702333 1.0587693 0.0019181393 0
95.14537 68.378189 -7.2144957 0 250 0 0.086698674 1.0544327 0.0049169194 0
95.594925 68.638687 -7.2558317 0 250 0 0.087535173 1.0498099 0.0043318705 0
96.044327 68.899712 -7.2964153 0 250 0 0.094183996 1.044608 0.010159809 0
96.488983 69.165146 -7.3365426 0 250 0 0.093393281 1.0388945 0.0057070237 0
96.916664 69.429596 -7.3848128 0 250 0 0.092263512 1.0327402 -0.0011300186 0
97.345985 69.700592 -7.426055 0 250 0 0.088619635 1.0258573 -0.011886441 0
97.772446 69.97683 -7.4694457 0 250 0 0.085090026 1.018598 -0.021740725 0
98.202713 70.254822 -7.517374 0 250 0 0.08396592 1.0108122 -0.027238792 0
98.631699 70.542641 -7.5618014 0 250 0 0.07507319 1.0042392 -0.035791401 0
99.071899 70.850555 -7.6144714 0 250 0 0.06001962 0.9977175 -0.047812309 0
99.510704 71.160316 -7.6610618 0 250 0 0.044317309 0.99070877 -0.059078228 0
99.953087 71.476357 -7.7098126 0 250 0 0.029527502 0.98337162 -0.069714829 0
100.39991 71.795601 -7.7558298 0 250 0 0.02233476 0.9759748 -0.07406836 0
100.84959 72.119225 -7.7954903 0 250 0 0.016927706 0.96795857 -0.082554691 0
101.30457 72.459633 -7.8404555 0 250 0 0.013989538 0.96056443 -0.088967547 0
101.76784 72.807762 -7.8873863 0 250 0 0.012553955 0.95278335 -0.093446799 0
102.24007 73.164566 -7.9288926 0 250 0 0.011539862 0.94522703 -0.096749477 0
102.71971 73.530632 -7.9695764 0 250 0 0.0072005759 0.9370231 -0.10165719 0
103.20829 73.911629 -8.0088673 0 250 0 -0.00042581718 0.92854089 -0.11037436 0
103.70367 74.301926 -8.0566549 0 250 0 -0.0023586163 0.91951263 -0.10980605 0
104.20936 74.710533 -8.1009102 0 250 0 -0.0035318143 0.91033393 -0.10902106 0
104.72111 75.132851 -8.1522779 0 250 0 -0.0031273155 0.90090579 -0.1086932 0
105.23253 75.565155 -8.1941185 0 250 0 -0.0075504296 0.89084524 -0.11450415 0
105.74918 76.017609 -8.2358561 0 250 0 -0.0068234019 0.88117707 -0.11480993 0
106.2718 76.476921 -8.2848997 0 250 0 -0.0082432609 0.87236094 -0.11627645 0
106.80085 76.943245 -8.3306236 0 250 0 -0.0084092095 0.86589545 -0.11548445 0
107.3396 77.417648 -8.3829355 0 250 0 -0.0070579774 0.86112177 -0.11288506 0
107.87634 77.898911 -8.4338198 0 250 0 -0.0029842008 0.85705608 -0.10713859 0
108.43079 78.385986 -8.4863062 0 250 0 0.0030849685 0.85312361 -0.098594785 0
108.99026 78.87574 -8.5353737 0 250 0 0.010611812 0.84892833 -0.086961046 0
109.55643 79.373611 -8.5827847 0 250 0 0.015229635 0.84431851 -0.07776396 0
110.12369 79.880516 -8.6304321 0 250 0 0.019117292 0.84047496 -0.069669984 0
110.6893 80.402115 -8.6837683 0 250 0 0.017738333 0.8360728 -0.068889618 0
111.24928 80.927864 -8.7266226 0 250 0 0.01908787 0.83226776 -0.069617197 0
111.81198 81.470497 -8.774313 0 250 0 0.014829352 0.82785177 -0.077635728 0
112.37576 82.017754 -8.8210621 0 250 0 0.0077724997 0.82348704 -0.08652512 0
112.94543 82.567589 -8.8678894 0 250 0 0.0038274603 0.81953758 -0.085924484 0
113.51612 83.120171 -8.9068356 0 250 0 -0.0057553346 0.81449807 -0.090907089 0
114.08712 83.678543 -8.947547 0 250 0 -0.011521754 0.80986774 -0.089529425 0
114.66288 84.245247 -8.9887257 0 250 0 -0.012260417 0.80392808 -0.086106949 0
115.24306 84.805817 -9.0317287 0 250 0 -0.0049104374 0.79788172 -0.077437699 0
115.82068 85.365417 -9.0677061 0 250 0 0.012483253 0.79131961 -0.061897662 0
116.40091 85.944878 -9.1109381 0 250 0 0.026717613 0.7843051 -0.053433176 0
116.97744 86.527649 -9.1467752 0 250 0 0.034678888 0.77639866 -0.04810236 0
117.5503 87.124107 -9.1921701 0 250 0 0.034106474 0.76805323 -0.044346076 0
118.12654 87.726395 -9.2422962 0 250 0 0.035830662 0.75982058 -0.037808232 0
118.69466 88.334167 -9.2952538 0 250 0 0.040175151 0.75207388 -0.031775523 0
119.24963 88.940285 -9.3407507 0 250 0 0.047972314 0.74561226 -0.028760714 0
119.80537 89.557121 -9.3863955 0 250 0 0.049206369 0.74008518 -0.02926226 0
120.36005 90.172501 -9.4360943 0 250 0 0.050456788 0.73539716 -0.02551638 0
120.91734 90.797424 -9.4872007 0 250 0 0.049393002 0.73189837 -0.020642195 0
121.48659 91.427925 -9.5379248 0 250 0 0.049794339 0.72973561 -0.015722277 0
122.05011 92.052429 -9.5829 0 250 0 0.050053403 0.72852075 -0.010962044 0
122.61158 92.684425 -9.6244373 0 250 0 0.04937236 0.72784936 -0.010641107 0
123.16795 93.311409 -9.6651726 0 250 0 0.047345474 0.72778618 -0.012433884 0
123.72166 93.94429 -9.7053328 0 250 0 0.04805417 0.72852993 -0.013846187 0
124.27512 94.571259 -9.7468405 0 250 0 0.045789927 0.73014486 -0.019431358 0
124.82864 95.199593 -9.7891912 0 250 0 0.044877369 0.73293054 -0.023426833 0
125.3939 95.835991 -9.8342171 0 250 0 0.040809881 0.73561704 -0.028483298 0
125.95519 96.457573 -9.8819551 0 250 0 0.038296994 0.73876119 -0.031467684 0
126.51581 97.083588 -9.9249249 0 250 0 0.035798464 0.74221975 -0.032324847 0
127.08321 97.711243 -9.9656391 0 250 0 0.032133438 0.74565721 -0.033101052 0
127.65131 98.327995 -10.006968 0 250 0 0.03386968 0.74963206 -0.028053939 0
128.21838 98.936989 -10.05524 0 250 0 0.038214494 0.75331628 -0.0291095 0
128.77603 99.542107 -10.102188 0 250 0 0.041735627 0.75811636 -0.036708407 0
129.33983 100.14237 -10.150133 0 250 0 0.045205187 0.76307976 -0.041354362 0
129.90938 100.74063 -10.200212 0 250 0 0.03952273 0.76770258 -0.043693777 0
130.48453 101.34404 -10.256991 0 250 0 0.031112161 0.77290803 -0.047298279 0
131.05542 101.94123 -10.30657 0 250 0 0.024292126 0.77790052 -0.050443217 0
131.61986 102.5151 -10.355156 0 250 0 0.024836779 0.78255081 -0.049573746 0
132.18913 103.08206 -10.401618 0 250 0 0.025550496 0.78664839 -0.047521148 0
132.76683 103.65057 -10.43935 0 250 0 0.032467272 0.79064518 -0.041526541 0
133.3391 104.20701 -10.486363 0 250 0 0.037531231 0.79543751 -0.037158649 0
133.92474 104.76839 -10.535072 0 250 0 0.043108016 0.80061084 -0.033925667 0
134.50682 105.3334 -10.583726 0 250 0 0.042647183 0.80592871 -0.034565944 0
135.0898 105.89616 -10.634185 0 250 0 0.040546257 0.81149447 -0.037212472 0
135.68251 106.45757 -10.687025 0 250 0 0.04145835 0.81798518 -0.035444636 0
136.27306 107.01251 -10.733024 0 250 0 0.040228438 0.82538795 -0.038489651 0
136.86688 107.55725 -10.786393 0 250 0 0.041309487 0.83346379 -0.04458224 0
137.4698 108.11125 -10.841879 0 250 0 0.041994233 0.84142137 -0.049470849 0
138.07571 108.65184 -10.898176 0 250 0 0.044949509 0.84975588 -0.049090747 0
138.69077 109.19244 -10.954665 0 250 0 0.036037639 0.85827249 -0.049647 0
139.32445 109.74622 -11.009291 0 250 0 0.018917486 0.86683625 -0.05836878 0
139.95036 110.2751 -11.059577 0 250 0 0.012992741 0.87602532 -0.058343071 0
140.5945 110.81501 -11.108821 0 250 0 0.0032041622 0.88497317 -0.0671838 0
141.24886 111.35482 -11.146677 0 250 0 0.0066084298 0.8951906 -0.0662411 0
141.90974 111.86487 -11.199189 0 250 0 0.016992263 0.90337354 -0.057635121 0
142.57999 112.38406 -11.245657 0 250 0 0.029318461 0.9118461 -0.056029528 0
143.26114 112.89087 -11.3 0 250 0 0.037764903 0.92095923 -0.04989823 0
143.94151 113.39481 -11.365778 0 250 0 0.037144989 0.92930347 -0.045582842 0
144.62746 113.88524 -11.428623 0 250 0 0.037572023 0.93800443 -0.038966805 0
145.3011 114.3787 -11.486782 0 250 0 0.03678951 0.94658035 -0.038452335 0
145.9612 114.85871 -11.546504 0 250 0 0.033891454 0.95533818 -0.042498749 0
146.65082 115.34195 -11.603358 0 250 0 0.040348865 0.96290356 -0.034583814 0
147.33994 115.80602 -11.653677 0 250 0 0.045568164 0.96881914 -0.023461083 0
148.00458 116.25771 -11.699053 0 250 0 0.043857191 0.97466326 -0.022245653 0
148.67833 116.72653 -11.746504 0 250 0 0.039033048 0.98032653 -0.025143558 0
149.33667 117.16765 -11.793651 0 250 0 0.040512238 0.98608464 -0.026341345 0
149.98375 117.59244 -11.843726 0 250 0 0.045625251 0.99032891 -0.024651162 0
150.63847 118.02264 -11.893025 0 250 0 0.050660197 0.99402714 -0.026366333 0
151.28775 118.44913 -11.942579 0 250 0 0.048773792 0.99795103 -0.030583121 0
151.92979 118.86372 -11.995198 0 250 0 0.044467963 1.000881 -0.029200589 0
152.57616 119.2712 -12.046412 0 250 0 0.042203587 1.0032647 -0.022767041 0
153.21306 119.6737 -12.100138 0 250 0 0.045196928 1.0060667 -0.014629969 0
153.84348 120.06622 -12.143675 0 250 0 0.054858297 1.0091056 -0.004538469 0
154.46353 120.45409 -12.181332 0 250 0 0.061958026 1.011626 -0.00069467502 0
155.07506 120.84152 -12.230851 0 250 0 0.064536415 1.0139374 -0.0057117315 0
155.68312 121.22078 -12.286963 0 250 0 0.070148818 1.016026 -0.0088533163 0
156.28514 121.58894 -12.331378 0 250 0 0.080854021 1.0184348 -0.00094696239 0
156.88974 121.96037 -12.380164 0 250 0 0.072004199 1.0213648 -0.0023097761 0
157.4926 122.34464 -12.430882 0 250 0 0.046053231 1.0251554 -0.016771195 0
158.07198 122.70998 -12.479821 0 250 0 0.023931615 1.028549 -0.03235209 0
158.65039 123.06953 -12.520171 0 250 0 0.022964431 1.0308424 -0.035299737 0
159.22482 123.42097 -12.556581 0 250 0 0.031017577 1.0337511 -0.030915217 0
159.79645 123.75495 -12.594029 0 250 0 0.036099672 1.036399 -0.028239351 0
160.35851 124.08775 -12.629188 0 250 0 0.034179334 1.0391701 -0.028865667 0
160.91125 124.41456 -12.666195 0 250 0 0.031578977 1.0419803 -0.030373761 0
161.45914 124.73886 -12.707491 0 250 0 0.030183237 1.0447263 -0.030610692 0
162.01019 125.05658 -12.743777 0 250 0 0.034297913 1.0479107 -0.027441395 0
162.54785 125.36627 -12.77987 0 250 0 0.037700359 1.0521486 -0.026106369 0
163.08501 125.67151 -12.82301 0 250 0 0.038852014 1.0568483 -0.026728148 0
163.60689 125.96747 -12.863814 0 250 0 0.040211894 1.0622962 -0.027097989 0
164.13562 126.26441 -12.896782 0 250 0 0.042281315 1.0681806 -0.027819576 0
164.66309 126.55229 -12.93338 0 250 0 0.048248935 1.07467 -0.025570547 0
165.19588 126.83474 -12.972313 0 250 0 0.05400461 1.0817599 -0.023110723 0
165.72687 127.11723 -13.016358 0 250 0 0.052019168 1.0890341 -0.02698447 0
166.27049 127.40717 -13.052357 0 250 0 0.042786431 1.0966107 -0.037174664 0
166.81133 127.68842 -13.093145 0 250 0 0.034127291 1.1036298 -0.046501443 0
167.37482 127.96336 -13.145067 0 250 0 0.033210579 1.110477 -0.047841929 0
167.92534 128.23196 -13.183066 0 250 0 0.032944933 1.1178404 -0.051480804 0
168.49704 128.51498 -13.224932 0 250 0 0.029553993 1.1263363 -0.059717361 0
169.06644 128.78848 -13.268666 0 250 0 0.026704835 1.1346281 -0.066084377 0
169.64609 129.05887 -13.317638 0 250 0 0.023856169 1.1425436 -0.071408577 0
170.23695 129.32587 -13.372813 0 250 0 0.022121267 1.1508317 -0.075840905 0
170.83614 129.59952 -13.425765 0 250 0 0.020148665 1.1590232 -0.079553232 0
171.44438 129.85754 -13.48322 0 250 0 0.028030956 1.1668252 -0.07261996 0
172.06448 130.11746 -13.533204 0 250 0 0.029885245 1.1750019 -0.070355356 0
172.69598 130.37636 -13.590466 0 250 0 0.029380776 1.1831874 -0.067795478 0
173.32994 130.64073 -13.648755 0 250 0 0.020864597 1.1914163 -0.073068105 0
173.98212 130.89565 -13.701907 0 250 0 0.018289326 1.1985224 -0.071247138 0
174.64154 131.14557 -13.755155 0 250 0 0.02502211 1.2049463 -0.061003413 0
175.31953 131.4062 -13.799887 0 250 0 0.015662031 1.2109367 -0.064214915 0
176.00575 131.6649 -13.849763 0 250 0 0.013265831 1.2173296 -0.061347842 0
176.69035 131.91228 -13.902425 0 250 0 0.025174418 1.2225848 -0.049045861 0
177.38834 132.16083 -13.956621 0 250 0 0.043682177 1.2278435 -0.039198473 0
178.08734 132.40814 -14.008024 0 250 0 0.065963671 1.2330791 -0.029398756 0
178.80821 132.65387 -14.067916 0 250 0 0.091489904 1.2374302 -0.011968905 0
179.5444 132.89767 -14.135015 0 250 0 0.10567275 1.2416731 0.0064099873 0
180.28983 133.14046 -14.204033 0 250 0 0.1185551 1.2463877 0.026705185 0
181.04607 133.38478 -14.271753 0 250 0 0.12133986 1.2513938 0.03505196 0
181.78909 133.63589 -14.338078 0 250 0 0.11603608 1.256669 0.023916446 0
182.54245 133.88879 -14.399811 0 250 0 0.10782214 1.2621691 0.006204023 0
183.30458 134.1403 -14.470303 0 250 0 0.099065512 1.2674073 -0.0050247968 0
184.06941 134.38481 -14.545555 0 250 0 0.082861044 1.2731322 -0.015644195 0
184.83572 134.62971 -14.620679 0 250 0 0.068174206 1.2791013 -0.026709467 0
185.6275 134.87172 -14.692806 0 250 0 0.063678905 1.2848176 -0.032281719 0
186.43871 135.11259 -14.762182 0 250 0 0.060898062 1.2902383 -0.039062969 0
187.23544 135.33904 -14.838044 0 250 0 0.073885053 1.2951934 -0.026086148 0
188.03375 135.56393 -14.912044 0 250 0 0.088431478 1.2996608 -0.011191582 0
188.85881 135.78568 -14.997723 0 250 0 0.096236974 1.3034667 -0.0017821061 0
189.68423 136.01443 -15.075308 0 250 0 0.10139444 1.3072671 0.0040679029 0
190.50583 136.23433 -15.158446 0 250 0 0.10505062 1.3103517 0.0087902099 0
191.3443 136.463 -15.236676 0 250 0 0.095949836 1.3131006 0.0012944095 0
192.17352 136.68056 -15.314866 0 250 0 0.095744304 1.3160355 0.0036362174 0
193.00008 136.90474 -15.390924 0 250 0 0.078458674 1.3188148 -0.013227731 0
193.82683 137.12572 -15.469466 0 250 0 0.07198628 1.3210092 -0.022180391 0
194.65829 137.34291 -15.546637 0 250 0 0.069600433 1.3226953 -0.025541969 0
195.48413 137.55402 -15.618921 0 250 0 0.071666092 1.3246973 -0.023351166 0
196.32547 137.77786 -15.698215 0 250 0 0.067461573 1.3266426 -0.02638945 0
197.15411 137.98726 -15.771255 0 250 0 0.068863161 1.3278071 -0.019620717 0
197.99467 138.19099 -15.856257 0 250 0 0.079833515 1.3292176 -0.0071002417 0
198.82819 138.3976 -15.922796 0 250 0 0.069910273 1.3309351 -0.018159321 0
199.64369 138.59851 -15.997517 0 250 0 0.078780144 1.332534 -0.016064011 0
200.46271 138.79701 -16.070337 0 250 0 0.080820285 1.334654 -0.016245402 0
201.30208 139.00206 -16.147741 0 250 0 0.07427977 1.3374501 -0.024020351 0
202.14018 139.20113 -16.22283 0 250 0 0.065906942 1.3401963 -0.028310064 0
202.97292 139.40012 -16.298588 0 250 0 0.058640007 1.3434297 -0.029431229 0
203.79477 139.58734 -16.374887 0 250 0 0.059170473 1.3472077 -0.024769358 0
204.60611 139.77859 -16.441149 0 250 0 0.05032292 1.3516307 -0.034029562 0
205.4325 139.96425 -16.508869 0 250 0 0.051801685 1.3559333 -0.033856422 0
206.24245 140.13974 -16.576006 0 250 0 0.05627355 1.3598207 -0.029726401 0
207.05373 140.31398 -16.649799 0 250 0 0.054637797 1.3641602 -0.030210758 0
207.8709 140.48369 -16.719515 0 250 0 0.056807827 1.3682933 -0.026851052 0
208.69841 140.65631 -16.787672 0 250 0 0.054006867 1.3723028 -0.028649453 0
209.51302 140.82697 -16.856222 0 250 0 0.044382479 1.3767556 -0.038584489 0
210.33586 140.99142 -16.925661 0 250 0 0.028599564 1.380735 -0.054633688 0
211.15575 141.15509 -16.992188 0 250 0 0.01504473 1.3848692 -0.067351453 0
211.9706 141.31482 -17.060219 0 250 0 -0.010375491 1.3883164 -0.09334626 0
212.78313 141.47839 -17.130491 0 250 0 -0.03872671 1.3913985 -0.12561136 0
213.59338 141.63359 -17.198399 0 250 0 -0.052541975 1.3945762 -0.14431801 0
214.40367 141.78346 -17.268816 0 250 0 -0.063514426 1.3976681 -0.1571252 0
215.22546 141.92911 -17.336372 0 250 0 -0.076157987 1.4006516 -0.16697788 0
216.04407 142.07181 -17.40741 0 250 0 -0.079200059 1.4040451 -0.1664113 0
216.85667 142.21049 -17.480158 0 250 0 -0.082769401 1.4071755 -0.16623192 0
217.66017 142.34465 -17.545527 0 250 0 -0.080294572 1.4105622 -0.16274069 0
218.46565 142.48021 -17.61075 0 250 0 -0.083513007 1.4142109 -0.16549557 0
219.27316 142.61014 -17.679035 0 250 0 -0.08808922 1.418273 -0.17164567 0
220.07756 142.73251 -17.742853 0 250 0 -0.090952367 1.422785 -0.17738789 0
220.88768 142.84172 -17.805059 0 250 0 -0.033961684 1.4289315 -0.11581115 0
221.69824 142.94931 -17.865536 0 250 0 -0.040619321 1.4330459 -0.11718679 0
222.49548 143.05844 -17.930111 0 250 0 -0.041233752 1.4385189 -0.11903822 0
223.28098 143.1601 -17.993855 0 250 0 -0.022048255 1.4426984 -0.11244232 0
224.06587 143.25636 -18.056396 0 250 0 -0.0068175588 1.4481369 -0.10963589 0
224.87572 143.3636 -18.133461 0 250 0 -0.022043239 1.4538617 -0.12914799 0
225.66747 143.45863 -18.212067 0 250 0 -0.069529124 1.458402 -0.17127693 0
226.47681 143.54828 -18.287378 0 250 0 -0.10441923 1.4627918 -0.19923837 0
227.28957 143.64363 -18.37022 0 250 0 -0.146997 1.4674711 -0.23708247 0
228.08987 143.73273 -18.43701 0 250 0 -0.20182088 1.4724349 -0.291646 0
228.87749 143.81412 -18.50462 0 250 0 -0.26903719 1.4777887 -0.35664165 0
229.66261 143.89709 -18.564684 0 250 0 -0.35389271 1.483188 -0.43716064 0
230.46875 143.97028 -18.622858 0 250 0 -0.40683898 1.4890583 -0.48688561 0
231.25854 144.02548 -18.690723 0 250 0 -0.40549484 1.4967256 -0.48701912 0
232.06992 144.07762 -18.743889 0 250 0 -0.43022701 1.5030042 -0.51616132 0
232.84717 144.12044 -18.804506 0 250 0 -0.45502323 1.5096945 -0.5431239 0
233.6391 144.1685 -18.868217 0 250 0 -0.53428084 1.5148371 -0.6207903 0
234.43767 144.20753 -18.938761 0 250 0 -0.61524677 1.5194684 -0.69902182 0
235.21056 144.2383 -19.005014 0 250 0 -0.6536175 1.5257372 -0.73602724 0
235.99707 144.26471 -19.067717 0 250 0 -0.69566244 1.5309795 -0.78046 0
236.76625 144.29573 -19.128132 0 250 0 -0.80193853 1.5340408 -0.890432 0
237.53986 144.31094 -19.193411 0 250 0 -0.82768464 1.5379784 -0.91756052 0
238.31702 144.32483 -19.257 0 250 0 -0.79134011 1.5434855 -0.88021874 0
239.09459 144.34247 -19.324581 0 250 0 -0.79777586 1.5465074 -0.88398188 0
239.8752 144.3569 -19.387335 0 250 0 -0.81828743 1.5494165 -0.90261024 0
240.65785 144.36946 -19.452551 0 250 0 -0.83385026 1.5522221 -0.91692579 0
241.42326 144.37828 -19.515034 0 250 0 -0.80908138 1.5541043 -0.89372784 0
242.18985 144.38661 -19.579351 0 250 0 -0.75261164 1.5557476 -0.83842242 0
242.95448 144.39142 -19.645323 0 250 0 -0.53908587 1.5578063 -0.62633955 0
243.70566 144.40303 -19.706383 0 250 0 -0.39882359 1.5582454 -0.48698464 0
244.44485 144.4153 -19.773438 0 250 0 -0.30489033 1.5576211 -0.39304915 0
245.1776 144.4304 -19.83683 0 250 0 -0.15895875 1.5566007 -0.24697791 0
245.9183 144.44513 -19.905081 0 250 0 -0.061282262 1.5548687 -0.14787439 0
246.65161 144.45988 -19.965973 0 250 0 0.00033864827 1.5524608 -0.084502839 0
247.37332 144.48409 -20.027109 0 250 0 0.0017748246 1.5496194 -0.079883024 0
248.08659 144.5067 -20.08493 0 250 0 -0.028477719 1.5462753 -0.10729145 0
0 0 0 1 0 0 0 1 0 0 0 1 0 0 0 0 0 484 1 0 0
