ply
format ascii 1.0
comment PCL generated
element vertex 473
property float x
property float y
property float z
property uchar red
property uchar green
property uchar blue
property float nx
property float ny
property float nz
property float curvature
element camera 1
property float view_px
property float view_py
property float view_pz
property float x_axisx
property float x_axisy
property float x_axisz
property float y_axisx
property float y_axisy
property float y_axisz
property float z_axisx
property float z_axisy
property float z_axisz
property float focal
property float scalex
property float scaley
property float centerx
property float centery
property int viewportx
property int viewporty
property float k1
property float k2
end_header
13.848029 0.1008757 0.1298624 0 0 250 0 0 0 0
15.345815 0.13200264 0.1424516 0 0 250 0 0 0 0
16.84597 0.14962997 0.16150497 0 0 250 0 0 0 0
18.345299 0.1729454 0.17292076 0 0 250 0 0 0 0
19.838367 0.20514193 0.18346693 0 0 250 0 0 0 0
21.317221 0.22400063 0.19408967 0 0 250 0 0 0 0
22.806019 0.24980848 0.20209701 0 0 250 0 0 0 0
24.25877 0.28623489 0.21225055 0 0 250 0 0 0 0
25.718195 0.30982241 0.2235523 0 0 250 0 0 0 0
27.155691 0.33930877 0.23389269 0 0 250 0 0 0 0
28.607029 0.37005469 0.24351254 0 0 250 0 0 0 0
30.049744 0.3987349 0.26221776 0 0 250 0 0 0 0
31.488173 0.42536071 0.26775464 0 0 250 0 0 0 0
32.948551 0.43675119 0.27473792 0 0 250 0 0 0 0
34.359657 0.45655224 0.28786662 0 0 250 0 0 0 0
35.782738 0.47112185 0.30765086 0 0 250 0 0 0 0
37.175167 0.49395382 0.31536219 0 0 250 0 0 0 0
38.544739 0.51337183 0.32870793 0 0 250 0 0 0 0
39.900913 0.53923988 0.3424671 0 0 250 0 0 0 0
41.238407 0.55304545 0.35965198 0 0 250 0 0 0 0
42.570679 0.56532311 0.36889195 0 0 250 0 0 0 0
43.848568 0.58160412 0.38097498 0 0 250 0 0 0 0
45.134968 0.58863527 0.38732192 0 0 250 0 0 0 0
46.412025 0.58388108 0.40529335 0 0 250 0 0 0 0
47.642365 0.59061903 0.41905594 0 0 250 0 0 0 0
48.879421 0.58838308 0.42944512 0 0 250 0 0 0 0
50.113426 0.57779026 0.44728959 0 0 250 0 0 0 0
51.319782 0.56524342 0.45891741 0 0 250 0 0 0 0
52.519356 0.54559368 0.46821287 0 0 250 0 0 0 0
53.715633 0.49859354 0.48886561 0 0 250 0 0 0 0
54.878387 0.45541722 0.49706224 0 0 250 0 0 0 0
56.037437 0.39099339 0.51046807 0 0 250 0 0 0 0
57.179859 0.31790748 0.51901114 0 0 250 0 0 0 0
58.31583 0.2286257 0.53027707 0 0 250 0 0 0 0
59.442356 0.11813407 0.53904259 0 0 250 0 0 0 0
60.543907 -0.015538099 0.54540378 0 0 250 0 0 0 0
61.612705 -0.16358541 0.55055994 0 0 250 0 0 0 0
62.671188 -0.35462105 0.5535863 0 0 250 0 0 0 0
63.718304 -0.55052918 0.56410372 0 0 250 0 0 0 0
64.749733 -0.77765948 0.5777058 0 0 250 0 0 0 0
65.766953 -1.030488 0.58094871 0 0 250 0 0 0 0
66.771286 -1.2985282 0.59037691 0 0 250 0 0 0 0
67.752228 -1.5910897 0.5941478 0 0 250 0 0 0 0
68.710693 -1.9086386 0.60109353 0 0 250 0 0 0 0
69.661743 -2.2552927 0.61112481 0 0 250 0 0 0 0
70.580696 -2.6250088 0.61502486 0 0 250 0 0 0 0
71.477089 -3.0144286 0.62011099 0 0 250 0 0 0 0
72.359657 -3.4322822 0.62072933 0 0 250 0 0 0 0
73.224976 -3.8790662 0.6248706 0 0 250 0 0 0 0
74.066673 -4.3483219 0.63244689 0 0 250 0 0 0 0
74.894157 -4.8418636 0.6414668 0 0 250 0 0 0 0
75.691566 -5.353353 0.64741862 0 0 250 0 0 0 0
76.462334 -5.8866954 0.64408523 0 0 250 0 0 0 0
77.212158 -6.4534492 0.64592612 0 0 250 0 0 0 0
77.928848 -7.0435624 0.65230131 0 0 250 0 0 0 0
78.62619 -7.6779871 0.6556794 0 0 250 0 0 0 0
79.278076 -8.3251553 0.66466516 0 0 250 0 0 0 0
79.924934 -8.9829159 0.66926056 0 0 250 0 0 0 0
80.527206 -9.6666203 0.67571741 0 0 250 0 0 0 0
81.127075 -10.356458 0.68482894 0 0 250 0 0 0 0
81.689278 -11.081794 0.69563681 0 0 250 0 0 0 0
82.219269 -11.813936 0.72009838 0 0 250 0 0 0 0
82.728317 -12.557917 0.73437554 0 0 250 0 0 0 0
83.210381 -13.343222 0.75809401 0 0 250 0 0 0 0
83.681465 -14.161618 0.77345264 0 0 250 0 0 0 0
84.120995 -14.987469 0.80214351 0 0 250 0 0 0 0
84.53479 -15.833219 0.83542305 0 0 250 0 0 0 0
84.914169 -16.675934 0.86619234 0 0 250 0 0 0 0
85.255531 -17.553492 0.90797383 0 0 250 0 0 0 0
85.578987 -18.438017 0.92459053 0 0 250 0 0 0 0
85.873161 -19.360991 0.96486253 0 0 250 0 0 0 0
86.135292 -20.285053 0.9878189 0 0 250 0 0 0 0
86.332504 -21.213303 1.0238413 0 0 250 0 0 0 0
86.508461 -22.165323 1.0454514 0 0 250 0 0 0 0
86.639366 -23.125828 1.0812969 0 0 250 0 0 0 0
86.740784 -24.094183 1.1106926 0 0 250 0 0 0 0
86.839439 -25.071611 1.1416211 0 0 250 0 0 0 0
86.879585 -26.049088 1.1758761 0 0 250 0 0 0 0
86.909309 -27.020073 1.2150729 0 0 250 0 0 0 0
86.915184 -28.004787 1.2514378 0 0 250 0 0 0 0
86.902267 -29.002237 1.2915099 0 0 250 0 0 0 0
86.872078 -29.994104 1.3269343 0 0 250 0 0 0 0
86.828247 -30.993395 1.358889 0 0 250 0 0 0 0
86.766563 -31.976654 1.4006674 0 0 250 0 0 0 0
86.706078 -32.974087 1.4487286 0 0 250 0 0 0 0
86.637566 -33.966908 1.5034767 0 0 250 0 0 0 0
86.55809 -34.98148 1.560719 0 0 250 0 0 0 0
86.479454 -35.991936 1.6186345 0 0 250 0 0 0 0
86.394669 -37.003029 1.6827056 0 0 250 0 0 0 0
86.315208 -38.016476 1.7552277 0 0 250 0 0 0 0
86.2211 -39.040848 1.8183876 0 0 250 0 0 0 0
86.132507 -40.057236 1.8940682 0 0 250 0 0 0 0
86.047516 -41.093815 1.9658802 0 0 250 0 0 0 0
85.961479 -42.091118 2.0449932 0 0 250 0 0 0 0
85.844994 -43.124535 2.1166058 0 0 250 0 0 0 0
85.744057 -44.164955 2.1871207 0 0 250 0 0 0 0
85.654053 -45.20652 2.271687 0 0 250 0 0 0 0
85.542755 -46.260216 2.3461566 0 0 250 0 0 0 0
85.439957 -47.305904 2.4293926 0 0 250 0 0 0 0
85.335892 -48.356697 2.5167282 0 0 250 0 0 0 0
85.219063 -49.421127 2.6094635 0 0 250 0 0 0 0
85.106812 -50.488056 2.7010956 0 0 250 0 0 0 0
84.986633 -51.551884 2.7924676 0 0 250 0 0 0 0
84.858429 -52.615601 2.8739672 0 0 250 0 0 0 0
84.72879 -53.686779 2.9650486 0 0 250 0 0 0 0
84.607323 -54.747444 3.0556502 0 0 250 0 0 0 0
84.476379 -55.818508 3.1537406 0 0 250 0 0 0 0
84.364937 -56.895348 3.2345614 0 0 250 0 0 0 0
84.246674 -57.972294 3.3338771 0 0 250 0 0 0 0
84.131027 -59.058338 3.4289167 0 0 250 0 0 0 0
84.018982 -60.133781 3.5287619 0 0 250 0 0 0 0
83.904396 -61.232807 3.6242185 0 0 250 0 0 0 0
83.764977 -62.329681 3.7140987 0 0 250 0 0 0 0
83.629509 -63.446423 3.7982421 0 0 250 0 0 0 0
83.480942 -64.560654 3.8833847 0 0 250 0 0 0 0
83.336884 -65.677231 3.9624434 0 0 250 0 0 0 0
83.200569 -66.789352 4.0437832 0 0 250 0 0 0 0
83.069321 -67.899178 4.1261935 0 0 250 0 0 0 0
82.943047 -69.021767 4.2145123 0 0 250 0 0 0 0
82.81144 -70.152565 4.303915 0 0 250 0 0 0 0
82.685623 -71.290276 4.396625 0 0 250 0 0 0 0
82.559387 -72.42778 4.4841547 0 0 250 0 0 0 0
82.440758 -73.567665 4.5690203 0 0 250 0 0 0 0
82.320564 -74.696243 4.6617222 0 0 250 0 0 0 0
82.183357 -75.854973 4.7544565 0 0 250 0 0 0 0
82.061409 -77.013329 4.8445201 0 0 250 0 0 0 0
81.926041 -78.185204 4.9382577 0 0 250 0 0 0 0
81.800896 -79.350853 5.025167 0 0 250 0 0 0 0
81.685318 -80.517517 5.1143646 0 0 250 0 0 0 0
81.570595 -81.684128 5.2024822 0 0 250 0 0 0 0
81.437706 -82.892067 5.2972798 0 0 250 0 0 0 0
81.313759 -84.076874 5.3907104 0 0 250 0 0 0 0
81.187149 -85.26506 5.4838724 0 0 250 0 0 0 0
81.048096 -86.463684 5.5811515 0 0 250 0 0 0 0
80.909485 -87.650108 5.6739187 0 0 250 0 0 0 0
80.785248 -88.857773 5.7731643 0 0 250 0 0 0 0
80.681145 -90.043846 5.8657417 0 0 250 0 0 0 0
80.555107 -91.26403 5.9562583 0 0 250 0 0 0 0
80.438538 -92.471512 6.0518007 0 0 250 0 0 0 0
80.319748 -93.68969 6.1390104 0 0 250 0 0 0 0
80.202614 -94.905441 6.2322888 0 0 250 0 0 0 0
80.089157 -96.143456 6.3265767 0 0 250 0 0 0 0
79.966248 -97.387329 6.4204221 0 0 250 0 0 0 0
79.854996 -98.628098 6.5180407 0 0 250 0 0 0 0
79.730484 -99.881706 6.6089683 0 0 250 0 0 0 0
79.622902 -101.14352 6.7038932 0 0 250 0 0 0 0
79.513954 -102.39744 6.7946897 0 0 250 0 0 0 0
79.394081 -103.66673 6.8916483 0 0 250 0 0 0 0
79.273102 -104.93001 6.9832149 0 0 250 0 0 0 0
79.153206 -106.18612 7.0717282 0 0 250 0 0 0 0
79.024628 -107.44683 7.1704917 0 0 250 0 0 0 0
78.89505 -108.70451 7.2582674 0 0 250 0 0 0 0
78.764938 -109.95826 7.3467708 0 0 250 0 0 0 0
78.636528 -111.1975 7.4305177 0 0 250 0 0 0 0
78.490982 -112.43523 7.525177 0 0 250 0 0 0 0
78.339981 -113.69419 7.6142955 0 0 250 0 0 0 0
78.155136 -114.92419 7.7127404 0 0 250 0 0 0 0
77.965996 -116.14782 7.7981887 0 0 250 0 0 0 0
77.751389 -117.36457 7.8886967 0 0 250 0 0 0 0
77.523293 -118.5835 7.9791484 0 0 250 0 0 0 0
77.278214 -119.77914 8.0740318 0 0 250 0 0 0 0
77.031082 -120.95207 8.1641483 0 0 250 0 0 0 0
76.760796 -122.14431 8.2536516 0 0 250 0 0 0 0
76.464035 -123.32983 8.345046 0 0 250 0 0 0 0
76.152534 -124.51711 8.4396563 0 0 250 0 0 0 0
75.826981 -125.69868 8.5320444 0 0 250 0 0 0 0
75.483688 -126.85244 8.6192617 0 0 250 0 0 0 0
75.116417 -128.00302 8.7054663 0 0 250 0 0 0 0
74.729736 -129.14664 8.7992887 0 0 250 0 0 0 0
74.327522 -130.28978 8.8920259 0 0 250 0 0 0 0
73.903236 -131.42099 8.9886417 0 0 250 0 0 0 0
73.470711 -132.54105 9.0803566 0 0 250 0 0 0 0
73.012276 -133.65012 9.1732235 0 0 250 0 0 0 0
72.55072 -134.75755 9.2703056 0 0 250 0 0 0 0
72.059319 -135.85291 9.3654327 0 0 250 0 0 0 0
71.569862 -136.94969 9.4707489 0 0 250 0 0 0 0
71.034065 -138.03247 9.5731506 0 0 250 0 0 0 0
70.490051 -139.11208 9.6761703 0 0 250 0 0 0 0
69.928596 -140.18735 9.7830448 0 0 250 0 0 0 0
69.344078 -141.25365 9.8882217 0 0 250 0 0 0 0
68.727325 -142.31703 9.9935045 0 0 250 0 0 0 0
68.105659 -143.37126 10.097544 0 0 250 0 0 0 0
67.450806 -144.41182 10.200822 0 0 250 0 0 0 0
66.79493 -145.45096 10.304996 0 0 250 0 0 0 0
66.087486 -146.4865 10.418163 0 0 250 0 0 0 0
65.374557 -147.50865 10.520281 0 0 250 0 0 0 0
64.631012 -148.50769 10.63002 0 0 250 0 0 0 0
63.874226 -149.50919 10.737711 0 0 250 0 0 0 0
63.097713 -150.49527 10.845613 0 0 250 0 0 0 0
62.308384 -151.45291 10.959351 0 0 250 0 0 0 0
61.492741 -152.41003 11.073044 0 0 250 0 0 0 0
60.659424 -153.35323 11.186784 0 0 250 0 0 0 0
59.809357 -154.28903 11.297298 0 0 250 0 0 0 0
58.92453 -155.21884 11.408521 0 0 250 0 0 0 0
58.018993 -156.11389 11.511083 0 0 250 0 0 0 0
57.087875 -157.00317 11.620111 0 0 250 0 0 0 0
56.140633 -157.86504 11.728118 0 0 250 0 0 0 0
55.162422 -158.69264 11.847349 0 0 250 0 0 0 0
54.1605 -159.49083 11.960138 0 0 250 0 0 0 0
53.138744 -160.26479 12.072766 0 0 250 0 0 0 0
52.096558 -161.01758 12.186155 0 0 250 0 0 0 0
51.044979 -161.74641 12.300148 0 0 250 0 0 0 0
49.961826 -162.45471 12.422812 0 0 250 0 0 0 0
48.871216 -163.13654 12.544619 0 0 250 0 0 0 0
47.768173 -163.78523 12.665205 0 0 250 0 0 0 0
46.653149 -164.40906 12.785421 0 0 250 0 0 0 0
45.527714 -165.00977 12.912454 0 0 250 0 0 0 0
44.377041 -165.61111 13.039498 0 0 250 0 0 0 0
43.223675 -166.18703 13.167566 0 0 250 0 0 0 0
42.075714 -166.73221 13.293417 0 0 250 0 0 0 0
40.928276 -167.26646 13.416083 0 0 250 0 0 0 0
39.744991 -167.79474 13.545493 0 0 250 0 0 0 0
38.552902 -168.29736 13.663853 0 0 250 0 0 0 0
37.357841 -168.79178 13.781987 0 0 250 0 0 0 0
36.18338 -169.26781 13.900494 0 0 250 0 0 0 0
34.983261 -169.73225 14.015306 0 0 250 0 0 0 0
33.782299 -170.17584 14.150418 0 0 250 0 0 0 0
32.574379 -170.63766 14.269885 0 0 250 0 0 0 0
31.37969 -171.09229 14.393493 0 0 250 0 0 0 0
30.167019 -171.55077 14.506598 0 0 250 0 0 0 0
28.934477 -171.99574 14.617104 0 0 250 0 0 0 0
27.737133 -172.44203 14.721682 0 0 250 0 0 0 0
26.554573 -172.86641 14.855754 0 0 250 0 0 0 0
25.336208 -173.29884 14.973604 0 0 250 0 0 0 0
24.106503 -173.71841 15.09997 0 0 250 0 0 0 0
22.898354 -174.14635 15.226293 0 0 250 0 0 0 0
21.678753 -174.57918 15.351733 0 0 250 0 0 0 0
20.487169 -175.03241 15.479223 0 0 250 0 0 0 0
19.284075 -175.46611 15.605599 0 0 250 0 0 0 0
18.076046 -175.9077 15.733773 0 0 250 0 0 0 0
16.889885 -176.35754 15.853807 0 0 250 0 0 0 0
15.689513 -176.80505 15.984827 0 0 250 0 0 0 0
14.508175 -177.27347 16.105936 0 0 250 0 0 0 0
13.327275 -177.73645 16.225492 0 0 250 0 0 0 0
12.161352 -178.2175 16.34136 0 0 250 0 0 0 0
10.989384 -178.70753 16.462189 0 0 250 0 0 0 0
9.8168087 -179.22005 16.582676 0 0 250 0 0 0 0
8.6913509 -179.74544 16.692873 0 0 250 0 0 0 0
7.5142007 -180.27313 16.811024 0 0 250 0 0 0 0
6.3366098 -180.82919 16.926542 0 0 250 0 0 0 0
5.1888366 -181.39494 17.041258 0 0 250 0 0 0 0
4.0415983 -181.97122 17.157528 0 0 250 0 0 0 0
2.9180918 -182.58485 17.270071 0 0 250 0 0 0 0
1.8097932 -183.19742 17.38924 0 0 250 0 0 0 0
0.72051048 -183.83829 17.505434 0 0 250 0 0 0 0
-0.38407058 -184.47859 17.62867 0 0 250 0 0 0 0
-1.4409839 -185.13469 17.735397 0 0 250 0 0 0 0
-2.4857039 -185.81851 17.840111 0 0 250 0 0 0 0
-3.5090635 -186.5087 17.947931 0 0 250 0 0 0 0
-4.5075927 -187.21182 18.050011 0 0 250 0 0 0 0
-5.521225 -187.9444 18.152939 0 0 250 0 0 0 0
-6.4892392 -188.69032 18.252998 0 0 250 0 0 0 0
-7.471529 -189.4565 18.351599 0 0 250 0 0 0 0
-8.3937654 -190.24202 18.45224 0 0 250 0 0 0 0
-9.319253 -191.04135 18.549091 0 0 250 0 0 0 0
-10.190165 -191.86562 18.646826 0 0 250 0 0 0 0
-11.04757 -192.70099 18.742132 0 0 250 0 0 0 0
-11.87894 -193.56461 18.837448 0 0 250 0 0 0 0
-12.695354 -194.44528 18.9363 0 0 250 0 0 0 0
-13.465487 -195.35406 19.03194 0 0 250 0 0 0 0
-14.221985 -196.27209 19.132074 0 0 250 0 0 0 0
-14.947373 -197.22658 19.22212 0 0 250 0 0 0 0
-15.634729 -198.17889 19.317366 0 0 250 0 0 0 0
-16.291183 -199.15353 19.398191 0 0 250 0 0 0 0
-16.935574 -200.14174 19.49188 0 0 250 0 0 0 0
-17.559469 -201.14671 19.58366 0 0 250 0 0 0 0
-18.127398 -202.16312 19.677223 0 0 250 0 0 0 0
-18.665073 -203.20529 19.76388 0 0 250 0 0 0 0
-19.17642 -204.26021 19.846766 0 0 250 0 0 0 0
-19.64852 -205.34094 19.933704 0 0 250 0 0 0 0
-20.082355 -206.42561 20.027126 0 0 250 0 0 0 0
-20.476124 -207.52779 20.111526 0 0 250 0 0 0 0
-20.838457 -208.64539 20.199093 0 0 250 0 0 0 0
-21.166069 -209.76965 20.285633 0 0 250 0 0 0 0
-21.451853 -210.90633 20.36009 0 0 250 0 0 0 0
-21.690592 -212.04637 20.44906 0 0 250 0 0 0 0
-21.891495 -213.18871 20.527815 0 0 250 0 0 0 0
-22.065111 -214.35275 20.610592 0 0 250 0 0 0 0
-22.189981 -215.50404 20.68829 0 0 250 0 0 0 0
-22.275881 -216.66127 20.774305 0 0 250 0 0 0 0
-22.324181 -217.83182 20.856243 0 0 250 0 0 0 0
-22.336721 -219.01978 20.934767 0 0 250 0 0 0 0
-22.304407 -220.19272 21.007057 0 0 250 0 0 0 0
-22.23163 -221.35257 21.09444 0 0 250 0 0 0 0
-22.133385 -222.51863 21.166018 0 0 250 0 0 0 0
-21.995283 -223.69502 21.248701 0 0 250 0 0 0 0
-21.825886 -224.85921 21.33214 0 0 250 0 0 0 0
-21.621204 -226.03334 21.41028 0 0 250 0 0 0 0
-21.389542 -227.20567 21.484167 0 0 250 0 0 0 0
-21.104694 -228.37178 21.56147 0 0 250 0 0 0 0
-20.790901 -229.51515 21.636263 0 0 250 0 0 0 0
-20.432613 -230.6319 21.716913 0 0 250 0 0 0 0
-20.043127 -231.74498 21.787498 0 0 250 0 0 0 0
-19.623941 -232.87991 21.864132 0 0 250 0 0 0 0
-19.167101 -233.99808 21.942497 0 0 250 0 0 0 0
-18.677416 -235.09265 22.020613 0 0 250 0 0 0 0
-18.153091 -236.17043 22.096876 0 0 250 0 0 0 0
-17.601057 -237.24193 22.185692 0 0 250 0 0 0 0
-17.007711 -238.28639 22.273102 0 0 250 0 0 0 0
-16.38496 -239.32341 22.350807 0 0 250 0 0 0 0
-15.72224 -240.32613 22.436975 0 0 250 0 0 0 0
-15.037935 -241.33116 22.514769 0 0 250 0 0 0 0
-14.325357 -242.31659 22.601305 0 0 250 0 0 0 0
-13.596164 -243.29707 22.688738 0 0 250 0 0 0 0
-12.840497 -244.26079 22.76967 0 0 250 0 0 0 0
-12.060865 -245.21175 22.858065 0 0 250 0 0 0 0
-11.262915 -246.14622 22.93693 0 0 250 0 0 0 0
-10.437537 -247.04974 23.013266 0 0 250 0 0 0 0
-9.6033163 -247.94724 23.104151 0 0 250 0 0 0 0
-8.7316351 -248.82901 23.18775 0 0 250 0 0 0 0
-7.8495831 -249.70122 23.266085 0 0 250 0 0 0 0
-6.9408555 -250.54709 23.350533 0 0 250 0 0 0 0
-6.0436983 -251.37651 23.424879 0 0 250 0 0 0 0
-5.1018934 -252.19815 23.505697 0 0 250 0 0 0 0
-4.1324635 -252.99236 23.582861 0 0 250 0 0 0 0
-3.1556418 -253.79955 23.661259 0 0 250 0 0 0 0
-2.1553674 -254.58542 23.74028 0 0 250 0 0 0 0
-1.1245011 -255.35324 23.818737 0 0 250 0 0 0 0
-0.098875538 -256.11426 23.901226 0 0 250 0 0 0 0
0.942936 -256.85782 23.978413 0 0 250 0 0 0 0
2.0067542 -257.58157 24.068878 0 0 250 0 0 0 0
3.0994711 -258.32709 24.1474 0 0 250 0 0 0 0
4.1854067 -259.04477 24.228165 0 0 250 0 0 0 0
5.2879324 -259.74646 24.310371 0 0 250 0 0 0 0
6.4024553 -260.45505 24.393175 0 0 250 0 0 0 0
7.5161557 -261.14447 24.474411 0 0 250 0 0 0 0
8.6427574 -261.85345 24.55187 0 0 250 0 0 0 0
9.7798014 -262.54761 24.6308 0 0 250 0 0 0 0
10.912238 -263.22479 24.709244 0 0 250 0 0 0 0
12.053603 -263.91409 24.787664 0 0 250 0 0 0 0
13.192503 -264.5831 24.861444 0 0 250 0 0 0 0
14.348483 -265.25958 24.933456 0 0 250 0 0 0 0
15.502382 -265.94531 25.01194 0 0 250 0 0 0 0
16.675106 -266.61496 25.089279 0 0 250 0 0 0 0
17.835695 -267.27716 25.169289 0 0 250 0 0 0 0
19.013052 -267.93851 25.246616 0 0 250 0 0 0 0
20.170269 -268.59372 25.323572 0 0 250 0 0 0 0
21.333216 -269.24457 25.396009 0 0 250 0 0 0 0
22.495018 -269.89062 25.475246 0 0 250 0 0 0 0
23.656059 -270.54471 25.547693 0 0 250 0 0 0 0
24.816694 -271.19284 25.635908 0 0 250 0 0 0 0
25.983826 -271.84799 25.714178 0 0 250 0 0 0 0
27.137873 -272.50027 25.795742 0 0 250 0 0 0 0
28.289984 -273.13846 25.868528 0 0 250 0 0 0 0
29.456686 -273.80981 25.950048 0 0 250 0 0 0 0
30.62121 -274.46707 26.023228 0 0 250 0 0 0 0
31.778507 -275.11603 26.102106 0 0 250 0 0 0 0
32.942535 -275.7674 26.182281 0 0 250 0 0 0 0
34.119049 -276.42773 26.259321 0 0 250 0 0 0 0
35.29697 -277.08441 26.337656 0 0 250 0 0 0 0
36.474316 -277.74579 26.411388 0 0 250 0 0 0 0
37.66111 -278.40753 26.48723 0 0 250 0 0 0 0
38.849617 -279.07593 26.558432 0 0 250 0 0 0 0
40.050529 -279.75806 26.629898 0 0 250 0 0 0 0
41.239395 -280.41498 26.707722 0 0 250 0 0 0 0
42.438068 -281.08401 26.785034 0 0 250 0 0 0 0
43.634911 -281.74823 26.858961 0 0 250 0 0 0 0
44.826691 -282.42313 26.931122 0 0 250 0 0 0 0
46.02803 -283.08408 26.995697 0 0 250 0 0 0 0
47.220341 -283.74994 27.059965 0 0 250 0 0 0 0
48.426338 -284.4201 27.122427 0 0 250 0 0 0 0
49.617722 -285.08264 27.18585 0 0 250 0 0 0 0
50.815769 -285.74771 27.245903 0 0 250 0 0 0 0
52.000732 -286.40387 27.303514 0 0 250 0 0 0 0
53.185814 -287.04968 27.359074 0 0 250 0 0 0 0
54.390877 -287.69583 27.418394 0 0 250 0 0 0 0
55.593452 -288.32993 27.481638 0 0 250 0 0 0 0
56.774979 -288.96606 27.544212 0 0 250 0 0 0 0
57.954651 -289.59021 27.603403 0 0 250 0 0 0 0
59.139935 -290.20709 27.655291 0 0 250 0 0 0 0
60.291626 -290.82248 27.704426 0 0 250 0 0 0 0
61.454411 -291.42816 27.752905 0 0 250 0 0 0 0
62.606712 -292.01941 27.800079 0 0 250 0 0 0 0
63.747177 -292.6076 27.85149 0 0 250 0 0 0 0
64.889122 -293.18985 27.898148 0 0 250 0 0 0 0
66.019501 -293.76114 27.949547 0 0 250 0 0 0 0
67.136108 -294.32272 27.996178 0 0 250 0 0 0 0
68.250793 -294.90634 28.050203 0 0 250 0 0 0 0
69.35984 -295.45874 28.107466 0 0 250 0 0 0 0
70.46109 -296.02081 28.166569 0 0 250 0 0 0 0
71.582794 -296.61746 28.231157 0 0 250 0 0 0 0
72.667534 -297.19293 28.283722 0 0 250 0 0 0 0
73.738243 -297.77539 28.342131 0 0 250 0 0 0 0
74.797897 -298.37 28.400791 0 0 250 0 0 0 0
75.864929 -298.9863 28.45455 0 0 250 0 0 0 0
76.901955 -299.60703 28.507448 0 0 250 0 0 0 0
77.953133 -300.24472 28.560627 0 0 250 0 0 0 0
78.971558 -300.89008 28.614618 0 0 250 0 0 0 0
79.987213 -301.54169 28.663212 0 0 250 0 0 0 0
80.980278 -302.2179 28.713423 0 0 250 0 0 0 0
81.951958 -302.90945 28.771759 0 0 250 0 0 0 0
82.912285 -303.63303 28.82118 0 0 250 0 0 0 0
83.86689 -304.36325 28.892864 0 0 250 0 0 0 0
84.807632 -305.13565 28.947758 0 0 250 0 0 0 0
85.734619 -305.9144 28.995638 0 0 250 0 0 0 0
86.623749 -306.71579 29.0522 0 0 250 0 0 0 0
87.505745 -307.52231 29.112503 0 0 250 0 0 0 0
88.343369 -308.35904 29.171406 0 0 250 0 0 0 0
89.125031 -309.2196 29.234707 0 0 250 0 0 0 0
89.901459 -310.09396 29.294258 0 0 250 0 0 0 0
90.629555 -310.98734 29.349804 0 0 250 0 0 0 0
91.323669 -311.89798 29.407885 0 0 250 0 0 0 0
91.974884 -312.82443 29.474276 0 0 250 0 0 0 0
92.593575 -313.76666 29.533587 0 0 250 0 0 0 0
93.182381 -314.7182 29.588928 0 0 250 0 0 0 0
93.744392 -315.73083 29.641203 0 0 250 0 0 0 0
94.272545 -316.72443 29.701567 0 0 250 0 0 0 0
94.737839 -317.74667 29.764219 0 0 250 0 0 0 0
95.176842 -318.75275 29.819708 0 0 250 0 0 0 0
95.571739 -319.76776 29.881704 0 0 250 0 0 0 0
95.933922 -320.80688 29.937897 0 0 250 0 0 0 0
96.257767 -321.84875 30.004541 0 0 250 0 0 0 0
96.541672 -322.90179 30.071066 0 0 250 0 0 0 0
96.789726 -323.96378 30.13423 0 0 250 0 0 0 0
97.009926 -325.04776 30.198614 0 0 250 0 0 0 0
97.180168 -326.11118 30.264715 0 0 250 0 0 0 0
97.312515 -327.1586 30.32423 0 0 250 0 0 0 0
97.400452 -328.23264 30.386904 0 0 250 0 0 0 0
97.461716 -329.28595 30.454659 0 0 250 0 0 0 0
97.479202 -330.35425 30.520241 0 0 250 0 0 0 0
97.460213 -331.42197 30.588634 0 0 250 0 0 0 0
97.408897 -332.49716 30.660374 0 0 250 0 0 0 0
97.322128 -333.55328 30.725061 0 0 250 0 0 0 0
97.181541 -334.61865 30.788214 0 0 250 0 0 0 0
97.009041 -335.65887 30.855776 0 0 250 0 0 0 0
96.787796 -336.67868 30.927799 0 0 250 0 0 0 0
96.539642 -337.72055 30.993113 0 0 250 0 0 0 0
96.257393 -338.72684 31.063705 0 0 250 0 0 0 0
95.930145 -339.7319 31.1285 0 0 250 0 0 0 0
95.560524 -340.71402 31.196663 0 0 250 0 0 0 0
95.157402 -341.69318 31.260366 0 0 250 0 0 0 0
94.744301 -342.64505 31.329542 0 0 250 0 0 0 0
94.277992 -343.58716 31.387575 0 0 250 0 0 0 0
93.772369 -344.52118 31.442045 0 0 250 0 0 0 0
93.236847 -345.44073 31.507212 0 0 250 0 0 0 0
92.670952 -346.32373 31.576286 0 0 250 0 0 0 0
92.062302 -347.20117 31.639349 0 0 250 0 0 0 0
91.417976 -348.0853 31.703356 0 0 250 0 0 0 0
90.735901 -348.93396 31.775564 0 0 250 0 0 0 0
90.020523 -349.73465 31.853895 0 0 250 0 0 0 0
89.264565 -350.53394 31.934074 0 0 250 0 0 0 0
88.482964 -351.32361 32.007057 0 0 250 0 0 0 0
87.663437 -352.06973 32.088039 0 0 250 0 0 0 0
86.804749 -352.78305 32.175667 0 0 250 0 0 0 0
85.929558 -353.48419 32.261139 0 0 250 0 0 0 0
85.012207 -354.13818 32.343353 0 0 250 0 0 0 0
84.08226 -354.75586 32.425598 0 0 250 0 0 0 0
83.135841 -355.32443 32.509232 0 0 250 0 0 0 0
82.165817 -355.87048 32.590675 0 0 250 0 0 0 0
81.177559 -356.35822 32.676838 0 0 250 0 0 0 0
80.178276 -356.8262 32.759327 0 0 250 0 0 0 0
79.197571 -357.23956 32.8438 0 0 250 0 0 0 0
78.194687 -357.62665 32.920811 0 0 250 0 0 0 0
77.161171 -357.97827 32.992462 0 0 250 0 0 0 0
76.138603 -358.29758 33.070114 0 0 250 0 0 0 0
75.095581 -358.58862 33.15667 0 0 250 0 0 0 0
74.030685 -358.85599 33.243504 0 0 250 0 0 0 0
72.974747 -359.10764 33.323746 0 0 250 0 0 0 0
71.908012 -359.33667 33.406212 0 0 250 0 0 0 0
70.851616 -359.5545 33.484745 0 0 250 0 0 0 0
69.781174 -359.75766 33.566826 0 0 250 0 0 0 0
68.734451 -359.9657 33.651821 0 0 250 0 0 0 0
67.667328 -360.16132 33.732742 0 0 250 0 0 0 0
66.600113 -360.35123 33.815269 0 0 250 0 0 0 0
65.517036 -360.52594 33.898514 0 0 250 0 0 0 0
64.453888 -360.69669 33.977825 0 0 250 0 0 0 0
63.365955 -360.85104 34.057362 0 0 250 0 0 0 0
62.293194 -361.00101 34.137981 0 0 250 0 0 0 0
61.218681 -361.1405 34.226105 0 0 250 0 0 0 0
60.166145 -361.27557 34.308445 0 0 250 0 0 0 0
59.113651 -361.40143 34.393112 0 0 250 0 0 0 0
58.061539 -361.51755 34.471294 0 0 250 0 0 0 0
57.02541 -361.62918 34.553123 0 0 250 0 0 0 0
0 0 0 1 0 0 0 1 0 0 0 1 0 0 0 0 0 473 1 0 0
