ply
format ascii 1.0
comment PCL generated
element vertex 483
property float x
property float y
property float z
property uchar red
property uchar green
property uchar blue
property float nx
property float ny
property float nz
property float curvature
element camera 1
property float view_px
property float view_py
property float view_pz
property float x_axisx
property float x_axisy
property float x_axisz
property float y_axisx
property float y_axisy
property float y_axisz
property float z_axisx
property float z_axisy
property float z_axisz
property float focal
property float scalex
property float scaley
property float centerx
property float centery
property int viewportx
property int viewporty
property float k1
property float k2
end_header
0 0 0 0 250 0 0 -0 0 0
0.010614503 1.3979686 -0.017802704 0 250 0 -0.0029170536 -0.0015112724 0.0020832075 0
0.0051240004 2.7649093 -0.035495739 0 250 0 -0.0042435802 -0.002988629 0.002702401 0
-0.0067739747 4.1488013 -0.056402028 0 250 0 -0.0043959222 -0.0045762714 0.0014965896 0
-0.030515127 5.4834952 -0.071852192 0 250 0 -0.0044013397 -0.0059998729 0.0017602259 0
-0.050685629 6.8762126 -0.082961641 0 250 0 -0.0047309017 -0.0071601826 0.0019790009 0
-0.066123664 8.2278557 -0.092794187 0 250 0 -0.0047626663 -0.0092877625 0.0024254881 0
-0.093827583 9.5577755 -0.092939325 0 250 0 -0.0034524784 -0.010866887 0.0041947234 0
-0.11051568 10.900761 -0.10113576 0 250 0 -0.003462103 -0.01233053 0.0050153481 0
-0.1312234 12.248194 -0.11778346 0 250 0 -0.0033674019 -0.013885208 0.0047621238 0
-0.15896809 13.581885 -0.13022761 0 250 0 -0.0031428216 -0.015047749 0.0047072424 0
-0.19243811 14.886242 -0.14745006 0 250 0 -0.0036575934 -0.015597164 0.0029989891 0
-0.22447328 16.16791 -0.16039971 0 250 0 -0.004339383 -0.01590064 0.0019872161 0
-0.25683269 17.472355 -0.17420575 0 250 0 -0.0052661393 -0.016443972 0.0012101532 0
-0.29363093 18.776455 -0.18741243 0 250 0 -0.0053497944 -0.016615344 0.00029860192 0
-0.32760456 20.082621 -0.19462481 0 250 0 -0.0050712307 -0.017117487 -0.00061885698 0
-0.34273961 21.410236 -0.20860809 0 250 0 -0.0058254804 -0.017481992 -0.0015107092 0
-0.37328601 22.761959 -0.22151235 0 250 0 -0.0072285091 -0.017190721 -0.0032093963 0
-0.41300613 24.112698 -0.23063369 0 250 0 -0.005804325 -0.016926337 -0.0034993216 0
-0.44799912 25.393513 -0.23846661 0 250 0 -0.0037868186 -0.016639506 -0.003676173 0
-0.47869548 26.672123 -0.25236604 0 250 0 -0.0038296208 -0.015869878 -0.0020541721 0
-0.51092941 27.922306 -0.26860955 0 250 0 -0.0067975158 -0.015570794 -0.0012707964 0
-0.53743517 29.197313 -0.28122717 0 250 0 -0.0080397492 -0.015333192 0.00033144539 0
-0.56249136 30.438362 -0.293331 0 250 0 -0.0076097311 -0.015202494 0.0006709132 0
-0.58715367 31.67211 -0.30625582 0 250 0 -0.0059984284 -0.014619111 -0.00035060261 0
-0.612948 32.87426 -0.31845811 0 250 0 -0.0051718368 -0.01415942 -0.0011174525 0
-0.63695008 34.0882 -0.33250612 0 250 0 -0.0041734385 -0.013247945 -0.0011831097 0
-0.65911585 35.284771 -0.35085413 0 250 0 -0.0055141808 -0.011803703 -0.0017565856 0
-0.67031902 36.463413 -0.36725816 0 250 0 -0.0075997082 -0.01042977 -0.0019216401 0
-0.67456847 37.651386 -0.38060489 0 250 0 -0.008701073 -0.0092797391 -0.00036967508 0
-0.69296479 38.799042 -0.38830927 0 250 0 -0.0092072384 -0.0068808035 -0.00096697814 0
-0.69961482 39.92218 -0.39954144 0 250 0 -0.0087928949 -0.0036380407 -0.00052952999 0
-0.69932115 41.019119 -0.41066301 0 250 0 -0.0068541993 -0.00022377558 0.00064989796 0
-0.70978576 42.115074 -0.42410478 0 250 0 -0.0055081169 0.0035140275 0.00018415683 0
-0.70074344 43.22826 -0.44341743 0 250 0 -0.0063272887 0.0073688645 -0.00014207646 0
-0.69152141 44.29805 -0.45836344 0 250 0 -0.0062617357 0.012631145 -0.00045930775 0
-0.67357594 45.387199 -0.47151133 0 250 0 -0.0055785002 0.018976675 -0.0019384443 0
-0.65790308 46.447128 -0.48014283 0 250 0 -0.0055994652 0.026640389 -0.0034667212 0
-0.62668246 47.515953 -0.49006256 0 250 0 -0.0068687438 0.034936991 -0.0050445092 0
-0.58907735 48.553322 -0.50040287 0 250 0 -0.0075869854 0.045242097 -0.0070123323 0
-0.54117519 49.570026 -0.51230776 0 250 0 -0.0078011658 0.058133706 -0.0087755481 0
-0.4783493 50.579865 -0.52158213 0 250 0 -0.008417381 0.073128171 -0.010446263 0
-0.40333846 51.571793 -0.5363853 0 250 0 -0.010393484 0.089422464 -0.013371866 0
-0.3037765 52.573639 -0.54346156 0 250 0 -0.011428629 0.10706172 -0.013648903 0
-0.19019143 53.560577 -0.55430317 0 250 0 -0.010945333 0.12643632 -0.013424362 0
-0.05875304 54.512562 -0.56457561 0 250 0 -0.010491034 0.14692192 -0.012725988 0
0.093148746 55.442299 -0.56959867 0 250 0 -0.010092279 0.16823293 -0.010304911 0
0.27601945 56.380955 -0.57727474 0 250 0 -0.011560963 0.19034328 -0.0057754973 0
0.47407037 57.298077 -0.58560634 0 250 0 -0.012151162 0.21387908 -0.0012206584 0
0.69754171 58.217701 -0.58894849 0 250 0 -0.010485882 0.23846729 0.003662105 0
0.93846309 59.10133 -0.59666836 0 250 0 -0.0070191431 0.26444742 0.01031945 0
1.20242 59.965218 -0.60132152 0 250 0 -0.006289829 0.29133999 0.014204226 0
1.4871517 60.831188 -0.60440946 0 250 0 -0.0072983983 0.3197622 0.016920518 0
1.791115 61.657387 -0.60657668 0 250 0 -0.0083121164 0.34881085 0.020834772 0
2.1144645 62.479237 -0.61162621 0 250 0 -0.0062075858 0.379403 0.024356019 0
2.4615777 63.285107 -0.61259967 0 250 0 -0.0011229869 0.41070643 0.025580203 0
2.8285832 64.054184 -0.62089092 0 250 0 0.0066739721 0.44216001 0.029741123 0
3.2198474 64.809547 -0.62892449 0 250 0 0.011935655 0.47406092 0.034361482 0
3.6267762 65.546463 -0.63221377 0 250 0 0.0099313529 0.50752157 0.034120727 0
4.0663791 66.280098 -0.63831806 0 250 0 0.0033502746 0.54292572 0.030287009 0
4.5190716 66.977013 -0.64711428 0 250 0 -0.00028802283 0.57989043 0.028780987 0
5.0149946 67.665329 -0.64669561 0 250 0 0.0035860911 0.61700505 0.025249818 0
5.5145683 68.325119 -0.64971399 0 250 0 0.0095463814 0.65400237 0.021994028 0
6.0361023 68.960068 -0.65313971 0 250 0 0.012195934 0.69003111 0.021830728 0
6.5900321 69.579651 -0.66368204 0 250 0 0.010900235 0.72553802 0.024015123 0
7.1620688 70.173553 -0.66738772 0 250 0 0.012443312 0.76144242 0.025898814 0
7.743021 70.738373 -0.67812973 0 250 0 0.017144782 0.79721248 0.028000372 0
8.3479662 71.277275 -0.67735082 0 250 0 0.021826157 0.83264703 0.029395679 0
8.9586945 71.794373 -0.68271548 0 250 0 0.022208262 0.86829662 0.02765117 0
9.5887957 72.28437 -0.69581956 0 250 0 0.024573943 0.9041813 0.028757185 0
10.237645 72.761909 -0.71015996 0 250 0 0.030517684 0.94018406 0.02748563 0
10.917176 73.219376 -0.72094285 0 250 0 0.040518612 0.97650486 0.026981479 0
11.607998 73.637726 -0.74366039 0 250 0 0.048485968 1.0126134 0.026099237 0
12.325945 74.061836 -0.76547825 0 250 0 0.050061356 1.0497742 0.023640646 0
13.052354 74.446442 -0.79595441 0 250 0 0.045739535 1.0865158 0.021403564 0
13.805058 74.816696 -0.822142 0 250 0 0.034180842 1.1237841 0.013096678 0
14.548178 75.146683 -0.84933871 0 250 0 0.025899099 1.1614616 0.0048229694 0
15.324045 75.471298 -0.87617904 0 250 0 0.010402524 1.1993037 -0.011714366 0
16.108097 75.756577 -0.89638662 0 250 0 -0.0054972158 1.2375679 -0.028572064 0
16.912333 76.000549 -0.92608356 0 250 0 -0.018270778 1.2749205 -0.039983202 0
17.723524 76.220947 -0.94754952 0 250 0 -0.028027756 1.3123605 -0.049466185 0
18.55533 76.399727 -0.9735375 0 250 0 -0.032888718 1.3489184 -0.053776655 0
19.386858 76.55838 -0.99940377 0 250 0 -0.031967748 1.3851473 -0.051658113 0
20.240374 76.679291 -1.0211327 0 250 0 0.013943578 1.4202096 -0.0056342226 0
21.091166 76.761955 -1.0445714 0 250 0 0.035864912 1.4535507 0.012402706 0
21.958233 76.832451 -1.0676694 0 250 0 0.054686856 1.4862485 0.02616393 0
22.814177 76.87368 -1.0988607 0 250 0 0.19685578 1.5145854 0.1643803 0
23.676561 76.892258 -1.1292162 0 250 0 0.38501447 1.5384147 0.35428974 0
24.541735 76.902092 -1.1603544 0 250 0 1.0390453 1.5557207 1.0113986 0
25.412764 76.896156 -1.1894928 0 250 0 2.2924218 1.5539197 2.2674086 0
26.301521 76.868103 -1.2189878 0 250 0 2.6873991 1.5399404 2.659091 0
27.166271 76.828278 -1.2472646 0 250 0 2.7798429 1.5255071 2.7471325 0
28.040819 76.77636 -1.2857596 0 250 0 2.7928014 1.5127988 2.7554848 0
28.922203 76.71434 -1.3275474 0 250 0 2.7699866 1.5025667 2.7295258 0
29.796801 76.648735 -1.3677124 0 250 0 2.7614467 1.4959207 2.7155867 0
30.685232 76.576538 -1.4157194 0 250 0 2.7619247 1.4919105 2.7115555 0
31.566521 76.509697 -1.4676224 0 250 0 2.7584574 1.4885257 2.704222 0
32.461945 76.437378 -1.5211955 0 250 0 2.7745366 1.4860775 2.7172635 0
33.360733 76.360626 -1.578766 0 250 0 2.7815027 1.4836097 2.7207563 0
34.260262 76.288727 -1.6347233 0 250 0 2.7772098 1.4811827 2.7125583 0
35.155376 76.213737 -1.6965653 0 250 0 2.7666245 1.4780966 2.7005775 0
36.08181 76.124664 -1.7655952 0 250 0 2.7665334 1.4765689 2.7021122 0
36.988567 76.057091 -1.8282826 0 250 0 2.7826135 1.4742384 2.7185822 0
37.88448 75.977348 -1.8969461 0 250 0 2.795702 1.4723896 2.7306461 0
38.792267 75.898926 -1.9606669 0 250 0 2.8229897 1.4704329 2.7556868 0
39.706741 75.819725 -2.0270429 0 250 0 2.8510687 1.4685458 2.7814584 0
40.628853 75.731468 -2.0888932 0 250 0 2.8911617 1.4671111 2.8174953 0
41.552364 75.635719 -2.1645157 0 250 0 2.9244258 1.4663621 2.8466036 0
42.477127 75.5494 -2.237781 0 250 0 2.9576538 1.4644711 2.8772821 0
43.414383 75.453064 -2.315634 0 250 0 2.978102 1.4621211 2.8990924 0
44.356667 75.36071 -2.4013553 0 250 0 2.998359 1.4598736 2.9238386 0
45.289497 75.269981 -2.4832592 0 250 0 2.9964075 1.457127 2.9239924 0
46.241013 75.159859 -2.5549119 0 250 0 3.0082078 1.4555663 2.9350913 0
47.180866 75.051529 -2.6334834 0 250 0 2.9954972 1.4540963 2.9197941 0
48.118786 74.936325 -2.711344 0 250 0 2.991684 1.4536679 2.9132073 0
49.084278 74.823555 -2.7843461 0 250 0 3.0095911 1.4536554 2.9301949 0
50.042839 74.711052 -2.8581004 0 250 0 3.0332222 1.4547787 2.9545038 0
51.008007 74.602142 -2.9365568 0 250 0 3.0646448 1.4555545 2.9863064 0
51.969604 74.500381 -3.0216544 0 250 0 3.0991156 1.4560616 3.0196767 0
52.940067 74.400795 -3.0990956 0 250 0 3.1380894 1.4560509 3.0580461 0
53.888458 74.306946 -3.1752667 0 250 0 -3.1125221 1.4554974 3.0906794 0
54.855728 74.202293 -3.2597647 0 250 0 -3.1221545 1.4549237 3.0864391 0
55.824169 74.09771 -3.3363864 0 250 0 3.1228549 1.4543276 3.057354 0
56.816505 73.979767 -3.406558 0 250 0 3.076467 1.4537795 3.0166337 0
57.796627 73.859985 -3.4656644 0 250 0 3.0073555 1.4529365 2.9453208 0
58.782173 73.738396 -3.5288656 0 250 0 2.9693997 1.4528624 2.9018612 0
59.761608 73.614975 -3.5990601 0 250 0 2.942071 1.4531367 2.8690515 0
60.753681 73.500374 -3.6811845 0 250 0 2.9372237 1.4535524 2.8600533 0
61.753326 73.395538 -3.7575452 0 250 0 2.9667048 1.4546012 2.8923371 0
62.757587 73.284187 -3.8347905 0 250 0 2.9725249 1.4552741 2.9027207 0
63.784378 73.165985 -3.9087667 0 250 0 2.9912679 1.4561903 2.9232244 0
64.788773 73.061165 -3.9829748 0 250 0 3.012836 1.4564812 2.9439287 0
65.816902 72.94738 -4.0595465 0 250 0 3.0109301 1.456497 2.9368892 0
66.83049 72.833778 -4.1401706 0 250 0 3.0189028 1.4571881 2.9421089 0
67.856567 72.724724 -4.2232742 0 250 0 3.0123992 1.4571892 2.9368327 0
68.88266 72.608101 -4.305685 0 250 0 2.9913054 1.4574987 2.9228175 0
69.91111 72.496445 -4.3851738 0 250 0 2.9960475 1.457435 2.9293895 0
70.936844 72.387177 -4.4621367 0 250 0 3.0118952 1.4582539 2.9421797 0
71.979698 72.274597 -4.531517 0 250 0 3.0176446 1.4586304 2.9444585 0
73.033897 72.151016 -4.6122332 0 250 0 3.0281823 1.4590709 2.9554281 0
74.07267 72.045486 -4.6926174 0 250 0 3.0245025 1.4591709 2.9554741 0
75.133347 71.920563 -4.7712498 0 250 0 3.0135372 1.4601148 2.9458017 0
76.189568 71.799332 -4.8550406 0 250 0 2.9958773 1.4611238 2.9281569 0
77.245705 71.684746 -4.9320102 0 250 0 2.9670208 1.4615302 2.8990808 0
78.304108 71.574371 -5.0063066 0 250 0 2.9722376 1.4627143 2.9045663 0
79.35936 71.472832 -5.0841894 0 250 0 2.958873 1.4634855 2.8906338 0
80.445221 71.360115 -5.1655889 0 250 0 2.951761 1.4645119 2.8855474 0
81.511482 71.257195 -5.2422185 0 250 0 2.9604974 1.465881 2.8949428 0
82.571823 71.158798 -5.3148766 0 250 0 2.9467862 1.4669306 2.8818762 0
83.649559 71.058052 -5.390842 0 250 0 2.9674449 1.4689881 2.9017451 0
84.722717 70.955864 -5.4655843 0 250 0 2.9570818 1.4703021 2.8886595 0
85.822617 70.848633 -5.5455246 0 250 0 2.9706953 1.4721212 2.9033699 0
86.931946 70.758049 -5.6250463 0 250 0 3.0049655 1.473205 2.9387543 0
88.037285 70.654839 -5.7055216 0 250 0 3.0284193 1.4740393 2.9611762 0
89.142036 70.563927 -5.7868495 0 250 0 3.0552678 1.4737496 2.9887009 0
90.251335 70.462242 -5.8680811 0 250 0 3.0784671 1.4731473 3.0145247 0
91.382233 70.365631 -5.9464316 0 250 0 3.1107571 1.4717238 3.0482605 0
92.488937 70.260559 -6.0226169 0 250 0 3.1312556 1.4707047 3.0692453 0
93.602875 70.152443 -6.095686 0 250 0 3.1345248 1.4690988 3.0719457 0
94.714355 70.032188 -6.1706038 0 250 0 3.1338406 1.4671804 3.0722704 0
95.820305 69.92907 -6.243495 0 250 0 -3.1270549 1.4637806 3.0990524 0
96.928383 69.814232 -6.3229976 0 250 0 -3.1169991 1.4594179 3.1093111 0
98.023079 69.698082 -6.3930163 0 250 0 -3.060173 1.4536475 -3.1236217 0
99.118408 69.574486 -6.4723692 0 250 0 -3.0626538 1.44617 -3.1292768 0
100.2201 69.433174 -6.5519958 0 250 0 -3.0830498 1.4368639 3.137444 0
101.31137 69.281586 -6.6337352 0 250 0 -3.0984414 1.4256998 3.1244345 0
102.40285 69.124176 -6.7075162 0 250 0 -3.0975385 1.4122609 3.1240754 0
103.48475 68.945625 -6.785481 0 250 0 -3.1054633 1.3976835 3.1161246 0
104.57965 68.737633 -6.8571415 0 250 0 -3.1100767 1.3832062 3.1133485 0
105.65436 68.5252 -6.9345541 0 250 0 -3.1276062 1.3672149 3.0936728 0
106.70685 68.293739 -7.0153418 0 250 0 -3.1243868 1.3522204 3.093116 0
107.75952 68.041588 -7.1008768 0 250 0 -3.1208589 1.336861 3.0925333 0
108.81373 67.790817 -7.1785264 0 250 0 -3.1057074 1.32019 3.1088386 0
109.88358 67.512527 -7.2620039 0 250 0 -3.0876472 1.3037316 3.131902 0
110.91762 67.212936 -7.3401031 0 250 0 -3.0778298 1.2880732 -3.1384795 0
111.94286 66.90287 -7.4205856 0 250 0 -3.0729413 1.2724007 -3.1354821 0
112.94498 66.584045 -7.4952521 0 250 0 -3.0714178 1.2574614 -3.136471 0
113.96169 66.242752 -7.576797 0 250 0 -3.0748947 1.2429583 3.1407659 0
114.95959 65.888351 -7.6645198 0 250 0 -3.0828977 1.2280965 3.1330445 0
115.95577 65.523872 -7.7447205 0 250 0 -3.0826509 1.2131104 3.135134 0
116.96047 65.142136 -7.827229 0 250 0 -3.0843408 1.1975125 3.1344767 0
117.9365 64.757248 -7.912559 0 250 0 -3.0784969 1.1812671 3.1382923 0
118.89338 64.360588 -7.9894872 0 250 0 -3.077765 1.1649773 3.1361375 0
119.85032 63.938927 -8.0716763 0 250 0 -3.0785432 1.1490375 3.1333134 0
120.81522 63.489632 -8.1542177 0 250 0 -3.0824366 1.1329187 3.1264095 0
121.77755 63.014656 -8.2417803 0 250 0 -3.077673 1.1170291 3.1266661 0
122.72665 62.538033 -8.3299799 0 250 0 -3.0762122 1.1003402 3.1253555 0
123.678 62.044769 -8.4281378 0 250 0 -3.0762718 1.0831641 3.127579 0
124.62303 61.533527 -8.5155077 0 250 0 -3.073457 1.0651158 3.1338394 0
125.56947 60.992825 -8.6066628 0 250 0 -3.072438 1.0467975 3.133857 0
126.49844 60.447754 -8.6888504 0 250 0 -3.0687754 1.0283427 3.137161 0
127.41933 59.880394 -8.7819252 0 250 0 -3.066958 1.0096542 3.1396081 0
128.34605 59.284851 -8.875493 0 250 0 -3.0643044 0.99130213 3.1414299 0
129.25056 58.681946 -8.9652767 0 250 0 -3.0631862 0.97277033 -3.1409712 0
130.15514 58.049591 -9.0522099 0 250 0 -3.0640137 0.95415974 -3.1399751 0
131.04643 57.405582 -9.1433048 0 250 0 -3.0680954 0.93558007 -3.1407385 0
131.92773 56.745544 -9.2308121 0 250 0 -3.0718484 0.91699213 3.1398244 0
132.82001 56.049561 -9.3219528 0 250 0 -3.0714793 0.89806014 3.1415222 0
133.67497 55.360451 -9.4127893 0 250 0 -3.0660863 0.87879097 -3.1392953 0
134.5515 54.639252 -9.4930086 0 250 0 -3.060261 0.85836977 -3.1355455 0
135.40117 53.900024 -9.5856867 0 250 0 -3.0595129 0.83705109 -3.1326442 0
136.23056 53.135586 -9.6794062 0 250 0 -3.0617003 0.81499702 -3.1283507 0
137.04153 52.345654 -9.7619152 0 250 0 -3.0617449 0.79178542 -3.1275048 0
137.82976 51.541676 -9.8441839 0 250 0 -3.059526 0.76698798 -3.1244996 0
138.61456 50.713665 -9.9348469 0 250 0 -3.0570369 0.74135548 -3.1205134 0
139.37675 49.871979 -10.034072 0 250 0 -3.0591428 0.7160731 -3.1214075 0
140.10092 49.021744 -10.122524 0 250 0 -3.0583777 0.69123369 -3.1245096 0
140.81766 48.130772 -10.210229 0 250 0 -3.0644805 0.66718847 -3.1298978 0
141.50169 47.23317 -10.298841 0 250 0 -3.0681145 0.64332098 -3.1348133 0
142.17046 46.307648 -10.374775 0 250 0 -3.0660203 0.61850297 -3.1360261 0
142.82181 45.386909 -10.463044 0 250 0 -3.0625007 0.59376669 -3.137532 0
143.43532 44.446362 -10.559422 0 250 0 -3.0651214 0.5701803 3.1412842 0
144.03642 43.478451 -10.65653 0 250 0 -3.0684438 0.54793918 3.1398547 0
144.61404 42.499779 -10.750845 0 250 0 -3.0681667 0.52705902 3.1372397 0
145.16406 41.520447 -10.843552 0 250 0 -3.0665419 0.50788927 3.1332705 0
145.70563 40.53297 -10.938477 0 250 0 -3.063988 0.48880878 3.1351345 0
146.22681 39.526955 -11.02738 0 250 0 -3.063519 0.47074053 3.1368284 0
146.74159 38.514843 -11.127073 0 250 0 -3.0626163 0.45403454 3.1378274 0
147.22707 37.488853 -11.224097 0 250 0 -3.0629804 0.4386189 3.1384974 0
147.70459 36.461189 -11.329244 0 250 0 -3.0632374 0.4233723 3.1401565 0
148.16574 35.422604 -11.426692 0 250 0 -3.0660415 0.40910637 -3.1401732 0
148.61855 34.377594 -11.519266 0 250 0 -3.0685532 0.39568549 -3.1382229 0
149.05249 33.320274 -11.612735 0 250 0 -3.073107 0.38389274 -3.1406457 0
149.47186 32.258583 -11.697364 0 250 0 -3.0726275 0.37541923 3.1382232 0
149.88187 31.200142 -11.784599 0 250 0 -3.0729134 0.36906362 3.1325881 0
150.28799 30.1422 -11.874294 0 250 0 -3.0711544 0.36335224 3.1301475 0
150.69096 29.098616 -11.971205 0 250 0 -3.0716827 0.35791352 3.1324537 0
151.09631 28.033566 -12.063513 0 250 0 -3.07335 0.35249868 3.1387753 0
151.50356 26.954294 -12.151995 0 250 0 -3.0731392 0.34694669 -3.1385641 0
151.89874 25.888687 -12.235858 0 250 0 -3.0690672 0.34195188 -3.1318254 0
152.28011 24.819002 -12.334502 0 250 0 -3.0663166 0.33873662 -3.1301925 0
152.65868 23.77599 -12.428121 0 250 0 -3.0644557 0.33652276 -3.1309571 0
153.03944 22.695284 -12.518003 0 250 0 -3.0621927 0.33557293 -3.130033 0
153.41112 21.606417 -12.615443 0 250 0 -3.060842 0.3364462 -3.1317513 0
153.79037 20.529606 -12.704734 0 250 0 -3.058718 0.33794644 -3.1313624 0
154.17393 19.451345 -12.802085 0 250 0 -3.0567081 0.33963138 -3.1313424 0
154.55453 18.381632 -12.900575 0 250 0 -3.0571427 0.34184051 -3.1326082 0
154.93858 17.319872 -13.003875 0 250 0 -3.0568366 0.34463903 -3.1320903 0
155.33379 16.257664 -13.104443 0 250 0 -3.0561869 0.34858876 -3.1304393 0
155.72981 15.183519 -13.228086 0 250 0 -3.059736 0.35406634 -3.1309175 0
156.12755 14.108282 -13.327964 0 250 0 -3.0622745 0.36109975 -3.1306272 0
156.53259 13.06542 -13.422779 0 250 0 -3.0642872 0.36844763 -3.1284292 0
156.94044 12.052199 -13.514736 0 250 0 -3.0656121 0.37638322 -3.1314335 0
157.366 11.016498 -13.613511 0 250 0 -3.0660625 0.38534051 -3.1318645 0
157.79778 9.9733381 -13.708477 0 250 0 -3.0646815 0.39583251 -3.1338561 0
158.24435 8.9473381 -13.802265 0 250 0 -3.0663216 0.40687054 -3.1350274 0
158.70099 7.9334216 -13.884982 0 250 0 -3.0637293 0.41946208 -3.1342404 0
159.17998 6.9106202 -13.979565 0 250 0 -3.0630431 0.43349451 -3.1356242 0
159.67728 5.8954482 -14.074702 0 250 0 -3.0637009 0.44797537 -3.1373613 0
160.18083 4.8853984 -14.164131 0 250 0 -3.0655499 0.46259791 -3.1367731 0
160.69583 3.8961127 -14.260308 0 250 0 -3.0662708 0.47722685 -3.1385837 0
161.23392 2.9046981 -14.342134 0 250 0 -3.0673845 0.49163863 -3.1402462 0
161.77266 1.9343729 -14.428424 0 250 0 -3.0703652 0.50746828 3.140542 0
162.32944 0.96399409 -14.519958 0 250 0 -3.0746725 0.52370673 3.1372471 0
162.8934 0.015638685 -14.607947 0 250 0 -3.0781567 0.54021347 3.1334107 0
163.48206 -0.93755889 -14.694485 0 250 0 -3.0818324 0.55793256 3.1285636 0
164.07997 -1.8688585 -14.779582 0 250 0 -3.084986 0.57764655 3.1249504 0
164.68811 -2.770364 -14.866469 0 250 0 -3.0885329 0.59747058 3.1206889 0
165.31421 -3.6401079 -14.947927 0 250 0 -3.0899 0.61670333 3.1195018 0
165.9572 -4.5052934 -15.030356 0 250 0 -3.0918119 0.6366266 3.1167576 0
166.61772 -5.3573213 -15.112786 0 250 0 -3.0938048 0.65738368 3.1139393 0
167.29813 -6.2123337 -15.200388 0 250 0 -3.099355 0.67998892 3.110147 0
168.00493 -7.058145 -15.270152 0 250 0 -3.1023428 0.70413357 3.1069269 0
168.71368 -7.844388 -15.350548 0 250 0 -3.1031592 0.72865736 3.1050627 0
169.43353 -8.6148567 -15.427948 0 250 0 -3.1023858 0.75410479 3.1035595 0
170.17004 -9.3492079 -15.507291 0 250 0 -3.1016848 0.77905917 3.1045601 0
170.94136 -10.094607 -15.587261 0 250 0 -3.1021974 0.80587059 3.1047173 0
171.7085 -10.804811 -15.66609 0 250 0 -3.101501 0.83373135 3.1066003 0
172.51945 -11.537479 -15.747684 0 250 0 -3.0988364 0.86285138 3.1086195 0
173.32869 -12.19142 -15.830933 0 250 0 -3.0972729 0.88979274 3.1109197 0
174.15015 -12.821563 -15.908478 0 250 0 -3.0969536 0.91693974 3.1117616 0
174.98132 -13.417329 -15.994771 0 250 0 -3.0995986 0.94461191 3.1110125 0
175.84315 -14.000594 -16.076994 0 250 0 -3.1003773 0.97366214 3.1107316 0
176.70918 -14.559504 -16.156858 0 250 0 -3.1030698 1.0041108 3.1062114 0
177.60538 -15.092925 -16.228394 0 250 0 -3.1040061 1.0350049 3.1047137 0
178.51666 -15.595588 -16.309502 0 250 0 -3.1046922 1.0660095 3.1057727 0
179.43239 -16.065975 -16.387239 0 250 0 -3.1057997 1.0975304 3.1074426 0
180.36642 -16.507496 -16.47382 0 250 0 -3.1116714 1.130235 3.1016068 0
181.32245 -16.925682 -16.542936 0 250 0 -3.112704 1.1640885 3.0978005 0
182.28477 -17.307056 -16.616863 0 250 0 -3.1172035 1.1980348 3.0921824 0
183.26405 -17.661652 -16.69433 0 250 0 -3.1257935 1.232107 3.0836177 0
184.25652 -17.9809 -16.786333 0 250 0 -3.134443 1.266431 3.0759077 0
185.24185 -18.256107 -16.869745 0 250 0 3.1323016 1.3012187 3.0614491 0
186.25256 -18.503428 -16.94891 0 250 0 3.1202688 1.3363638 3.0511293 0
187.26337 -18.713354 -17.036024 0 250 0 3.0964077 1.3715043 3.0290809 0
188.2881 -18.89101 -17.109449 0 250 0 3.0724878 1.4069527 3.0053515 0
189.30772 -19.024708 -17.190557 0 250 0 3.0325637 1.4417851 2.9663038 0
190.31339 -19.11499 -17.270969 0 250 0 2.9661195 1.4760917 2.8999496 0
191.33684 -19.17691 -17.35223 0 250 0 2.8462944 1.5099988 2.7793727 0
192.36105 -19.208118 -17.428373 0 250 0 2.4750621 1.5406671 2.4082961 0
193.3887 -19.201374 -17.505749 0 250 0 1.0741289 1.5498644 1.0077875 0
194.40562 -19.157869 -17.579351 0 250 0 0.41465977 1.5241752 0.34710777 0
195.41917 -19.082449 -17.656382 0 250 0 0.28341377 1.4926239 0.21568495 0
196.44701 -18.976351 -17.743088 0 250 0 0.23232211 1.460896 0.16700695 0
197.48134 -18.84359 -17.821047 0 250 0 0.20141836 1.4295154 0.13661405 0
198.50151 -18.673981 -17.905708 0 250 0 0.18482129 1.3992668 0.12002715 0
199.51862 -18.472849 -17.986399 0 250 0 0.17350841 1.3689829 0.10831156 0
200.54118 -18.250887 -18.076902 0 250 0 0.17300385 1.3369378 0.10872116 0
201.5462 -17.990871 -18.155859 0 250 0 0.1703656 1.3056129 0.10682356 0
202.53207 -17.700394 -18.251417 0 250 0 0.16938943 1.2742233 0.10780741 0
203.52959 -17.377897 -18.33219 0 250 0 0.16883016 1.2429625 0.10662159 0
204.51147 -17.016712 -18.404926 0 250 0 0.16159518 1.2131681 0.098584585 0
205.48088 -16.630093 -18.482973 0 250 0 0.15484187 1.1832343 0.092208982 0
206.44955 -16.211475 -18.566881 0 250 0 0.14777142 1.1529586 0.084944293 0
207.41339 -15.760976 -18.64777 0 250 0 0.14750917 1.1218289 0.081674322 0
208.34196 -15.28858 -18.736206 0 250 0 0.14696871 1.0906622 0.078097761 0
209.27165 -14.768929 -18.822378 0 250 0 0.1419775 1.0603093 0.072474226 0
210.1991 -14.218802 -18.908943 0 250 0 0.13709235 1.0298307 0.068346858 0
211.11099 -13.642467 -19.006065 0 250 0 0.1313529 1.0004286 0.063847683 0
211.99196 -13.050828 -19.096142 0 250 0 0.12603118 0.9730835 0.057114847 0
212.85925 -12.43061 -19.181898 0 250 0 0.12242297 0.94786865 0.052086115 0
213.70883 -11.784021 -19.27084 0 250 0 0.11863207 0.92418015 0.048528865 0
214.56093 -11.121976 -19.357744 0 250 0 0.11402924 0.90095049 0.045028146 0
215.39018 -10.433593 -19.459167 0 250 0 0.11263546 0.87928694 0.046484761 0
216.20453 -9.7386332 -19.551226 0 250 0 0.11096116 0.85792589 0.046483941 0
217.01041 -9.0191288 -19.641943 0 250 0 0.11098832 0.83737898 0.047417372 0
217.806 -8.2849312 -19.728697 0 250 0 0.11000533 0.81653661 0.04567289 0
218.59721 -7.5229893 -19.816374 0 250 0 0.10861587 0.79572904 0.043662909 0
219.37445 -6.7379231 -19.91066 0 250 0 0.10355535 0.77540118 0.040927801 0
220.13672 -5.9354658 -20.002537 0 250 0 0.10081736 0.75466204 0.04046727 0
220.86034 -5.135016 -20.090664 0 250 0 0.098974414 0.73436213 0.03886281 0
221.58476 -4.3083816 -20.176437 0 250 0 0.10026567 0.71383852 0.038429238 0
222.28842 -3.4691277 -20.269089 0 250 0 0.1001893 0.69447976 0.037800092 0
222.97942 -2.6036129 -20.361843 0 250 0 0.098034032 0.67680287 0.035410285 0
223.66051 -1.7276905 -20.454895 0 250 0 0.095160924 0.65907139 0.03481992 0
224.3261 -0.83829105 -20.551842 0 250 0 0.094805747 0.64156705 0.036510427 0
224.99184 0.073916465 -20.648283 0 250 0 0.094603375 0.62465268 0.036258858 0
225.64275 0.99537045 -20.74062 0 250 0 0.098613292 0.60894209 0.040227871 0
226.27744 1.93145 -20.830643 0 250 0 0.097366124 0.59414351 0.040109728 0
226.90085 2.8755071 -20.929888 0 250 0 0.098233446 0.58017522 0.043516204 0
227.52567 3.8361924 -21.024805 0 250 0 0.098206185 0.56710994 0.044060264 0
228.1382 4.8065042 -21.117867 0 250 0 0.097679645 0.55660522 0.044903614 0
228.7368 5.785006 -21.208618 0 250 0 0.095605873 0.54903865 0.044844605 0
229.33348 6.7825708 -21.298571 0 250 0 0.094105519 0.54403162 0.044176843 0
229.93977 7.7809935 -21.387623 0 250 0 0.094263375 0.53855145 0.04553305 0
230.52542 8.7715063 -21.473886 0 250 0 0.094050765 0.53383482 0.046408877 0
231.11272 9.7627039 -21.563623 0 250 0 0.092533454 0.52924019 0.04746851 0
231.7151 10.77296 -21.651802 0 250 0 0.093397051 0.52409273 0.050675955 0
232.29509 11.788548 -21.740885 0 250 0 0.094208688 0.51958817 0.052463766 0
232.87221 12.80037 -21.831495 0 250 0 0.094081238 0.51505351 0.053652279 0
233.42532 13.812729 -21.926682 0 250 0 0.093335837 0.51165348 0.053501766 0
234.00201 14.841707 -22.012337 0 250 0 0.093139179 0.50733894 0.053791206 0
234.56433 15.874679 -22.109133 0 250 0 0.091921769 0.5036701 0.053027157 0
235.13072 16.904144 -22.197435 0 250 0 0.091163836 0.50099653 0.051494524 0
235.70746 17.951172 -22.289124 0 250 0 0.089038119 0.499461 0.048348907 0
236.269 18.98945 -22.383266 0 250 0 0.088888288 0.49871957 0.04799825 0
236.82784 20.025536 -22.469522 0 250 0 0.088694222 0.49777496 0.045204397 0
237.3907 21.060652 -22.558983 0 250 0 0.089867018 0.49650413 0.04411928 0
237.94109 22.080105 -22.652514 0 250 0 0.090457447 0.49589974 0.042792652 0
238.49425 23.11488 -22.748638 0 250 0 0.089532897 0.49654537 0.040159289 0
239.04694 24.137754 -22.84594 0 250 0 0.087694578 0.49623883 0.038541213 0
239.61337 25.172707 -22.935598 0 250 0 0.086736426 0.49571502 0.039804053 0
240.17415 26.209127 -23.020441 0 250 0 0.086892292 0.49548095 0.042691432 0
240.73813 27.24704 -23.112637 0 250 0 0.086973861 0.49515766 0.044786129 0
241.29306 28.27165 -23.198429 0 250 0 0.089156657 0.49496359 0.045751631 0
241.84445 29.303686 -23.284147 0 250 0 0.091398269 0.49514917 0.046299748 0
242.40833 30.348377 -23.375807 0 250 0 0.09157934 0.49519789 0.047001779 0
242.96091 31.375242 -23.467079 0 250 0 0.089778535 0.49498695 0.046938971 0
243.51431 32.407135 -23.550978 0 250 0 0.087961107 0.49485859 0.046876561 0
244.09166 33.460918 -23.636675 0 250 0 0.087093562 0.4947578 0.046893716 0
244.66113 34.525562 -23.722849 0 250 0 0.086838447 0.4949283 0.046532005 0
245.23236 35.586544 -23.812769 0 250 0 0.087428667 0.49470901 0.046760928 0
245.79832 36.637791 -23.893456 0 250 0 0.087480851 0.49454874 0.046107158 0
246.36122 37.695229 -23.982763 0 250 0 0.088526502 0.4945986 0.045829356 0
246.93016 38.755375 -24.069334 0 250 0 0.087775767 0.49439257 0.044202693 0
247.48817 39.818031 -24.159573 0 250 0 0.083120234 0.4946686 0.044322815 0
248.04094 40.872921 -24.240713 0 250 0 0.078030445 0.49449277 0.044366095 0
248.61893 41.951775 -24.319164 0 250 0 0.075684413 0.49452564 0.044037089 0
249.18999 43.013752 -24.397121 0 250 0 0.07637807 0.49402392 0.043286067 0
249.76312 44.072536 -24.472372 0 250 0 0.076867402 0.49321958 0.044149492 0
250.32454 45.122486 -24.549215 0 250 0 0.074575767 0.49239385 0.044188939 0
250.88161 46.170177 -24.620657 0 250 0 0.073018402 0.49108481 0.044830415 0
251.44724 47.231323 -24.695129 0 250 0 0.072959498 0.48927036 0.045771256 0
252.01715 48.309669 -24.772434 0 250 0 0.074839257 0.48720774 0.046983901 0
252.5786 49.384537 -24.857983 0 250 0 0.073338941 0.48468384 0.045900252 0
253.13464 50.436756 -24.940189 0 250 0 0.072213434 0.48123446 0.046056613 0
253.68071 51.493118 -25.014894 0 250 0 0.069223084 0.47818357 0.04567115 0
254.22571 52.548527 -25.083954 0 250 0 0.066119522 0.47521618 0.045198895 0
254.77242 53.613091 -25.154232 0 250 0 0.063866749 0.47216108 0.045587528 0
255.3019 54.663349 -25.222858 0 250 0 0.064128175 0.46895283 0.046117745 0
255.82812 55.699776 -25.283571 0 250 0 0.065457448 0.46562618 0.046864294 0
256.36227 56.741379 -25.347191 0 250 0 0.066671126 0.46221498 0.045647584 0
256.86713 57.752731 -25.415434 0 250 0 0.066353783 0.45965034 0.045789517 0
257.36215 58.754978 -25.484119 0 250 0 0.064402483 0.45794407 0.044429325 0
257.85648 59.773258 -25.547579 0 250 0 0.066660307 0.45711246 0.043683209 0
258.35196 60.770451 -25.614075 0 250 0 0.072432518 0.45641649 0.045339614 0
258.83539 61.752464 -25.688015 0 250 0 0.075068444 0.45668498 0.041546769 0
259.31274 62.742504 -25.770878 0 250 0 0.074780129 0.45875555 0.038792226 0
259.79727 63.722797 -25.850355 0 250 0 0.07272885 0.46291041 0.034904424 0
260.27573 64.6791 -25.925173 0 250 0 0.071266137 0.46943098 0.029577183 0
260.7637 65.642693 -25.997854 0 250 0 0.070559427 0.47773969 0.026345829 0
261.26276 66.594009 -26.071211 0 250 0 0.070357397 0.48715651 0.025578484 0
261.77487 67.553284 -26.146406 0 250 0 0.06939476 0.4979198 0.024178736 0
262.28726 68.496651 -26.21793 0 250 0 0.068286717 0.51007378 0.024050945 0
262.82672 69.430664 -26.28977 0 250 0 0.068812907 0.52286583 0.026532855 0
263.36838 70.355537 -26.356585 0 250 0 0.067422308 0.53764713 0.025242368 0
263.92035 71.255898 -26.426449 0 250 0 0.067862272 0.55309522 0.025748115 0
264.4946 72.153557 -26.493179 0 250 0 0.066695526 0.57014382 0.023405554 0
265.09241 73.052361 -26.558764 0 250 0 0.067982711 0.58878273 0.020526173 0
265.69244 73.934647 -26.627352 0 250 0 0.070205733 0.60964394 0.020458901 0
266.31607 74.802879 -26.697445 0 250 0 0.070439197 0.63139653 0.019525398 0
266.95367 75.642776 -26.772964 0 250 0 0.06874565 0.65453053 0.018736908 0
267.61172 76.475266 -26.841686 0 250 0 0.065979771 0.67864215 0.01623266 0
268.27744 77.287033 -26.918764 0 250 0 0.06303364 0.70414793 0.013082558 0
268.98447 78.083183 -26.98839 0 250 0 0.06268438 0.73015189 0.010944903 0
269.69321 78.855118 -27.059336 0 250 0 0.063445322 0.75714886 0.01046332 0
270.41153 79.589645 -27.139927 0 250 0 0.062400226 0.78550738 0.0083604502 0
271.15973 80.311134 -27.205093 0 250 0 0.061362375 0.81570172 0.0058560385 0
271.92465 81.008308 -27.273388 0 250 0 0.059888702 0.84760779 0.0044864155 0
272.71689 81.671402 -27.347033 0 250 0 0.05785609 0.88046575 0.0032121525 0
273.52216 82.306419 -27.412655 0 250 0 0.056826513 0.91432214 0.0034109475 0
274.33466 82.903419 -27.484224 0 250 0 0.055478763 0.94862306 0.0024555083 0
275.15439 83.465149 -27.557375 0 250 0 0.055752654 0.98311359 0.0021798548 0
275.97833 83.995361 -27.629004 0 250 0 0.05749625 1.0177914 0.002305554 0
276.8623 84.510963 -27.68862 0 250 0 0.058665 1.0521557 0.0032125989 0
277.73102 84.991936 -27.75094 0 250 0 0.057432238 1.0871398 0.0037213389 0
278.61163 85.434189 -27.815886 0 250 0 0.057955332 1.1220548 0.0055096196 0
279.50146 85.829712 -27.876097 0 250 0 0.058161035 1.1565281 0.0043218429 0
280.39606 86.204971 -27.942125 0 250 0 0.063212559 1.1920853 0.0071519609 0
281.31009 86.536186 -28.006447 0 250 0 0.06930545 1.2268406 0.010935582 0
282.21921 86.835648 -28.077732 0 250 0 0.071172774 1.2618701 0.013145705 0
283.13129 87.107285 -28.147434 0 250 0 0.065686822 1.2974101 0.010217318 0
284.06644 87.350922 -28.209093 0 250 0 0.069599263 1.3332957 0.016554059 0
284.99149 87.554108 -28.273411 0 250 0 0.063847475 1.3689686 0.011872103 0
285.91 87.723457 -28.341734 0 250 0 0.076554134 1.4049546 0.023524735 0
286.85056 87.858955 -28.401676 0 250 0 0.068770416 1.4408273 0.011001951 0
287.78754 87.964951 -28.46534 0 250 0 0.071963541 1.4763073 0.01014273 0
288.74921 88.039993 -28.528116 0 250 0 0.060303543 1.5118569 -0.0025403027 0
289.70111 88.071037 -28.598024 0 250 0 0.026090266 1.5472049 -0.033745322 0
290.65634 88.054443 -28.665569 0 250 0 -2.9768715 1.5592993 -3.0317924 0
291.60916 88.015656 -28.729904 0 250 0 -3.0404305 1.5238254 -3.0930152 0
292.55762 87.95578 -28.785982 0 250 0 -3.0763447 1.487076 -3.1316962 0
293.49014 87.848122 -28.846617 0 250 0 -3.0807922 1.4505903 -3.1392243 0
294.42661 87.718971 -28.908924 0 250 0 -3.075105 1.4135985 -3.1335089 0
295.33105 87.554459 -28.979603 0 250 0 -3.0702071 1.3764716 -3.1256227 0
296.24878 87.350479 -29.038801 0 250 0 -3.0717616 1.3393041 -3.125603 0
297.15097 87.116898 -29.10323 0 250 0 -3.0725975 1.3024708 -3.124119 0
298.05319 86.841217 -29.157284 0 250 0 -3.0791686 1.266041 -3.1283562 0
298.94046 86.541603 -29.21508 0 250 0 -3.0838103 1.2293249 -3.1300285 0
299.81656 86.212357 -29.266548 0 250 0 -3.0900669 1.1924981 -3.1344218 0
300.67023 85.834717 -29.309124 0 250 0 -3.0904119 1.1564995 -3.1347659 0
301.50531 85.430084 -29.364161 0 250 0 -3.0888345 1.1204665 -3.133405 0
302.32397 85.006752 -29.41762 0 250 0 -3.0920978 1.0840429 -3.1370919 0
303.14371 84.546661 -29.471678 0 250 0 -3.0920508 1.0476409 -3.1355455 0
303.93716 84.06662 -29.524986 0 250 0 -3.0922949 1.0100069 -3.1351063 0
304.74332 83.535713 -29.578629 0 250 0 -3.0887153 0.97152954 -3.1329486 0
305.51691 82.968941 -29.625965 0 250 0 -3.0838208 0.93358511 -3.1292241 0
306.27295 82.378899 -29.678411 0 250 0 -3.0823298 0.89528108 -3.1279752 0
307.00284 81.754906 -29.738222 0 250 0 -3.0820248 0.85723495 -3.1267028 0
307.71741 81.096214 -29.788393 0 250 0 -3.0803068 0.81884742 -3.1256511 0
308.42548 80.400673 -29.838394 0 250 0 -3.0802946 0.78019923 -3.1272166 0
309.08347 79.700546 -29.901119 0 250 0 -3.0788252 0.74173546 -3.1251791 0
309.73923 78.958473 -29.955637 0 250 0 -3.0785749 0.70281649 -3.1265633 0
310.35065 78.196396 -30.00519 0 250 0 -3.0802617 0.66494274 -3.1285965 0
310.94238 77.389694 -30.068796 0 250 0 -3.0835035 0.62713283 -3.1303117 0
311.50568 76.571388 -30.132359 0 250 0 -3.0866113 0.58856374 -3.1337357 0
312.01364 75.737877 -30.194843 0 250 0 -3.087368 0.55089313 -3.1342347 0
312.50684 74.897781 -30.256163 0 250 0 -3.0900648 0.51281452 -3.1339753 0
312.95358 74.03466 -30.302618 0 250 0 -3.0967219 0.47591031 -3.1405487 0
313.38171 73.15966 -30.364889 0 250 0 -3.1005592 0.44067192 -3.1394522 0
313.76816 72.293343 -30.41778 0 250 0 -3.1004698 0.40547049 -3.1372879 0
314.11185 71.410172 -30.475193 0 250 0 -3.1001501 0.37119195 3.1389501 0
314.44034 70.522797 -30.528118 0 250 0 -3.0937092 0.33928216 -3.1403241 0
314.74265 69.618034 -30.583872 0 250 0 -3.0918705 0.3113398 -3.1415198 0
315.01306 68.708504 -30.640184 0 250 0 -3.0938275 0.28578293 3.1365507 0
315.25226 67.78653 -30.701384 0 250 0 -3.0977011 0.26312169 3.131737 0
315.48309 66.859703 -30.756769 0 250 0 -3.1001401 0.24383007 3.128648 0
315.69882 65.927231 -30.808064 0 250 0 -3.1014991 0.22876361 3.1260011 0
315.90201 65.005585 -30.856102 0 250 0 -3.1012127 0.21659002 3.1241746 0
316.09409 64.063187 -30.914518 0 250 0 -3.1005571 0.20711958 3.123291 0
316.28494 63.121361 -30.96542 0 250 0 -3.1002219 0.19873126 3.1224513 0
316.46991 62.178394 -31.012272 0 250 0 -3.1007571 0.19043437 3.1226146 0
316.64264 61.231831 -31.059486 0 250 0 -3.1008904 0.18212391 3.1221411 0
316.81531 60.276764 -31.115591 0 250 0 -3.1003416 0.17385454 3.1222844 0
316.9754 59.335152 -31.172398 0 250 0 -3.100455 0.16555238 3.1211684 0
317.12695 58.376698 -31.218054 0 250 0 -3.1004226 0.15771385 3.1208296 0
317.27078 57.433773 -31.270424 0 250 0 -3.1007135 0.14961292 3.121273 0
317.4086 56.483723 -31.322561 0 250 0 -3.1017444 0.14159861 3.1208911 0
317.53583 55.538353 -31.376143 0 250 0 -3.102246 0.13452794 3.1209965 0
317.66031 54.605408 -31.420883 0 250 0 -3.1021941 0.12905195 3.1196265 0
317.77664 53.68346 -31.473013 0 250 0 -3.1026525 0.12572955 3.1174898 0
317.88635 52.743862 -31.533022 0 250 0 -3.1050146 0.12399065 3.1139531 0
317.99875 51.832432 -31.587631 0 250 0 -3.1073513 0.12357501 3.111284 0
0 0 0 1 0 0 0 1 0 0 0 1 0 0 0 0 0 483 1 0 0
