ply
format ascii 1.0
comment PCL generated
element vertex 483
property float x
property float y
property float z
property uchar red
property uchar green
property uchar blue
property float nx
property float ny
property float nz
property float curvature
element camera 1
property float view_px
property float view_py
property float view_pz
property float x_axisx
property float x_axisy
property float x_axisz
property float y_axisx
property float y_axisy
property float y_axisz
property float z_axisx
property float z_axisy
property float z_axisz
property float focal
property float scalex
property float scaley
property float centerx
property float centery
property int viewportx
property int viewporty
property float k1
property float k2
end_header
1.110223e-16 -2.220446e-16 3.3306691e-16 0 0 250 0 0 0 0
0.0055425242 1.528975 -0.030476941 0 0 250 0 0 0 0
0.0056642792 3.0524089 -0.060129911 0 0 250 0 0 0 0
0.003267206 4.5663152 -0.088382304 0 0 250 0 0 0 0
-0.0066488711 6.0794129 -0.110715 0 0 250 0 0 0 0
-0.01843176 7.6152992 -0.1314352 0 0 250 0 0 0 0
-0.031716142 9.0991182 -0.1529581 0 0 250 0 0 0 0
-0.044809971 10.59934 -0.17436869 0 0 250 0 0 0 0
-0.061939579 12.09423 -0.1890327 0 0 250 0 0 0 0
-0.08195167 13.58737 -0.2057869 0 0 250 0 0 0 0
-0.1077803 15.07594 -0.224905 0 0 250 0 0 0 0
-0.1383473 16.56039 -0.2492411 0 0 250 0 0 0 0
-0.1727573 18.042801 -0.27231821 0 0 250 0 0 0 0
-0.2058484 19.51642 -0.29577649 0 0 250 0 0 0 0
-0.2386867 20.989679 -0.31327951 0 0 250 0 0 0 0
-0.26787469 22.451639 -0.32801539 0 0 250 0 0 0 0
-0.2977989 23.90871 -0.3414779 0 0 250 0 0 0 0
-0.32869011 25.360991 -0.35660049 0 0 250 0 0 0 0
-0.35839999 26.80201 -0.37017801 0 0 250 0 0 0 0
-0.38816431 28.23509 -0.39037809 0 0 250 0 0 0 0
-0.4156875 29.660601 -0.4127461 0 0 250 0 0 0 0
-0.44280341 31.082041 -0.43505999 0 0 250 0 0 0 0
-0.4678629 32.49337 -0.45396569 0 0 250 0 0 0 0
-0.49371171 33.88789 -0.4678086 0 0 250 0 0 0 0
-0.523018 35.271992 -0.48451561 0 0 250 0 0 0 0
-0.55486679 36.639729 -0.50270951 0 0 250 0 0 0 0
-0.58316118 37.995991 -0.5237 0 0 250 0 0 0 0
-0.6110062 39.330189 -0.54467982 0 0 250 0 0 0 0
-0.63515902 40.654011 -0.56508708 0 0 250 0 0 0 0
-0.65597439 41.957191 -0.58376992 0 0 250 0 0 0 0
-0.67318738 43.239552 -0.60122287 0 0 250 0 0 0 0
-0.6865415 44.502892 -0.61781919 0 0 250 0 0 0 0
-0.69358838 45.744129 -0.63502407 0 0 250 0 0 0 0
-0.69595689 46.977482 -0.65267068 0 0 250 0 0 0 0
-0.70019919 48.197739 -0.6645447 0 0 250 0 0 0 0
-0.6975233 49.40741 -0.6781882 0 0 250 0 0 0 0
-0.69036102 50.60553 -0.68999791 0 0 250 0 0 0 0
-0.6759702 51.791271 -0.70206898 0 0 250 0 0 0 0
-0.64737511 52.9688 -0.71261132 0 0 250 0 0 0 0
-0.60946238 54.132961 -0.7231034 0 0 250 0 0 0 0
-0.56006211 55.281101 -0.72977751 0 0 250 0 0 0 0
-0.49340981 56.412189 -0.73907679 0 0 250 0 0 0 0
-0.41111189 57.531052 -0.74690467 0 0 250 0 0 0 0
-0.3043738 58.640148 -0.755216 0 0 250 0 0 0 0
-0.17725851 59.73159 -0.76374251 0 0 250 0 0 0 0
-0.03027954 60.807339 -0.77095848 0 0 250 0 0 0 0
0.14141621 61.868389 -0.78019857 0 0 250 0 0 0 0
0.34292361 62.91291 -0.79057139 0 0 250 0 0 0 0
0.56885159 63.940689 -0.79915309 0 0 250 0 0 0 0
0.82260698 64.948997 -0.80266207 0 0 250 0 0 0 0
1.098599 65.934807 -0.8056283 0 0 250 0 0 0 0
1.400581 66.903862 -0.80487442 0 0 250 0 0 0 0
1.71945 67.856209 -0.8099221 0 0 250 0 0 0 0
2.070873 68.79155 -0.81162202 0 0 250 0 0 0 0
2.4451561 69.702431 -0.81312633 0 0 250 0 0 0 0
2.836652 70.588364 -0.81391501 0 0 250 0 0 0 0
3.253649 71.452721 -0.81666672 0 0 250 0 0 0 0
3.6971829 72.300102 -0.82175517 0 0 250 0 0 0 0
4.1657701 73.132202 -0.82657188 0 0 250 0 0 0 0
4.6563988 73.95134 -0.83264822 0 0 250 0 0 0 0
5.1719222 74.740417 -0.83790648 0 0 250 0 0 0 0
5.7074251 75.501373 -0.83971572 0 0 250 0 0 0 0
6.267395 76.235924 -0.84027308 0 0 250 0 0 0 0
6.8529649 76.941872 -0.84365028 0 0 250 0 0 0 0
7.469758 77.627136 -0.85071528 0 0 250 0 0 0 0
8.1028442 78.284058 -0.86208087 0 0 250 0 0 0 0
8.7507992 78.905899 -0.87024081 0 0 250 0 0 0 0
9.4209547 79.506401 -0.8762188 0 0 250 0 0 0 0
10.10937 80.081581 -0.8844685 0 0 250 0 0 0 0
10.82345 80.634323 -0.89630872 0 0 250 0 0 0 0
11.55404 81.161682 -0.91039509 0 0 250 0 0 0 0
12.29823 81.67543 -0.9440788 0 0 250 0 0 0 0
13.06621 82.178436 -0.98997498 0 0 250 0 0 0 0
13.85636 82.660538 -1.044292 0 0 250 0 0 0 0
14.67086 83.102768 -1.091171 0 0 250 0 0 0 0
15.50495 83.526398 -1.1417691 0 0 250 0 0 0 0
16.351879 83.90596 -1.18292 0 0 250 0 0 0 0
17.21884 84.266296 -1.2239749 0 0 250 0 0 0 0
18.101339 84.588814 -1.258474 0 0 250 0 0 0 0
19.00345 84.873688 -1.2929209 0 0 250 0 0 0 0
19.920321 85.122864 -1.333845 0 0 250 0 0 0 0
20.85317 85.33947 -1.389328 0 0 250 0 0 0 0
21.796221 85.515923 -1.441902 0 0 250 0 0 0 0
22.74979 85.654022 -1.4874181 0 0 250 0 0 0 0
23.704109 85.757736 -1.536455 0 0 250 0 0 0 0
24.663361 85.838753 -1.5788569 0 0 250 0 0 0 0
25.626249 85.884048 -1.637414 0 0 250 0 0 0 0
26.596701 85.903503 -1.686769 0 0 250 0 0 0 0
27.57774 85.908203 -1.740061 0 0 250 0 0 0 0
28.56061 85.892036 -1.7855819 0 0 250 0 0 0 0
29.53912 85.860023 -1.850372 0 0 250 0 0 0 0
30.520559 85.809601 -1.910044 0 0 250 0 0 0 0
31.506109 85.746101 -1.968582 0 0 250 0 0 0 0
32.495529 85.669739 -2.034292 0 0 250 0 0 0 0
33.485229 85.587502 -2.0965109 0 0 250 0 0 0 0
34.475739 85.505852 -2.16517 0 0 250 0 0 0 0
35.473919 85.419289 -2.2302921 0 0 250 0 0 0 0
36.474091 85.332817 -2.3024299 0 0 250 0 0 0 0
37.476231 85.24353 -2.372412 0 0 250 0 0 0 0
38.479389 85.150932 -2.446547 0 0 250 0 0 0 0
39.487942 85.047112 -2.5319109 0 0 250 0 0 0 0
40.50491 84.943352 -2.620466 0 0 250 0 0 0 0
41.52314 84.840111 -2.703793 0 0 250 0 0 0 0
42.541538 84.733398 -2.782434 0 0 250 0 0 0 0
43.56321 84.626389 -2.8628459 0 0 250 0 0 0 0
44.59161 84.512733 -2.9470489 0 0 250 0 0 0 0
45.623901 84.396156 -3.034107 0 0 250 0 0 0 0
46.65834 84.280258 -3.1217189 0 0 250 0 0 0 0
47.698589 84.159737 -3.212409 0 0 250 0 0 0 0
48.742649 84.037987 -3.3006821 0 0 250 0 0 0 0
49.797668 83.911789 -3.399467 0 0 250 0 0 0 0
50.851299 83.780357 -3.491219 0 0 250 0 0 0 0
51.907089 83.645927 -3.581332 0 0 250 0 0 0 0
52.962841 83.508728 -3.668473 0 0 250 0 0 0 0
54.021278 83.370117 -3.758476 0 0 250 0 0 0 0
55.089512 83.231178 -3.853303 0 0 250 0 0 0 0
56.16217 83.096741 -3.946919 0 0 250 0 0 0 0
57.236481 82.963203 -4.0434399 0 0 250 0 0 0 0
58.312248 82.831879 -4.1374841 0 0 250 0 0 0 0
59.394279 82.698318 -4.2355232 0 0 250 0 0 0 0
60.48415 82.564453 -4.3328772 0 0 250 0 0 0 0
61.58947 82.420067 -4.4276862 0 0 250 0 0 0 0
62.692009 82.27636 -4.5074401 0 0 250 0 0 0 0
63.801628 82.126572 -4.57511 0 0 250 0 0 0 0
64.902992 81.971733 -4.6373239 0 0 250 0 0 0 0
66.006752 81.818466 -4.6988239 0 0 250 0 0 0 0
67.115349 81.671288 -4.7697582 0 0 250 0 0 0 0
68.228416 81.527367 -4.8481588 0 0 250 0 0 0 0
69.352943 81.388344 -4.927907 0 0 250 0 0 0 0
70.485001 81.248711 -5.0110168 0 0 250 0 0 0 0
71.621162 81.110252 -5.0869942 0 0 250 0 0 0 0
72.753113 80.972656 -5.1629491 0 0 250 0 0 0 0
73.889091 80.831413 -5.2410541 0 0 250 0 0 0 0
75.02755 80.689621 -5.3238258 0 0 250 0 0 0 0
76.177788 80.547531 -5.40908 0 0 250 0 0 0 0
77.339478 80.402863 -5.49365 0 0 250 0 0 0 0
78.496841 80.260696 -5.5753951 0 0 250 0 0 0 0
79.653847 80.122421 -5.6532888 0 0 250 0 0 0 0
80.81443 79.981941 -5.7332711 0 0 250 0 0 0 0
81.988663 79.840843 -5.8201809 0 0 250 0 0 0 0
83.149109 79.701797 -5.906836 0 0 250 0 0 0 0
84.311562 79.560562 -5.9916439 0 0 250 0 0 0 0
85.481331 79.41861 -6.0734372 0 0 250 0 0 0 0
86.655739 79.274162 -6.1433368 0 0 250 0 0 0 0
87.84314 79.132973 -6.2200918 0 0 250 0 0 0 0
89.030342 78.991783 -6.2927241 0 0 250 0 0 0 0
90.23925 78.850037 -6.3754158 0 0 250 0 0 0 0
91.452744 78.712051 -6.458889 0 0 250 0 0 0 0
92.666389 78.573357 -6.54215 0 0 250 0 0 0 0
93.887428 78.437813 -6.6276641 0 0 250 0 0 0 0
95.109108 78.30262 -6.7131152 0 0 250 0 0 0 0
96.338043 78.171547 -6.7986598 0 0 250 0 0 0 0
97.569351 78.057648 -6.8823309 0 0 250 0 0 0 0
98.802078 77.939827 -6.9662662 0 0 250 0 0 0 0
100.0429 77.8218 -7.0524111 0 0 250 0 0 0 0
101.2886 77.69989 -7.13867 0 0 250 0 0 0 0
102.5376 77.577721 -7.2248082 0 0 250 0 0 0 0
103.7849 77.450432 -7.3085589 0 0 250 0 0 0 0
105.0341 77.31942 -7.3946462 0 0 250 0 0 0 0
106.2831 77.182587 -7.478364 0 0 250 0 0 0 0
107.5331 77.047279 -7.561306 0 0 250 0 0 0 0
108.7743 76.904358 -7.6413288 0 0 250 0 0 0 0
110.0019 76.763779 -7.7229509 0 0 250 0 0 0 0
111.2386 76.607872 -7.8079691 0 0 250 0 0 0 0
112.4618 76.437019 -7.8967919 0 0 250 0 0 0 0
113.6907 76.253082 -7.9830489 0 0 250 0 0 0 0
114.9114 76.049011 -8.0618343 0 0 250 0 0 0 0
116.1296 75.820778 -8.1410379 0 0 250 0 0 0 0
117.341 75.581299 -8.2235975 0 0 250 0 0 0 0
118.5414 75.316612 -8.306282 0 0 250 0 0 0 0
119.7281 75.04274 -8.3888664 0 0 250 0 0 0 0
120.9037 74.751297 -8.4748077 0 0 250 0 0 0 0
122.0798 74.447311 -8.5613317 0 0 250 0 0 0 0
123.2631 74.127037 -8.6449156 0 0 250 0 0 0 0
124.4375 73.78566 -8.7230873 0 0 250 0 0 0 0
125.5966 73.427177 -8.7991447 0 0 250 0 0 0 0
126.7459 73.047989 -8.8748074 0 0 250 0 0 0 0
127.8828 72.651863 -8.9545097 0 0 250 0 0 0 0
129.01489 72.235901 -9.0358238 0 0 250 0 0 0 0
130.13831 71.80658 -9.1183958 0 0 250 0 0 0 0
131.2536 71.361679 -9.1990948 0 0 250 0 0 0 0
132.3546 70.90448 -9.2791176 0 0 250 0 0 0 0
133.4422 70.428482 -9.3590536 0 0 250 0 0 0 0
134.52879 69.931297 -9.441782 0 0 250 0 0 0 0
135.60429 69.414597 -9.5274334 0 0 250 0 0 0 0
136.67619 68.880302 -9.6148796 0 0 250 0 0 0 0
137.742 68.328453 -9.7045898 0 0 250 0 0 0 0
138.8096 67.753609 -9.7955093 0 0 250 0 0 0 0
139.8723 67.162231 -9.8889132 0 0 250 0 0 0 0
140.9268 66.54673 -9.9787807 0 0 250 0 0 0 0
141.9671 65.91185 -10.06744 0 0 250 0 0 0 0
143.0034 65.253922 -10.15971 0 0 250 0 0 0 0
144.0312 64.574806 -10.2544 0 0 250 0 0 0 0
145.0446 63.875488 -10.34928 0 0 250 0 0 0 0
146.0542 63.151649 -10.44366 0 0 250 0 0 0 0
147.05119 62.406269 -10.53685 0 0 250 0 0 0 0
148.03551 61.640678 -10.62705 0 0 250 0 0 0 0
149.01199 60.85284 -10.71697 0 0 250 0 0 0 0
149.9695 60.049301 -10.80867 0 0 250 0 0 0 0
150.91789 59.226349 -10.9007 0 0 250 0 0 0 0
151.85699 58.377609 -10.99532 0 0 250 0 0 0 0
152.7818 57.504162 -11.08992 0 0 250 0 0 0 0
153.68781 56.60812 -11.18205 0 0 250 0 0 0 0
154.5733 55.688782 -11.26982 0 0 250 0 0 0 0
155.4368 54.746639 -11.36018 0 0 250 0 0 0 0
156.2981 53.77203 -11.44851 0 0 250 0 0 0 0
157.1378 52.77454 -11.53501 0 0 250 0 0 0 0
157.9474 51.752941 -11.62413 0 0 250 0 0 0 0
158.75571 50.726379 -11.72195 0 0 250 0 0 0 0
159.53529 49.68737 -11.82015 0 0 250 0 0 0 0
160.2798 48.634579 -11.91873 0 0 250 0 0 0 0
161.0032 47.560631 -12.02126 0 0 250 0 0 0 0
161.68629 46.465561 -12.122 0 0 250 0 0 0 0
162.349 45.35334 -12.23005 0 0 250 0 0 0 0
162.97301 44.22905 -12.33141 0 0 250 0 0 0 0
163.5887 43.09552 -12.44119 0 0 250 0 0 0 0
164.17979 41.94672 -12.55286 0 0 250 0 0 0 0
164.7509 40.78883 -12.66162 0 0 250 0 0 0 0
165.2989 39.6217 -12.77147 0 0 250 0 0 0 0
165.8309 38.447788 -12.87876 0 0 250 0 0 0 0
166.34869 37.26247 -12.98468 0 0 250 0 0 0 0
166.85229 36.066101 -13.08684 0 0 250 0 0 0 0
167.3354 34.861969 -13.18536 0 0 250 0 0 0 0
167.7973 33.658112 -13.27958 0 0 250 0 0 0 0
168.2484 32.449928 -13.37387 0 0 250 0 0 0 0
168.69119 31.242821 -13.47182 0 0 250 0 0 0 0
169.13789 30.02817 -13.57156 0 0 250 0 0 0 0
169.5751 28.81254 -13.67179 0 0 250 0 0 0 0
169.9695 27.582239 -13.77138 0 0 250 0 0 0 0
170.36189 26.35507 -13.86787 0 0 250 0 0 0 0
170.7494 25.130711 -13.96352 0 0 250 0 0 0 0
171.1273 23.90019 -14.06469 0 0 250 0 0 0 0
171.513 22.672729 -14.1674 0 0 250 0 0 0 0
171.8911 21.442579 -14.27268 0 0 250 0 0 0 0
172.2632 20.221331 -14.38257 0 0 250 0 0 0 0
172.61771 19.01008 -14.49077 0 0 250 0 0 0 0
172.99471 17.799101 -14.59753 0 0 250 0 0 0 0
173.377 16.599091 -14.70734 0 0 250 0 0 0 0
173.783 15.40117 -14.81889 0 0 250 0 0 0 0
174.1985 14.20288 -14.92971 0 0 250 0 0 0 0
174.627 13.00435 -15.03629 0 0 250 0 0 0 0
175.0609 11.81186 -15.13842 0 0 250 0 0 0 0
175.4926 10.62387 -15.23869 0 0 250 0 0 0 0
175.9425 9.4421816 -15.33995 0 0 250 0 0 0 0
176.3996 8.2701445 -15.44296 0 0 250 0 0 0 0
176.8674 7.090384 -15.54426 0 0 250 0 0 0 0
177.3568 5.9170928 -15.64895 0 0 250 0 0 0 0
177.86079 4.751502 -15.74904 0 0 250 0 0 0 0
178.38139 3.587553 -15.85596 0 0 250 0 0 0 0
178.9288 2.4349849 -15.95971 0 0 250 0 0 0 0
179.4976 1.286303 -16.057489 0 0 250 0 0 0 0
180.0782 0.1518369 -16.154169 0 0 250 0 0 0 0
180.6758 -0.97187591 -16.250681 0 0 250 0 0 0 0
181.28841 -2.083451 -16.347191 0 0 250 0 0 0 0
181.9124 -3.1757419 -16.44108 0 0 250 0 0 0 0
182.5544 -4.2524838 -16.53684 0 0 250 0 0 0 0
183.20599 -5.3126702 -16.628889 0 0 250 0 0 0 0
183.87669 -6.356535 -16.713091 0 0 250 0 0 0 0
184.5607 -7.3846822 -16.78878 0 0 250 0 0 0 0
185.2717 -8.3970222 -16.85989 0 0 250 0 0 0 0
186.0033 -9.3909302 -16.93795 0 0 250 0 0 0 0
186.7509 -10.36879 -17.01685 0 0 250 0 0 0 0
187.524 -11.32239 -17.093981 0 0 250 0 0 0 0
188.3161 -12.24512 -17.174841 0 0 250 0 0 0 0
189.1165 -13.13563 -17.25841 0 0 250 0 0 0 0
189.9427 -14.00312 -17.344009 0 0 250 0 0 0 0
190.7892 -14.84446 -17.429779 0 0 250 0 0 0 0
191.6657 -15.65688 -17.515499 0 0 250 0 0 0 0
192.5591 -16.436569 -17.605061 0 0 250 0 0 0 0
193.4648 -17.19672 -17.68808 0 0 250 0 0 0 0
194.38589 -17.931219 -17.761221 0 0 250 0 0 0 0
195.3232 -18.644279 -17.83289 0 0 250 0 0 0 0
196.2565 -19.32892 -17.903351 0 0 250 0 0 0 0
197.2261 -19.980801 -17.9762 0 0 250 0 0 0 0
198.2141 -20.605749 -18.049049 0 0 250 0 0 0 0
199.2336 -21.190399 -18.12215 0 0 250 0 0 0 0
200.2718 -21.743031 -18.19392 0 0 250 0 0 0 0
201.31059 -22.263359 -18.27035 0 0 250 0 0 0 0
202.37131 -22.749781 -18.339821 0 0 250 0 0 0 0
203.4483 -23.20318 -18.403641 0 0 250 0 0 0 0
204.5291 -23.619221 -18.473289 0 0 250 0 0 0 0
205.6382 -23.991091 -18.54755 0 0 250 0 0 0 0
206.7589 -24.32519 -18.624491 0 0 250 0 0 0 0
207.9046 -24.614429 -18.703541 0 0 250 0 0 0 0
209.05321 -24.86248 -18.784479 0 0 250 0 0 0 0
210.1843 -25.068171 -18.8643 0 0 250 0 0 0 0
211.3358 -25.22909 -18.941669 0 0 250 0 0 0 0
212.48891 -25.34952 -19.02022 0 0 250 0 0 0 0
213.63071 -25.42449 -19.100929 0 0 250 0 0 0 0
214.7979 -25.46063 -19.174931 0 0 250 0 0 0 0
215.9576 -25.45508 -19.24675 0 0 250 0 0 0 0
217.117 -25.407459 -19.32543 0 0 250 0 0 0 0
218.2711 -25.31946 -19.406549 0 0 250 0 0 0 0
219.4167 -25.199511 -19.484329 0 0 250 0 0 0 0
220.5719 -25.03982 -19.56459 0 0 250 0 0 0 0
221.7231 -24.847429 -19.64163 0 0 250 0 0 0 0
222.8707 -24.623541 -19.716311 0 0 250 0 0 0 0
224.02119 -24.36371 -19.7906 0 0 250 0 0 0 0
225.1627 -24.068609 -19.867161 0 0 250 0 0 0 0
226.3 -23.737101 -19.943661 0 0 250 0 0 0 0
227.4299 -23.372919 -20.020611 0 0 250 0 0 0 0
228.5386 -22.970369 -20.099039 0 0 250 0 0 0 0
229.64861 -22.53278 -20.178341 0 0 250 0 0 0 0
230.7475 -22.058701 -20.25931 0 0 250 0 0 0 0
231.8181 -21.554899 -20.34293 0 0 250 0 0 0 0
232.8868 -21.015989 -20.429411 0 0 250 0 0 0 0
233.92841 -20.44385 -20.52253 0 0 250 0 0 0 0
234.9792 -19.835541 -20.605181 0 0 250 0 0 0 0
236.01241 -19.19422 -20.685989 0 0 250 0 0 0 0
237.01961 -18.52677 -20.768049 0 0 250 0 0 0 0
238.01601 -17.82777 -20.860081 0 0 250 0 0 0 0
238.99969 -17.10277 -20.95439 0 0 250 0 0 0 0
239.961 -16.35594 -21.047409 0 0 250 0 0 0 0
240.9137 -15.58475 -21.138439 0 0 250 0 0 0 0
241.8488 -14.79112 -21.22694 0 0 250 0 0 0 0
242.7798 -13.98455 -21.306009 0 0 250 0 0 0 0
243.6978 -13.15891 -21.39183 0 0 250 0 0 0 0
244.5843 -12.30142 -21.48418 0 0 250 0 0 0 0
245.4585 -11.41406 -21.58194 0 0 250 0 0 0 0
246.32381 -10.51863 -21.665079 0 0 250 0 0 0 0
247.1693 -9.605238 -21.74737 0 0 250 0 0 0 0
247.99699 -8.6743937 -21.83017 0 0 250 0 0 0 0
248.81081 -7.723093 -21.91923 0 0 250 0 0 0 0
249.60789 -6.7494001 -22.00935 0 0 250 0 0 0 0
250.39059 -5.7593098 -22.100531 0 0 250 0 0 0 0
251.1588 -4.7508311 -22.19183 0 0 250 0 0 0 0
251.9117 -3.7273469 -22.28256 0 0 250 0 0 0 0
252.65559 -2.6866729 -22.37398 0 0 250 0 0 0 0
253.38161 -1.629795 -22.464939 0 0 250 0 0 0 0
254.09959 -0.55690688 -22.557871 0 0 250 0 0 0 0
254.8065 0.53401899 -22.65094 0 0 250 0 0 0 0
255.49741 1.6287169 -22.74419 0 0 250 0 0 0 0
256.18259 2.7426651 -22.83906 0 0 250 0 0 0 0
256.86401 3.8624101 -22.93222 0 0 250 0 0 0 0
257.54001 4.9893212 -23.02562 0 0 250 0 0 0 0
258.2139 6.1227918 -23.11631 0 0 250 0 0 0 0
258.8844 7.2632718 -23.20738 0 0 250 0 0 0 0
259.5538 8.4109144 -23.29792 0 0 250 0 0 0 0
260.21771 9.5612993 -23.38751 0 0 250 0 0 0 0
260.87759 10.71832 -23.47785 0 0 250 0 0 0 0
261.5318 11.88297 -23.56959 0 0 250 0 0 0 0
262.1825 13.05063 -23.66098 0 0 250 0 0 0 0
262.8287 14.22261 -23.75316 0 0 250 0 0 0 0
263.46829 15.39509 -23.844851 0 0 250 0 0 0 0
264.10629 16.572479 -23.937281 0 0 250 0 0 0 0
264.74161 17.74592 -24.02944 0 0 250 0 0 0 0
265.3736 18.91696 -24.12178 0 0 250 0 0 0 0
266.00711 20.093849 -24.216551 0 0 250 0 0 0 0
266.6376 21.26615 -24.311159 0 0 250 0 0 0 0
267.26611 22.441059 -24.40836 0 0 250 0 0 0 0
267.89471 23.61274 -24.5056 0 0 250 0 0 0 0
268.52771 24.7861 -24.602791 0 0 250 0 0 0 0
269.16171 25.959221 -24.696779 0 0 250 0 0 0 0
269.77451 27.145651 -24.79217 0 0 250 0 0 0 0
270.375 28.334209 -24.88855 0 0 250 0 0 0 0
270.9762 29.525761 -24.981979 0 0 250 0 0 0 0
271.5972 30.720671 -25.067579 0 0 250 0 0 0 0
272.21951 31.91781 -25.15485 0 0 250 0 0 0 0
272.8429 33.12009 -25.24066 0 0 250 0 0 0 0
273.47711 34.317421 -25.32468 0 0 250 0 0 0 0
274.12469 35.502239 -25.39916 0 0 250 0 0 0 0
274.7717 36.69434 -25.475559 0 0 250 0 0 0 0
275.41461 37.873001 -25.55348 0 0 250 0 0 0 0
276.05051 39.060051 -25.64312 0 0 250 0 0 0 0
276.68039 40.258862 -25.73958 0 0 250 0 0 0 0
277.33319 41.460258 -25.81772 0 0 250 0 0 0 0
277.98969 42.665329 -25.890949 0 0 250 0 0 0 0
278.6412 43.869308 -25.96207 0 0 250 0 0 0 0
279.27869 45.079288 -26.03112 0 0 250 0 0 0 0
279.9126 46.30183 -26.08758 0 0 250 0 0 0 0
280.53751 47.516949 -26.141171 0 0 250 0 0 0 0
281.15549 48.73888 -26.200609 0 0 250 0 0 0 0
281.77579 49.949902 -26.268181 0 0 250 0 0 0 0
282.37509 51.150761 -26.34535 0 0 250 0 0 0 0
282.97189 52.343552 -26.43327 0 0 250 0 0 0 0
283.56311 53.532719 -26.524071 0 0 250 0 0 0 0
284.16681 54.711601 -26.604429 0 0 250 0 0 0 0
284.76511 55.885799 -26.682211 0 0 250 0 0 0 0
285.35651 57.05677 -26.752819 0 0 250 0 0 0 0
285.94 58.224621 -26.818239 0 0 250 0 0 0 0
286.51199 59.38303 -26.883961 0 0 250 0 0 0 0
287.07559 60.536461 -26.954559 0 0 250 0 0 0 0
287.6286 61.684799 -27.02747 0 0 250 0 0 0 0
288.17709 62.82951 -27.09889 0 0 250 0 0 0 0
288.71201 63.95491 -27.18433 0 0 250 0 0 0 0
289.24799 65.078537 -27.268499 0 0 250 0 0 0 0
289.76889 66.185287 -27.35745 0 0 250 0 0 0 0
290.29391 67.289101 -27.44639 0 0 250 0 0 0 0
290.81619 68.385399 -27.551769 0 0 250 0 0 0 0
291.34021 69.474388 -27.65073 0 0 250 0 0 0 0
291.87109 70.559822 -27.75392 0 0 250 0 0 0 0
292.40799 71.633972 -27.854441 0 0 250 0 0 0 0
292.965 72.699478 -27.94039 0 0 250 0 0 0 0
293.53809 73.753601 -28.013889 0 0 250 0 0 0 0
294.13 74.798248 -28.08563 0 0 250 0 0 0 0
294.7341 75.835999 -28.155439 0 0 250 0 0 0 0
295.3511 76.864563 -28.223221 0 0 250 0 0 0 0
295.97141 77.887016 -28.303659 0 0 250 0 0 0 0
296.6105 78.897308 -28.384661 0 0 250 0 0 0 0
297.26169 79.892799 -28.465919 0 0 250 0 0 0 0
297.94659 80.872398 -28.545811 0 0 250 0 0 0 0
298.64481 81.836891 -28.62837 0 0 250 0 0 0 0
299.36789 82.771988 -28.704519 0 0 250 0 0 0 0
300.1134 83.688461 -28.779631 0 0 250 0 0 0 0
300.86789 84.578903 -28.8542 0 0 250 0 0 0 0
301.65469 85.444427 -28.925779 0 0 250 0 0 0 0
302.4631 86.284401 -28.99859 0 0 250 0 0 0 0
303.27979 87.094193 -29.07074 0 0 250 0 0 0 0
304.12991 87.873734 -29.14176 0 0 250 0 0 0 0
304.98779 88.619987 -29.211969 0 0 250 0 0 0 0
305.88181 89.333099 -29.279619 0 0 250 0 0 0 0
306.79581 90.009743 -29.34553 0 0 250 0 0 0 0
307.70529 90.645607 -29.41041 0 0 250 0 0 0 0
308.6449 91.24501 -29.47378 0 0 250 0 0 0 0
309.61029 91.815308 -29.53513 0 0 250 0 0 0 0
310.56689 92.341682 -29.597481 0 0 250 0 0 0 0
311.5574 92.835388 -29.65731 0 0 250 0 0 0 0
312.54059 93.287987 -29.716721 0 0 250 0 0 0 0
313.5495 93.704323 -29.77541 0 0 250 0 0 0 0
314.57449 94.085251 -29.8356 0 0 250 0 0 0 0
315.58969 94.424873 -29.89502 0 0 250 0 0 0 0
316.6366 94.733253 -29.954729 0 0 250 0 0 0 0
317.6908 95.001572 -30.011869 0 0 250 0 0 0 0
318.73111 95.231102 -30.068501 0 0 250 0 0 0 0
319.79471 95.422318 -30.12356 0 0 250 0 0 0 0
320.85901 95.588242 -30.16824 0 0 250 0 0 0 0
321.94699 95.71904 -30.21446 0 0 250 0 0 0 0
323.03751 95.811363 -30.264021 0 0 250 0 0 0 0
324.11261 95.86232 -30.315371 0 0 250 0 0 0 0
325.202 95.875137 -30.367081 0 0 250 0 0 0 0
326.28961 95.851089 -30.41637 0 0 250 0 0 0 0
327.34 95.779358 -30.466101 0 0 250 0 0 0 0
328.40411 95.672523 -30.510981 0 0 250 0 0 0 0
329.44049 95.523651 -30.561689 0 0 250 0 0 0 0
330.54581 95.321823 -30.60903 0 0 250 0 0 0 0
331.63541 95.086029 -30.655121 0 0 250 0 0 0 0
332.69141 94.811699 -30.697189 0 0 250 0 0 0 0
333.73041 94.509857 -30.736191 0 0 250 0 0 0 0
334.7562 94.171898 -30.773609 0 0 250 0 0 0 0
335.71921 93.800842 -30.783251 0 0 250 0 0 0 0
336.6889 93.397957 -30.810989 0 0 250 0 0 0 0
337.6369 92.963348 -30.859659 0 0 250 0 0 0 0
338.55719 92.488068 -30.90431 0 0 250 0 0 0 0
339.4758 91.995277 -30.93784 0 0 250 0 0 0 0
340.36319 91.461067 -30.97476 0 0 250 0 0 0 0
341.2507 90.918404 -31.01885 0 0 250 0 0 0 0
342.12781 90.325478 -31.062941 0 0 250 0 0 0 0
342.96411 89.692177 -31.11183 0 0 250 0 0 0 0
343.80481 89.016403 -31.16246 0 0 250 0 0 0 0
344.62769 88.319832 -31.22212 0 0 250 0 0 0 0
345.40329 87.57917 -31.28356 0 0 250 0 0 0 0
346.17441 86.791679 -31.3356 0 0 250 0 0 0 0
346.89261 85.962311 -31.392031 0 0 250 0 0 0 0
347.59219 85.092567 -31.43194 0 0 250 0 0 0 0
348.2601 84.188248 -31.473829 0 0 250 0 0 0 0
348.8732 83.261124 -31.52191 0 0 250 0 0 0 0
349.46341 82.321487 -31.566429 0 0 250 0 0 0 0
350.0267 81.361198 -31.618099 0 0 250 0 0 0 0
350.52069 80.382294 -31.664591 0 0 250 0 0 0 0
351.0025 79.397789 -31.713421 0 0 250 0 0 0 0
351.45041 78.407417 -31.76115 0 0 250 0 0 0 0
351.83069 77.405228 -31.806431 0 0 250 0 0 0 0
352.20401 76.402832 -31.85273 0 0 250 0 0 0 0
352.52921 75.387466 -31.90374 0 0 250 0 0 0 0
352.836 74.359642 -31.957649 0 0 250 0 0 0 0
353.10779 73.306488 -32.012218 0 0 250 0 0 0 0
353.35379 72.243896 -32.06292 0 0 250 0 0 0 0
353.58389 71.164726 -32.108879 0 0 250 0 0 0 0
353.81119 70.096649 -32.138851 0 0 250 0 0 0 0
354.03809 69.029503 -32.166779 0 0 250 0 0 0 0
354.2547 67.960411 -32.199951 0 0 250 0 0 0 0
354.46469 66.889053 -32.24229 0 0 250 0 0 0 0
354.673 65.810791 -32.297798 0 0 250 0 0 0 0
354.87051 64.738182 -32.352612 0 0 250 0 0 0 0
355.04739 63.664612 -32.407589 0 0 250 0 0 0 0
355.2099 62.588299 -32.465462 0 0 250 0 0 0 0
355.3577 61.516441 -32.528301 0 0 250 0 0 0 0
355.50049 60.4491 -32.587158 0 0 250 0 0 0 0
355.63229 59.387798 -32.647469 0 0 250 0 0 0 0
355.758 58.335239 -32.70491 0 0 250 0 0 0 0
355.86691 57.296082 -32.760509 0 0 250 0 0 0 0
355.98111 56.259029 -32.83128 0 0 250 0 0 0 0
356.09119 55.22781 -32.90197 0 0 250 0 0 0 0
0 0 0 1 0 0 0 1 0 0 0 1 0 0 0 0 0 483 1 0 0
