ply
format ascii 1.0
comment PCL generated
element vertex 474
property float x
property float y
property float z
property uchar red
property uchar green
property uchar blue
property float nx
property float ny
property float nz
property float curvature
element camera 1
property float view_px
property float view_py
property float view_pz
property float x_axisx
property float x_axisy
property float x_axisz
property float y_axisx
property float y_axisy
property float y_axisz
property float z_axisx
property float z_axisy
property float z_axisz
property float focal
property float scalex
property float scaley
property float centerx
property float centery
property int viewportx
property int viewporty
property float k1
property float k2
end_header
7.8028121 -1.6223965 0.20336841 0 0 250 0 0 0 0
8.7181301 -2.0187647 0.23484886 0 0 250 0 0 0 0
9.6241951 -2.4766369 0.26575875 0 0 250 0 0 0 0
10.486671 -2.9566991 0.29319715 0 0 250 0 0 0 0
11.300573 -3.4825733 0.3256433 0 0 250 0 0 0 0
12.120415 -4.0450902 0.35710308 0 0 250 0 0 0 0
12.886203 -4.6382389 0.38857841 0 0 250 0 0 0 0
13.627789 -5.271647 0.41910359 0 0 250 0 0 0 0
14.351274 -5.93925 0.45995361 0 0 250 0 0 0 0
15.033501 -6.6282673 0.48515108 0 0 250 0 0 0 0
15.677724 -7.3539648 0.51213354 0 0 250 0 0 0 0
16.294495 -8.1070166 0.53958112 0 0 250 0 0 0 0
16.883442 -8.9016542 0.56884706 0 0 250 0 0 0 0
17.425636 -9.7043734 0.59252703 0 0 250 0 0 0 0
17.933886 -10.52996 0.60907102 0 0 250 0 0 0 0
18.396036 -11.371683 0.64148927 0 0 250 0 0 0 0
18.819555 -12.249277 0.66613001 0 0 250 0 0 0 0
19.217089 -13.130292 0.69306809 0 0 250 0 0 0 0
19.594488 -14.035986 0.71339685 0 0 250 0 0 0 0
19.933134 -14.979453 0.7345534 0 0 250 0 0 0 0
20.24188 -15.924747 0.75668347 0 0 250 0 0 0 0
20.532801 -16.915779 0.76950407 0 0 250 0 0 0 0
20.787327 -17.897957 0.78115278 0 0 250 0 0 0 0
21.012194 -18.904764 0.79614502 0 0 250 0 0 0 0
21.20565 -19.936573 0.81164289 0 0 250 0 0 0 0
21.375303 -20.991346 0.8240751 0 0 250 0 0 0 0
21.518303 -22.050404 0.8294543 0 0 250 0 0 0 0
21.627455 -23.121542 0.83933282 0 0 250 0 0 0 0
21.708406 -24.207735 0.84524834 0 0 250 0 0 0 0
21.765907 -25.309238 0.84523076 0 0 250 0 0 0 0
21.811769 -26.431168 0.8443771 0 0 250 0 0 0 0
21.829315 -27.55196 0.83691418 0 0 250 0 0 0 0
21.838301 -28.716017 0.83185917 0 0 250 0 0 0 0
21.830181 -29.876814 0.82812387 0 0 250 0 0 0 0
21.808813 -31.003939 0.82626373 0 0 250 0 0 0 0
21.771648 -32.189247 0.82354397 0 0 250 0 0 0 0
21.728043 -33.36544 0.81645918 0 0 250 0 0 0 0
21.667473 -34.568779 0.80616158 0 0 250 0 0 0 0
21.594584 -35.786911 0.79982424 0 0 250 0 0 0 0
21.519445 -37.016663 0.79652464 0 0 250 0 0 0 0
21.433943 -38.277763 0.79273099 0 0 250 0 0 0 0
21.332569 -39.560589 0.78750777 0 0 250 0 0 0 0
21.233543 -40.862122 0.78967601 0 0 250 0 0 0 0
21.128057 -42.173222 0.78151989 0 0 250 0 0 0 0
21.00956 -43.527805 0.78504783 0 0 250 0 0 0 0
20.874371 -44.920219 0.79445094 0 0 250 0 0 0 0
20.730064 -46.310352 0.78426939 0 0 250 0 0 0 0
20.577084 -47.73111 0.77691734 0 0 250 0 0 0 0
20.4384 -49.167553 0.76949257 0 0 250 0 0 0 0
20.289169 -50.626755 0.76154774 0 0 250 0 0 0 0
20.145302 -52.097038 0.75640738 0 0 250 0 0 0 0
20.017902 -53.597031 0.74087125 0 0 250 0 0 0 0
19.879742 -55.106518 0.73829591 0 0 250 0 0 0 0
19.724785 -56.634628 0.74125552 0 0 250 0 0 0 0
19.586897 -58.213322 0.74533695 0 0 250 0 0 0 0
19.445055 -59.789112 0.73300201 0 0 250 0 0 0 0
19.310389 -61.370243 0.72555751 0 0 250 0 0 0 0
19.151905 -62.99802 0.72575289 0 0 250 0 0 0 0
18.993338 -64.627487 0.71994716 0 0 250 0 0 0 0
18.837858 -66.287064 0.70880705 0 0 250 0 0 0 0
18.690823 -67.978828 0.70034033 0 0 250 0 0 0 0
18.536169 -69.648697 0.69276237 0 0 250 0 0 0 0
18.396429 -71.339561 0.69232237 0 0 250 0 0 0 0
18.238726 -73.066452 0.69550216 0 0 250 0 0 0 0
18.099571 -74.79776 0.69392568 0 0 250 0 0 0 0
17.938515 -76.527031 0.684883 0 0 250 0 0 0 0
17.785488 -78.304375 0.67714256 0 0 250 0 0 0 0
17.641386 -80.063538 0.67588663 0 0 250 0 0 0 0
17.489849 -81.849319 0.6795845 0 0 250 0 0 0 0
17.325563 -83.645401 0.68397886 0 0 250 0 0 0 0
17.176287 -85.44883 0.68631583 0 0 250 0 0 0 0
17.016256 -87.272346 0.68687016 0 0 250 0 0 0 0
16.806667 -89.13459 0.68456274 0 0 250 0 0 0 0
16.631311 -91.02951 0.67315859 0 0 250 0 0 0 0
16.465853 -92.909081 0.67307782 0 0 250 0 0 0 0
16.276892 -94.801666 0.66685188 0 0 250 0 0 0 0
16.075649 -96.730522 0.65888208 0 0 250 0 0 0 0
15.891592 -98.644432 0.66749805 0 0 250 0 0 0 0
15.69743 -100.58614 0.67252862 0 0 250 0 0 0 0
15.465176 -102.5349 0.67769563 0 0 250 0 0 0 0
15.233012 -104.48021 0.67618436 0 0 250 0 0 0 0
15.006035 -106.46748 0.68894422 0 0 250 0 0 0 0
14.760541 -108.42997 0.68876052 0 0 250 0 0 0 0
14.499376 -110.40877 0.70503581 0 0 250 0 0 0 0
14.228436 -112.38181 0.70951754 0 0 250 0 0 0 0
13.947925 -114.36533 0.71405423 0 0 250 0 0 0 0
13.664148 -116.36404 0.71482241 0 0 250 0 0 0 0
13.356613 -118.35248 0.71763849 0 0 250 0 0 0 0
13.047245 -120.34801 0.729173 0 0 250 0 0 0 0
12.718841 -122.36529 0.73185998 0 0 250 0 0 0 0
12.372839 -124.39655 0.72820711 0 0 250 0 0 0 0
12.011375 -126.41 0.7387684 0 0 250 0 0 0 0
11.640216 -128.44188 0.74436355 0 0 250 0 0 0 0
11.251335 -130.48953 0.75010002 0 0 250 0 0 0 0
10.853641 -132.56342 0.75335985 0 0 250 0 0 0 0
10.4463 -134.59543 0.75569981 0 0 250 0 0 0 0
10.033268 -136.6487 0.75565964 0 0 250 0 0 0 0
9.6130257 -138.74399 0.75899708 0 0 250 0 0 0 0
9.1830444 -140.86349 0.75961435 0 0 250 0 0 0 0
8.7438126 -142.95558 0.75702852 0 0 250 0 0 0 0
8.2898102 -145.07513 0.76366132 0 0 250 0 0 0 0
7.847259 -147.1606 0.76048946 0 0 250 0 0 0 0
7.3656292 -149.28923 0.76258951 0 0 250 0 0 0 0
6.9021473 -151.42831 0.76483804 0 0 250 0 0 0 0
6.4177475 -153.53607 0.7663033 0 0 250 0 0 0 0
5.921535 -155.67833 0.77177334 0 0 250 0 0 0 0
5.3980494 -157.81909 0.77405983 0 0 250 0 0 0 0
4.876894 -159.95692 0.77911907 0 0 250 0 0 0 0
4.324913 -162.10693 0.78429836 0 0 250 0 0 0 0
3.7687857 -164.26675 0.785658 0 0 250 0 0 0 0
3.2037649 -166.41846 0.79227012 0 0 250 0 0 0 0
2.6306288 -168.60001 0.80567062 0 0 250 0 0 0 0
2.0582886 -170.74571 0.8106668 0 0 250 0 0 0 0
1.4782658 -172.87743 0.82398784 0 0 250 0 0 0 0
0.87924588 -175.05322 0.83079255 0 0 250 0 0 0 0
0.24934337 -177.20648 0.83233941 0 0 250 0 0 0 0
-0.37134132 -179.39069 0.8278718 0 0 250 0 0 0 0
-0.99283648 -181.56371 0.83243746 0 0 250 0 0 0 0
-1.6675507 -183.80608 0.82923919 0 0 250 0 0 0 0
-2.3156545 -186.01054 0.84452337 0 0 250 0 0 0 0
-2.9793713 -188.25812 0.86513597 0 0 250 0 0 0 0
-3.6420109 -190.4698 0.8837837 0 0 250 0 0 0 0
-4.3211007 -192.69437 0.89168781 0 0 250 0 0 0 0
-4.9846878 -194.92888 0.9092263 0 0 250 0 0 0 0
-5.6982784 -197.1393 0.92805904 0 0 250 0 0 0 0
-6.407166 -199.36235 0.94323206 0 0 250 0 0 0 0
-7.131186 -201.59515 0.95884353 0 0 250 0 0 0 0
-7.8560243 -203.84068 0.97584409 0 0 250 0 0 0 0
-8.5933409 -206.09618 0.99610621 0 0 250 0 0 0 0
-9.3543024 -208.35114 1.0189298 0 0 250 0 0 0 0
-10.131799 -210.61301 1.0247983 0 0 250 0 0 0 0
-10.919871 -212.89619 1.0454654 0 0 250 0 0 0 0
-11.711308 -215.13652 1.0518892 0 0 250 0 0 0 0
-12.496643 -217.37744 1.0668237 0 0 250 0 0 0 0
-13.283523 -219.64854 1.0810817 0 0 250 0 0 0 0
-14.081169 -221.88673 1.0963399 0 0 250 0 0 0 0
-14.880634 -224.13298 1.1174742 0 0 250 0 0 0 0
-15.675614 -226.36465 1.1365373 0 0 250 0 0 0 0
-16.504316 -228.59206 1.163411 0 0 250 0 0 0 0
-17.330086 -230.80879 1.189104 0 0 250 0 0 0 0
-18.178505 -233.07053 1.2043505 0 0 250 0 0 0 0
-19.021929 -235.30322 1.2292726 0 0 250 0 0 0 0
-19.874376 -237.56537 1.2461141 0 0 250 0 0 0 0
-20.728699 -239.8063 1.2655809 0 0 250 0 0 0 0
-21.590401 -242.04851 1.2779058 0 0 250 0 0 0 0
-22.464764 -244.29366 1.2927881 0 0 250 0 0 0 0
-23.351917 -246.53175 1.3051803 0 0 250 0 0 0 0
-24.240923 -248.76784 1.3243952 0 0 250 0 0 0 0
-25.119511 -251.00201 1.3394948 0 0 250 0 0 0 0
-26.052208 -253.26738 1.3666738 0 0 250 0 0 0 0
-26.993544 -255.50636 1.3807619 0 0 250 0 0 0 0
-27.935125 -257.75507 1.3955307 0 0 250 0 0 0 0
-28.887165 -260.00015 1.4134883 0 0 250 0 0 0 0
-29.815643 -262.16656 1.4378607 0 0 250 0 0 0 0
-30.776957 -264.38516 1.4542693 0 0 250 0 0 0 0
-31.731937 -266.57907 1.460938 0 0 250 0 0 0 0
-32.707119 -268.80374 1.4701467 0 0 250 0 0 0 0
-33.68251 -270.98932 1.4854416 0 0 250 0 0 0 0
-34.658737 -273.17459 1.4944531 0 0 250 0 0 0 0
-35.625957 -275.36636 1.5086141 0 0 250 0 0 0 0
-36.645664 -277.60712 1.5203942 0 0 250 0 0 0 0
-37.662399 -279.80429 1.5432965 0 0 250 0 0 0 0
-38.700974 -282.03687 1.5484247 0 0 250 0 0 0 0
-39.718281 -284.2561 1.5617274 0 0 250 0 0 0 0
-40.759403 -286.50275 1.5824462 0 0 250 0 0 0 0
-41.829998 -288.75208 1.6029365 0 0 250 0 0 0 0
-42.916176 -291.03052 1.6226569 0 0 250 0 0 0 0
-44.020458 -293.3136 1.6384499 0 0 250 0 0 0 0
-45.146503 -295.6185 1.648952 0 0 250 0 0 0 0
-46.257355 -297.91394 1.6582941 0 0 250 0 0 0 0
-47.356461 -300.18451 1.6784639 0 0 250 0 0 0 0
-48.480347 -302.46118 1.68494 0 0 250 0 0 0 0
-49.591381 -304.75494 1.6908364 0 0 250 0 0 0 0
-50.724361 -307.02924 1.7102787 0 0 250 0 0 0 0
-51.862637 -309.30447 1.713654 0 0 250 0 0 0 0
-53.028805 -311.60773 1.7340629 0 0 250 0 0 0 0
-54.215935 -313.9007 1.7487967 0 0 250 0 0 0 0
-55.41827 -316.22745 1.7611489 0 0 250 0 0 0 0
-56.624855 -318.5246 1.7501556 0 0 250 0 0 0 0
-57.877525 -320.86725 1.7646097 0 0 250 0 0 0 0
-59.151836 -323.2106 1.768485 0 0 250 0 0 0 0
-60.44952 -325.56961 1.7563182 0 0 250 0 0 0 0
-61.736347 -327.92981 1.7743309 0 0 250 0 0 0 0
-63.03112 -330.27826 1.7761493 0 0 250 0 0 0 0
-64.382492 -332.6181 1.7724344 0 0 250 0 0 0 0
-65.711586 -334.95911 1.7756742 0 0 250 0 0 0 0
-67.028336 -337.2916 1.7695992 0 0 250 0 0 0 0
-68.405228 -339.66177 1.7579021 0 0 250 0 0 0 0
-69.732887 -341.96359 1.736962 0 0 250 0 0 0 0
-71.052345 -344.23502 1.7234666 0 0 250 0 0 0 0
-72.433678 -346.53848 1.7111346 0 0 250 0 0 0 0
-73.861588 -348.88986 1.6877414 0 0 250 0 0 0 0
-75.311546 -351.2579 1.6802959 0 0 250 0 0 0 0
-76.726158 -353.5976 1.6660925 0 0 250 0 0 0 0
-78.153976 -355.90726 1.6562281 0 0 250 0 0 0 0
-79.6082 -358.2182 1.6333669 0 0 250 0 0 0 0
-81.042137 -360.47894 1.6156967 0 0 250 0 0 0 0
-82.521164 -362.78387 1.5932651 0 0 250 0 0 0 0
-83.982857 -365.0611 1.575353 0 0 250 0 0 0 0
-85.454681 -367.32437 1.5542414 0 0 250 0 0 0 0
-86.934303 -369.60818 1.5335255 0 0 250 0 0 0 0
-88.422798 -371.8801 1.4980835 0 0 250 0 0 0 0
-89.932549 -374.14145 1.4756364 0 0 250 0 0 0 0
-91.443283 -376.42267 1.4423403 0 0 250 0 0 0 0
-92.954163 -378.67795 1.4165833 0 0 250 0 0 0 0
-94.477333 -380.93839 1.3874645 0 0 250 0 0 0 0
-95.98111 -383.17517 1.3659577 0 0 250 0 0 0 0
-97.503632 -385.43472 1.3524675 0 0 250 0 0 0 0
-99.064903 -387.67053 1.3648423 0 0 250 0 0 0 0
-100.63721 -389.90982 1.3672314 0 0 250 0 0 0 0
-102.21745 -392.14932 1.3474103 0 0 250 0 0 0 0
-103.75471 -394.35831 1.298095 0 0 250 0 0 0 0
-105.30471 -396.55072 1.2433937 0 0 250 0 0 0 0
-106.86761 -398.75824 1.1868485 0 0 250 0 0 0 0
-108.48857 -400.99295 1.1345843 0 0 250 0 0 0 0
-110.09331 -403.19064 1.0879469 0 0 250 0 0 0 0
-111.68507 -405.36523 1.0488222 0 0 250 0 0 0 0
-113.28416 -407.5304 1.0102299 0 0 250 0 0 0 0
-114.89814 -409.67706 0.95445347 0 0 250 0 0 0 0
-116.50473 -411.8244 0.9119128 0 0 250 0 0 0 0
-118.12741 -413.97186 0.86953443 0 0 250 0 0 0 0
-119.78199 -416.11536 0.81750661 0 0 250 0 0 0 0
-121.41382 -418.233 0.77540785 0 0 250 0 0 0 0
-123.05402 -420.35126 0.72287518 0 0 250 0 0 0 0
-124.6827 -422.4639 0.66587484 0 0 250 0 0 0 0
-126.30187 -424.5589 0.61411291 0 0 250 0 0 0 0
-127.93003 -426.62064 0.54720926 0 0 250 0 0 0 0
-129.56534 -428.72403 0.49167472 0 0 250 0 0 0 0
-131.19402 -430.8186 0.44183588 0 0 250 0 0 0 0
-132.89064 -432.94028 0.38743094 0 0 250 0 0 0 0
-134.51794 -435.02997 0.33268046 0 0 250 0 0 0 0
-136.16309 -437.14029 0.29417276 0 0 250 0 0 0 0
-137.82626 -439.23315 0.24579583 0 0 250 0 0 0 0
-139.47182 -441.31815 0.1943876 0 0 250 0 0 0 0
-141.1349 -443.41766 0.14194989 0 0 250 0 0 0 0
-142.78952 -445.47635 0.069081672 0 0 250 0 0 0 0
-144.43695 -447.56183 -0.020160999 0 0 250 0 0 0 0
-146.0845 -449.64932 -0.11155006 0 0 250 0 0 0 0
-147.73187 -451.74844 -0.18920889 0 0 250 0 0 0 0
-149.39784 -453.83887 -0.25675303 0 0 250 0 0 0 0
-151.04776 -455.94699 -0.31768897 0 0 250 0 0 0 0
-152.66908 -458.05267 -0.37535563 0 0 250 0 0 0 0
-154.33345 -460.17859 -0.44114989 0 0 250 0 0 0 0
-155.94234 -462.26743 -0.50325596 0 0 250 0 0 0 0
-157.52861 -464.3779 -0.55449188 0 0 250 0 0 0 0
-159.13704 -466.49332 -0.61574841 0 0 250 0 0 0 0
-160.74988 -468.60745 -0.68080318 0 0 250 0 0 0 0
-162.37625 -470.70908 -0.73470366 0 0 250 0 0 0 0
-164.0085 -472.81232 -0.79259151 0 0 250 0 0 0 0
-165.66574 -474.9317 -0.85237998 0 0 250 0 0 0 0
-167.30339 -477.04623 -0.94437379 0 0 250 0 0 0 0
-168.86118 -479.12433 -0.99610931 0 0 250 0 0 0 0
-170.47043 -481.21503 -1.0499191 0 0 250 0 0 0 0
-172.1102 -483.3588 -1.1178576 0 0 250 0 0 0 0
-173.76152 -485.45935 -1.1788267 0 0 250 0 0 0 0
-175.37404 -487.54205 -1.2406219 0 0 250 0 0 0 0
-176.97049 -489.64691 -1.2979517 0 0 250 0 0 0 0
-178.58566 -491.75665 -1.3719293 0 0 250 0 0 0 0
-180.17545 -493.86453 -1.4361135 0 0 250 0 0 0 0
-181.81265 -495.97733 -1.5076851 0 0 250 0 0 0 0
-183.40852 -498.06583 -1.5706586 0 0 250 0 0 0 0
-184.98302 -500.17349 -1.6329345 0 0 250 0 0 0 0
-186.5959 -502.2572 -1.7016608 0 0 250 0 0 0 0
-188.15594 -504.34933 -1.757671 0 0 250 0 0 0 0
-189.71568 -506.48462 -1.8194513 0 0 250 0 0 0 0
-191.345 -508.61472 -1.8861508 0 0 250 0 0 0 0
-192.9771 -510.73553 -1.9574333 0 0 250 0 0 0 0
-194.61052 -512.85406 -2.0262415 0 0 250 0 0 0 0
-196.2188 -514.90277 -2.1006696 0 0 250 0 0 0 0
-197.81511 -516.96118 -2.1754844 0 0 250 0 0 0 0
-199.4295 -519.01752 -2.2486594 0 0 250 0 0 0 0
-201.07892 -521.11237 -2.3304157 0 0 250 0 0 0 0
-202.70601 -523.1825 -2.4030135 0 0 250 0 0 0 0
-204.29582 -525.1889 -2.4702156 0 0 250 0 0 0 0
-205.90443 -527.15973 -2.5350692 0 0 250 0 0 0 0
-207.5619 -529.25427 -2.6075993 0 0 250 0 0 0 0
-209.20676 -531.33344 -2.6856377 0 0 250 0 0 0 0
-210.83353 -533.37994 -2.7575188 0 0 250 0 0 0 0
-212.46085 -535.39648 -2.8313026 0 0 250 0 0 0 0
-214.04245 -537.44592 -2.9051363 0 0 250 0 0 0 0
-215.63319 -539.44781 -2.9824097 0 0 250 0 0 0 0
-217.23373 -541.45959 -3.0649157 0 0 250 0 0 0 0
-218.89253 -543.49841 -3.1472588 0 0 250 0 0 0 0
-220.57881 -545.58923 -3.2374089 0 0 250 0 0 0 0
-222.27243 -547.65741 -3.3265438 0 0 250 0 0 0 0
-223.90787 -549.73193 -3.4140432 0 0 250 0 0 0 0
-225.51024 -551.76624 -3.4947119 0 0 250 0 0 0 0
-227.17148 -553.81366 -3.5751293 0 0 250 0 0 0 0
-228.8033 -555.85492 -3.6679301 0 0 250 0 0 0 0
-230.46558 -557.91687 -3.7612009 0 0 250 0 0 0 0
-232.12016 -559.96643 -3.8512993 0 0 250 0 0 0 0
-233.78633 -562.02545 -3.9285884 0 0 250 0 0 0 0
-235.40489 -564.06628 -4.0180249 0 0 250 0 0 0 0
-237.04462 -566.07251 -4.1069865 0 0 250 0 0 0 0
-238.67316 -568.09076 -4.2002602 0 0 250 0 0 0 0
-240.3136 -570.11871 -4.2888908 0 0 250 0 0 0 0
-241.95253 -572.17609 -4.376101 0 0 250 0 0 0 0
-243.65045 -574.24683 -4.4627585 0 0 250 0 0 0 0
-245.31331 -576.30255 -4.5634322 0 0 250 0 0 0 0
-246.98486 -578.34772 -4.6638536 0 0 250 0 0 0 0
-248.62498 -580.40283 -4.7402129 0 0 250 0 0 0 0
-250.27374 -582.40656 -4.8378763 0 0 250 0 0 0 0
-251.93533 -584.45679 -4.9383254 0 0 250 0 0 0 0
-253.56808 -586.46991 -5.0340433 0 0 250 0 0 0 0
-255.22217 -588.4975 -5.1277485 0 0 250 0 0 0 0
-256.91776 -590.53583 -5.233108 0 0 250 0 0 0 0
-258.63406 -592.58325 -5.3395815 0 0 250 0 0 0 0
-260.31058 -594.63898 -5.4373345 0 0 250 0 0 0 0
-262.0033 -596.63843 -5.5344124 0 0 250 0 0 0 0
-263.68488 -598.65552 -5.628921 0 0 250 0 0 0 0
-265.32785 -600.66467 -5.7305489 0 0 250 0 0 0 0
-267.04547 -602.67322 -5.8290167 0 0 250 0 0 0 0
-268.73947 -604.68207 -5.9284348 0 0 250 0 0 0 0
-270.3941 -606.66278 -6.0194888 0 0 250 0 0 0 0
-272.04208 -608.62762 -6.1159205 0 0 250 0 0 0 0
-273.7153 -610.63354 -6.2225194 0 0 250 0 0 0 0
-275.414 -612.62146 -6.3264985 0 0 250 0 0 0 0
-277.10214 -614.61804 -6.4278665 0 0 250 0 0 0 0
-278.84244 -616.63403 -6.5340676 0 0 250 0 0 0 0
-280.59073 -618.63898 -6.64992 0 0 250 0 0 0 0
-282.29163 -620.64142 -6.7597671 0 0 250 0 0 0 0
-284.00534 -622.62128 -6.8722715 0 0 250 0 0 0 0
-285.7023 -624.60339 -6.9712214 0 0 250 0 0 0 0
-287.40723 -626.58087 -7.0757842 0 0 250 0 0 0 0
-289.15262 -628.59625 -7.1702995 0 0 250 0 0 0 0
-290.85776 -630.60352 -7.2647519 0 0 250 0 0 0 0
-292.5748 -632.61652 -7.3812976 0 0 250 0 0 0 0
-294.26172 -634.62598 -7.4765296 0 0 250 0 0 0 0
-295.97656 -636.63049 -7.5868163 0 0 250 0 0 0 0
-297.7135 -638.61182 -7.6864367 0 0 250 0 0 0 0
-299.41125 -640.60327 -7.785686 0 0 250 0 0 0 0
-301.11124 -642.59137 -7.8845072 0 0 250 0 0 0 0
-302.84579 -644.61639 -7.9891143 0 0 250 0 0 0 0
-304.58252 -646.64368 -8.0887861 0 0 250 0 0 0 0
-306.33533 -648.66205 -8.1964417 0 0 250 0 0 0 0
-308.06619 -650.67902 -8.2985573 0 0 250 0 0 0 0
-309.76956 -652.67377 -8.4053974 0 0 250 0 0 0 0
-311.47864 -654.65894 -8.4985695 0 0 250 0 0 0 0
-313.17639 -656.64716 -8.6021233 0 0 250 0 0 0 0
-314.87762 -658.65302 -8.709878 0 0 250 0 0 0 0
-316.5498 -660.62775 -8.8045101 0 0 250 0 0 0 0
-318.24783 -662.61224 -8.9083796 0 0 250 0 0 0 0
-319.97369 -664.63391 -9.0155058 0 0 250 0 0 0 0
-321.67401 -666.61804 -9.115941 0 0 250 0 0 0 0
-323.36887 -668.62213 -9.2151928 0 0 250 0 0 0 0
-325.08047 -670.63397 -9.3199749 0 0 250 0 0 0 0
-326.76962 -672.62915 -9.4329605 0 0 250 0 0 0 0
-328.47629 -674.63385 -9.5302801 0 0 250 0 0 0 0
-330.16626 -676.62604 -9.6252174 0 0 250 0 0 0 0
-331.87296 -678.61749 -9.7234516 0 0 250 0 0 0 0
-333.54205 -680.60406 -9.8226109 0 0 250 0 0 0 0
-335.26141 -682.61786 -9.9169989 0 0 250 0 0 0 0
-336.96552 -684.64551 -10.01687 0 0 250 0 0 0 0
-338.64963 -686.6424 -10.118747 0 0 250 0 0 0 0
-340.36768 -688.64697 -10.219584 0 0 250 0 0 0 0
-342.05447 -690.65582 -10.314606 0 0 250 0 0 0 0
-343.75882 -692.67847 -10.426644 0 0 250 0 0 0 0
-345.44125 -694.67126 -10.525988 0 0 250 0 0 0 0
-347.14734 -696.65857 -10.632032 0 0 250 0 0 0 0
-348.8421 -698.63928 -10.732605 0 0 250 0 0 0 0
-350.54532 -700.62543 -10.827703 0 0 250 0 0 0 0
-352.23972 -702.62769 -10.928722 0 0 250 0 0 0 0
-353.91049 -704.62555 -11.019403 0 0 250 0 0 0 0
-355.64008 -706.64166 -11.116639 0 0 250 0 0 0 0
-357.37701 -708.65771 -11.215183 0 0 250 0 0 0 0
-359.0946 -710.67694 -11.31177 0 0 250 0 0 0 0
-360.82205 -712.70093 -11.41562 0 0 250 0 0 0 0
-362.53995 -714.72797 -11.512071 0 0 250 0 0 0 0
-364.24017 -716.73053 -11.609221 0 0 250 0 0 0 0
-365.94736 -718.76355 -11.711987 0 0 250 0 0 0 0
-367.61646 -720.75867 -11.810267 0 0 250 0 0 0 0
-369.33401 -722.79352 -11.916252 0 0 250 0 0 0 0
-371.07181 -724.85315 -12.011129 0 0 250 0 0 0 0
-372.82117 -726.92676 -12.107306 0 0 250 0 0 0 0
-374.52167 -728.94501 -12.206742 0 0 250 0 0 0 0
-376.21762 -730.96588 -12.29446 0 0 250 0 0 0 0
-377.90634 -732.97662 -12.383775 0 0 250 0 0 0 0
-379.58218 -734.98969 -12.470747 0 0 250 0 0 0 0
-381.28836 -737.01483 -12.56528 0 0 250 0 0 0 0
-383.00375 -739.06287 -12.657047 0 0 250 0 0 0 0
-384.71136 -741.11774 -12.756987 0 0 250 0 0 0 0
-386.42056 -743.18268 -12.826825 0 0 250 0 0 0 0
-388.10315 -745.2204 -12.917761 0 0 250 0 0 0 0
-389.79916 -747.22961 -13.006181 0 0 250 0 0 0 0
-391.46628 -749.25946 -13.096248 0 0 250 0 0 0 0
-393.18597 -751.27185 -13.1865 0 0 250 0 0 0 0
-394.89264 -753.31525 -13.274689 0 0 250 0 0 0 0
-396.59305 -755.37189 -13.370099 0 0 250 0 0 0 0
-398.30142 -757.42731 -13.465233 0 0 250 0 0 0 0
-399.98126 -759.49603 -13.561812 0 0 250 0 0 0 0
-401.6644 -761.55579 -13.655215 0 0 250 0 0 0 0
-403.31104 -763.57281 -13.736997 0 0 250 0 0 0 0
-405.00211 -765.60992 -13.825054 0 0 250 0 0 0 0
-406.63855 -767.63489 -13.901645 0 0 250 0 0 0 0
-408.3392 -769.7019 -13.980556 0 0 250 0 0 0 0
-409.99738 -771.7392 -14.064591 0 0 250 0 0 0 0
-411.65613 -773.75928 -14.14707 0 0 250 0 0 0 0
-413.27795 -775.76904 -14.234403 0 0 250 0 0 0 0
-414.95291 -777.8512 -14.316627 0 0 250 0 0 0 0
-416.61371 -779.92474 -14.39634 0 0 250 0 0 0 0
-418.2515 -781.97986 -14.477285 0 0 250 0 0 0 0
-419.90781 -784.06036 -14.558103 0 0 250 0 0 0 0
-421.56732 -786.13617 -14.634295 0 0 250 0 0 0 0
-423.21793 -788.20331 -14.718012 0 0 250 0 0 0 0
-424.84073 -790.25201 -14.799677 0 0 250 0 0 0 0
-426.50955 -792.3349 -14.880522 0 0 250 0 0 0 0
-428.18073 -794.4046 -14.958748 0 0 250 0 0 0 0
-429.9371 -796.54401 -15.052583 0 0 250 0 0 0 0
-431.62494 -798.60632 -15.137615 0 0 250 0 0 0 0
-433.31485 -800.67883 -15.220008 0 0 250 0 0 0 0
-434.96545 -802.7196 -15.314857 0 0 250 0 0 0 0
-436.60236 -804.77234 -15.371067 0 0 250 0 0 0 0
-438.30359 -806.83856 -15.469581 0 0 250 0 0 0 0
-439.99203 -808.89807 -15.548072 0 0 250 0 0 0 0
-441.63849 -810.96405 -15.618176 0 0 250 0 0 0 0
-443.31702 -813.02936 -15.690773 0 0 250 0 0 0 0
-444.96304 -815.07318 -15.761438 0 0 250 0 0 0 0
-446.60001 -817.11066 -15.827438 0 0 250 0 0 0 0
-448.2836 -819.20099 -15.899001 0 0 250 0 0 0 0
-449.92206 -821.22827 -15.967856 0 0 250 0 0 0 0
-451.55539 -823.30426 -16.038319 0 0 250 0 0 0 0
-453.21838 -825.37109 -16.115742 0 0 250 0 0 0 0
-454.85495 -827.40686 -16.1889 0 0 250 0 0 0 0
-456.50848 -829.46857 -16.265236 0 0 250 0 0 0 0
-458.11664 -831.51538 -16.341526 0 0 250 0 0 0 0
-459.72073 -833.5658 -16.417025 0 0 250 0 0 0 0
-461.37247 -835.64227 -16.495916 0 0 250 0 0 0 0
-463.00339 -837.71991 -16.581589 0 0 250 0 0 0 0
-464.58832 -839.7063 -16.657785 0 0 250 0 0 0 0
-466.22565 -841.80829 -16.746161 0 0 250 0 0 0 0
-467.87918 -843.92035 -16.830919 0 0 250 0 0 0 0
-469.50168 -846.00208 -16.918953 0 0 250 0 0 0 0
-471.13535 -848.09265 -17.003937 0 0 250 0 0 0 0
-472.78296 -850.18042 -17.093369 0 0 250 0 0 0 0
-474.44385 -852.28558 -17.190603 0 0 250 0 0 0 0
-476.08722 -854.38422 -17.282124 0 0 250 0 0 0 0
-477.72495 -856.4455 -17.37804 0 0 250 0 0 0 0
-479.34344 -858.52222 -17.456923 0 0 250 0 0 0 0
-480.94479 -860.59412 -17.553661 0 0 250 0 0 0 0
-482.57755 -862.68689 -17.644592 0 0 250 0 0 0 0
-484.20752 -864.77466 -17.727089 0 0 250 0 0 0 0
-485.82977 -866.84766 -17.807968 0 0 250 0 0 0 0
-487.44788 -868.92603 -17.893589 0 0 250 0 0 0 0
-489.05466 -870.99091 -17.975235 0 0 250 0 0 0 0
-490.66422 -873.06482 -18.067123 0 0 250 0 0 0 0
-492.30334 -875.16144 -18.169664 0 0 250 0 0 0 0
-493.87112 -877.20154 -18.258608 0 0 250 0 0 0 0
-495.46838 -879.28735 -18.340784 0 0 250 0 0 0 0
-497.08527 -881.36005 -18.437346 0 0 250 0 0 0 0
-498.69391 -883.45374 -18.526711 0 0 250 0 0 0 0
-500.34338 -885.55054 -18.622053 0 0 250 0 0 0 0
-501.90512 -887.62866 -18.710115 0 0 250 0 0 0 0
-503.55453 -889.7373 -18.831367 0 0 250 0 0 0 0
-505.16406 -891.84436 -18.930597 0 0 250 0 0 0 0
-506.81189 -894.04041 -19.032511 0 0 250 0 0 0 0
-508.40091 -896.13342 -19.144505 0 0 250 0 0 0 0
-509.98141 -898.22388 -19.248419 0 0 250 0 0 0 0
-511.54688 -900.28503 -19.340403 0 0 250 0 0 0 0
-513.08813 -902.34601 -19.43218 0 0 250 0 0 0 0
-514.64502 -904.42108 -19.528267 0 0 250 0 0 0 0
-516.21375 -906.52875 -19.631809 0 0 250 0 0 0 0
-517.79382 -908.64905 -19.738607 0 0 250 0 0 0 0
-519.39874 -910.8017 -19.8501 0 0 250 0 0 0 0
-521.05566 -912.98157 -19.969465 0 0 250 0 0 0 0
-522.60364 -915.07568 -20.076473 0 0 250 0 0 0 0
-524.1825 -917.19519 -20.185524 0 0 250 0 0 0 0
-525.70288 -919.25604 -20.282654 0 0 250 0 0 0 0
-527.24316 -921.33289 -20.381075 0 0 250 0 0 0 0
-528.82812 -923.47119 -20.488852 0 0 250 0 0 0 0
-530.46326 -925.61395 -20.610064 0 0 250 0 0 0 0
-532.04041 -927.7171 -20.712887 0 0 250 0 0 0 0
-533.58551 -929.79913 -20.80509 0 0 250 0 0 0 0
-535.14081 -931.90076 -20.892666 0 0 250 0 0 0 0
-536.75092 -934.0332 -21.014217 0 0 250 0 0 0 0
0 0 0 1 0 0 0 1 0 0 0 1 0 0 0 0 0 474 1 0 0
