ply
format ascii 1.0
comment PCL generated
element vertex 483
property float x
property float y
property float z
property uchar red
property uchar green
property uchar blue
property float nx
property float ny
property float nz
property float curvature
element camera 1
property float view_px
property float view_py
property float view_pz
property float x_axisx
property float x_axisy
property float x_axisz
property float y_axisx
property float y_axisy
property float y_axisz
property float z_axisx
property float z_axisy
property float z_axisz
property float focal
property float scalex
property float scaley
property float centerx
property float centery
property int viewportx
property int viewporty
property float k1
property float k2
end_header
1.110223e-16 -2.220446e-16 2.220446e-16 0 0 250 0 0 0 0
0.051546559 1.000725 -0.024248829 0 0 250 0 0 0 0
0.1464632 1.995659 -0.050516222 0 0 250 0 0 0 0
0.28792039 2.986691 -0.079030588 0 0 250 0 0 0 0
0.46575031 3.963845 -0.1102928 0 0 250 0 0 0 0
0.69716448 4.934639 -0.143877 0 0 250 0 0 0 0
0.97156888 5.887651 -0.1802237 0 0 250 0 0 0 0
1.288079 6.8262019 -0.21848769 0 0 250 0 0 0 0
1.6513309 7.7439518 -0.254729 0 0 250 0 0 0 0
2.050498 8.6462402 -0.29195279 0 0 250 0 0 0 0
2.4886849 9.5273924 -0.33092371 0 0 250 0 0 0 0
2.9662919 10.38417 -0.36973849 0 0 250 0 0 0 0
3.483068 11.2156 -0.4086031 0 0 250 0 0 0 0
4.0366902 12.01878 -0.44397351 0 0 250 0 0 0 0
4.6314392 12.79006 -0.47902271 0 0 250 0 0 0 0
5.2521238 13.53058 -0.51361859 0 0 250 0 0 0 0
5.9134612 14.23731 -0.54627132 0 0 250 0 0 0 0
6.602643 14.91216 -0.57774287 0 0 250 0 0 0 0
7.3159828 15.55483 -0.6091556 0 0 250 0 0 0 0
8.0596542 16.155001 -0.63629198 0 0 250 0 0 0 0
8.8249474 16.721741 -0.66527832 0 0 250 0 0 0 0
9.6174994 17.24835 -0.69387549 0 0 250 0 0 0 0
10.43572 17.735821 -0.72098023 0 0 250 0 0 0 0
11.27339 18.18861 -0.74489492 0 0 250 0 0 0 0
12.13844 18.60541 -0.77072281 0 0 250 0 0 0 0
13.02386 18.984859 -0.79689872 0 0 250 0 0 0 0
13.92282 19.335291 -0.8194983 0 0 250 0 0 0 0
14.84567 19.655581 -0.8398217 0 0 250 0 0 0 0
15.78819 19.94858 -0.85901099 0 0 250 0 0 0 0
16.74609 20.209591 -0.87795788 0 0 250 0 0 0 0
17.71096 20.4429 -0.8926428 0 0 250 0 0 0 0
18.690741 20.645439 -0.9066816 0 0 250 0 0 0 0
19.69166 20.81649 -0.92047518 0 0 250 0 0 0 0
20.708719 20.9589 -0.93231738 0 0 250 0 0 0 0
21.74157 21.074499 -0.94235247 0 0 250 0 0 0 0
22.79076 21.16118 -0.94840503 0 0 250 0 0 0 0
23.853649 21.21468 -0.951047 0 0 250 0 0 0 0
24.93112 21.24069 -0.95192653 0 0 250 0 0 0 0
26.023479 21.240271 -0.95095062 0 0 250 0 0 0 0
27.12723 21.215639 -0.94895083 0 0 250 0 0 0 0
28.242491 21.169689 -0.94562882 0 0 250 0 0 0 0
29.37022 21.10741 -0.94143862 0 0 250 0 0 0 0
30.502911 21.0296 -0.93635941 0 0 250 0 0 0 0
31.64196 20.93984 -0.92968678 0 0 250 0 0 0 0
32.786819 20.83696 -0.92167729 0 0 250 0 0 0 0
33.942322 20.71859 -0.9117462 0 0 250 0 0 0 0
35.114731 20.585329 -0.90072012 0 0 250 0 0 0 0
36.30912 20.436979 -0.88915843 0 0 250 0 0 0 0
37.526798 20.2789 -0.87815678 0 0 250 0 0 0 0
38.76733 20.110849 -0.86701989 0 0 250 0 0 0 0
40.024029 19.932529 -0.85644788 0 0 250 0 0 0 0
41.3055 19.746481 -0.8460362 0 0 250 0 0 0 0
42.606789 19.55065 -0.83754802 0 0 250 0 0 0 0
43.932781 19.34786 -0.82954961 0 0 250 0 0 0 0
45.281368 19.137529 -0.81879032 0 0 250 0 0 0 0
46.648499 18.92231 -0.80599213 0 0 250 0 0 0 0
48.035591 18.69944 -0.79075301 0 0 250 0 0 0 0
49.442009 18.473181 -0.77659303 0 0 250 0 0 0 0
50.87125 18.239941 -0.76120877 0 0 250 0 0 0 0
52.316341 18.005711 -0.74886608 0 0 250 0 0 0 0
53.784142 17.768221 -0.73855931 0 0 250 0 0 0 0
55.275612 17.52865 -0.72824639 0 0 250 0 0 0 0
56.7869 17.289471 -0.71932161 0 0 250 0 0 0 0
58.319698 17.04698 -0.70902288 0 0 250 0 0 0 0
59.870041 16.80555 -0.69822937 0 0 250 0 0 0 0
61.449322 16.560089 -0.68985379 0 0 250 0 0 0 0
63.045639 16.314831 -0.68223399 0 0 250 0 0 0 0
64.661461 16.06555 -0.67429447 0 0 250 0 0 0 0
66.292732 15.81429 -0.665932 0 0 250 0 0 0 0
67.933578 15.56429 -0.65665948 0 0 250 0 0 0 0
69.591461 15.31065 -0.64954787 0 0 250 0 0 0 0
71.263481 15.06048 -0.64555007 0 0 250 0 0 0 0
72.94957 14.80708 -0.64115089 0 0 250 0 0 0 0
74.656792 14.55382 -0.63514251 0 0 250 0 0 0 0
76.375832 14.29583 -0.62663931 0 0 250 0 0 0 0
78.112068 14.03765 -0.6192733 0 0 250 0 0 0 0
79.864166 13.77611 -0.61218488 0 0 250 0 0 0 0
81.626556 13.51471 -0.60695332 0 0 250 0 0 0 0
83.403152 13.2493 -0.60374492 0 0 250 0 0 0 0
85.193771 12.98 -0.60180801 0 0 250 0 0 0 0
87.005379 12.70711 -0.59948158 0 0 250 0 0 0 0
88.827469 12.42843 -0.59487629 0 0 250 0 0 0 0
90.666611 12.14861 -0.5892579 0 0 250 0 0 0 0
92.516129 11.86127 -0.58226037 0 0 250 0 0 0 0
94.384171 11.56935 -0.57615799 0 0 250 0 0 0 0
96.263771 11.26751 -0.56908649 0 0 250 0 0 0 0
98.15387 10.95901 -0.56706542 0 0 250 0 0 0 0
100.0527 10.63988 -0.56524289 0 0 250 0 0 0 0
101.9553 10.30991 -0.56414771 0 0 250 0 0 0 0
103.8698 9.9661283 -0.56244522 0 0 250 0 0 0 0
105.791 9.611618 -0.56435531 0 0 250 0 0 0 0
107.7248 9.2463818 -0.56879729 0 0 250 0 0 0 0
109.6683 8.8715849 -0.57179421 0 0 250 0 0 0 0
111.6206 8.4866285 -0.57334489 0 0 250 0 0 0 0
113.5815 8.0869207 -0.57280427 0 0 250 0 0 0 0
115.5478 7.6741929 -0.57053798 0 0 250 0 0 0 0
117.5182 7.2469292 -0.56805837 0 0 250 0 0 0 0
119.4963 6.8082781 -0.56587791 0 0 250 0 0 0 0
121.4861 6.3512239 -0.56456518 0 0 250 0 0 0 0
123.4817 5.8832479 -0.56366777 0 0 250 0 0 0 0
125.4794 5.4035292 -0.5607338 0 0 250 0 0 0 0
127.4889 4.9110131 -0.55915171 0 0 250 0 0 0 0
129.5004 4.4022789 -0.55561388 0 0 250 0 0 0 0
131.5233 3.8801069 -0.54941148 0 0 250 0 0 0 0
133.5486 3.3481579 -0.54275417 0 0 250 0 0 0 0
135.58369 2.806947 -0.53603542 0 0 250 0 0 0 0
137.625 2.2579889 -0.52959728 0 0 250 0 0 0 0
139.6797 1.699296 -0.52245378 0 0 250 0 0 0 0
141.73039 1.132152 -0.51799929 0 0 250 0 0 0 0
143.79269 0.55158722 -0.51273727 0 0 250 0 0 0 0
145.8618 -0.041372102 -0.5061993 0 0 250 0 0 0 0
147.9305 -0.64493108 -0.50062472 0 0 250 0 0 0 0
150.00681 -1.261108 -0.49596891 0 0 250 0 0 0 0
152.0968 -1.892338 -0.48983011 0 0 250 0 0 0 0
154.1812 -2.5331819 -0.48299211 0 0 250 0 0 0 0
156.2753 -3.1876531 -0.47539091 0 0 250 0 0 0 0
158.3734 -3.8514619 -0.467684 0 0 250 0 0 0 0
160.47369 -4.5253162 -0.46087351 0 0 250 0 0 0 0
162.58749 -5.2119741 -0.45553109 0 0 250 0 0 0 0
164.7037 -5.9085822 -0.4525483 0 0 250 0 0 0 0
166.8257 -6.6147008 -0.44953069 0 0 250 0 0 0 0
168.9537 -7.3314629 -0.44561249 0 0 250 0 0 0 0
171.0871 -8.0630722 -0.44167441 0 0 250 0 0 0 0
173.2245 -8.8060856 -0.43655229 0 0 250 0 0 0 0
175.3665 -9.5578289 -0.42940891 0 0 250 0 0 0 0
177.51691 -10.31827 -0.42093301 0 0 250 0 0 0 0
179.6714 -11.0856 -0.41182771 0 0 250 0 0 0 0
181.83031 -11.86225 -0.40436339 0 0 250 0 0 0 0
183.9969 -12.64986 -0.39858019 0 0 250 0 0 0 0
186.16991 -13.44797 -0.39905089 0 0 250 0 0 0 0
188.34399 -14.25545 -0.4000549 0 0 250 0 0 0 0
190.5195 -15.07493 -0.40138331 0 0 250 0 0 0 0
192.70869 -15.90879 -0.40386549 0 0 250 0 0 0 0
194.901 -16.75316 -0.4035663 0 0 250 0 0 0 0
197.093 -17.60738 -0.40211621 0 0 250 0 0 0 0
199.29581 -18.47484 -0.40066379 0 0 250 0 0 0 0
201.48039 -19.34449 -0.40119651 0 0 250 0 0 0 0
203.6882 -20.234591 -0.40308189 0 0 250 0 0 0 0
205.877 -21.12723 -0.40619549 0 0 250 0 0 0 0
208.0748 -22.03665 -0.40832299 0 0 250 0 0 0 0
210.2746 -22.95396 -0.40725631 0 0 250 0 0 0 0
212.4744 -23.87896 -0.40517771 0 0 250 0 0 0 0
214.66969 -24.806881 -0.40369439 0 0 250 0 0 0 0
216.8716 -25.745199 -0.4053455 0 0 250 0 0 0 0
219.0854 -26.695129 -0.4089666 0 0 250 0 0 0 0
221.27521 -27.6423 -0.41457289 0 0 250 0 0 0 0
223.47479 -28.5989 -0.42278779 0 0 250 0 0 0 0
225.6743 -29.566299 -0.43237299 0 0 250 0 0 0 0
227.86861 -30.54211 -0.4418329 0 0 250 0 0 0 0
230.0656 -31.5245 -0.4485622 0 0 250 0 0 0 0
232.25841 -32.511372 -0.4502008 0 0 250 0 0 0 0
234.4478 -33.504089 -0.45164421 0 0 250 0 0 0 0
236.6402 -34.50713 -0.4545615 0 0 250 0 0 0 0
238.8266 -35.515518 -0.45650399 0 0 250 0 0 0 0
241.0098 -36.53355 -0.45835951 0 0 250 0 0 0 0
243.1866 -37.558708 -0.45981541 0 0 250 0 0 0 0
245.3571 -38.591141 -0.46185839 0 0 250 0 0 0 0
247.5244 -39.631981 -0.46147501 0 0 250 0 0 0 0
249.6839 -40.68364 -0.46144599 0 0 250 0 0 0 0
251.84241 -41.746311 -0.46283919 0 0 250 0 0 0 0
253.98959 -42.813709 -0.4623208 0 0 250 0 0 0 0
256.14249 -43.890308 -0.45994109 0 0 250 0 0 0 0
258.2951 -44.977772 -0.45660409 0 0 250 0 0 0 0
260.44461 -46.074081 -0.45158601 0 0 250 0 0 0 0
262.5925 -47.183979 -0.4468931 0 0 250 0 0 0 0
264.73401 -48.300072 -0.44432279 0 0 250 0 0 0 0
266.892 -49.434521 -0.44269201 0 0 250 0 0 0 0
269.02551 -50.567928 -0.4394885 0 0 250 0 0 0 0
271.17441 -51.720409 -0.43579409 0 0 250 0 0 0 0
273.33179 -52.887711 -0.4312748 0 0 250 0 0 0 0
275.487 -54.062119 -0.42440629 0 0 250 0 0 0 0
277.65799 -55.253109 -0.41824239 0 0 250 0 0 0 0
279.8273 -56.455139 -0.41282681 0 0 250 0 0 0 0
282.01682 -57.674141 -0.4105826 0 0 250 0 0 0 0
284.18851 -58.892509 -0.40955889 0 0 250 0 0 0 0
286.37241 -60.129559 -0.40796179 0 0 250 0 0 0 0
288.57019 -61.384949 -0.40454879 0 0 250 0 0 0 0
290.77039 -62.649288 -0.3986685 0 0 250 0 0 0 0
292.9827 -63.923409 -0.39088219 0 0 250 0 0 0 0
295.19531 -65.206238 -0.3821466 0 0 250 0 0 0 0
297.4212 -66.505211 -0.37139991 0 0 250 0 0 0 0
299.6423 -67.808739 -0.35871139 0 0 250 0 0 0 0
301.87631 -69.125603 -0.34700561 0 0 250 0 0 0 0
304.11411 -70.451698 -0.3372516 0 0 250 0 0 0 0
306.35931 -71.791679 -0.3307952 0 0 250 0 0 0 0
308.6134 -73.144028 -0.32333559 0 0 250 0 0 0 0
310.8714 -74.512451 -0.31261909 0 0 250 0 0 0 0
313.1301 -75.900124 -0.29718789 0 0 250 0 0 0 0
315.38519 -77.307251 -0.2796424 0 0 250 0 0 0 0
317.63831 -78.729881 -0.2578412 0 0 250 0 0 0 0
319.89539 -80.172707 -0.23815539 0 0 250 0 0 0 0
322.1579 -81.632111 -0.2197853 0 0 250 0 0 0 0
324.41199 -83.10009 -0.20168249 0 0 250 0 0 0 0
326.6626 -84.57972 -0.1825361 0 0 250 0 0 0 0
328.90549 -86.06826 -0.16083241 0 0 250 0 0 0 0
331.14771 -87.570511 -0.1383913 0 0 250 0 0 0 0
333.384 -89.086746 -0.1125608 0 0 250 0 0 0 0
335.61331 -90.614258 -0.084551483 0 0 250 0 0 0 0
337.8389 -92.151543 -0.052427679 0 0 250 0 0 0 0
340.056 -93.700142 -0.01599584 0 0 250 0 0 0 0
342.27521 -95.265022 0.02333862 0 0 250 0 0 0 0
344.4892 -96.836159 0.0633751 0 0 250 0 0 0 0
346.70099 -98.411949 0.1024766 0 0 250 0 0 0 0
348.91031 -99.998131 0.1402984 0 0 250 0 0 0 0
351.10941 -101.5909 0.1754218 0 0 250 0 0 0 0
353.3107 -103.2033 0.21411949 0 0 250 0 0 0 0
355.4996 -104.817 0.2539708 0 0 250 0 0 0 0
357.68091 -106.4411 0.29031909 0 0 250 0 0 0 0
359.867 -108.0781 0.32979029 0 0 250 0 0 0 0
362.0386 -109.7167 0.38013691 0 0 250 0 0 0 0
364.20511 -111.3631 0.43359399 0 0 250 0 0 0 0
366.36261 -113.0176 0.48555049 0 0 250 0 0 0 0
368.5148 -114.6817 0.53575343 0 0 250 0 0 0 0
370.6543 -116.3494 0.5857535 0 0 250 0 0 0 0
372.79251 -118.0262 0.6347512 0 0 250 0 0 0 0
374.93219 -119.7055 0.68064088 0 0 250 0 0 0 0
377.0444 -121.3733 0.7141844 0 0 250 0 0 0 0
379.1489 -123.0734 0.73223901 0 0 250 0 0 0 0
381.246 -124.7861 0.75144988 0 0 250 0 0 0 0
383.35309 -126.4979 0.79126418 0 0 250 0 0 0 0
385.46249 -128.20621 0.85811889 0 0 250 0 0 0 0
387.56381 -129.914 0.93757367 0 0 250 0 0 0 0
389.6489 -131.6273 1.01544 0 0 250 0 0 0 0
391.7168 -133.35069 1.088896 0 0 250 0 0 0 0
393.78 -135.0831 1.1549129 0 0 250 0 0 0 0
395.8385 -136.8244 1.214067 0 0 250 0 0 0 0
397.8934 -138.57021 1.272858 0 0 250 0 0 0 0
399.9429 -140.3176 1.334967 0 0 250 0 0 0 0
401.97751 -142.0688 1.399861 0 0 250 0 0 0 0
404.01321 -143.8398 1.46395 0 0 250 0 0 0 0
406.03961 -145.60941 1.53057 0 0 250 0 0 0 0
408.0639 -147.38609 1.596786 0 0 250 0 0 0 0
410.08649 -149.1653 1.665192 0 0 250 0 0 0 0
412.09991 -150.9391 1.73948 0 0 250 0 0 0 0
414.1199 -152.7256 1.820766 0 0 250 0 0 0 0
416.1297 -154.5063 1.902123 0 0 250 0 0 0 0
418.1369 -156.2858 1.980352 0 0 250 0 0 0 0
420.14011 -158.0701 2.0512609 0 0 250 0 0 0 0
422.1413 -159.85789 2.117805 0 0 250 0 0 0 0
424.1424 -161.65089 2.186326 0 0 250 0 0 0 0
426.13571 -163.44231 2.2560821 0 0 250 0 0 0 0
428.12881 -165.23779 2.325413 0 0 250 0 0 0 0
430.1109 -167.032 2.3969121 0 0 250 0 0 0 0
432.0961 -168.83099 2.4718101 0 0 250 0 0 0 0
434.07211 -170.62801 2.549279 0 0 250 0 0 0 0
436.0531 -172.4221 2.6505721 0 0 250 0 0 0 0
438.04199 -174.2029 2.755615 0 0 250 0 0 0 0
440.03 -175.9705 2.84391 0 0 250 0 0 0 0
442.03391 -177.7475 2.921911 0 0 250 0 0 0 0
444.03922 -179.52 3.0068519 0 0 250 0 0 0 0
446.04599 -181.28841 3.098726 0 0 250 0 0 0 0
448.05319 -183.04469 3.192574 0 0 250 0 0 0 0
450.064 -184.7916 3.2780149 0 0 250 0 0 0 0
452.09241 -186.5327 3.358861 0 0 250 0 0 0 0
454.12509 -188.2652 3.4369979 0 0 250 0 0 0 0
456.15799 -189.9924 3.516788 0 0 250 0 0 0 0
458.18729 -191.72031 3.593514 0 0 250 0 0 0 0
460.21521 -193.4519 3.6694829 0 0 250 0 0 0 0
462.24619 -195.183 3.7508481 0 0 250 0 0 0 0
464.27911 -196.9059 3.835891 0 0 250 0 0 0 0
466.31351 -198.6214 3.921999 0 0 250 0 0 0 0
468.35089 -200.3376 4.0042162 0 0 250 0 0 0 0
470.38391 -202.04829 4.0795488 0 0 250 0 0 0 0
472.4259 -203.76559 4.1541162 0 0 250 0 0 0 0
474.46829 -205.4787 4.2302098 0 0 250 0 0 0 0
476.51129 -207.1855 4.3097119 0 0 250 0 0 0 0
478.55579 -208.8868 4.3894539 0 0 250 0 0 0 0
480.60599 -210.58859 4.4714489 0 0 250 0 0 0 0
482.65451 -212.28529 4.555624 0 0 250 0 0 0 0
484.70709 -213.9826 4.6400762 0 0 250 0 0 0 0
486.75769 -215.677 4.7208009 0 0 250 0 0 0 0
488.80661 -217.3707 4.7997642 0 0 250 0 0 0 0
490.86292 -219.0659 4.8809299 0 0 250 0 0 0 0
492.9166 -220.7576 4.9607668 0 0 250 0 0 0 0
494.97131 -222.4476 5.0380158 0 0 250 0 0 0 0
497.02469 -224.1389 5.1167068 0 0 250 0 0 0 0
499.0722 -225.827 5.193552 0 0 250 0 0 0 0
501.13281 -227.5274 5.2677069 0 0 250 0 0 0 0
503.18671 -229.2205 5.3491082 0 0 250 0 0 0 0
505.23901 -230.91431 5.4327698 0 0 250 0 0 0 0
507.2915 -232.60719 5.5192752 0 0 250 0 0 0 0
509.3381 -234.2975 5.6052489 0 0 250 0 0 0 0
511.39389 -235.9969 5.6893039 0 0 250 0 0 0 0
513.44537 -237.6908 5.7733092 0 0 250 0 0 0 0
515.49738 -239.38429 5.8576078 0 0 250 0 0 0 0
517.54932 -241.0762 5.9424829 0 0 250 0 0 0 0
519.60138 -242.76801 6.0269709 0 0 250 0 0 0 0
521.65741 -244.4639 6.1153579 0 0 250 0 0 0 0
523.71057 -246.1557 6.2066422 0 0 250 0 0 0 0
525.7627 -247.8455 6.2997198 0 0 250 0 0 0 0
527.81592 -249.5367 6.3928781 0 0 250 0 0 0 0
529.86511 -251.22279 6.4867988 0 0 250 0 0 0 0
531.92621 -252.9158 6.5823779 0 0 250 0 0 0 0
533.98138 -254.60361 6.677372 0 0 250 0 0 0 0
536.03772 -256.29251 6.7713718 0 0 250 0 0 0 0
538.09509 -257.983 6.8659668 0 0 250 0 0 0 0
540.15363 -259.67459 6.9649062 0 0 250 0 0 0 0
542.21362 -261.36609 7.0668168 0 0 250 0 0 0 0
544.26788 -263.05469 7.168745 0 0 250 0 0 0 0
546.32532 -264.7478 7.2652559 0 0 250 0 0 0 0
548.37598 -266.43661 7.3571501 0 0 250 0 0 0 0
550.43652 -268.13431 7.4509039 0 0 250 0 0 0 0
552.49561 -269.83191 7.5514269 0 0 250 0 0 0 0
554.54932 -271.52539 7.6545291 0 0 250 0 0 0 0
556.6051 -273.22 7.7571669 0 0 250 0 0 0 0
558.65912 -274.91409 7.8574009 0 0 250 0 0 0 0
560.7204 -276.61459 7.9575558 0 0 250 0 0 0 0
562.77753 -278.3114 8.0580368 0 0 250 0 0 0 0
564.83862 -280.00851 8.1617947 0 0 250 0 0 0 0
566.89587 -281.70209 8.2679157 0 0 250 0 0 0 0
568.9502 -283.39471 8.3739891 0 0 250 0 0 0 0
571.01501 -285.0936 8.4834499 0 0 250 0 0 0 0
573.07727 -286.78711 8.5939474 0 0 250 0 0 0 0
575.13843 -288.47659 8.7051477 0 0 250 0 0 0 0
577.20068 -290.16769 8.8168964 0 0 250 0 0 0 0
579.25403 -291.85291 8.9249067 0 0 250 0 0 0 0
581.31409 -293.54279 9.03162 0 0 250 0 0 0 0
583.37128 -295.22672 9.1373281 0 0 250 0 0 0 0
585.43829 -296.91391 9.2455091 0 0 250 0 0 0 0
587.51898 -298.61209 9.3532076 0 0 250 0 0 0 0
589.54889 -300.263 9.4565992 0 0 250 0 0 0 0
591.61078 -301.93829 9.5613441 0 0 250 0 0 0 0
593.67157 -303.6091 9.6668091 0 0 250 0 0 0 0
595.737 -305.28 9.7758074 0 0 250 0 0 0 0
597.80267 -306.94879 9.8836651 0 0 250 0 0 0 0
599.867 -308.6131 9.9922218 0 0 250 0 0 0 0
601.93451 -310.28131 10.09861 0 0 250 0 0 0 0
604.00238 -311.9523 10.20684 0 0 250 0 0 0 0
606.07013 -313.62421 10.31717 0 0 250 0 0 0 0
608.1333 -315.29019 10.43016 0 0 250 0 0 0 0
610.2041 -316.9635 10.54205 0 0 250 0 0 0 0
612.27069 -318.6358 10.65103 0 0 250 0 0 0 0
614.3316 -320.30389 10.75646 0 0 250 0 0 0 0
616.40143 -321.97809 10.85851 0 0 250 0 0 0 0
618.46582 -323.64621 10.96062 0 0 250 0 0 0 0
620.53497 -325.31711 11.06765 0 0 250 0 0 0 0
622.60669 -326.98911 11.17705 0 0 250 0 0 0 0
624.67511 -328.6575 11.28685 0 0 250 0 0 0 0
626.74591 -330.327 11.39641 0 0 250 0 0 0 0
628.81378 -331.9942 11.50486 0 0 250 0 0 0 0
630.88867 -333.66559 11.61229 0 0 250 0 0 0 0
632.95868 -335.33081 11.72232 0 0 250 0 0 0 0
635.03241 -336.99979 11.83193 0 0 250 0 0 0 0
637.09509 -338.65939 11.9409 0 0 250 0 0 0 0
639.16589 -340.32339 12.04805 0 0 250 0 0 0 0
641.23743 -341.98859 12.15564 0 0 250 0 0 0 0
643.30469 -343.6496 12.26642 0 0 250 0 0 0 0
645.375 -345.31009 12.37656 0 0 250 0 0 0 0
647.44537 -346.9686 12.48249 0 0 250 0 0 0 0
649.5155 -348.6239 12.58629 0 0 250 0 0 0 0
651.59131 -350.28201 12.69235 0 0 250 0 0 0 0
653.66229 -351.93549 12.80042 0 0 250 0 0 0 0
655.73578 -353.58701 12.91009 0 0 250 0 0 0 0
657.80573 -355.2341 13.02023 0 0 250 0 0 0 0
659.87793 -356.88062 13.13 0 0 250 0 0 0 0
661.95862 -358.53281 13.23887 0 0 250 0 0 0 0
664.03607 -360.18188 13.34665 0 0 250 0 0 0 0
666.112 -361.82889 13.45227 0 0 250 0 0 0 0
668.19043 -363.47519 13.55813 0 0 250 0 0 0 0
670.27118 -365.1232 13.66357 0 0 250 0 0 0 0
672.35052 -366.7695 13.76872 0 0 250 0 0 0 0
674.4325 -368.41919 13.87413 0 0 250 0 0 0 0
676.50897 -370.0675 13.97893 0 0 250 0 0 0 0
678.58759 -371.72031 14.08324 0 0 250 0 0 0 0
680.66571 -373.3743 14.1885 0 0 250 0 0 0 0
682.74323 -375.0304 14.29713 0 0 250 0 0 0 0
684.81982 -376.6842 14.40571 0 0 250 0 0 0 0
686.89447 -378.33701 14.51349 0 0 250 0 0 0 0
688.96558 -379.9902 14.61921 0 0 250 0 0 0 0
691.04077 -381.6488 14.72406 0 0 250 0 0 0 0
693.1156 -383.3046 14.82707 0 0 250 0 0 0 0
695.19299 -384.9613 14.92975 0 0 250 0 0 0 0
697.271 -386.61429 15.03283 0 0 250 0 0 0 0
699.3457 -388.26459 15.13859 0 0 250 0 0 0 0
701.42743 -389.91809 15.24435 0 0 250 0 0 0 0
703.50647 -391.5686 15.34668 0 0 250 0 0 0 0
705.58289 -393.2168 15.44804 0 0 250 0 0 0 0
707.66132 -394.86649 15.54996 0 0 250 0 0 0 0
709.74408 -396.5177 15.65581 0 0 250 0 0 0 0
711.82428 -398.16071 15.76531 0 0 250 0 0 0 0
713.9054 -399.80011 15.87836 0 0 250 0 0 0 0
715.98389 -401.43381 15.99116 0 0 250 0 0 0 0
718.06311 -403.06741 16.10183 0 0 250 0 0 0 0
720.1441 -404.698 16.21513 0 0 250 0 0 0 0
722.22961 -406.32959 16.32798 0 0 250 0 0 0 0
724.31561 -407.95819 16.44029 0 0 250 0 0 0 0
726.4057 -409.58499 16.543989 0 0 250 0 0 0 0
728.49829 -411.2077 16.662729 0 0 250 0 0 0 0
730.58881 -412.8287 16.77343 0 0 250 0 0 0 0
732.67517 -414.4501 16.881041 0 0 250 0 0 0 0
734.76642 -416.07339 16.98171 0 0 250 0 0 0 0
736.85559 -417.69351 17.07951 0 0 250 0 0 0 0
738.95331 -419.3157 17.1754 0 0 250 0 0 0 0
741.04791 -420.93399 17.272421 0 0 250 0 0 0 0
743.14191 -422.55081 17.37146 0 0 250 0 0 0 0
745.23541 -424.16919 17.467199 0 0 250 0 0 0 0
747.32892 -425.79169 17.555 0 0 250 0 0 0 0
749.42072 -427.41339 17.651911 0 0 250 0 0 0 0
751.51727 -429.03619 17.754129 0 0 250 0 0 0 0
753.61157 -430.65411 17.85404 0 0 250 0 0 0 0
755.71088 -432.2706 17.94006 0 0 250 0 0 0 0
757.8089 -433.884 18.022051 0 0 250 0 0 0 0
759.90912 -435.49759 18.09594 0 0 250 0 0 0 0
762.01813 -437.11249 18.17308 0 0 250 0 0 0 0
764.12488 -438.72211 18.25478 0 0 250 0 0 0 0
766.23462 -440.3295 18.339319 0 0 250 0 0 0 0
768.3468 -441.93549 18.42281 0 0 250 0 0 0 0
770.45709 -443.53781 18.50284 0 0 250 0 0 0 0
772.573 -445.14041 18.58489 0 0 250 0 0 0 0
774.69012 -446.74091 18.66585 0 0 250 0 0 0 0
776.80499 -448.3389 18.74823 0 0 250 0 0 0 0
778.9176 -449.93219 18.82798 0 0 250 0 0 0 0
781.03821 -451.52899 18.910259 0 0 250 0 0 0 0
783.15527 -453.1207 18.99428 0 0 250 0 0 0 0
785.27063 -454.711 19.07913 0 0 250 0 0 0 0
787.3866 -456.30359 19.16217 0 0 250 0 0 0 0
789.49353 -457.8927 19.243719 0 0 250 0 0 0 0
791.60437 -459.48761 19.32538 0 0 250 0 0 0 0
793.70972 -461.0817 19.405411 0 0 250 0 0 0 0
795.81372 -462.67719 19.48576 0 0 250 0 0 0 0
797.914 -464.27139 19.569811 0 0 250 0 0 0 0
800.01233 -465.86349 19.655331 0 0 250 0 0 0 0
802.10828 -467.45432 19.737921 0 0 250 0 0 0 0
804.20282 -469.0448 19.816299 0 0 250 0 0 0 0
806.29871 -470.6373 19.88938 0 0 250 0 0 0 0
808.39587 -472.23071 19.96249 0 0 250 0 0 0 0
810.49017 -473.81961 20.03686 0 0 250 0 0 0 0
812.591 -475.41251 20.114429 0 0 250 0 0 0 0
814.68878 -477.00131 20.19413 0 0 250 0 0 0 0
816.7915 -478.59052 20.273211 0 0 250 0 0 0 0
818.8949 -480.1748 20.3538 0 0 250 0 0 0 0
821.00232 -481.75729 20.435631 0 0 250 0 0 0 0
823.11639 -483.34039 20.51693 0 0 250 0 0 0 0
825.2301 -484.91821 20.599119 0 0 250 0 0 0 0
827.34723 -486.49271 20.683849 0 0 250 0 0 0 0
829.46448 -488.0614 20.770679 0 0 250 0 0 0 0
831.59088 -489.6319 20.857969 0 0 250 0 0 0 0
833.7229 -491.2049 20.94602 0 0 250 0 0 0 0
835.85413 -492.77609 21.034069 0 0 250 0 0 0 0
837.98602 -494.3446 21.12295 0 0 250 0 0 0 0
840.11987 -495.91321 21.21212 0 0 250 0 0 0 0
842.26233 -497.48541 21.303591 0 0 250 0 0 0 0
844.40381 -499.05579 21.3978 0 0 250 0 0 0 0
846.5437 -500.6257 21.49439 0 0 250 0 0 0 0
848.68268 -502.19641 21.587259 0 0 250 0 0 0 0
850.82129 -503.767 21.67907 0 0 250 0 0 0 0
852.97223 -505.34311 21.77339 0 0 250 0 0 0 0
855.11469 -506.91351 21.86598 0 0 250 0 0 0 0
857.2619 -508.4874 21.95643 0 0 250 0 0 0 0
859.40839 -510.06131 22.047621 0 0 250 0 0 0 0
861.55701 -511.63699 22.1402 0 0 250 0 0 0 0
863.71039 -513.21368 22.23641 0 0 250 0 0 0 0
865.85889 -514.78479 22.33432 0 0 250 0 0 0 0
868.0116 -516.35541 22.436359 0 0 250 0 0 0 0
870.1571 -517.92218 22.535879 0 0 250 0 0 0 0
872.29382 -519.48358 22.632919 0 0 250 0 0 0 0
874.44189 -521.04932 22.72987 0 0 250 0 0 0 0
876.5885 -522.60797 22.82659 0 0 250 0 0 0 0
878.73682 -524.16089 22.925039 0 0 250 0 0 0 0
880.8822 -525.70648 23.02388 0 0 250 0 0 0 0
883.03229 -527.24792 23.12541 0 0 250 0 0 0 0
885.20007 -528.79633 23.22957 0 0 250 0 0 0 0
887.32379 -530.30792 23.329741 0 0 250 0 0 0 0
889.47058 -531.83099 23.43087 0 0 250 0 0 0 0
891.60907 -533.34558 23.532631 0 0 250 0 0 0 0
893.755 -534.86188 23.63418 0 0 250 0 0 0 0
895.8952 -536.36969 23.73415 0 0 250 0 0 0 0
898.03473 -537.87323 23.835291 0 0 250 0 0 0 0
900.17419 -539.37433 23.94138 0 0 250 0 0 0 0
902.30792 -540.86621 24.048611 0 0 250 0 0 0 0
904.45648 -542.36322 24.158871 0 0 250 0 0 0 0
906.591 -543.84808 24.267071 0 0 250 0 0 0 0
908.72717 -545.33209 24.37286 0 0 250 0 0 0 0
910.8623 -546.81427 24.47974 0 0 250 0 0 0 0
912.98993 -548.29187 24.58493 0 0 250 0 0 0 0
915.12299 -549.77271 24.688021 0 0 250 0 0 0 0
917.26172 -551.25781 24.789049 0 0 250 0 0 0 0
919.40057 -552.7312 24.894711 0 0 250 0 0 0 0
921.54449 -554.20239 25.01399 0 0 250 0 0 0 0
923.67621 -555.66211 25.121901 0 0 250 0 0 0 0
925.80658 -557.12567 25.210079 0 0 250 0 0 0 0
927.94501 -558.59509 25.3008 0 0 250 0 0 0 0
930.0863 -560.06488 25.410049 0 0 250 0 0 0 0
0 0 0 1 0 0 0 1 0 0 0 1 0 0 0 0 0 483 1 0 0
