ply
format ascii 1.0
comment PCL generated
element vertex 483
property float x
property float y
property float z
property uchar red
property uchar green
property uchar blue
property float nx
property float ny
property float nz
property float curvature
element camera 1
property float view_px
property float view_py
property float view_pz
property float x_axisx
property float x_axisy
property float x_axisz
property float y_axisx
property float y_axisy
property float y_axisz
property float z_axisx
property float z_axisy
property float z_axisz
property float focal
property float scalex
property float scaley
property float centerx
property float centery
property int viewportx
property int viewporty
property float k1
property float k2
end_header
0 0 0 0 250 0 0 -0 0 0
0.04076343 0.90026462 -0.018659389 0 250 0 0.0026078636 0.043497767 0.0011077854 0
0.12199643 1.781562 -0.035422515 0 250 0 0.0081352433 0.088561378 0.0059899287 0
0.23959419 2.6597755 -0.058144525 0 250 0 0.01220072 0.13427411 0.0069115567 0
0.39102188 3.5273511 -0.080059782 0 250 0 0.014859105 0.18080877 0.0055906149 0
0.59356058 4.4004283 -0.10341055 0 250 0 0.015872393 0.22730924 0.0093956254 0
0.83753979 5.24123 -0.13459468 0 250 0 0.018270217 0.27332342 0.011952466 0
1.1190226 6.0810633 -0.16320442 0 250 0 0.022858778 0.31898552 0.016979298 0
1.4297662 6.8963213 -0.19008268 0 250 0 0.026586907 0.36390135 0.020839427 0
1.7762324 7.6990428 -0.21660715 0 250 0 0.029066088 0.40966937 0.022841183 0
2.1577537 8.4763145 -0.24858305 0 250 0 0.029546484 0.45625359 0.025151707 0
2.5708516 9.2376728 -0.27744117 0 250 0 0.030148514 0.50389177 0.026126562 0
3.0388143 9.9887667 -0.30300552 0 250 0 0.030580331 0.55119443 0.027290964 0
3.5247657 10.703265 -0.32754552 0 250 0 0.033300754 0.59816611 0.030077433 0
4.0448651 11.404247 -0.3521685 0 250 0 0.037332993 0.64510733 0.035336018 0
4.5913401 12.068536 -0.38322842 0 250 0 0.040740822 0.69142812 0.038200587 0
5.1666613 12.701622 -0.41226766 0 250 0 0.045559686 0.73784471 0.04573239 0
5.7685757 13.310144 -0.44210717 0 250 0 0.048401285 0.7843132 0.04863634 0
6.4122128 13.887311 -0.47429904 0 250 0 0.053933948 0.83108515 0.053489804 0
7.0957694 14.452282 -0.49247751 0 250 0 0.063993067 0.87760174 0.063873492 0
7.7755504 14.964545 -0.51957542 0 250 0 0.069481112 0.92421305 0.068633586 0
8.4544554 15.423071 -0.55133516 0 250 0 0.080234431 0.97009331 0.078367412 0
9.160965 15.862282 -0.57953781 0 250 0 0.096588768 1.0158068 0.092322946 0
9.9171734 16.273933 -0.59486705 0 250 0 0.10790934 1.0601735 0.10332967 0
10.711035 16.699915 -0.61210757 0 250 0 0.12543368 1.103422 0.12262193 0
11.500108 17.053663 -0.63672596 0 250 0 0.14420597 1.1434164 0.142404 0
12.314 17.37462 -0.65079737 0 250 0 0.16228954 1.181398 0.15820126 0
13.152315 17.674162 -0.66471732 0 250 0 0.17927094 1.2163928 0.17697082 0
13.98334 17.94223 -0.68909883 0 250 0 0.20299482 1.2504407 0.20329697 0
14.846446 18.177727 -0.71207857 0 250 0 0.22574857 1.2838979 0.22704652 0
15.696308 18.396965 -0.72734529 0 250 0 0.24611439 1.3170261 0.24542163 0
16.564587 18.583036 -0.75573671 0 250 0 0.28288326 1.347522 0.28189048 0
17.465157 18.757309 -0.76250035 0 250 0 0.33743992 1.376739 0.33659992 0
18.375177 18.890326 -0.7725929 0 250 0 0.40841416 1.4047567 0.40863651 0
19.314001 19.016104 -0.78916687 0 250 0 0.48573557 1.4332569 0.48797864 0
20.253237 19.101223 -0.79780495 0 250 0 0.61386335 1.4576223 0.6172232 0
21.199425 19.157425 -0.80176687 0 250 0 0.80510485 1.4763842 0.80887783 0
22.209509 19.212242 -0.79342204 0 250 0 1.0680767 1.487792 1.0716556 0
23.204967 19.234257 -0.79687649 0 250 0 1.3520377 1.4921846 1.3558381 0
24.193525 19.227228 -0.79937494 0 250 0 1.6105276 1.4877306 1.6151198 0
25.173178 19.19549 -0.79860801 0 250 0 1.7984315 1.4802797 1.8042288 0
26.21023 19.153307 -0.80987889 0 250 0 1.9431658 1.4722828 1.9497492 0
27.252241 19.100082 -0.81825173 0 250 0 2.0572302 1.4637679 2.0652893 0
28.286209 19.025934 -0.81131959 0 250 0 2.1557255 1.4568996 2.1651497 0
29.320789 18.96031 -0.80913764 0 250 0 2.2397623 1.4497291 2.2496135 0
30.364643 18.87466 -0.80391371 0 250 0 2.3105059 1.442325 2.318269 0
31.414152 18.773058 -0.79652119 0 250 0 2.363143 1.4348332 2.3676047 0
32.490486 18.662926 -0.79051906 0 250 0 2.4013357 1.4268514 2.4036722 0
33.596237 18.535398 -0.78534651 0 250 0 2.4367666 1.4216094 2.4383476 0
34.731567 18.406534 -0.78800648 0 250 0 2.461751 1.4172397 2.4628878 0
35.860329 18.275164 -0.7955907 0 250 0 2.4785576 1.4123305 2.4786062 0
37.009094 18.124636 -0.80023175 0 250 0 2.5021718 1.4095082 2.5010405 0
38.199512 17.962912 -0.79380459 0 250 0 2.514394 1.4057531 2.512352 0
39.392948 17.797794 -0.79025948 0 250 0 2.5236251 1.4036477 2.5230334 0
40.5938 17.639502 -0.79096889 0 250 0 2.5274448 1.4013228 2.5290999 0
41.823681 17.474184 -0.78413504 0 250 0 2.5347145 1.3993958 2.5375028 0
43.069645 17.293343 -0.76810098 0 250 0 2.5296996 1.3962369 2.5316148 0
44.337353 17.109415 -0.76067239 0 250 0 2.5346348 1.3955616 2.5369415 0
45.626381 16.943035 -0.75968057 0 250 0 2.5294375 1.3934151 2.5306752 0
46.901405 16.760326 -0.75463474 0 250 0 2.5281851 1.3937501 2.5291996 0
48.212337 16.575129 -0.75193489 0 250 0 2.5273976 1.394115 2.527024 0
49.566055 16.378878 -0.74146199 0 250 0 2.52389 1.3949244 2.5235078 0
50.939415 16.187983 -0.74263728 0 250 0 2.5228035 1.3960651 2.5235403 0
52.32402 15.997406 -0.72585875 0 250 0 2.5163403 1.3959451 2.515496 0
53.694221 15.82216 -0.72240531 0 250 0 2.5159986 1.3967962 2.5143182 0
55.114288 15.608169 -0.72152096 0 250 0 2.5042598 1.3966289 2.5018673 0
56.527931 15.40948 -0.717682 0 250 0 2.5002122 1.397683 2.4978895 0
57.966969 15.211558 -0.71242946 0 250 0 2.4859576 1.3970143 2.4852772 0
59.454079 15.006349 -0.70548272 0 250 0 2.4751682 1.396484 2.4765859 0
60.925713 14.798117 -0.70844156 0 250 0 2.4649525 1.3958683 2.4655418 0
62.399429 14.611844 -0.70852798 0 250 0 2.4548585 1.3948823 2.4537079 0
63.905319 14.390109 -0.71773076 0 250 0 2.4528482 1.3958826 2.4525456 0
65.406517 14.198366 -0.73635942 0 250 0 2.4482408 1.3953553 2.4482317 0
66.912506 14.017772 -0.72411203 0 250 0 2.4507525 1.3959012 2.4518504 0
68.456047 13.812964 -0.72095066 0 250 0 2.4422393 1.3951212 2.4434667 0
69.998032 13.621534 -0.72889888 0 250 0 2.4366417 1.39408 2.4386246 0
71.598152 13.412191 -0.7343061 0 250 0 2.4386072 1.3939853 2.4399383 0
73.190804 13.213882 -0.73748016 0 250 0 2.4462473 1.3938198 2.4469705 0
74.798508 12.996637 -0.74455142 0 250 0 2.4506388 1.3933629 2.4509413 0
76.39119 12.783986 -0.73955613 0 250 0 2.4596634 1.3930839 2.4592602 0
78.02903 12.564648 -0.74914968 0 250 0 2.4653878 1.3922905 2.4662819 0
79.622696 12.365932 -0.73216826 0 250 0 2.4720645 1.391502 2.4727108 0
81.260124 12.134814 -0.72852522 0 250 0 2.4847915 1.3930037 2.4865506 0
82.932022 11.893007 -0.72456801 0 250 0 2.4911745 1.3915805 2.4920688 0
84.614006 11.612429 -0.72779024 0 250 0 2.5018611 1.3906095 2.5020843 0
86.328171 11.390934 -0.75179452 0 250 0 2.5115983 1.3861814 2.5114737 0
87.99604 11.142293 -0.76619232 0 250 0 2.5341017 1.3834263 2.5354574 0
89.687553 10.882103 -0.77062702 0 250 0 2.5538547 1.379992 2.5562503 0
91.376259 10.615216 -0.77650988 0 250 0 2.5675492 1.3762238 2.5692356 0
93.163338 10.313732 -0.78743637 0 250 0 2.5796249 1.3721279 2.5802441 0
94.876427 10.026173 -0.7927072 0 250 0 2.5987382 1.3685677 2.5979462 0
96.609947 9.7238731 -0.79393083 0 250 0 2.6131802 1.3649503 2.6123548 0
98.337837 9.4193048 -0.79292828 0 250 0 2.6338139 1.3616061 2.63325 0
100.09126 9.1037369 -0.79217541 0 250 0 2.6515546 1.3572839 2.6516697 0
101.85143 8.7563095 -0.8011694 0 250 0 2.6640196 1.3531439 2.6652064 0
103.60739 8.4131336 -0.80546606 0 250 0 2.6723876 1.3479953 2.6743245 0
105.35867 8.0751734 -0.79880631 0 250 0 2.6848702 1.3425968 2.6855316 0
107.12832 7.715416 -0.80173701 0 250 0 2.6990407 1.3372562 2.699013 0
108.95965 7.3279667 -0.79527187 0 250 0 2.7096868 1.331417 2.7100041 0
110.70209 6.9521718 -0.79192847 0 250 0 2.7224133 1.3265558 2.7228758 0
112.57384 6.5361915 -0.78472745 0 250 0 2.7326629 1.3219181 2.732691 0
114.39274 6.1216159 -0.77085835 0 250 0 2.7427149 1.3171335 2.7420173 0
116.20959 5.6889634 -0.76800442 0 250 0 2.7433951 1.3123131 2.7437351 0
118.0125 5.2562208 -0.76119488 0 250 0 2.7429771 1.3079584 2.7441592 0
119.82347 4.8644624 -0.78117383 0 250 0 2.7398343 1.303311 2.7406278 0
121.65652 4.4062481 -0.77433586 0 250 0 2.7442944 1.3002727 2.7448392 0
123.52788 3.9475322 -0.76637226 0 250 0 2.7529457 1.2972994 2.7535455 0
125.38129 3.4695306 -0.76107609 0 250 0 2.7616172 1.2939756 2.7617912 0
127.18803 2.9926112 -0.75237012 0 250 0 2.7712955 1.2905275 2.7707257 0
129.05014 2.5011604 -0.75202346 0 250 0 2.7779117 1.2866205 2.7779398 0
130.9922 1.990563 -0.73940104 0 250 0 2.7796714 1.2816862 2.7792733 0
132.82932 1.4811944 -0.74058008 0 250 0 2.7858806 1.2773265 2.7853367 0
134.60007 0.95772606 -0.73761159 0 250 0 2.7917368 1.2738472 2.7917173 0
136.45694 0.43141314 -0.72970074 0 250 0 2.7966347 1.2696403 2.7975657 0
138.40282 -0.13139912 -0.7137804 0 250 0 2.798779 1.2652979 2.7997692 0
140.32207 -0.7031799 -0.70078599 0 250 0 2.8002594 1.2612212 2.8008614 0
142.28813 -1.2887396 -0.69238716 0 250 0 2.8057687 1.2574991 2.8056486 0
144.22414 -1.8906075 -0.66295463 0 250 0 2.8097219 1.2543943 2.8075521 0
146.10548 -2.4861276 -0.6761232 0 250 0 2.8063891 1.250532 2.8031304 0
147.97519 -3.0552032 -0.66687024 0 250 0 2.8120015 1.2470541 2.8079133 0
149.89145 -3.6762464 -0.63783491 0 250 0 2.8173504 1.2441429 2.8133688 0
151.77338 -4.2828684 -0.62837905 0 250 0 2.8221288 1.2405164 2.8181608 0
153.69609 -4.8997283 -0.63560736 0 250 0 2.8196659 1.2360098 2.8157036 0
155.62352 -5.527339 -0.62724 0 250 0 2.8143375 1.2319592 2.8104856 0
157.61366 -6.1914163 -0.61401194 0 250 0 2.8124197 1.2290968 2.8091612 0
159.66183 -6.8506737 -0.58682191 0 250 0 2.8170819 1.2262257 2.8144352 0
161.6161 -7.5112948 -0.56273985 0 250 0 2.8227229 1.2243193 2.8193526 0
163.57149 -8.1598816 -0.55828059 0 250 0 2.8301156 1.2214996 2.8249867 0
165.53755 -8.8089304 -0.55715913 0 250 0 2.8372741 1.2182159 2.8305402 0
167.56447 -9.5256672 -0.52766806 0 250 0 2.844909 1.2156521 2.8373101 0
169.58922 -10.221059 -0.52609605 0 250 0 2.853981 1.212636 2.8458414 0
171.61656 -10.965272 -0.48884523 0 250 0 2.8563144 1.2088774 2.8475413 0
173.55711 -11.665534 -0.48802483 0 250 0 2.8585727 1.2055659 2.8508952 0
175.58255 -12.40847 -0.48785362 0 250 0 2.8607056 1.2017939 2.8538747 0
177.63489 -13.163684 -0.4580175 0 250 0 2.8654218 1.1978396 2.8586876 0
179.60715 -13.903634 -0.44209704 0 250 0 2.8690197 1.1942163 2.8617561 0
181.70993 -14.690402 -0.43677953 0 250 0 2.8723521 1.1903313 2.8645875 0
183.71912 -15.458834 -0.43681055 0 250 0 2.8742018 1.1869459 2.8661284 0
185.72578 -16.229769 -0.42990559 0 250 0 2.8747599 1.1835909 2.8661411 0
187.72224 -17.025379 -0.4311094 0 250 0 2.8725684 1.1808361 2.8647134 0
189.69153 -17.796083 -0.41480461 0 250 0 2.8694305 1.1779456 2.8623528 0
191.65738 -18.566862 -0.42664388 0 250 0 2.8684683 1.1750988 2.861259 0
193.64412 -19.36462 -0.40293339 0 250 0 2.8724482 1.1724186 2.8644402 0
195.5974 -20.162432 -0.40215546 0 250 0 2.8745816 1.1699564 2.8664227 0
197.57782 -20.955282 -0.40075409 0 250 0 2.8799186 1.1672493 2.8707464 0
199.54338 -21.753996 -0.39365003 0 250 0 2.8840487 1.1641418 2.8735616 0
201.47772 -22.545803 -0.39214101 0 250 0 2.8918481 1.16213 2.8811514 0
203.51866 -23.417604 -0.3951745 0 250 0 2.8923841 1.1590818 2.881098 0
205.48543 -24.24473 -0.41044825 0 250 0 2.8891659 1.1559857 2.8788381 0
207.47858 -25.096712 -0.40835437 0 250 0 2.8886709 1.1532764 2.8792305 0
209.42007 -25.921354 -0.39262992 0 250 0 2.892632 1.1506387 2.8835166 0
211.40633 -26.768511 -0.4004305 0 250 0 2.8974531 1.147863 2.8883612 0
213.4202 -27.646042 -0.43311316 0 250 0 2.9023428 1.1447576 2.8944674 0
215.62231 -28.4783 -0.43964836 0 250 0 2.9044888 1.1404332 2.8970611 0
217.67662 -29.443365 -0.42827764 0 250 0 2.9055841 1.1378117 2.8978615 0
219.83836 -30.276474 -0.42892703 0 250 0 2.9087858 1.1329538 2.9015093 0
221.7662 -31.152092 -0.43665189 0 250 0 2.9128163 1.12931 2.9065061 0
223.77168 -32.054283 -0.39431438 0 250 0 2.9170287 1.1255566 2.9098959 0
225.86107 -33.026272 -0.36706313 0 250 0 2.9192233 1.121604 2.9113131 0
227.83658 -33.969765 -0.35231945 0 250 0 2.9199297 1.1183753 2.9114301 0
229.86157 -34.922222 -0.36905605 0 250 0 2.9215579 1.1142646 2.9138124 0
231.76839 -35.828117 -0.36014724 0 250 0 2.9269295 1.1104589 2.9187274 0
233.79907 -36.782825 -0.38621694 0 250 0 2.9265869 1.1062161 2.9190304 0
235.87714 -37.763584 -0.3885667 0 250 0 2.9267039 1.1020725 2.9186559 0
237.85957 -38.745815 -0.37215614 0 250 0 2.9266481 1.0978234 2.91786 0
239.86952 -39.787674 -0.37636 0 250 0 2.9223313 1.0939777 2.9119039 0
241.82536 -40.785294 -0.36812991 0 250 0 2.9209681 1.0908898 2.9100149 0
243.85089 -41.7882 -0.34268871 0 250 0 2.9202285 1.0876013 2.9072306 0
245.78889 -42.769405 -0.33493188 0 250 0 2.9196112 1.0842907 2.9047086 0
247.72156 -43.740025 -0.3253285 0 250 0 2.9185691 1.0806768 2.9035439 0
249.65448 -44.724957 -0.30970338 0 250 0 2.9219458 1.0770023 2.9059389 0
251.52066 -45.671715 -0.29354107 0 250 0 2.9254644 1.0733776 2.9094708 0
253.46536 -46.694973 -0.28704211 0 250 0 2.9266629 1.0695596 2.9099026 0
255.42319 -47.659985 -0.25442895 0 250 0 2.9300377 1.0654842 2.9123094 0
257.39133 -48.750076 -0.26086193 0 250 0 2.9344172 1.063432 2.9167993 0
259.40887 -49.819458 -0.26173946 0 250 0 2.9327068 1.0600374 2.9153223 0
261.41107 -50.980324 -0.26160023 0 250 0 2.9289446 1.0582241 2.9125035 0
263.45712 -52.085007 -0.24270792 0 250 0 2.9280453 1.0555545 2.9118118 0
265.52792 -53.227455 -0.22918418 0 250 0 2.928961 1.0531833 2.9132788 0
267.51935 -54.317482 -0.22068784 0 250 0 2.928741 1.0506368 2.9142556 0
269.55878 -55.384987 -0.19038604 0 250 0 2.9281619 1.0467334 2.9135292 0
271.55676 -56.490337 -0.18611673 0 250 0 2.927989 1.0442291 2.9141495 0
273.62732 -57.686272 -0.16580769 0 250 0 2.9314053 1.0423515 2.9166319 0
275.69983 -58.842373 -0.15577304 0 250 0 2.9359186 1.0393804 2.9185972 0
277.70981 -59.995487 -0.1383913 0 250 0 2.9398139 1.036298 2.9230902 0
279.77252 -61.170155 -0.12696865 0 250 0 2.9429979 1.0317501 2.9280992 0
281.82413 -62.342602 -0.097713254 0 250 0 2.948118 1.0263114 2.9356172 0
283.78278 -63.475521 -0.099961549 0 250 0 2.9496872 1.0212594 2.9393215 0
285.82285 -64.708076 -0.073482886 0 250 0 2.9505126 1.0164453 2.9402657 0
287.87952 -65.984535 -0.043244552 0 250 0 2.9471829 1.0115833 2.9359162 0
289.95084 -67.245354 -0.011668581 0 250 0 2.9476931 1.0066735 2.9359484 0
292.02951 -68.469856 0.027274111 0 250 0 2.9475901 1.0011135 2.9361622 0
294.06039 -69.708549 0.055899624 0 250 0 2.9461977 0.99669939 2.93613 0
296.0899 -70.97348 0.081343435 0 250 0 2.9499187 0.99211448 2.9418848 0
298.08356 -72.211166 0.098899037 0 250 0 2.9522994 0.98712391 2.9447539 0
300.08899 -73.486946 0.12420306 0 250 0 2.9519248 0.98204833 2.9445138 0
302.18243 -74.827744 0.17316227 0 250 0 2.9500904 0.97656345 2.943228 0
304.14871 -76.19397 0.19791837 0 250 0 2.9486299 0.97304392 2.9429677 0
306.13187 -77.509125 0.24861336 0 250 0 2.9517863 0.96962363 2.9469609 0
308.1066 -78.712967 0.29022512 0 250 0 2.9535806 0.96372008 2.950413 0
310.08258 -80.053764 0.33015484 0 250 0 2.9524813 0.96048969 2.9505432 0
312.12888 -81.428238 0.39054289 0 250 0 2.957931 0.95760232 2.9560497 0
314.14755 -82.786591 0.43631086 0 250 0 2.9645755 0.95488101 2.9624636 0
316.16721 -84.172707 0.48868284 0 250 0 2.9714746 0.95177037 2.9691539 0
318.11182 -85.520737 0.53126991 0 250 0 2.9724119 0.94854474 2.9722433 0
320.07541 -86.897438 0.57183307 0 250 0 2.9706409 0.94439268 2.9719007 0
322.02563 -88.252808 0.6035071 0 250 0 2.971267 0.93973035 2.972934 0
323.99268 -89.63485 0.6515829 0 250 0 2.9753628 0.93622303 2.9780798 0
325.93982 -91.015762 0.70022166 0 250 0 2.974668 0.9327963 2.9809284 0
327.9024 -92.430832 0.77659768 0 250 0 2.9755905 0.9289782 2.9835908 0
329.80292 -93.895866 0.86408019 0 250 0 2.9770312 0.92517173 2.9853575 0
331.737 -95.315163 0.92425287 0 250 0 2.9782891 0.92179906 2.9867475 0
333.85229 -96.845169 0.99288797 0 250 0 2.9776049 0.91803306 2.9866791 0
335.96045 -98.430382 1.0846801 0 250 0 2.9791667 0.91486174 2.9891024 0
337.90219 -99.92083 1.1866583 0 250 0 2.9845824 0.91248453 2.9947734 0
339.78131 -101.32552 1.229353 0 250 0 3.0017805 0.91029936 3.0126319 0
341.78885 -102.84233 1.3078446 0 250 0 3.0208673 0.90737033 3.0246964 0
343.71606 -104.3271 1.3395536 0 250 0 3.0132279 0.90282446 3.0084448 0
345.67838 -105.90936 1.4137237 0 250 0 3.0003657 0.90057981 2.9974074 0
347.59555 -107.41389 1.4682705 0 250 0 2.9906402 0.89822292 2.9990606 0
349.65283 -108.95838 1.56916 0 250 0 2.990591 0.89501607 3.0096369 0
351.54904 -110.46218 1.7072502 0 250 0 2.9951284 0.89303195 3.0184808 0
353.55518 -111.86279 1.8613472 0 250 0 2.9981122 0.8883664 3.021507 0
355.43777 -113.39543 1.9636697 0 250 0 2.9947863 0.88501221 3.0139544 0
357.26965 -114.82957 2.0596771 0 250 0 2.9947667 0.88156283 3.0069883 0
359.07645 -116.30314 2.1161139 0 250 0 2.9969254 0.87838697 3.0061593 0
360.8425 -117.69446 2.1566556 0 250 0 2.9970038 0.87412298 3.0063179 0
362.68759 -119.16685 2.230876 0 250 0 2.99563 0.87004393 3.0063765 0
364.84097 -121.32214 2.3153465 0 250 0 2.9941707 0.86732018 3.00634 0
367.00455 -123.09023 2.4187775 0 250 0 2.9936361 0.86448574 3.0055742 0
369.33221 -125.02911 2.5592225 0 250 0 2.9930153 0.86296326 3.0047681 0
371.23038 -126.63383 2.6638649 0 250 0 2.992137 0.86159003 3.0024111 0
373.08557 -128.18123 2.7509511 0 250 0 2.9892042 0.86010873 3.000463 0
375.01056 -129.84215 2.8611271 0 250 0 2.9856594 0.85916096 2.9987116 0
376.79785 -131.37662 2.9360499 0 250 0 2.9807699 0.85742772 2.9945929 0
378.74274 -132.98416 3.0262017 0 250 0 2.9833174 0.85633641 2.9961703 0
380.60959 -134.58801 3.1017005 0 250 0 2.9915342 0.85565478 3.0028121 0
382.38101 -136.10886 3.1671588 0 250 0 2.9951849 0.85434407 3.0057566 0
384.22681 -137.68077 3.2332904 0 250 0 2.9958148 0.85287917 3.0066981 0
386.00296 -139.20259 3.3035142 0 250 0 2.9995301 0.85241467 3.011759 0
387.82974 -140.77466 3.414222 0 250 0 3.0042379 0.85199732 3.0155065 0
389.59503 -142.28522 3.4773705 0 250 0 3.0055041 0.85110664 3.0170164 0
391.50995 -143.9164 3.5272632 0 250 0 3.0017281 0.85002661 3.0155511 0
393.36578 -145.51141 3.6039886 0 250 0 2.993798 0.84996772 3.0100157 0
395.17914 -147.08478 3.7009614 0 250 0 2.981952 0.85047293 3.0018132 0
396.96307 -148.6656 3.8070817 0 250 0 2.9731779 0.85149789 2.9957857 0
399.07059 -150.34802 3.8815737 0 250 0 2.9834571 0.85529041 3.007242 0
400.9819 -151.94286 3.9977822 0 250 0 2.996732 0.85760236 3.0175061 0
402.94928 -153.58258 4.0819316 0 250 0 3.0039308 0.86088926 3.0252523 0
404.82034 -155.12181 4.1562781 0 250 0 3.0073135 0.86407518 3.0278461 0
406.72928 -156.73322 4.2774448 0 250 0 3.0037212 0.86757582 3.0232594 0
408.62051 -158.31197 4.3623123 0 250 0 3.0033915 0.87182057 3.0230072 0
410.43201 -159.77673 4.4328837 0 250 0 3.0081689 0.87501353 3.0255668 0
412.42212 -161.39217 4.5335789 0 250 0 3.0152469 0.87838209 3.0350099 0
414.32587 -162.89223 4.6065097 0 250 0 3.025192 0.88074607 3.0491166 0
416.01013 -164.33215 4.6883812 0 250 0 3.0356624 0.88271385 3.0608268 0
417.85233 -165.8222 4.7471094 0 250 0 3.0382335 0.88372141 3.063834 0
419.62668 -167.25429 4.8097415 0 250 0 3.0349283 0.88544536 3.0614803 0
422.39862 -169.62703 4.9639077 0 250 0 3.0305996 0.88794404 3.0594749 0
424.17468 -171.0536 5.0560346 0 250 0 3.0321615 0.88987726 3.0633457 0
426.0123 -172.511 5.1415553 0 250 0 3.03613 0.89115012 3.0665441 0
428.10291 -174.08739 5.2624769 0 250 0 3.0400181 0.89262885 3.0688126 0
429.93597 -175.52991 5.3320794 0 250 0 3.0407801 0.89407951 3.0679626 0
431.92969 -177.11258 5.406548 0 250 0 3.0372436 0.89544064 3.0648005 0
433.86877 -178.63347 5.4914975 0 250 0 3.0340879 0.89652604 3.0625319 0
435.89917 -180.29065 5.5744677 0 250 0 3.033473 0.89795566 3.0617869 0
438.11633 -182.34309 5.7523718 0 250 0 3.0342617 0.89954817 3.0627785 0
440.3335 -184.30309 5.7621846 0 250 0 3.032831 0.90096116 3.0627222 0
442.65582 -186.2226 5.9379444 0 250 0 3.0337436 0.90243196 3.0640488 0
444.62625 -187.71179 6.0149636 0 250 0 3.0347648 0.90322584 3.0637097 0
446.4906 -189.1767 6.1026235 0 250 0 3.0356686 0.90489775 3.0631254 0
448.30759 -190.57018 6.1808853 0 250 0 3.0326061 0.90542811 3.0597777 0
450.48593 -192.18541 6.2712731 0 250 0 3.0319071 0.905918 3.0606019 0
452.34464 -193.59833 6.3653235 0 250 0 3.034306 0.90626955 3.0637197 0
454.51926 -195.14368 6.4681053 0 250 0 3.0356729 0.90619695 3.0655065 0
456.54016 -196.70441 6.5286794 0 250 0 3.0357909 0.9061144 3.0656886 0
458.53809 -198.26305 6.6044989 0 250 0 3.0353799 0.90580255 3.065182 0
460.45953 -199.7469 6.7030048 0 250 0 3.0340753 0.90553766 3.0653601 0
462.30786 -201.19023 6.7919426 0 250 0 3.0335093 0.9057548 3.0664108 0
464.14905 -202.61407 6.872654 0 250 0 3.0337303 0.90592498 3.0667856 0
466.08658 -204.0997 6.9373121 0 250 0 3.0354078 0.90579319 3.0686781 0
468.46997 -206.15788 7.1459889 0 250 0 3.0370197 0.90592718 3.0689535 0
470.45996 -207.65587 7.2290115 0 250 0 3.0365956 0.90591019 3.0684218 0
473.00601 -209.82919 7.3692088 0 250 0 3.037066 0.9062885 3.0690289 0
474.78241 -211.20171 7.4205651 0 250 0 3.0363066 0.90595776 3.0680852 0
476.61893 -212.6125 7.4900832 0 250 0 3.0382068 0.90604961 3.0700147 0
479.62424 -214.75226 7.6278348 0 250 0 3.038084 0.90619785 3.0710683 0
481.2688 -216.02776 7.699873 0 250 0 3.0362923 0.90645605 3.0705521 0
483.65347 -217.86536 7.7987247 0 250 0 3.0346501 0.90674847 3.0702209 0
486.05511 -219.73111 7.9109502 0 250 0 3.0349813 0.90687549 3.0693302 0
488.03009 -221.18448 8.0022945 0 250 0 3.0337026 0.90659398 3.0676594 0
491.36713 -223.21852 8.1881847 0 250 0 3.0333655 0.90622258 3.0674512 0
493.08096 -224.44829 8.2524376 0 250 0 3.0335279 0.90628672 3.0687616 0
494.98322 -225.94865 8.3670521 0 250 0 3.0349901 0.90645576 3.0705657 0
496.72372 -227.32544 8.4236078 0 250 0 3.0361841 0.90646994 3.0720329 0
498.84445 -229.16483 8.5098495 0 250 0 3.0347209 0.90666735 3.0720241 0
500.91898 -230.76201 8.6490593 0 250 0 3.0330255 0.90661013 3.0712543 0
502.88507 -232.29671 8.76579 0 250 0 3.0340016 0.90652639 3.0726254 0
504.69061 -233.68608 8.839901 0 250 0 3.0374331 0.90634161 3.0745225 0
506.55283 -235.14803 8.9434137 0 250 0 3.0408201 0.90644675 3.0754151 0
508.35205 -236.53876 8.9995785 0 250 0 3.0407441 0.90651304 3.0755978 0
510.21466 -237.97803 9.077734 0 250 0 3.0371022 0.90638489 3.0741808 0
512.05933 -239.41435 9.19168 0 250 0 3.0350552 0.90658545 3.0731444 0
513.96252 -240.87503 9.2658796 0 250 0 3.0338113 0.90707487 3.071595 0
515.89081 -242.41081 9.3838549 0 250 0 3.0351033 0.90814167 3.0714433 0
517.55872 -243.69272 9.4591942 0 250 0 3.0329325 0.90773469 3.0683992 0
519.43701 -245.14313 9.563818 0 250 0 3.0304704 0.90823585 3.0656803 0
521.5697 -246.86444 9.6764364 0 250 0 3.0280716 0.90880752 3.0643888 0
523.64734 -248.452 9.7344751 0 250 0 3.0251906 0.90900064 3.0627408 0
525.61865 -249.98323 9.8564167 0 250 0 3.025593 0.909428 3.0628583 0
527.54639 -251.45284 9.9714327 0 250 0 3.0245748 0.90987569 3.0615516 0
529.3877 -252.85223 10.055187 0 250 0 3.0229518 0.90992844 3.0612788 0
531.19562 -254.20688 10.142694 0 250 0 3.0251384 0.9106586 3.0650892 0
533.4754 -256.15625 10.346399 0 250 0 3.0273118 0.91135699 3.0679898 0
535.76166 -257.81662 10.442842 0 250 0 3.0286882 0.91142327 3.0679104 0
538.18726 -259.67981 10.569101 0 250 0 3.0270829 0.91254288 3.0650082 0
540.24097 -261.19891 10.665319 0 250 0 3.0260515 0.91249895 3.0634191 0
542.12048 -262.62823 10.770205 0 250 0 3.0244777 0.91294277 3.0622313 0
544.28271 -264.34579 10.900412 0 250 0 3.0232472 0.91382056 3.0622854 0
546.12787 -265.79919 11.003529 0 250 0 3.0231493 0.91536808 3.0606153 0
548.34241 -267.58429 11.139976 0 250 0 3.0238304 0.91603434 3.0612142 0
550.44122 -269.41058 11.222889 0 250 0 3.0235424 0.91709793 3.0608399 0
552.52356 -270.86237 11.35987 0 250 0 3.0243039 0.9174608 3.0624523 0
554.58759 -272.47491 11.492252 0 250 0 3.02474 0.917678 3.0630374 0
556.7561 -274.16849 11.625786 0 250 0 3.026253 0.91807258 3.0658851 0
558.60944 -275.53348 11.735575 0 250 0 3.0286701 0.91837096 3.0686569 0
560.5545 -276.93466 11.841892 0 250 0 3.0304272 0.91826284 3.0691328 0
562.89148 -278.6702 12.000294 0 250 0 3.0291264 0.91805059 3.0676227 0
564.81207 -280.10812 12.10288 0 250 0 3.0278552 0.91780192 3.0678086 0
566.68213 -281.51904 12.188769 0 250 0 3.0276322 0.91776335 3.069191 0
568.57983 -282.91837 12.321147 0 250 0 3.0302494 0.9177193 3.0706303 0
570.48578 -284.34573 12.412531 0 250 0 3.0308046 0.91741443 3.0693111 0
572.36749 -285.76813 12.515301 0 250 0 3.0331702 0.91794604 3.0701902 0
574.35065 -287.2326 12.632421 0 250 0 3.0333741 0.91795629 3.0702775 0
576.63593 -289.0899 12.760267 0 250 0 3.0317233 0.91777223 3.069797 0
578.75543 -290.58087 12.871835 0 250 0 3.0299706 0.91747546 3.069278 0
580.61505 -291.96887 12.98882 0 250 0 3.0299811 0.91732156 3.0693903 0
583.11499 -294.30957 13.125506 0 250 0 3.0305312 0.91864508 3.0700142 0
584.7774 -295.54321 13.211614 0 250 0 3.0331407 0.91895133 3.0724084 0
586.64319 -296.94492 13.318966 0 250 0 3.032927 0.91909093 3.0722146 0
588.58698 -298.39511 13.428348 0 250 0 3.0338025 0.91930503 3.0732927 0
590.49127 -299.79718 13.53161 0 250 0 3.0339601 0.91963857 3.0737901 0
592.99579 -301.61609 13.678787 0 250 0 3.0360858 0.91982555 3.0762048 0
595.42535 -303.4393 13.811126 0 250 0 3.0386131 0.91996258 3.0774357 0
597.54022 -305.05911 13.948162 0 250 0 3.0383532 0.92062318 3.0770283 0
599.44641 -306.47031 14.026461 0 250 0 3.0364661 0.92091542 3.0761533 0
601.45721 -307.99594 14.118383 0 250 0 3.0362771 0.92157125 3.0763137 0
603.45819 -309.461 14.227417 0 250 0 3.0384157 0.92177844 3.0771654 0
605.78357 -311.15222 14.349906 0 250 0 3.0389326 0.92184895 3.0761855 0
607.57532 -312.47165 14.449377 0 250 0 3.0383985 0.9225319 3.0754735 0
609.60846 -314.05032 14.576766 0 250 0 3.0367367 0.92342168 3.0750368 0
612.15924 -316.05573 14.748063 0 250 0 3.0356157 0.92364985 3.0740342 0
614.39124 -318.09027 14.927197 0 250 0 3.0363154 0.92430937 3.0748029 0
616.30109 -319.48151 15.038903 0 250 0 3.0369973 0.924927 3.0755627 0
618.1452 -320.84991 15.117996 0 250 0 3.0374522 0.92563188 3.0757823 0
620.5022 -322.52939 15.232531 0 250 0 3.0391665 0.92499357 3.0760145 0
622.74274 -324.24323 15.315732 0 250 0 3.0391138 0.92499602 3.0750105 0
625.15747 -326.1362 15.353703 0 250 0 3.0387468 0.92496127 3.0746269 0
627.09814 -327.51266 15.480046 0 250 0 3.0396395 0.92456329 3.0752227 0
629.01483 -328.95074 15.571036 0 250 0 3.0412407 0.9249416 3.0772381 0
630.90314 -330.34259 15.650718 0 250 0 3.0428247 0.92491001 3.0792007 0
632.75897 -331.67911 15.715474 0 250 0 3.0450175 0.92335016 3.0815866 0
634.58142 -333.01532 15.775366 0 250 0 3.0448825 0.92296851 3.0813477 0
636.45886 -334.42844 15.856513 0 250 0 3.0433471 0.92307669 3.0802038 0
638.27148 -335.78488 15.932693 0 250 0 3.0420835 0.92301679 3.0802891 0
640.60144 -337.54901 16.052523 0 250 0 3.0404673 0.92263854 3.0791371 0
642.77148 -339.32043 16.166403 0 250 0 3.040359 0.92237324 3.0790689 0
644.62665 -340.71964 16.256639 0 250 0 3.0421917 0.92235327 3.0795527 0
646.43878 -342.061 16.342087 0 250 0 3.0420353 0.92225963 3.0783784 0
648.328 -343.48035 16.42384 0 250 0 3.0398939 0.92224932 3.0755141 0
650.24457 -344.94238 16.497166 0 250 0 3.0381744 0.9224869 3.0733244 0
651.82623 -346.19012 16.554379 0 250 0 3.0353079 0.92324811 3.0706108 0
654.27869 -347.96832 16.681261 0 250 0 3.035697 0.92372257 3.071017 0
656.87903 -349.60455 16.806942 0 250 0 3.0369146 0.92440099 3.0721564 0
658.84924 -351.06476 16.878281 0 250 0 3.0390666 0.92519635 3.074671 0
660.75848 -352.50735 16.976171 0 250 0 3.0401258 0.92568874 3.0747724 0
662.57141 -353.84677 17.064579 0 250 0 3.0403109 0.92668033 3.0756068 0
664.42328 -355.22177 17.162428 0 250 0 3.0381 0.92745483 3.0745034 0
666.4295 -356.70609 17.266235 0 250 0 3.0355675 0.92821169 3.0728142 0
668.27264 -358.09662 17.33473 0 250 0 3.0354619 0.92912573 3.0725734 0
670.15784 -359.49615 17.417425 0 250 0 3.0353508 0.93045586 3.0709112 0
673.25824 -361.66263 17.622772 0 250 0 3.0375359 0.93134183 3.0719614 0
675.31976 -363.15292 17.77994 0 250 0 3.0394175 0.93225068 3.0722404 0
677.18622 -364.52628 17.857134 0 250 0 3.0385647 0.93295884 3.070606 0
679.23853 -365.97632 17.98369 0 250 0 3.038589 0.93359053 3.0688436 0
681.06012 -367.28128 18.041355 0 250 0 3.0387073 0.93433404 3.069083 0
682.83728 -368.60126 18.092604 0 250 0 3.0411682 0.93571156 3.0728014 0
684.91968 -370.19403 18.216076 0 250 0 3.0439756 0.93722838 3.0761387 0
686.82123 -371.56226 18.30719 0 250 0 3.045625 0.93764293 3.0763812 0
688.92194 -373.01859 18.399105 0 250 0 3.0449712 0.93874657 3.0746417 0
690.56641 -374.25186 18.421598 0 250 0 3.043236 0.93989968 3.0715001 0
692.65161 -375.72928 18.512333 0 250 0 3.0433521 0.94049227 3.0714128 0
694.85858 -377.37277 18.628935 0 250 0 3.0429354 0.94054866 3.0725863 0
696.98474 -378.87106 18.713516 0 250 0 3.0436981 0.94036537 3.0751662 0
699.11987 -380.57434 18.850853 0 250 0 3.047473 0.94103497 3.0779464 0
701.26666 -382.14505 18.921696 0 250 0 3.0492556 0.94147754 3.0784278 0
703.21179 -383.55219 18.996302 0 250 0 3.0460739 0.94224429 3.0756164 0
705.08032 -384.86429 19.074913 0 250 0 3.0421867 0.94331563 3.0722656 0
707.0238 -386.28543 19.174126 0 250 0 3.0395925 0.94440365 3.0692754 0
709.14789 -387.75089 19.255228 0 250 0 3.0393536 0.94459319 3.0671394 0
711.01605 -389.06003 19.339117 0 250 0 3.0415757 0.94490105 3.0665951 0
712.80115 -390.2406 19.355284 0 250 0 3.0427909 0.94593632 3.0659215 0
714.61603 -391.54468 19.406395 0 250 0 3.0438526 0.94718432 3.0672295 0
716.54297 -392.90961 19.460518 0 250 0 3.0424356 0.94835454 3.0669584 0
718.87286 -394.54102 19.568119 0 250 0 3.042033 0.94937807 3.0682745 0
721.50012 -396.36908 19.67947 0 250 0 3.0447104 0.95050311 3.0702097 0
723.82635 -398.01962 19.795073 0 250 0 3.0453084 0.95182723 3.0709708 0
726.4035 -400.01889 19.914881 0 250 0 3.0449343 0.95296782 3.0704889 0
728.29944 -401.0871 19.885225 0 250 0 3.0452359 0.95359373 3.0708973 0
730.71423 -402.69189 19.802038 0 250 0 3.0461512 0.95443028 3.0719969 0
732.70001 -404.19217 19.80134 0 250 0 3.0440125 0.95454943 3.0682583 0
734.74066 -405.61948 19.859913 0 250 0 3.0421872 0.95492822 3.0671847 0
736.71783 -406.71716 19.953619 0 250 0 3.0419488 0.95462495 3.0684505 0
738.703 -408.18719 19.996984 0 250 0 3.043669 0.95616698 3.071322 0
740.70941 -409.57715 20.058247 0 250 0 3.0465782 0.95615435 3.0738716 0
743.05115 -411.24594 20.159025 0 250 0 3.048775 0.95568192 3.0748041 0
745.37726 -412.77155 20.280121 0 250 0 3.0488789 0.95495492 3.0749135 0
746.86401 -413.59244 20.296337 0 250 0 3.0486872 0.95447975 3.0747039 0
749.51044 -414.94638 20.350897 0 250 0 3.0479114 0.95267361 3.0737827 0
751.42267 -416.26117 20.418596 0 250 0 3.0474727 0.95159203 3.073221 0
753.45288 -417.63858 20.473356 0 250 0 3.0463507 0.95051503 3.0734279 0
755.51709 -419.08511 20.546608 0 250 0 3.0471263 0.95040381 3.0739956 0
757.56531 -420.5289 20.604887 0 250 0 3.0499332 0.95036149 3.0756495 0
759.43414 -421.81879 20.682636 0 250 0 3.0525904 0.95047104 3.0753145 0
761.37915 -423.15729 20.730808 0 250 0 3.0533223 0.9509778 3.0745513 0
763.59406 -424.55896 20.804922 0 250 0 3.0522714 0.95041782 3.0738218 0
765.69525 -425.93024 20.855841 0 250 0 3.0517521 0.95101953 3.0743101 0
768.01971 -427.33463 20.966185 0 250 0 3.0501962 0.95082593 3.0723717 0
770.44324 -429.03735 21.064781 0 250 0 3.0490611 0.95199686 3.0709972 0
773.00922 -431.32785 21.147614 0 250 0 3.047277 0.95372039 3.0688133 0
774.86121 -432.90906 21.222311 0 250 0 3.0461907 0.95584792 3.0678236 0
777.52722 -434.67813 21.420319 0 250 0 3.0457025 0.95697832 3.06776 0
779.69904 -436.16034 21.486305 0 250 0 3.0455375 0.95803809 3.0675163 0
781.65753 -437.52954 21.547667 0 250 0 3.0437036 0.9598127 3.0662172 0
783.80023 -439.05338 21.581337 0 250 0 3.0427287 0.96156681 3.0666168 0
785.82849 -440.44193 21.637213 0 250 0 3.0421684 0.96259439 3.0674489 0
787.72198 -441.74811 21.696438 0 250 0 3.0444291 0.96422452 3.0695176 0
789.71301 -443.12057 21.75544 0 250 0 3.0444012 0.96519518 3.069418 0
791.38989 -444.23834 21.775696 0 250 0 3.0431116 0.96633363 3.067795 0
794.45099 -447.79129 22.05547 0 250 0 3.0425289 0.96856672 3.0674851 0
797.8114 -450.35538 22.136372 0 250 0 3.0423524 0.9683063 3.0672805 0
799.45734 -451.56302 22.144444 0 250 0 3.0413899 0.96841937 3.0692544 0
801.3902 -452.88312 22.222727 0 250 0 3.0434778 0.96863467 3.0718703 0
803.31158 -454.18909 22.295918 0 250 0 3.0469031 0.96875668 3.0750482 0
805.46289 -455.62402 22.381849 0 250 0 3.0485902 0.96876276 3.075315 0
807.42401 -456.97772 22.457497 0 250 0 3.0474951 0.97007912 3.0742817 0
809.19495 -458.2037 22.540348 0 250 0 3.0474892 0.97139066 3.0755119 0
811.60693 -459.7699 22.648722 0 250 0 3.0477891 0.971717 3.0743973 0
813.9751 -461.24335 22.742411 0 250 0 3.0490294 0.97226191 3.0742054 0
815.77344 -462.43805 22.772417 0 250 0 3.04443 0.97235227 3.0700324 0
817.83679 -463.86023 22.870638 0 250 0 3.0405774 0.97225988 3.06794 0
819.78284 -465.15057 22.925863 0 250 0 3.0362916 0.97205138 3.0656729 0
821.97424 -466.65063 23.003599 0 250 0 3.0347245 0.97192764 3.0653589 0
824.14465 -468.0246 23.119585 0 250 0 3.0362074 0.97312677 3.0674284 0
825.90704 -469.19162 23.180283 0 250 0 3.0359259 0.974181 3.0658011 0
827.26886 -469.80728 23.543219 0 250 0 3.0343804 0.97470075 3.0623858 0
829.14026 -471.04617 23.600851 0 250 0 3.0319214 0.97578007 3.0592482 0
831.25525 -472.46332 23.66036 0 250 0 3.0287945 0.97742915 3.0563419 0
832.95679 -473.59036 23.708174 0 250 0 3.0277138 0.97960377 3.0564809 0
832.78094 -473.45279 23.68856 0 250 0 3.027051 0.98086959 3.0573795 0
832.57849 -473.30594 23.671083 0 250 0 3.0255811 0.98160541 3.0573134 0
832.37274 -473.15302 23.654354 0 250 0 3.027621 0.98275417 3.0597973 0
832.14087 -472.99692 23.644976 0 250 0 3.028945 0.98388714 3.060914 0
831.93164 -472.84375 23.645222 0 250 0 3.0288727 0.98549271 3.060827 0
833.50037 -473.67072 23.559265 0 250 0 3.0271809 0.98640639 3.0588565 0
835.71222 -475.06277 23.627501 0 250 0 3.0270362 0.98743051 3.0586317 0
837.44934 -476.2562 23.661364 0 250 0 3.0265601 0.98921597 3.0579381 0
837.18164 -476.08679 23.638212 0 250 0 3.0248129 0.99044621 3.0575578 0
836.92181 -475.91678 23.624546 0 250 0 3.0196259 0.99119329 3.0528288 0
836.80499 -475.7468 23.605949 0 250 0 3.0203288 0.99202418 3.0548701 0
837.13568 -476.19568 23.628389 0 250 0 3.019614 0.99373811 3.0542905 0
837.72083 -477.10327 23.702415 0 250 0 3.0181041 0.99486589 3.0520008 0
837.71594 -477.12469 23.707132 0 250 0 3.0183735 0.99501395 3.0523076 0
837.67084 -477.09155 23.699726 0 250 0 3.0182536 0.99555296 3.0521054 0
839.17377 -477.60202 23.644545 0 250 0 3.0172715 0.99532425 3.0506372 0
841.08179 -478.78372 23.694223 0 250 0 3.0186248 0.99557245 3.0505559 0
843.28546 -480.01364 23.781925 0 250 0 3.0165005 0.99531484 3.0493228 0
844.17993 -480.47577 23.788574 0 250 0 3.012604 0.99572057 3.0480103 0
843.90436 -480.29047 23.778183 0 250 0 3.014487 0.99600738 3.0502429 0
843.84943 -480.24762 23.765091 0 250 0 3.0251253 0.99619043 3.0545819 0
843.86279 -480.21808 23.743645 0 250 0 3.0293674 0.99635148 3.054842 0
843.81842 -480.18533 23.7166 0 250 0 3.0242243 0.99712533 3.053931 0
843.77722 -480.15918 23.69446 0 250 0 3.0154889 0.99632275 3.0510991 0
0 0 0 1 0 0 0 1 0 0 0 1 0 0 0 0 0 483 1 0 0
