ply
format ascii 1.0
comment PCL generated
element vertex 10
property float x
property float y
property float z
property uchar red
property uchar green
property uchar blue
property float nx
property float ny
property float nz
property float curvature
element camera 1
property float view_px
property float view_py
property float view_pz
property float x_axisx
property float x_axisy
property float x_axisz
property float y_axisx
property float y_axisy
property float y_axisz
property float z_axisx
property float z_axisy
property float z_axisz
property float focal
property float scalex
property float scaley
property float centerx
property float centery
property int viewportx
property int viewporty
property float k1
property float k2
end_header
6.0868039 0.17049718 0.021820644 0 0 250 0 0 0 0
6.9133048 0.20364532 0.027162608 0 0 250 0 0 0 0
7.741437 0.23575479 0.041458979 0 0 250 0 0 0 0
8.5802164 0.26760459 0.051231503 0 0 250 0 0 0 0
9.4093685 0.30774322 0.05450958 0 0 250 0 0 0 0
10.250059 0.34910408 0.056061696 0 0 250 0 0 0 0
11.112352 0.38675374 0.063030303 0 0 250 0 0 0 0
11.975939 0.44481286 0.073258333 0 0 250 0 0 0 0
12.855556 0.49277359 0.077144019 0 0 250 0 0 0 0
13.737743 0.553523 0.087588951 0 0 250 0 0 0 0
0 0 0 1 0 0 0 1 0 0 0 1 0 0 0 0 0 10 1 0 0
