ply
format ascii 1.0
comment PCL generated
element vertex 269
property float x
property float y
property float z
property uchar red
property uchar green
property uchar blue
property float nx
property float ny
property float nz
property float curvature
element camera 1
property float view_px
property float view_py
property float view_pz
property float x_axisx
property float x_axisy
property float x_axisz
property float y_axisx
property float y_axisy
property float y_axisz
property float z_axisx
property float z_axisy
property float z_axisz
property float focal
property float scalex
property float scaley
property float centerx
property float centery
property int viewportx
property int viewporty
property float k1
property float k2
end_header
0.00044483261 2.625299 -0.042033181 0 250 0 0 0 0 0
0.0020375811 3.94173 -0.063028008 0 250 0 0 0 0 0
0.0027778919 5.2610168 -0.084837608 0 250 0 0 0 0 0
0.0041579278 6.5816379 -0.1014678 0 250 0 0 0 0 0
0.007571022 7.9087749 -0.1165874 0 250 0 0 0 0 0
0.0083238184 9.2389622 -0.1328035 0 250 0 0 0 0 0
0.0077283392 10.56963 -0.1497649 0 250 0 0 0 0 0
0.0067809182 11.90426 -0.1634547 0 250 0 0 0 0 0
0.0034193951 13.24208 -0.17674799 0 250 0 0 0 0 0
-0.001862182 14.58048 -0.1959202 0 250 0 0 0 0 0
-0.0058517549 15.93066 -0.21776021 0 250 0 0 0 0 0
-0.0042677149 17.282221 -0.236414 0 250 0 0 0 0 0
0.00048278901 18.634689 -0.25374749 0 250 0 0 0 0 0
0.0050060861 19.9867 -0.2699101 0 250 0 0 0 0 0
0.0041346862 21.34127 -0.29310921 0 250 0 0 0 0 0
-0.00076547451 22.70575 -0.32222971 0 250 0 0 0 0 0
-0.0073693241 24.0721 -0.34681189 0 250 0 0 0 0 0
-0.0097192638 25.448681 -0.36874241 0 250 0 0 0 0 0
-0.0050611808 26.820299 -0.38713989 0 250 0 0 0 0 0
0.0019622729 28.194719 -0.40993851 0 250 0 0 0 0 0
0.0052815932 29.57012 -0.43289769 0 250 0 0 0 0 0
0.0079390239 30.949841 -0.45911789 0 250 0 0 0 0 0
0.006827076 32.335312 -0.48501331 0 250 0 0 0 0 0
0.0083051668 33.7178 -0.51223671 0 250 0 0 0 0 0
0.0101734 35.110828 -0.54311597 0 250 0 0 0 0 0
0.0121194 36.507889 -0.57462329 0 250 0 0 0 0 0
0.01511478 37.905891 -0.5999006 0 250 0 0 0 0 0
0.016968509 39.301559 -0.62385261 0 250 0 0 0 0 0
0.01942949 40.704369 -0.64371198 0 250 0 0 0 0 0
0.019163441 42.111 -0.67072457 0 250 0 0 0 0 0
0.02134431 43.518581 -0.69413197 0 250 0 0 0 0 0
0.026223641 44.928211 -0.71785808 0 250 0 0 0 0 0
0.030860361 46.34127 -0.739025 0 250 0 0 0 0 0
0.034080312 47.757038 -0.76103151 0 250 0 0 0 0 0
0.033592209 49.17963 -0.78398561 0 250 0 0 0 0 0
0.031755321 50.60218 -0.80563498 0 250 0 0 0 0 0
0.02895795 52.028309 -0.82654083 0 250 0 0 0 0 0
0.025369771 53.457161 -0.84538358 0 250 0 0 0 0 0
0.02082938 54.88464 -0.8668316 0 250 0 0 0 0 0
0.0168087 56.316601 -0.88687998 0 250 0 0 0 0 0
0.0132291 57.745499 -0.90724421 0 250 0 0 0 0 0
0.01007535 59.173649 -0.9249469 0 250 0 0 0 0 0
0.006524255 60.60318 -0.9446035 0 250 0 0 0 0 0
0.0027642101 62.02795 -0.96474838 0 250 0 0 0 0 0
-0.001308243 63.451981 -0.98781002 0 250 0 0 0 0 0
-0.002873604 64.871872 -1.008175 0 250 0 0 0 0 0
-0.005953934 66.289398 -1.0297 0 250 0 0 0 0 0
-0.01002031 67.70311 -1.050203 0 250 0 0 0 0 0
-0.0193644 69.115929 -1.076075 0 250 0 0 0 0 0
-0.027022749 70.529999 -1.097831 0 250 0 0 0 0 0
-0.03513442 71.939781 -1.1182311 0 250 0 0 0 0 0
-0.0421465 73.339859 -1.135987 0 250 0 0 0 0 0
-0.046775889 74.742447 -1.153311 0 250 0 0 0 0 0
-0.053276781 76.144501 -1.1772259 0 250 0 0 0 0 0
-0.05458511 77.540787 -1.197942 0 250 0 0 0 0 0
-0.05287325 78.934959 -1.218035 0 250 0 0 0 0 0
-0.049542502 80.325447 -1.236655 0 250 0 0 0 0 0
-0.048832119 81.710953 -1.258287 0 250 0 0 0 0 0
-0.048388071 83.097214 -1.278676 0 250 0 0 0 0 0
-0.052690729 84.483673 -1.3000309 0 250 0 0 0 0 0
-0.060720041 85.865623 -1.320245 0 250 0 0 0 0 0
-0.075180419 87.250153 -1.343695 0 250 0 0 0 0 0
-0.084376201 88.629089 -1.362982 0 250 0 0 0 0 0
-0.09813229 90.00634 -1.38264 0 250 0 0 0 0 0
-0.1110475 91.375237 -1.399781 0 250 0 0 0 0 0
-0.1283351 92.74128 -1.418059 0 250 0 0 0 0 0
-0.14546029 94.103394 -1.435964 0 250 0 0 0 0 0
-0.16970479 95.460762 -1.45619 0 250 0 0 0 0 0
-0.19134089 96.81382 -1.476213 0 250 0 0 0 0 0
-0.21203139 98.165451 -1.496478 0 250 0 0 0 0 0
-0.23440561 99.515129 -1.517683 0 250 0 0 0 0 0
-0.2485715 100.8603 -1.534999 0 250 0 0 0 0 0
-0.26940209 102.2054 -1.556018 0 250 0 0 0 0 0
-0.28676009 103.5459 -1.575247 0 250 0 0 0 0 0
-0.3053256 104.8845 -1.596046 0 250 0 0 0 0 0
-0.3153955 106.2208 -1.613299 0 250 0 0 0 0 0
-0.33430859 107.5653 -1.638432 0 250 0 0 0 0 0
-0.35081309 108.9064 -1.661275 0 250 0 0 0 0 0
-0.37377611 110.2446 -1.686739 0 250 0 0 0 0 0
-0.39431489 111.5766 -1.710102 0 250 0 0 0 0 0
-0.41371289 112.905 -1.733997 0 250 0 0 0 0 0
-0.42196831 114.2286 -1.753986 0 250 0 0 0 0 0
-0.4295899 115.5601 -1.775004 0 250 0 0 0 0 0
-0.43347791 116.893 -1.79423 0 250 0 0 0 0 0
-0.43341511 118.2274 -1.811794 0 250 0 0 0 0 0
-0.4306137 119.5613 -1.825847 0 250 0 0 0 0 0
-0.43341461 120.9045 -1.8463219 0 250 0 0 0 0 0
-0.44729319 122.2684 -1.880929 0 250 0 0 0 0 0
-0.45607439 123.6242 -1.91003 0 250 0 0 0 0 0
-0.46225491 124.9835 -1.940325 0 250 0 0 0 0 0
-0.46413291 126.3371 -1.966295 0 250 0 0 0 0 0
-0.47084951 127.6925 -2.006026 0 250 0 0 0 0 0
-0.47180939 129.04961 -2.038343 0 250 0 0 0 0 0
-0.47428 130.407 -2.073189 0 250 0 0 0 0 0
-0.47012541 131.75571 -2.099489 0 250 0 0 0 0 0
-0.46569371 133.1097 -2.127702 0 250 0 0 0 0 0
-0.46510279 134.4614 -2.1629319 0 250 0 0 0 0 0
-0.46611971 135.81461 -2.1983881 0 250 0 0 0 0 0
-0.4644953 137.1606 -2.2263091 0 250 0 0 0 0 0
-0.46457231 138.51241 -2.254854 0 250 0 0 0 0 0
-0.46418071 139.86259 -2.281749 0 250 0 0 0 0 0
-0.4674418 141.21291 -2.3148661 0 250 0 0 0 0 0
-0.4704574 142.56219 -2.341886 0 250 0 0 0 0 0
-0.474702 143.9099 -2.367455 0 250 0 0 0 0 0
-0.4789013 145.2578 -2.3950241 0 250 0 0 0 0 0
-0.4813925 146.6011 -2.4265931 0 250 0 0 0 0 0
-0.48441499 147.9538 -2.4629691 0 250 0 0 0 0 0
-0.48328429 149.30299 -2.4893661 0 250 0 0 0 0 0
-0.48879859 150.6481 -2.5186169 0 250 0 0 0 0 0
-0.49798539 151.9917 -2.5456281 0 250 0 0 0 0 0
-0.51398969 153.3373 -2.5817921 0 250 0 0 0 0 0
-0.5203405 154.6843 -2.6118851 0 250 0 0 0 0 0
-0.51883739 156.0329 -2.641449 0 250 0 0 0 0 0
-0.51048702 157.3829 -2.666163 0 250 0 0 0 0 0
-0.4996047 158.7319 -2.6891501 0 250 0 0 0 0 0
-0.4908894 160.0786 -2.7113831 0 250 0 0 0 0 0
-0.48487589 161.429 -2.7367799 0 250 0 0 0 0 0
-0.48365161 162.77879 -2.7606039 0 250 0 0 0 0 0
-0.4767803 164.1295 -2.7872541 0 250 0 0 0 0 0
-0.468784 165.4807 -2.810667 0 250 0 0 0 0 0
-0.4599264 166.839 -2.8355579 0 250 0 0 0 0 0
-0.44948399 168.2 -2.8619859 0 250 0 0 0 0 0
-0.44244379 169.5602 -2.88656 0 250 0 0 0 0 0
-0.4389717 170.9198 -2.9142399 0 250 0 0 0 0 0
-0.4111543 172.2841 -2.9327309 0 250 0 0 0 0 0
-0.38811201 173.6528 -2.9607711 0 250 0 0 0 0 0
-0.3779301 175.0291 -2.986448 0 250 0 0 0 0 0
-0.3588782 176.4086 -3.008539 0 250 0 0 0 0 0
-0.34053081 177.7852 -3.0139129 0 250 0 0 0 0 0
-0.32140419 179.16071 -3.022953 0 250 0 0 0 0 0
-0.31365451 180.54201 -3.0411229 0 250 0 0 0 0 0
-0.30899951 181.9214 -3.0620999 0 250 0 0 0 0 0
-0.3140564 183.3098 -3.0881579 0 250 0 0 0 0 0
-0.31865579 184.7039 -3.114466 0 250 0 0 0 0 0
-0.31413051 186.0994 -3.1375549 0 250 0 0 0 0 0
-0.30872771 187.49879 -3.1644781 0 250 0 0 0 0 0
-0.30893269 188.9003 -3.1939449 0 250 0 0 0 0 0
-0.30702111 190.30479 -3.221858 0 250 0 0 0 0 0
-0.30300421 191.7128 -3.25053 0 250 0 0 0 0 0
-0.3007558 193.12131 -3.281162 0 250 0 0 0 0 0
-0.29793379 194.5397 -3.3141351 0 250 0 0 0 0 0
-0.29453009 195.9592 -3.3443749 0 250 0 0 0 0 0
-0.29550481 197.38091 -3.384557 0 250 0 0 0 0 0
-0.2998637 198.8011 -3.4193649 0 250 0 0 0 0 0
-0.3150034 200.2242 -3.4713631 0 250 0 0 0 0 0
-0.33219871 201.6573 -3.515079 0 250 0 0 0 0 0
-0.34858081 203.0948 -3.5555761 0 250 0 0 0 0 0
-0.35184321 204.5325 -3.580327 0 250 0 0 0 0 0
-0.34813589 205.9704 -3.6040831 0 250 0 0 0 0 0
-0.3438313 207.4183 -3.628674 0 250 0 0 0 0 0
-0.34219801 208.8679 -3.6508861 0 250 0 0 0 0 0
-0.34296381 210.3232 -3.67436 0 250 0 0 0 0 0
-0.34795099 211.7849 -3.708945 0 250 0 0 0 0 0
-0.3533161 213.2453 -3.7417691 0 250 0 0 0 0 0
-0.3575809 214.7142 -3.778065 0 250 0 0 0 0 0
-0.35748389 216.1864 -3.8099871 0 250 0 0 0 0 0
-0.3559812 217.6615 -3.8370869 0 250 0 0 0 0 0
-0.36048821 219.14191 -3.867619 0 250 0 0 0 0 0
-0.36690471 220.6192 -3.899694 0 250 0 0 0 0 0
-0.37118819 222.1053 -3.9331701 0 250 0 0 0 0 0
-0.37550679 223.5894 -3.9616959 0 250 0 0 0 0 0
-0.3771503 225.0789 -3.9905031 0 250 0 0 0 0 0
-0.37877071 226.56911 -4.017067 0 250 0 0 0 0 0
-0.3785266 228.0602 -4.0481362 0 250 0 0 0 0 0
-0.37866139 229.5511 -4.075078 0 250 0 0 0 0 0
-0.37660861 231.04539 -4.0990438 0 250 0 0 0 0 0
-0.3745701 232.5421 -4.1249938 0 250 0 0 0 0 0
-0.37396261 234.0378 -4.1536241 0 250 0 0 0 0 0
-0.37646919 235.539 -4.1863332 0 250 0 0 0 0 0
-0.37840769 237.0446 -4.2202258 0 250 0 0 0 0 0
-0.38149431 238.5499 -4.253315 0 250 0 0 0 0 0
-0.3829065 240.0603 -4.285388 0 250 0 0 0 0 0
-0.38209239 241.5712 -4.3151031 0 250 0 0 0 0 0
-0.38187969 243.0873 -4.3471379 0 250 0 0 0 0 0
-0.3796393 244.60201 -4.377646 0 250 0 0 0 0 0
-0.377078 246.12309 -4.404696 0 250 0 0 0 0 0
-0.37215719 247.64771 -4.4320221 0 250 0 0 0 0 0
-0.3683885 249.1682 -4.4582191 0 250 0 0 0 0 0
-0.36589441 250.6964 -4.4870629 0 250 0 0 0 0 0
-0.3629857 252.22411 -4.511301 0 250 0 0 0 0 0
-0.35988989 253.757 -4.5357451 0 250 0 0 0 0 0
-0.35652831 255.2885 -4.5584412 0 250 0 0 0 0 0
-0.35189939 256.823 -4.58494 0 250 0 0 0 0 0
-0.3474488 258.36121 -4.611578 0 250 0 0 0 0 0
-0.34079951 259.9003 -4.6376042 0 250 0 0 0 0 0
-0.33467761 261.43521 -4.6622372 0 250 0 0 0 0 0
-0.32913381 262.97311 -4.6865511 0 250 0 0 0 0 0
-0.3253738 264.51129 -4.715745 0 250 0 0 0 0 0
-0.32490459 266.05719 -4.7481732 0 250 0 0 0 0 0
-0.32081789 267.59811 -4.788372 0 250 0 0 0 0 0
-0.31739429 269.1377 -4.8246789 0 250 0 0 0 0 0
-0.31660241 270.67709 -4.8660522 0 250 0 0 0 0 0
-0.31559429 272.21851 -4.9065881 0 250 0 0 0 0 0
-0.31404009 273.76489 -4.9502192 0 250 0 0 0 0 0
-0.3112309 275.30719 -4.9876261 0 250 0 0 0 0 0
-0.31142059 276.85349 -5.0398359 0 250 0 0 0 0 0
-0.30620259 278.3952 -5.0827551 0 250 0 0 0 0 0
-0.30112919 279.9451 -5.1341362 0 250 0 0 0 0 0
-0.28975359 281.49579 -5.1720381 0 250 0 0 0 0 0
-0.27648991 283.0498 -5.2100372 0 250 0 0 0 0 0
-0.25992331 284.60049 -5.2416902 0 250 0 0 0 0 0
-0.24472959 286.14539 -5.2775979 0 250 0 0 0 0 0
-0.2301583 287.69989 -5.3162441 0 250 0 0 0 0 0
-0.2170805 289.2536 -5.3551478 0 250 0 0 0 0 0
-0.2045251 290.8103 -5.3904748 0 250 0 0 0 0 0
-0.1926927 292.3692 -5.4248781 0 250 0 0 0 0 0
-0.1828271 293.93161 -5.4625778 0 250 0 0 0 0 0
-0.1753107 295.5007 -5.5021439 0 250 0 0 0 0 0
-0.16817079 297.0723 -5.542654 0 250 0 0 0 0 0
-0.15716641 298.65021 -5.5732088 0 250 0 0 0 0 0
-0.1498301 300.23669 -5.6056619 0 250 0 0 0 0 0
-0.1436567 301.82111 -5.6380558 0 250 0 0 0 0 0
-0.1362308 303.41299 -5.6740451 0 250 0 0 0 0 0
-0.1245796 305.00949 -5.704927 0 250 0 0 0 0 0
-0.1113075 306.60861 -5.7405629 0 250 0 0 0 0 0
-0.1009905 308.21161 -5.775938 0 250 0 0 0 0 0
-0.096499898 309.81891 -5.821106 0 250 0 0 0 0 0
-0.09324941 311.43311 -5.8630462 0 250 0 0 0 0 0
-0.096584342 313.04449 -5.9077659 0 250 0 0 0 0 0
-0.106523 314.66821 -5.9520292 0 250 0 0 0 0 0
-0.1079811 316.29529 -5.9906878 0 250 0 0 0 0 0
-0.1086696 317.9241 -6.0324259 0 250 0 0 0 0 0
-0.1058419 319.55249 -6.0683622 0 250 0 0 0 0 0
-0.1039698 321.18231 -6.1068449 0 250 0 0 0 0 0
-0.1009179 322.8139 -6.143404 0 250 0 0 0 0 0
-0.098831132 324.4397 -6.1852822 0 250 0 0 0 0 0
-0.096484378 326.06821 -6.2240882 0 250 0 0 0 0 0
-0.094110519 327.6976 -6.2688189 0 250 0 0 0 0 0
-0.084969558 329.32419 -6.305428 0 250 0 0 0 0 0
-0.07442718 330.95081 -6.342113 0 250 0 0 0 0 0
-0.064212307 332.5694 -6.3722439 0 250 0 0 0 0 0
-0.058448952 334.1893 -6.413497 0 250 0 0 0 0 0
-0.054349609 335.8024 -6.4507799 0 250 0 0 0 0 0
-0.049497481 337.4097 -6.4925508 0 250 0 0 0 0 0
-0.045480419 339.02109 -6.5321879 0 250 0 0 0 0 0
-0.042570069 340.62869 -6.5713968 0 250 0 0 0 0 0
-0.03930296 342.24619 -6.6018109 0 250 0 0 0 0 0
-0.036810029 343.85281 -6.6289182 0 250 0 0 0 0 0
-0.03514659 345.45251 -6.652782 0 250 0 0 0 0 0
-0.034547899 347.05539 -6.6776438 0 250 0 0 0 0 0
-0.03707175 348.65509 -6.7081518 0 250 0 0 0 0 0
-0.041563321 350.2532 -6.7372389 0 250 0 0 0 0 0
-0.052610181 351.84781 -6.7730589 0 250 0 0 0 0 0
-0.062770747 353.44641 -6.8058619 0 250 0 0 0 0 0
-0.07506606 355.0379 -6.843564 0 250 0 0 0 0 0
-0.085703559 356.6308 -6.8825521 0 250 0 0 0 0 0
-0.097299889 358.2218 -6.9217629 0 250 0 0 0 0 0
-0.1091014 359.8125 -6.958715 0 250 0 0 0 0 0
-0.1223014 361.40369 -6.995935 0 250 0 0 0 0 0
-0.1322206 362.98901 -7.0340171 0 250 0 0 0 0 0
-0.14199521 364.5867 -7.0727172 0 250 0 0 0 0 0
-0.1552999 366.18381 -7.1123981 0 250 0 0 0 0 0
-0.1668615 367.7811 -7.146884 0 250 0 0 0 0 0
-0.18589111 369.3866 -7.1882901 0 250 0 0 0 0 0
-0.2029185 370.97531 -7.225081 0 250 0 0 0 0 0
-0.2229981 372.61539 -7.2688398 0 250 0 0 0 0 0
-0.2378134 374.22531 -7.306808 0 250 0 0 0 0 0
-0.25198931 375.7811 -7.3449359 0 250 0 0 0 0 0
-0.26258779 377.3873 -7.3793359 0 250 0 0 0 0 0
-0.27040121 378.99289 -7.4144182 0 250 0 0 0 0 0
-0.27835849 380.60709 -7.448411 0 250 0 0 0 0 0
-0.2877925 382.22021 -7.4850569 0 250 0 0 0 0 0
-0.29608661 383.84079 -7.522079 0 250 0 0 0 0 0
-0.30396521 385.4512 -7.5587091 0 250 0 0 0 0 0
-0.31101739 387.06781 -7.5967479 0 250 0 0 0 0 0
-0.31645381 388.6857 -7.631598 0 250 0 0 0 0 0
-0.32065821 390.30591 -7.6644292 0 250 0 0 0 0 0
-0.3238003 391.93591 -7.6961951 0 250 0 0 0 0 0
-0.3237896 393.55789 -7.7316909 0 250 0 0 0 0 0
0 0 0 1 0 0 0 1 0 0 0 1 0 0 0 0 0 269 1 0 0
