ply
format ascii 1.0
comment PCL generated
element vertex 476
property float x
property float y
property float z
property uchar red
property uchar green
property uchar blue
property float nx
property float ny
property float nz
property float curvature
element camera 1
property float view_px
property float view_py
property float view_pz
property float x_axisx
property float x_axisy
property float x_axisz
property float y_axisx
property float y_axisy
property float y_axisz
property float z_axisx
property float z_axisy
property float z_axisz
property float focal
property float scalex
property float scaley
property float centerx
property float centery
property int viewportx
property int viewporty
property float k1
property float k2
end_header
8.5502138 -0.020607704 0.14034249 0 0 250 0 0 0 0
9.4877491 -0.012991475 0.15850234 0 0 250 0 0 0 0
10.413863 -0.010558269 0.16851307 0 0 250 0 0 0 0
11.342299 -0.0061004171 0.1801957 0 0 250 0 0 0 0
12.263634 0.0022711963 0.18765655 0 0 250 0 0 0 0
13.168157 0.012980442 0.19435832 0 0 250 0 0 0 0
14.082612 0.020798974 0.2054061 0 0 250 0 0 0 0
14.996676 0.049432732 0.2158455 0 0 250 0 0 0 0
15.917552 0.059251416 0.2288674 0 0 250 0 0 0 0
16.826719 0.07797607 0.25102454 0 0 250 0 0 0 0
17.719273 0.086588517 0.26432756 0 0 250 0 0 0 0
18.605762 0.0965859 0.2751312 0 0 250 0 0 0 0
19.508085 0.1101018 0.28509912 0 0 250 0 0 0 0
20.393682 0.13308518 0.29872379 0 0 250 0 0 0 0
21.285431 0.14947346 0.31140938 0 0 250 0 0 0 0
22.15004 0.16544266 0.32752874 0 0 250 0 0 0 0
23.02331 0.17507894 0.34282365 0 0 250 0 0 0 0
23.885595 0.20861852 0.35691667 0 0 250 0 0 0 0
24.745958 0.22793448 0.37029877 0 0 250 0 0 0 0
25.593115 0.24687308 0.38017631 0 0 250 0 0 0 0
26.429365 0.2645919 0.39088866 0 0 250 0 0 0 0
27.243576 0.28601781 0.3978132 0 0 250 0 0 0 0
28.05105 0.30816314 0.40865275 0 0 250 0 0 0 0
28.845486 0.33217609 0.41774383 0 0 250 0 0 0 0
29.631741 0.35348153 0.43302846 0 0 250 0 0 0 0
30.402277 0.38024592 0.44351384 0 0 250 0 0 0 0
31.171618 0.40139323 0.45454687 0 0 250 0 0 0 0
31.958344 0.42539647 0.45898786 0 0 250 0 0 0 0
32.711376 0.44733858 0.4643167 0 0 250 0 0 0 0
33.459263 0.46663499 0.47628787 0 0 250 0 0 0 0
34.190517 0.49630228 0.48359025 0 0 250 0 0 0 0
34.919949 0.53449583 0.49024609 0 0 250 0 0 0 0
35.640633 0.56359303 0.50023961 0 0 250 0 0 0 0
36.341629 0.59000623 0.50765646 0 0 250 0 0 0 0
37.031734 0.62586367 0.51059651 0 0 250 0 0 0 0
37.72205 0.66857326 0.51605117 0 0 250 0 0 0 0
38.394642 0.70232552 0.52771944 0 0 250 0 0 0 0
39.052036 0.73305959 0.53409386 0 0 250 0 0 0 0
39.709526 0.7588011 0.53805673 0 0 250 0 0 0 0
40.353233 0.78149611 0.55522799 0 0 250 0 0 0 0
40.9944 0.80908048 0.56274182 0 0 250 0 0 0 0
41.618813 0.838925 0.56970412 0 0 250 0 0 0 0
42.224976 0.86818385 0.57385987 0 0 250 0 0 0 0
42.820652 0.87628829 0.58199024 0 0 250 0 0 0 0
43.39407 0.88613647 0.58601838 0 0 250 0 0 0 0
43.950985 0.89196777 0.59224862 0 0 250 0 0 0 0
44.490452 0.89668649 0.59918684 0 0 250 0 0 0 0
45.011787 0.88313586 0.61019033 0 0 250 0 0 0 0
45.518131 0.87857801 0.61166096 0 0 250 0 0 0 0
45.9846 0.87087649 0.61263281 0 0 250 0 0 0 0
46.435547 0.86246771 0.6161629 0 0 250 0 0 0 0
46.881306 0.84021443 0.61869812 0 0 250 0 0 0 0
47.294964 0.81318492 0.62354743 0 0 250 0 0 0 0
47.668316 0.7913118 0.6318168 0 0 250 0 0 0 0
48.038807 0.7599138 0.6295203 0 0 250 0 0 0 0
48.377636 0.7337299 0.63227534 0 0 250 0 0 0 0
48.681286 0.72040176 0.64204413 0 0 250 0 0 0 0
48.976482 0.67604798 0.64607191 0 0 250 0 0 0 0
49.254719 0.63580799 0.65337545 0 0 250 0 0 0 0
49.520382 0.59553808 0.65866238 0 0 250 0 0 0 0
49.78236 0.55335653 0.66273969 0 0 250 0 0 0 0
50.054554 0.50638139 0.66610271 0 0 250 0 0 0 0
50.319031 0.45945093 0.67363405 0 0 250 0 0 0 0
50.580044 0.39699194 0.67789698 0 0 250 0 0 0 0
50.840786 0.3374016 0.67985362 0 0 250 0 0 0 0
51.091648 0.26307151 0.68090546 0 0 250 0 0 0 0
51.351219 0.18894443 0.68860519 0 0 250 0 0 0 0
51.599934 0.11295062 0.69411236 0 0 250 0 0 0 0
51.849136 0.023378475 0.70331484 0 0 250 0 0 0 0
52.096077 -0.071485586 0.71230924 0 0 250 0 0 0 0
52.350063 -0.17971626 0.72185993 0 0 250 0 0 0 0
52.587662 -0.29304639 0.73627764 0 0 250 0 0 0 0
52.834309 -0.41875675 0.74875253 0 0 250 0 0 0 0
53.071987 -0.57146549 0.76067966 0 0 250 0 0 0 0
53.171471 -0.49429029 0.71284986 0 0 250 0 0 0 0
53.780056 -1.0567441 0.79465359 0 0 250 0 0 0 0
54.025959 -1.2722669 0.80600029 0 0 250 0 0 0 0
54.249062 -1.4585114 0.82358736 0 0 250 0 0 0 0
54.482338 -1.671962 0.83526057 0 0 250 0 0 0 0
54.711933 -1.9059576 0.84713709 0 0 250 0 0 0 0
54.971478 -2.1895998 0.86873436 0 0 250 0 0 0 0
55.199986 -2.4674418 0.87900019 0 0 250 0 0 0 0
55.425087 -2.7957444 0.92033625 0 0 250 0 0 0 0
55.671764 -3.1616695 0.94432425 0 0 250 0 0 0 0
55.861042 -3.5050581 0.96252817 0 0 250 0 0 0 0
56.12051 -3.9387476 0.96697032 0 0 250 0 0 0 0
56.296711 -4.3553357 0.9941541 0 0 250 0 0 0 0
56.461754 -4.7870522 1.0219077 0 0 250 0 0 0 0
56.619831 -5.2313061 1.0463567 0 0 250 0 0 0 0
56.754459 -5.7099366 1.0756853 0 0 250 0 0 0 0
56.834454 -6.1907196 1.1144365 0 0 250 0 0 0 0
56.907524 -6.7017241 1.140654 0 0 250 0 0 0 0
56.955101 -7.2226939 1.1612021 0 0 250 0 0 0 0
57.006641 -7.7611022 1.2022364 0 0 250 0 0 0 0
57.032875 -8.3009691 1.2404995 0 0 250 0 0 0 0
57.047024 -8.8671885 1.2760448 0 0 250 0 0 0 0
57.052715 -9.4414473 1.3130947 0 0 250 0 0 0 0
57.042908 -10.023631 1.3422837 0 0 250 0 0 0 0
57.038445 -10.613358 1.3778559 0 0 250 0 0 0 0
57.02285 -11.214668 1.4180338 0 0 250 0 0 0 0
57.005791 -11.830696 1.4584328 0 0 250 0 0 0 0
56.982056 -12.457829 1.4935253 0 0 250 0 0 0 0
56.946445 -13.082771 1.5329542 0 0 250 0 0 0 0
56.919205 -13.7292 1.5675578 0 0 250 0 0 0 0
56.89505 -14.377289 1.6073749 0 0 250 0 0 0 0
56.874496 -15.043532 1.6432109 0 0 250 0 0 0 0
56.843285 -15.728063 1.6784551 0 0 250 0 0 0 0
56.811409 -16.419624 1.7142839 0 0 250 0 0 0 0
56.778835 -17.12911 1.7544212 0 0 250 0 0 0 0
56.747551 -17.834745 1.7931917 0 0 250 0 0 0 0
56.720329 -18.555538 1.828495 0 0 250 0 0 0 0
56.695442 -19.279202 1.8690099 0 0 250 0 0 0 0
56.674267 -20.031942 1.9077444 0 0 250 0 0 0 0
56.651447 -20.763067 1.9568328 0 0 250 0 0 0 0
56.639423 -21.520123 2.0085101 0 0 250 0 0 0 0
56.612427 -22.250311 2.0546365 0 0 250 0 0 0 0
56.597931 -22.988396 2.0970333 0 0 250 0 0 0 0
56.589958 -23.740234 2.1411746 0 0 250 0 0 0 0
56.581047 -24.489832 2.1872222 0 0 250 0 0 0 0
56.569481 -25.245682 2.2442904 0 0 250 0 0 0 0
56.550838 -25.995605 2.2900326 0 0 250 0 0 0 0
56.55262 -26.749645 2.342339 0 0 250 0 0 0 0
56.55426 -27.513239 2.3903949 0 0 250 0 0 0 0
56.573189 -28.254456 2.4398408 0 0 250 0 0 0 0
56.576012 -29.004356 2.5010502 0 0 250 0 0 0 0
56.579033 -29.762577 2.5394068 0 0 250 0 0 0 0
56.575859 -30.518585 2.59182 0 0 250 0 0 0 0
56.609589 -31.262535 2.6431928 0 0 250 0 0 0 0
56.613544 -32.024441 2.6960356 0 0 250 0 0 0 0
56.635521 -32.765671 2.7492437 0 0 250 0 0 0 0
56.657009 -33.517879 2.7949162 0 0 250 0 0 0 0
56.676331 -34.275429 2.844722 0 0 250 0 0 0 0
56.70039 -35.028004 2.9013658 0 0 250 0 0 0 0
56.723476 -35.787663 2.946053 0 0 250 0 0 0 0
56.752071 -36.549973 2.9995966 0 0 250 0 0 0 0
56.791859 -37.291721 3.049228 0 0 250 0 0 0 0
56.834187 -38.054592 3.1012678 0 0 250 0 0 0 0
56.866398 -38.833115 3.1486449 0 0 250 0 0 0 0
56.904884 -39.615086 3.205795 0 0 250 0 0 0 0
56.954395 -40.391495 3.2648313 0 0 250 0 0 0 0
57.004589 -41.179497 3.3271844 0 0 250 0 0 0 0
57.050728 -41.971157 3.3860004 0 0 250 0 0 0 0
57.102562 -42.759911 3.4474616 0 0 250 0 0 0 0
57.171387 -43.562241 3.5121791 0 0 250 0 0 0 0
57.23875 -44.374454 3.5704911 0 0 250 0 0 0 0
57.306084 -45.176941 3.6398914 0 0 250 0 0 0 0
57.380302 -45.968788 3.7097731 0 0 250 0 0 0 0
57.463261 -46.771851 3.7731426 0 0 250 0 0 0 0
57.541473 -47.579067 3.8429739 0 0 250 0 0 0 0
57.65274 -48.406284 3.9177663 0 0 250 0 0 0 0
57.753239 -49.227448 3.9916039 0 0 250 0 0 0 0
57.841129 -50.048206 4.073349 0 0 250 0 0 0 0
57.959488 -50.881321 4.1466188 0 0 250 0 0 0 0
58.078045 -51.705822 4.2175903 0 0 250 0 0 0 0
58.200977 -52.528835 4.2805958 0 0 250 0 0 0 0
58.327267 -53.348076 4.3504362 0 0 250 0 0 0 0
58.449509 -54.152248 4.4274368 0 0 250 0 0 0 0
58.592274 -54.955341 4.4850173 0 0 250 0 0 0 0
58.729038 -55.747711 4.5516372 0 0 250 0 0 0 0
58.865158 -56.52673 4.6313167 0 0 250 0 0 0 0
59.001556 -57.280216 4.7000852 0 0 250 0 0 0 0
59.146946 -58.05394 4.7766504 0 0 250 0 0 0 0
59.29158 -58.821297 4.8340192 0 0 250 0 0 0 0
59.445976 -59.573463 4.9039454 0 0 250 0 0 0 0
59.600971 -60.317055 4.9661312 0 0 250 0 0 0 0
59.749283 -61.043564 5.0191941 0 0 250 0 0 0 0
59.905277 -61.770882 5.0798759 0 0 250 0 0 0 0
60.049377 -62.477245 5.1385231 0 0 250 0 0 0 0
60.19714 -63.169827 5.1982465 0 0 250 0 0 0 0
60.347263 -63.859772 5.2604179 0 0 250 0 0 0 0
60.490719 -64.541199 5.3246622 0 0 250 0 0 0 0
60.63316 -65.210114 5.3821435 0 0 250 0 0 0 0
60.776291 -65.890343 5.4413013 0 0 250 0 0 0 0
60.924873 -66.536575 5.5052562 0 0 250 0 0 0 0
61.054497 -67.189064 5.5614929 0 0 250 0 0 0 0
61.189381 -67.824844 5.6207838 0 0 250 0 0 0 0
61.322224 -68.457748 5.6757631 0 0 250 0 0 0 0
61.443352 -69.079704 5.7343769 0 0 250 0 0 0 0
61.562874 -69.686043 5.7905617 0 0 250 0 0 0 0
61.692039 -70.302322 5.8456879 0 0 250 0 0 0 0
61.800995 -70.900696 5.8928895 0 0 250 0 0 0 0
61.92231 -71.492767 5.9470553 0 0 250 0 0 0 0
62.03104 -72.063599 6.0057278 0 0 250 0 0 0 0
62.122272 -72.62896 6.0545111 0 0 250 0 0 0 0
62.235985 -73.190392 6.1045508 0 0 250 0 0 0 0
62.337406 -73.745895 6.1461611 0 0 250 0 0 0 0
62.436382 -74.291466 6.1898093 0 0 250 0 0 0 0
62.540478 -74.848709 6.2392054 0 0 250 0 0 0 0
62.63871 -75.39621 6.2882924 0 0 250 0 0 0 0
62.7384 -75.954147 6.3338628 0 0 250 0 0 0 0
62.82962 -76.520996 6.3764153 0 0 250 0 0 0 0
62.929535 -77.081596 6.4260879 0 0 250 0 0 0 0
63.059631 -77.637169 6.4765201 0 0 250 0 0 0 0
63.17746 -78.205261 6.5286493 0 0 250 0 0 0 0
63.294537 -78.763313 6.5777221 0 0 250 0 0 0 0
63.426102 -79.342926 6.622663 0 0 250 0 0 0 0
63.560593 -79.927521 6.6692767 0 0 250 0 0 0 0
63.704628 -80.509003 6.725174 0 0 250 0 0 0 0
63.855511 -81.105347 6.7748413 0 0 250 0 0 0 0
64.014023 -81.700363 6.822763 0 0 250 0 0 0 0
64.188835 -82.304634 6.8780384 0 0 250 0 0 0 0
64.369652 -82.920219 6.9265599 0 0 250 0 0 0 0
64.552147 -83.533379 6.9813681 0 0 250 0 0 0 0
64.753349 -84.154198 7.0364127 0 0 250 0 0 0 0
64.954552 -84.791222 7.0913043 0 0 250 0 0 0 0
65.178474 -85.438568 7.141552 0 0 250 0 0 0 0
65.409157 -86.095268 7.2020531 0 0 250 0 0 0 0
65.641548 -86.770668 7.2578421 0 0 250 0 0 0 0
65.888245 -87.44371 7.3136296 0 0 250 0 0 0 0
66.150284 -88.133904 7.365644 0 0 250 0 0 0 0
66.410271 -88.828651 7.4194431 0 0 250 0 0 0 0
66.680183 -89.541374 7.4626021 0 0 250 0 0 0 0
66.947914 -90.264862 7.5114069 0 0 250 0 0 0 0
67.235092 -90.988335 7.5618629 0 0 250 0 0 0 0
67.530998 -91.708473 7.6192493 0 0 250 0 0 0 0
67.855415 -92.439171 7.6712437 0 0 250 0 0 0 0
68.159889 -93.154152 7.7178731 0 0 250 0 0 0 0
68.480453 -93.867371 7.7768874 0 0 250 0 0 0 0
68.808083 -94.572266 7.8451362 0 0 250 0 0 0 0
69.140572 -95.272186 7.9054465 0 0 250 0 0 0 0
69.459076 -95.970085 7.9625239 0 0 250 0 0 0 0
69.78479 -96.64698 8.0307131 0 0 250 0 0 0 0
70.110397 -97.324249 8.098774 0 0 250 0 0 0 0
70.43222 -97.995888 8.1577234 0 0 250 0 0 0 0
70.73983 -98.656342 8.2236567 0 0 250 0 0 0 0
71.054382 -99.312073 8.2859917 0 0 250 0 0 0 0
71.367638 -99.952934 8.3495722 0 0 250 0 0 0 0
71.67849 -100.57772 8.4018011 0 0 250 0 0 0 0
71.988251 -101.1962 8.4608383 0 0 250 0 0 0 0
72.299088 -101.81472 8.5298166 0 0 250 0 0 0 0
72.592644 -102.41376 8.5739546 0 0 250 0 0 0 0
72.905792 -103.01147 8.6330719 0 0 250 0 0 0 0
73.196739 -103.58607 8.685462 0 0 250 0 0 0 0
73.491554 -104.16156 8.7379913 0 0 250 0 0 0 0
73.775421 -104.72226 8.7935944 0 0 250 0 0 0 0
74.059372 -105.27772 8.8475199 0 0 250 0 0 0 0
74.343048 -105.82076 8.897315 0 0 250 0 0 0 0
74.6222 -106.35132 8.9466763 0 0 250 0 0 0 0
74.912224 -106.88441 8.9990396 0 0 250 0 0 0 0
75.194649 -107.40076 9.0520391 0 0 250 0 0 0 0
75.47213 -107.90955 9.1005459 0 0 250 0 0 0 0
75.745003 -108.42136 9.1515064 0 0 250 0 0 0 0
76.027809 -108.92586 9.202632 0 0 250 0 0 0 0
76.308929 -109.42514 9.2587566 0 0 250 0 0 0 0
76.620522 -109.91939 9.3173294 0 0 250 0 0 0 0
76.921577 -110.40994 9.3725605 0 0 250 0 0 0 0
77.216385 -110.89137 9.4271631 0 0 250 0 0 0 0
77.520256 -111.38467 9.4809332 0 0 250 0 0 0 0
77.834404 -111.86666 9.5340872 0 0 250 0 0 0 0
78.166466 -112.36314 9.5972109 0 0 250 0 0 0 0
78.502777 -112.86769 9.6565351 0 0 250 0 0 0 0
78.846786 -113.37601 9.7137346 0 0 250 0 0 0 0
79.18924 -113.88583 9.7706003 0 0 250 0 0 0 0
79.547729 -114.40594 9.8228264 0 0 250 0 0 0 0
79.906326 -114.92693 9.8718252 0 0 250 0 0 0 0
80.294991 -115.4584 9.9268589 0 0 250 0 0 0 0
80.685196 -116.00033 9.979022 0 0 250 0 0 0 0
81.086151 -116.54242 10.034 0 0 250 0 0 0 0
81.510414 -117.09625 10.091486 0 0 250 0 0 0 0
81.950554 -117.65894 10.155595 0 0 250 0 0 0 0
82.385262 -118.2334 10.212479 0 0 250 0 0 0 0
82.838638 -118.81178 10.270548 0 0 250 0 0 0 0
83.314476 -119.39334 10.32917 0 0 250 0 0 0 0
83.804001 -119.98032 10.387424 0 0 250 0 0 0 0
84.299622 -120.57615 10.445399 0 0 250 0 0 0 0
84.836563 -121.17942 10.508903 0 0 250 0 0 0 0
85.34288 -121.78445 10.568203 0 0 250 0 0 0 0
85.863838 -122.40206 10.630956 0 0 250 0 0 0 0
86.398575 -123.03596 10.69519 0 0 250 0 0 0 0
86.953812 -123.6845 10.766093 0 0 250 0 0 0 0
87.498024 -124.33138 10.8252 0 0 250 0 0 0 0
88.05011 -124.97511 10.89256 0 0 250 0 0 0 0
88.614456 -125.62335 10.955132 0 0 250 0 0 0 0
89.188667 -126.27023 11.01823 0 0 250 0 0 0 0
89.795212 -126.91175 11.0834 0 0 250 0 0 0 0
90.396439 -127.55414 11.143077 0 0 250 0 0 0 0
90.981491 -128.20238 11.197997 0 0 250 0 0 0 0
91.604576 -128.84261 11.263565 0 0 250 0 0 0 0
92.217125 -129.50459 11.31371 0 0 250 0 0 0 0
92.839386 -130.1601 11.373403 0 0 250 0 0 0 0
93.456772 -130.8223 11.421984 0 0 250 0 0 0 0
94.088959 -131.48045 11.475611 0 0 250 0 0 0 0
94.715187 -132.13347 11.534224 0 0 250 0 0 0 0
95.365074 -132.79453 11.593878 0 0 250 0 0 0 0
96.024277 -133.45894 11.659566 0 0 250 0 0 0 0
96.68914 -134.11086 11.731086 0 0 250 0 0 0 0
97.36512 -134.76582 11.794574 0 0 250 0 0 0 0
98.032051 -135.41614 11.86068 0 0 250 0 0 0 0
98.720253 -136.0569 11.921104 0 0 250 0 0 0 0
99.399284 -136.68983 11.999973 0 0 250 0 0 0 0
100.07445 -137.34079 12.06139 0 0 250 0 0 0 0
100.75914 -137.98428 12.12061 0 0 250 0 0 0 0
101.45981 -138.63226 12.180008 0 0 250 0 0 0 0
102.15484 -139.27388 12.240193 0 0 250 0 0 0 0
102.86958 -139.90855 12.309745 0 0 250 0 0 0 0
103.55254 -140.54688 12.366622 0 0 250 0 0 0 0
104.24699 -141.18677 12.426238 0 0 250 0 0 0 0
104.93404 -141.82277 12.489817 0 0 250 0 0 0 0
105.63206 -142.47321 12.551958 0 0 250 0 0 0 0
106.32761 -143.11588 12.621449 0 0 250 0 0 0 0
107.01556 -143.76382 12.683167 0 0 250 0 0 0 0
107.69324 -144.40779 12.749443 0 0 250 0 0 0 0
108.3709 -145.06325 12.810879 0 0 250 0 0 0 0
109.04631 -145.70802 12.882313 0 0 250 0 0 0 0
109.70568 -146.34686 12.936241 0 0 250 0 0 0 0
110.38396 -147.00014 12.999488 0 0 250 0 0 0 0
111.03393 -147.65636 13.069824 0 0 250 0 0 0 0
111.69009 -148.30032 13.139956 0 0 250 0 0 0 0
112.34655 -148.9532 13.20444 0 0 250 0 0 0 0
112.98396 -149.6002 13.261323 0 0 250 0 0 0 0
113.63583 -150.26558 13.319085 0 0 250 0 0 0 0
114.26237 -150.93149 13.381205 0 0 250 0 0 0 0
114.88416 -151.58502 13.44481 0 0 250 0 0 0 0
115.49942 -152.27486 13.510923 0 0 250 0 0 0 0
116.11597 -152.92836 13.574035 0 0 250 0 0 0 0
116.73248 -153.60432 13.642819 0 0 250 0 0 0 0
117.33808 -154.28925 13.708254 0 0 250 0 0 0 0
117.96353 -154.97394 13.761767 0 0 250 0 0 0 0
118.56192 -155.66008 13.835546 0 0 250 0 0 0 0
119.17471 -156.35175 13.910905 0 0 250 0 0 0 0
119.77182 -157.05159 13.979149 0 0 250 0 0 0 0
120.36958 -157.76506 14.04919 0 0 250 0 0 0 0
120.96472 -158.48096 14.120206 0 0 250 0 0 0 0
121.54893 -159.20558 14.185439 0 0 250 0 0 0 0
122.13619 -159.93716 14.23616 0 0 250 0 0 0 0
122.71974 -160.68486 14.291736 0 0 250 0 0 0 0
123.28183 -161.44022 14.352388 0 0 250 0 0 0 0
123.858 -162.20531 14.414384 0 0 250 0 0 0 0
124.42865 -162.97739 14.482188 0 0 250 0 0 0 0
124.97398 -163.75897 14.551551 0 0 250 0 0 0 0
125.51623 -164.5329 14.629296 0 0 250 0 0 0 0
126.05958 -165.31267 14.695973 0 0 250 0 0 0 0
126.59032 -166.07645 14.764132 0 0 250 0 0 0 0
127.09755 -166.85641 14.832603 0 0 250 0 0 0 0
127.60152 -167.62286 14.899832 0 0 250 0 0 0 0
128.0909 -168.38243 14.964589 0 0 250 0 0 0 0
128.57729 -169.14699 15.028178 0 0 250 0 0 0 0
129.05507 -169.90228 15.089117 0 0 250 0 0 0 0
129.52106 -170.65051 15.160234 0 0 250 0 0 0 0
129.98164 -171.38358 15.2211 0 0 250 0 0 0 0
130.44539 -172.12057 15.272886 0 0 250 0 0 0 0
130.89857 -172.86732 15.344067 0 0 250 0 0 0 0
131.33665 -173.60164 15.409879 0 0 250 0 0 0 0
131.76839 -174.32072 15.469725 0 0 250 0 0 0 0
132.19392 -175.03305 15.52771 0 0 250 0 0 0 0
132.6075 -175.74489 15.582279 0 0 250 0 0 0 0
133.01521 -176.44392 15.639795 0 0 250 0 0 0 0
133.42897 -177.12411 15.705231 0 0 250 0 0 0 0
133.81911 -177.80933 15.761546 0 0 250 0 0 0 0
134.21553 -178.49117 15.830192 0 0 250 0 0 0 0
134.62354 -179.16722 15.885661 0 0 250 0 0 0 0
135.02173 -179.82663 15.945567 0 0 250 0 0 0 0
135.4007 -180.48416 15.99709 0 0 250 0 0 0 0
135.77921 -181.14267 16.041805 0 0 250 0 0 0 0
136.14786 -181.79031 16.080711 0 0 250 0 0 0 0
136.50337 -182.42581 16.132586 0 0 250 0 0 0 0
136.86073 -183.05986 16.18545 0 0 250 0 0 0 0
137.21307 -183.69112 16.232359 0 0 250 0 0 0 0
137.54942 -184.31839 16.276731 0 0 250 0 0 0 0
137.88127 -184.92874 16.325945 0 0 250 0 0 0 0
138.20656 -185.53751 16.370771 0 0 250 0 0 0 0
138.53018 -186.14337 16.421944 0 0 250 0 0 0 0
138.85016 -186.74557 16.469082 0 0 250 0 0 0 0
139.16039 -187.35526 16.521429 0 0 250 0 0 0 0
139.45686 -187.96156 16.574682 0 0 250 0 0 0 0
139.77336 -188.57954 16.61154 0 0 250 0 0 0 0
140.08347 -189.19937 16.671093 0 0 250 0 0 0 0
140.38591 -189.83939 16.731575 0 0 250 0 0 0 0
140.67151 -190.47028 16.788523 0 0 250 0 0 0 0
140.9662 -191.10925 16.840551 0 0 250 0 0 0 0
141.26709 -191.75652 16.896408 0 0 250 0 0 0 0
141.56088 -192.40096 16.951876 0 0 250 0 0 0 0
141.85089 -193.05675 17.012011 0 0 250 0 0 0 0
142.1355 -193.72708 17.072189 0 0 250 0 0 0 0
142.42334 -194.40317 17.131598 0 0 250 0 0 0 0
142.70599 -195.09616 17.195877 0 0 250 0 0 0 0
142.97565 -195.80223 17.261166 0 0 250 0 0 0 0
143.25084 -196.51917 17.325012 0 0 250 0 0 0 0
143.52634 -197.25266 17.401266 0 0 250 0 0 0 0
143.79668 -198.00017 17.464821 0 0 250 0 0 0 0
144.06429 -198.74449 17.525419 0 0 250 0 0 0 0
144.33626 -199.51134 17.585789 0 0 250 0 0 0 0
144.6033 -200.29932 17.63916 0 0 250 0 0 0 0
144.87331 -201.09021 17.699644 0 0 250 0 0 0 0
145.14807 -201.89627 17.753571 0 0 250 0 0 0 0
145.40099 -202.7036 17.821722 0 0 250 0 0 0 0
145.65512 -203.51779 17.891537 0 0 250 0 0 0 0
145.91235 -204.35454 17.968716 0 0 250 0 0 0 0
146.16628 -205.20543 18.043793 0 0 250 0 0 0 0
146.42032 -206.06067 18.125158 0 0 250 0 0 0 0
146.67717 -206.92049 18.201635 0 0 250 0 0 0 0
146.94283 -207.77373 18.275318 0 0 250 0 0 0 0
147.19789 -208.64081 18.356325 0 0 250 0 0 0 0
147.45877 -209.51837 18.441563 0 0 250 0 0 0 0
147.71478 -210.39836 18.529268 0 0 250 0 0 0 0
147.96242 -211.28462 18.611094 0 0 250 0 0 0 0
148.2088 -212.18149 18.693674 0 0 250 0 0 0 0
148.44144 -213.09361 18.777754 0 0 250 0 0 0 0
148.67361 -214.00482 18.86347 0 0 250 0 0 0 0
148.90062 -214.92142 18.947565 0 0 250 0 0 0 0
149.1344 -215.85832 19.037432 0 0 250 0 0 0 0
149.35799 -216.78223 19.121178 0 0 250 0 0 0 0
149.58984 -217.71758 19.207048 0 0 250 0 0 0 0
149.81439 -218.66914 19.293037 0 0 250 0 0 0 0
150.0473 -219.60866 19.375557 0 0 250 0 0 0 0
150.27292 -220.54938 19.464697 0 0 250 0 0 0 0
150.49677 -221.48331 19.546583 0 0 250 0 0 0 0
150.71233 -222.42223 19.629395 0 0 250 0 0 0 0
150.93591 -223.36925 19.721338 0 0 250 0 0 0 0
151.15077 -224.31203 19.803013 0 0 250 0 0 0 0
151.35899 -225.24669 19.885424 0 0 250 0 0 0 0
151.57437 -226.17717 19.962614 0 0 250 0 0 0 0
151.78709 -227.11287 20.043816 0 0 250 0 0 0 0
151.98645 -228.04015 20.128523 0 0 250 0 0 0 0
152.18794 -228.96684 20.218849 0 0 250 0 0 0 0
152.3873 -229.91313 20.308266 0 0 250 0 0 0 0
152.5894 -230.85638 20.397131 0 0 250 0 0 0 0
152.77942 -231.79008 20.476631 0 0 250 0 0 0 0
152.97676 -232.71263 20.556196 0 0 250 0 0 0 0
153.15645 -233.64452 20.633364 0 0 250 0 0 0 0
153.33043 -234.57384 20.708937 0 0 250 0 0 0 0
153.50949 -235.50717 20.785624 0 0 250 0 0 0 0
153.67708 -236.43282 20.860193 0 0 250 0 0 0 0
153.8486 -237.36571 20.935234 0 0 250 0 0 0 0
154.021 -238.29787 21.014685 0 0 250 0 0 0 0
154.17943 -239.2191 21.089115 0 0 250 0 0 0 0
154.34047 -240.15538 21.162588 0 0 250 0 0 0 0
154.50819 -241.08154 21.238968 0 0 250 0 0 0 0
154.66829 -242.0006 21.316881 0 0 250 0 0 0 0
154.81911 -242.91853 21.395399 0 0 250 0 0 0 0
154.96896 -243.83865 21.470634 0 0 250 0 0 0 0
155.11287 -244.7717 21.552359 0 0 250 0 0 0 0
155.25301 -245.69023 21.636642 0 0 250 0 0 0 0
155.39079 -246.61182 21.707317 0 0 250 0 0 0 0
155.52481 -247.53415 21.786665 0 0 250 0 0 0 0
155.66055 -248.45425 21.855402 0 0 250 0 0 0 0
155.78494 -249.36478 21.930838 0 0 250 0 0 0 0
155.9055 -250.27263 22.003218 0 0 250 0 0 0 0
156.01068 -251.19389 22.071177 0 0 250 0 0 0 0
156.10858 -252.11655 22.141615 0 0 250 0 0 0 0
156.20168 -253.02512 22.219868 0 0 250 0 0 0 0
156.29297 -253.92151 22.294226 0 0 250 0 0 0 0
156.38292 -254.80818 22.368511 0 0 250 0 0 0 0
156.47169 -255.70924 22.454231 0 0 250 0 0 0 0
156.56316 -256.62531 22.541574 0 0 250 0 0 0 0
156.64879 -257.53522 22.619904 0 0 250 0 0 0 0
156.72609 -258.43579 22.701359 0 0 250 0 0 0 0
156.79912 -259.33081 22.777048 0 0 250 0 0 0 0
156.87143 -260.21399 22.852301 0 0 250 0 0 0 0
156.94157 -261.10571 22.923262 0 0 250 0 0 0 0
156.99962 -261.99512 22.997948 0 0 250 0 0 0 0
157.04889 -262.88718 23.061182 0 0 250 0 0 0 0
157.08757 -263.77881 23.130539 0 0 250 0 0 0 0
157.12567 -264.66815 23.19869 0 0 250 0 0 0 0
157.15346 -265.55441 23.268076 0 0 250 0 0 0 0
157.17987 -266.45377 23.335913 0 0 250 0 0 0 0
157.1897 -267.33444 23.403456 0 0 250 0 0 0 0
157.2028 -268.22409 23.473232 0 0 250 0 0 0 0
157.20679 -269.09451 23.539288 0 0 250 0 0 0 0
157.20679 -269.9689 23.61182 0 0 250 0 0 0 0
157.19565 -270.87604 23.681969 0 0 250 0 0 0 0
157.19836 -271.74985 23.754848 0 0 250 0 0 0 0
157.19206 -272.62372 23.824471 0 0 250 0 0 0 0
157.18456 -273.49951 23.899899 0 0 250 0 0 0 0
157.16788 -274.38031 23.969267 0 0 250 0 0 0 0
157.16214 -275.23639 24.03599 0 0 250 0 0 0 0
157.15372 -276.08807 24.103611 0 0 250 0 0 0 0
157.14305 -276.94009 24.176748 0 0 250 0 0 0 0
157.13705 -277.77737 24.252861 0 0 250 0 0 0 0
157.12927 -278.61938 24.324377 0 0 250 0 0 0 0
157.13211 -279.44846 24.395849 0 0 250 0 0 0 0
157.13152 -280.26434 24.469025 0 0 250 0 0 0 0
157.13977 -281.0799 24.535053 0 0 250 0 0 0 0
157.14282 -281.8913 24.601372 0 0 250 0 0 0 0
157.16484 -282.67761 24.665379 0 0 250 0 0 0 0
157.1835 -283.46262 24.723974 0 0 250 0 0 0 0
0 0 0 1 0 0 0 1 0 0 0 1 0 0 0 0 0 476 1 0 0
