ply
format ascii 1.0
comment PCL generated
element vertex 10
property float x
property float y
property float z
property uchar red
property uchar green
property uchar blue
property float nx
property float ny
property float nz
property float curvature
element camera 1
property float view_px
property float view_py
property float view_pz
property float x_axisx
property float x_axisy
property float x_axisz
property float y_axisx
property float y_axisy
property float y_axisz
property float z_axisx
property float z_axisy
property float z_axisz
property float focal
property float scalex
property float scaley
property float centerx
property float centery
property int viewportx
property int viewporty
property float k1
property float k2
end_header
-0.4218367 7.7240362 -0.25541511 0 250 0 0 0 0 0
-0.46873289 8.5828857 -0.2838096 0 250 0 0 0 0 0
-0.51554739 9.4402752 -0.31215471 0 250 0 0 0 0 0
-0.56243098 10.29896 -0.3405416 0 250 0 0 0 0 0
-0.60930872 11.15757 -0.36892501 0 250 0 0 0 0 0
-0.65620518 12.01541 -0.39739639 0 250 0 0 0 0 0
-0.70187879 12.86965 -0.4239119 0 250 0 0 0 0 0
-0.74982411 13.73146 -0.4540039 0 250 0 0 0 0 0
-0.79925108 14.60026 -0.48407701 0 250 0 0 0 0 0
-0.85466421 15.47957 -0.51550698 0 250 0 0 0 0 0
0 0 0 1 0 0 0 1 0 0 0 1 0 0 0 0 0 10 1 0 0
