ply
format ascii 1.0
comment PCL generated
element vertex 476
property float x
property float y
property float z
property uchar red
property uchar green
property uchar blue
property float nx
property float ny
property float nz
property float curvature
element camera 1
property float view_px
property float view_py
property float view_pz
property float x_axisx
property float x_axisy
property float x_axisz
property float y_axisx
property float y_axisy
property float y_axisz
property float z_axisx
property float z_axisy
property float z_axisz
property float focal
property float scalex
property float scaley
property float centerx
property float centery
property int viewportx
property int viewporty
property float k1
property float k2
end_header
-0.1013034 8.5354862 -0.17916609 0 250 0 0 0 0 0
-0.1141317 9.465868 -0.1865848 0 250 0 0 0 0 0
-0.1275574 10.38892 -0.1916301 0 250 0 0 0 0 0
-0.14219449 11.33952 -0.19971851 0 250 0 0 0 0 0
-0.1548813 12.22345 -0.21556009 0 250 0 0 0 0 0
-0.1693123 13.13325 -0.23548581 0 250 0 0 0 0 0
-0.1849063 14.04136 -0.26025221 0 250 0 0 0 0 0
-0.1992846 14.94552 -0.27605739 0 250 0 0 0 0 0
-0.2169483 15.84627 -0.28511059 0 250 0 0 0 0 0
-0.23671301 16.74309 -0.29336101 0 250 0 0 0 0 0
-0.25485209 17.63484 -0.29824391 0 250 0 0 0 0 0
-0.27307791 18.52684 -0.30440551 0 250 0 0 0 0 0
-0.29374331 19.41419 -0.31384021 0 250 0 0 0 0 0
-0.31460339 20.294781 -0.32368821 0 250 0 0 0 0 0
-0.3335669 21.1689 -0.32203981 0 250 0 0 0 0 0
-0.3517749 22.03793 -0.3205089 0 250 0 0 0 0 0
-0.372549 22.90089 -0.31721851 0 250 0 0 0 0 0
-0.39336839 23.75773 -0.31592661 0 250 0 0 0 0 0
-0.4121035 24.615431 -0.31402409 0 250 0 0 0 0 0
-0.42803279 25.442181 -0.3057383 0 250 0 0 0 0 0
-0.4474023 26.266211 -0.2988492 0 250 0 0 0 0 0
-0.46907741 27.08037 -0.29304901 0 250 0 0 0 0 0
-0.49162301 27.87697 -0.29340509 0 250 0 0 0 0 0
-0.51472342 28.669571 -0.29827669 0 250 0 0 0 0 0
-0.53772873 29.45471 -0.3030386 0 250 0 0 0 0 0
-0.56105018 30.22665 -0.30245611 0 250 0 0 0 0 0
-0.58370972 30.99325 -0.28931659 0 250 0 0 0 0 0
-0.60988271 31.753309 -0.28494599 0 250 0 0 0 0 0
-0.63734728 32.497452 -0.2859582 0 250 0 0 0 0 0
-0.66949701 33.234901 -0.2913155 0 250 0 0 0 0 0
-0.70702809 33.96228 -0.29809889 0 250 0 0 0 0 0
-0.74759722 34.703529 -0.3011809 0 250 0 0 0 0 0
-0.7861231 35.393169 -0.30129871 0 250 0 0 0 0 0
-0.82250112 36.085732 -0.29350021 0 250 0 0 0 0 0
-0.85797453 36.77338 -0.28456011 0 250 0 0 0 0 0
-0.89798409 37.449211 -0.28292221 0 250 0 0 0 0 0
-0.93569392 38.11124 -0.2753503 0 250 0 0 0 0 0
-0.96624398 38.76355 -0.26439521 0 250 0 0 0 0 0
-0.9940685 39.400631 -0.25903329 0 250 0 0 0 0 0
-1.022967 40.037479 -0.25469089 0 250 0 0 0 0 0
-1.054571 40.686829 -0.2561416 0 250 0 0 0 0 0
-1.082779 41.29211 -0.2559993 0 250 0 0 0 0 0
-1.107347 41.890888 -0.25424391 0 250 0 0 0 0 0
-1.127463 42.475689 -0.25049269 0 250 0 0 0 0 0
-1.143225 43.04425 -0.2472759 0 250 0 0 0 0 0
-1.156523 43.592388 -0.2461265 0 250 0 0 0 0 0
-1.163695 44.119469 -0.24633069 0 250 0 0 0 0 0
-1.165311 44.627048 -0.24603111 0 250 0 0 0 0 0
-1.1652811 45.11047 -0.2401569 0 250 0 0 0 0 0
-1.162119 45.574471 -0.2348502 0 250 0 0 0 0 0
-1.153911 46.01395 -0.2368661 0 250 0 0 0 0 0
-1.139704 46.435619 -0.23803011 0 250 0 0 0 0 0
-1.11911 46.832668 -0.2395256 0 250 0 0 0 0 0
-1.098158 47.204559 -0.23917469 0 250 0 0 0 0 0
-1.077742 47.567322 -0.2387525 0 250 0 0 0 0 0
-1.059487 47.878399 -0.24041539 0 250 0 0 0 0 0
-1.0361331 48.17664 -0.2443984 0 250 0 0 0 0 0
-1.006263 48.450878 -0.2532706 0 250 0 0 0 0 0
-0.97309631 48.71656 -0.26077721 0 250 0 0 0 0 0
-0.93695569 48.97559 -0.2675893 0 250 0 0 0 0 0
-0.89774621 49.232391 -0.27344251 0 250 0 0 0 0 0
-0.85674149 49.48708 -0.280568 0 250 0 0 0 0 0
-0.80843091 49.749699 -0.28609219 0 250 0 0 0 0 0
-0.75771171 49.986149 -0.29157141 0 250 0 0 0 0 0
-0.69715792 50.230579 -0.2967619 0 250 0 0 0 0 0
-0.62965512 50.477329 -0.3022908 0 250 0 0 0 0 0
-0.56262529 50.707272 -0.3067843 0 250 0 0 0 0 0
-0.48892111 50.945301 -0.31170619 0 250 0 0 0 0 0
-0.40749371 51.181492 -0.3179085 0 250 0 0 0 0 0
-0.3172192 51.4202 -0.32550409 0 250 0 0 0 0 0
-0.2212449 51.659302 -0.33407959 0 250 0 0 0 0 0
-0.114714 51.900749 -0.3439537 0 250 0 0 0 0 0
0.00027358721 52.129822 -0.35449579 0 250 0 0 0 0 0
0.1309526 52.355949 -0.36427209 0 250 0 0 0 0 0
0.4279778 52.800308 -0.38243449 0 250 0 0 0 0 0
0.59079111 53.019009 -0.3919068 0 250 0 0 0 0 0
0.77010792 53.24411 -0.40259731 0 250 0 0 0 0 0
0.96523702 53.472801 -0.41476011 0 250 0 0 0 0 0
1.1722929 53.694771 -0.43025339 0 250 0 0 0 0 0
1.4017119 53.9268 -0.44674039 0 250 0 0 0 0 0
1.658262 54.153431 -0.4647131 0 250 0 0 0 0 0
1.94608 54.36895 -0.47763991 0 250 0 0 0 0 0
2.2697289 54.58519 -0.47776911 0 250 0 0 0 0 0
2.6126809 54.789879 -0.4832195 0 250 0 0 0 0 0
2.973763 54.983829 -0.47927579 0 250 0 0 0 0 0
3.3592629 55.169571 -0.4860892 0 250 0 0 0 0 0
3.766145 55.335411 -0.49139211 0 250 0 0 0 0 0
4.1983609 55.483959 -0.51661962 0 250 0 0 0 0 0
4.6414161 55.61845 -0.53961772 0 250 0 0 0 0 0
5.1037192 55.721432 -0.56459242 0 250 0 0 0 0 0
5.585536 55.802269 -0.59577352 0 250 0 0 0 0 0
6.0885191 55.856171 -0.6266796 0 250 0 0 0 0 0
6.6123719 55.902802 -0.6532414 0 250 0 0 0 0 0
7.1263771 55.937901 -0.68213087 0 250 0 0 0 0 0
7.6586308 55.954128 -0.724289 0 250 0 0 0 0 0
8.2095804 55.971352 -0.77378517 0 250 0 0 0 0 0
8.7749443 55.977509 -0.8137508 0 250 0 0 0 0 0
9.3516607 55.983231 -0.85737902 0 250 0 0 0 0 0
9.9332457 55.981819 -0.90206158 0 250 0 0 0 0 0
10.53767 55.979839 -0.94737399 0 250 0 0 0 0 0
11.13754 55.979 -0.9965387 0 250 0 0 0 0 0
11.75501 55.963039 -1.055254 0 250 0 0 0 0 0
12.38276 55.929539 -1.1171941 0 250 0 0 0 0 0
13.02027 55.903042 -1.167977 0 250 0 0 0 0 0
13.67308 55.883301 -1.2175241 0 250 0 0 0 0 0
14.33357 55.858521 -1.269538 0 250 0 0 0 0 0
15.01321 55.821491 -1.3174289 0 250 0 0 0 0 0
15.69798 55.779011 -1.366117 0 250 0 0 0 0 0
16.38718 55.740742 -1.417061 0 250 0 0 0 0 0
17.08252 55.703178 -1.4623539 0 250 0 0 0 0 0
17.784719 55.6721 -1.502437 0 250 0 0 0 0 0
18.504681 55.643002 -1.545746 0 250 0 0 0 0 0
19.24155 55.615028 -1.593908 0 250 0 0 0 0 0
19.978239 55.590271 -1.647724 0 250 0 0 0 0 0
20.712811 55.569038 -1.696725 0 250 0 0 0 0 0
21.438499 55.53688 -1.741686 0 250 0 0 0 0 0
22.167139 55.510109 -1.787932 0 250 0 0 0 0 0
22.90332 55.505371 -1.839076 0 250 0 0 0 0 0
23.63216 55.50164 -1.895775 0 250 0 0 0 0 0
24.37331 55.484539 -1.955801 0 250 0 0 0 0 0
25.111641 55.463619 -2.008471 0 250 0 0 0 0 0
25.835051 55.461811 -2.059391 0 250 0 0 0 0 0
26.56806 55.472618 -2.1136971 0 250 0 0 0 0 0
27.30492 55.489632 -2.167614 0 250 0 0 0 0 0
28.04413 55.497681 -2.226546 0 250 0 0 0 0 0
28.777651 55.510269 -2.2886729 0 250 0 0 0 0 0
29.51232 55.52232 -2.3438931 0 250 0 0 0 0 0
30.2463 55.536201 -2.395401 0 250 0 0 0 0 0
30.98559 55.548592 -2.4452219 0 250 0 0 0 0 0
31.726299 55.561878 -2.4961121 0 250 0 0 0 0 0
32.464951 55.58466 -2.5374429 0 250 0 0 0 0 0
33.207401 55.61348 -2.578228 0 250 0 0 0 0 0
33.951012 55.639751 -2.6206009 0 250 0 0 0 0 0
34.69841 55.673161 -2.667716 0 250 0 0 0 0 0
35.44252 55.709301 -2.7118931 0 250 0 0 0 0 0
36.197849 55.74855 -2.761384 0 250 0 0 0 0 0
36.950932 55.787041 -2.812393 0 250 0 0 0 0 0
37.704739 55.826599 -2.8675539 0 250 0 0 0 0 0
38.465752 55.868549 -2.922992 0 250 0 0 0 0 0
39.230068 55.92107 -2.973413 0 250 0 0 0 0 0
40.002201 55.976311 -3.0243151 0 250 0 0 0 0 0
40.778301 56.02494 -3.0809319 0 250 0 0 0 0 0
41.5555 56.077881 -3.1359191 0 250 0 0 0 0 0
42.339512 56.1413 -3.1887741 0 250 0 0 0 0 0
43.13031 56.203331 -3.2443261 0 250 0 0 0 0 0
43.93795 56.269718 -3.2971809 0 250 0 0 0 0 0
44.713718 56.34391 -3.3525391 0 250 0 0 0 0 0
45.504398 56.42297 -3.40258 0 250 0 0 0 0 0
46.30756 56.508099 -3.461241 0 250 0 0 0 0 0
47.122238 56.605331 -3.5252769 0 250 0 0 0 0 0
47.914108 56.706631 -3.592468 0 250 0 0 0 0 0
48.726871 56.81192 -3.6622441 0 250 0 0 0 0 0
49.54068 56.921619 -3.7276421 0 250 0 0 0 0 0
50.356819 57.04097 -3.7928939 0 250 0 0 0 0 0
51.167881 57.16787 -3.8501239 0 250 0 0 0 0 0
51.989071 57.29726 -3.91255 0 250 0 0 0 0 0
52.773788 57.4249 -3.968025 0 250 0 0 0 0 0
53.561531 57.560329 -4.0231638 0 250 0 0 0 0 0
54.343182 57.698509 -4.0825229 0 250 0 0 0 0 0
55.104389 57.837521 -4.1437011 0 250 0 0 0 0 0
55.870529 57.9795 -4.2044091 0 250 0 0 0 0 0
56.645458 58.120331 -4.2621198 0 250 0 0 0 0 0
57.389111 58.262508 -4.3183141 0 250 0 0 0 0 0
58.136681 58.41357 -4.3691521 0 250 0 0 0 0 0
58.876011 58.567268 -4.4208021 0 250 0 0 0 0 0
59.599609 58.71611 -4.4676208 0 250 0 0 0 0 0
60.31245 58.866089 -4.5163722 0 250 0 0 0 0 0
61.013191 59.02108 -4.5645289 0 250 0 0 0 0 0
61.704361 59.172379 -4.6147871 0 250 0 0 0 0 0
62.381989 59.320911 -4.6575861 0 250 0 0 0 0 0
63.055931 59.46843 -4.7063789 0 250 0 0 0 0 0
63.722309 59.61689 -4.758759 0 250 0 0 0 0 0
64.381599 59.760189 -4.8147068 0 250 0 0 0 0 0
65.032806 59.90218 -4.8678288 0 250 0 0 0 0 0
65.671753 60.035221 -4.9133849 0 250 0 0 0 0 0
66.300987 60.167648 -4.9654002 0 250 0 0 0 0 0
66.922081 60.298359 -5.0183191 0 250 0 0 0 0 0
67.545731 60.43224 -5.0767112 0 250 0 0 0 0 0
68.120178 60.554359 -5.1303391 0 250 0 0 0 0 0
68.724716 60.677921 -5.1820579 0 250 0 0 0 0 0
69.30307 60.803089 -5.2318549 0 250 0 0 0 0 0
69.882881 60.919281 -5.2858958 0 250 0 0 0 0 0
70.449951 61.033001 -5.3427582 0 250 0 0 0 0 0
71.000664 61.140388 -5.393054 0 250 0 0 0 0 0
71.54538 61.24382 -5.4408278 0 250 0 0 0 0 0
72.08654 61.346729 -5.4853649 0 250 0 0 0 0 0
72.622871 61.450779 -5.5322161 0 250 0 0 0 0 0
73.158142 61.554508 -5.5831351 0 250 0 0 0 0 0
73.701141 61.657009 -5.6301699 0 250 0 0 0 0 0
74.242668 61.7495 -5.6764479 0 250 0 0 0 0 0
74.78759 61.841782 -5.7207999 0 250 0 0 0 0 0
75.335243 61.944752 -5.7681732 0 250 0 0 0 0 0
75.886742 62.058208 -5.8170619 0 250 0 0 0 0 0
76.434471 62.171211 -5.8624482 0 250 0 0 0 0 0
76.992599 62.291351 -5.9122872 0 250 0 0 0 0 0
77.568428 62.423939 -5.9611478 0 250 0 0 0 0 0
78.128677 62.553051 -6.0087581 0 250 0 0 0 0 0
78.692589 62.691952 -6.0598712 0 250 0 0 0 0 0
79.285019 62.845798 -6.1078649 0 250 0 0 0 0 0
79.850861 63.00502 -6.1507788 0 250 0 0 0 0 0
80.4534 63.179852 -6.1928148 0 250 0 0 0 0 0
81.04837 63.356838 -6.2390089 0 250 0 0 0 0 0
81.654678 63.541111 -6.2856741 0 250 0 0 0 0 0
82.265793 63.74049 -6.3249631 0 250 0 0 0 0 0
82.895088 63.948078 -6.3711729 0 250 0 0 0 0 0
83.53476 64.166801 -6.4147382 0 250 0 0 0 0 0
84.194031 64.399811 -6.458457 0 250 0 0 0 0 0
84.861389 64.637352 -6.4986072 0 250 0 0 0 0 0
85.538757 64.888138 -6.5450091 0 250 0 0 0 0 0
86.224449 65.15377 -6.5855842 0 250 0 0 0 0 0
86.92746 65.428398 -6.6050472 0 250 0 0 0 0 0
87.631653 65.703331 -6.6243439 0 250 0 0 0 0 0
88.357872 65.993408 -6.6463361 0 250 0 0 0 0 0
89.07692 66.288971 -6.684073 0 250 0 0 0 0 0
89.792442 66.599442 -6.7253609 0 250 0 0 0 0 0
90.502449 66.907089 -6.7636938 0 250 0 0 0 0 0
91.218102 67.228683 -6.8133769 0 250 0 0 0 0 0
91.921829 67.559319 -6.870738 0 250 0 0 0 0 0
92.609039 67.903709 -6.9142718 0 250 0 0 0 0 0
93.288872 68.247482 -6.9751792 0 250 0 0 0 0 0
93.961304 68.580833 -7.0348802 0 250 0 0 0 0 0
94.633118 68.920128 -7.1100192 0 250 0 0 0 0 0
95.275459 69.248199 -7.1830139 0 250 0 0 0 0 0
95.92749 69.582397 -7.2596788 0 250 0 0 0 0 0
96.58342 69.912987 -7.329268 0 250 0 0 0 0 0
97.206467 70.23613 -7.3985319 0 250 0 0 0 0 0
97.845612 70.569748 -7.4695358 0 250 0 0 0 0 0
98.435051 70.883888 -7.5331588 0 250 0 0 0 0 0
99.033089 71.197929 -7.5921211 0 250 0 0 0 0 0
99.627899 71.508881 -7.6502118 0 250 0 0 0 0 0
100.2122 71.816208 -7.7097392 0 250 0 0 0 0 0
100.7869 72.125488 -7.7666621 0 250 0 0 0 0 0
101.353 72.432648 -7.8235402 0 250 0 0 0 0 0
101.9055 72.735817 -7.8833399 0 250 0 0 0 0 0
102.4447 73.032356 -7.9430742 0 250 0 0 0 0 0
102.983 73.328491 -8.0023756 0 250 0 0 0 0 0
103.5115 73.620903 -8.05369 0 250 0 0 0 0 0
104.0361 73.909813 -8.0966187 0 250 0 0 0 0 0
104.5505 74.195877 -8.1392918 0 250 0 0 0 0 0
105.0601 74.482338 -8.1819553 0 250 0 0 0 0 0
105.564 74.766258 -8.2237501 0 250 0 0 0 0 0
106.0641 75.054031 -8.2650595 0 250 0 0 0 0 0
106.565 75.343109 -8.3083715 0 250 0 0 0 0 0
107.0595 75.634209 -8.363102 0 250 0 0 0 0 0
107.5403 75.92569 -8.4187479 0 250 0 0 0 0 0
108.0289 76.228828 -8.4758759 0 250 0 0 0 0 0
108.5079 76.53231 -8.530283 0 250 0 0 0 0 0
108.9938 76.840797 -8.5861216 0 250 0 0 0 0 0
109.4846 77.160919 -8.6423388 0 250 0 0 0 0 0
109.9856 77.489937 -8.7064562 0 250 0 0 0 0 0
110.4964 77.824509 -8.7630949 0 250 0 0 0 0 0
111.0125 78.171089 -8.8178492 0 250 0 0 0 0 0
111.5367 78.519653 -8.8674107 0 250 0 0 0 0 0
112.0557 78.876129 -8.9153738 0 250 0 0 0 0 0
112.5829 79.24678 -8.9632206 0 250 0 0 0 0 0
113.1161 79.627663 -9.0116453 0 250 0 0 0 0 0
113.6686 80.018883 -9.0571184 0 250 0 0 0 0 0
114.2286 80.425888 -9.1053677 0 250 0 0 0 0 0
114.7933 80.848709 -9.1580048 0 250 0 0 0 0 0
115.3671 81.284508 -9.2170429 0 250 0 0 0 0 0
115.9476 81.729263 -9.2737017 0 250 0 0 0 0 0
116.5301 82.188911 -9.317811 0 250 0 0 0 0 0
117.1091 82.663971 -9.3663378 0 250 0 0 0 0 0
117.7001 83.151093 -9.410224 0 250 0 0 0 0 0
118.2986 83.652359 -9.4576283 0 250 0 0 0 0 0
118.9071 84.164169 -9.5014591 0 250 0 0 0 0 0
119.523 84.685211 -9.5499029 0 250 0 0 0 0 0
120.1636 85.223862 -9.5906467 0 250 0 0 0 0 0
120.7812 85.743759 -9.6352301 0 250 0 0 0 0 0
121.4334 86.292664 -9.6829367 0 250 0 0 0 0 0
122.0849 86.851646 -9.7286968 0 250 0 0 0 0 0
122.73 87.404999 -9.773963 0 250 0 0 0 0 0
123.3777 87.97821 -9.8203545 0 250 0 0 0 0 0
124.0203 88.55484 -9.8680553 0 250 0 0 0 0 0
124.6768 89.160469 -9.916275 0 250 0 0 0 0 0
125.3111 89.753616 -9.9643974 0 250 0 0 0 0 0
125.9636 90.359932 -10.01373 0 250 0 0 0 0 0
126.619 90.976761 -10.0578 0 250 0 0 0 0 0
127.2756 91.596863 -10.10087 0 250 0 0 0 0 0
127.9271 92.218178 -10.14276 0 250 0 0 0 0 0
128.5815 92.840782 -10.1842 0 250 0 0 0 0 0
129.2245 93.463898 -10.23342 0 250 0 0 0 0 0
129.8788 94.106377 -10.28691 0 250 0 0 0 0 0
130.5065 94.744263 -10.3407 0 250 0 0 0 0 0
131.14909 95.403229 -10.39963 0 250 0 0 0 0 0
131.7916 96.070419 -10.456 0 250 0 0 0 0 0
132.4272 96.741997 -10.50523 0 250 0 0 0 0 0
133.05901 97.419258 -10.55248 0 250 0 0 0 0 0
133.68469 98.104393 -10.60432 0 250 0 0 0 0 0
134.31911 98.79631 -10.66004 0 250 0 0 0 0 0
134.9539 99.488564 -10.71551 0 250 0 0 0 0 0
135.6011 100.1963 -10.77139 0 250 0 0 0 0 0
136.2215 100.8793 -10.81998 0 250 0 0 0 0 0
136.8528 101.5789 -10.86978 0 250 0 0 0 0 0
137.4843 102.2803 -10.91832 0 250 0 0 0 0 0
138.1207 102.9852 -10.96869 0 250 0 0 0 0 0
138.7684 103.7008 -11.01807 0 250 0 0 0 0 0
139.3904 104.3827 -11.06529 0 250 0 0 0 0 0
140.0213 105.0727 -11.11507 0 250 0 0 0 0 0
140.66859 105.7715 -11.1641 0 250 0 0 0 0 0
141.3096 106.457 -11.21534 0 250 0 0 0 0 0
141.9472 107.1334 -11.26171 0 250 0 0 0 0 0
142.59331 107.8056 -11.3094 0 250 0 0 0 0 0
143.22951 108.4648 -11.35965 0 250 0 0 0 0 0
143.8589 109.1244 -11.4107 0 250 0 0 0 0 0
144.4994 109.7839 -11.4626 0 250 0 0 0 0 0
145.15379 110.4492 -11.52141 0 250 0 0 0 0 0
145.7899 111.0957 -11.57854 0 250 0 0 0 0 0
146.44839 111.754 -11.63357 0 250 0 0 0 0 0
147.0826 112.3782 -11.68264 0 250 0 0 0 0 0
147.73331 113.0076 -11.73221 0 250 0 0 0 0 0
148.3963 113.6394 -11.78416 0 250 0 0 0 0 0
149.0522 114.2503 -11.835 0 250 0 0 0 0 0
149.70731 114.8427 -11.88352 0 250 0 0 0 0 0
150.3763 115.4384 -11.92783 0 250 0 0 0 0 0
151.04761 116.0372 -11.97578 0 250 0 0 0 0 0
151.7272 116.6342 -12.02409 0 250 0 0 0 0 0
152.4041 117.2224 -12.07204 0 250 0 0 0 0 0
153.086 117.8158 -12.12501 0 250 0 0 0 0 0
153.7739 118.3992 -12.17933 0 250 0 0 0 0 0
154.47861 118.9893 -12.23831 0 250 0 0 0 0 0
155.189 119.5662 -12.299 0 250 0 0 0 0 0
155.9127 120.152 -12.36503 0 250 0 0 0 0 0
156.6454 120.7245 -12.42646 0 250 0 0 0 0 0
157.3838 121.2983 -12.47643 0 250 0 0 0 0 0
158.1338 121.8681 -12.52578 0 250 0 0 0 0 0
158.90581 122.4322 -12.58374 0 250 0 0 0 0 0
159.646 122.9716 -12.63933 0 250 0 0 0 0 0
160.4008 123.5094 -12.70216 0 250 0 0 0 0 0
161.1947 124.0636 -12.77762 0 250 0 0 0 0 0
161.96381 124.5828 -12.85193 0 250 0 0 0 0 0
162.7291 125.0909 -12.9194 0 250 0 0 0 0 0
163.4987 125.6019 -12.98726 0 250 0 0 0 0 0
164.26981 126.1138 -13.05527 0 250 0 0 0 0 0
165.0417 126.6042 -13.12226 0 250 0 0 0 0 0
165.8008 127.092 -13.18289 0 250 0 0 0 0 0
166.5531 127.577 -13.23954 0 250 0 0 0 0 0
167.2915 128.0524 -13.29978 0 250 0 0 0 0 0
168.04691 128.5271 -13.36429 0 250 0 0 0 0 0
168.76401 128.9792 -13.42431 0 250 0 0 0 0 0
169.47639 129.42889 -13.48459 0 250 0 0 0 0 0
170.1931 129.8817 -13.54899 0 250 0 0 0 0 0
170.91209 130.3215 -13.61181 0 250 0 0 0 0 0
171.62131 130.7525 -13.67121 0 250 0 0 0 0 0
172.3205 131.175 -13.72813 0 250 0 0 0 0 0
173.0101 131.59309 -13.7841 0 250 0 0 0 0 0
173.6861 132.00729 -13.84508 0 250 0 0 0 0 0
174.35451 132.4182 -13.90627 0 250 0 0 0 0 0
175.035 132.827 -13.96378 0 250 0 0 0 0 0
175.6897 133.2184 -14.01825 0 250 0 0 0 0 0
176.3532 133.6308 -14.07865 0 250 0 0 0 0 0
177.0072 134.0303 -14.134 0 250 0 0 0 0 0
177.65199 134.41209 -14.18089 0 250 0 0 0 0 0
178.2937 134.7778 -14.22293 0 250 0 0 0 0 0
178.9314 135.1404 -14.26465 0 250 0 0 0 0 0
179.5573 135.50481 -14.31261 0 250 0 0 0 0 0
180.1748 135.8638 -14.36322 0 250 0 0 0 0 0
180.7795 136.2166 -14.41258 0 250 0 0 0 0 0
181.3913 136.5576 -14.45852 0 250 0 0 0 0 0
181.9903 136.89079 -14.50312 0 250 0 0 0 0 0
182.58121 137.21381 -14.54745 0 250 0 0 0 0 0
183.1665 137.53259 -14.59096 0 250 0 0 0 0 0
183.7467 137.8441 -14.63103 0 250 0 0 0 0 0
184.32829 138.1496 -14.67151 0 250 0 0 0 0 0
184.9104 138.45 -14.71237 0 250 0 0 0 0 0
185.5029 138.75259 -14.7551 0 250 0 0 0 0 0
186.09669 139.0562 -14.79763 0 250 0 0 0 0 0
186.7023 139.3564 -14.84501 0 250 0 0 0 0 0
187.3167 139.64999 -14.89366 0 250 0 0 0 0 0
187.939 139.942 -14.94259 0 250 0 0 0 0 0
188.564 140.2354 -14.99292 0 250 0 0 0 0 0
189.1978 140.5266 -15.03908 0 250 0 0 0 0 0
189.8399 140.81551 -15.08795 0 250 0 0 0 0 0
190.49651 141.0981 -15.14579 0 250 0 0 0 0 0
191.1667 141.381 -15.20551 0 250 0 0 0 0 0
191.8455 141.6544 -15.26383 0 250 0 0 0 0 0
192.5394 141.9287 -15.32526 0 250 0 0 0 0 0
193.245 142.2045 -15.38822 0 250 0 0 0 0 0
193.96271 142.4808 -15.45199 0 250 0 0 0 0 0
194.6963 142.7543 -15.51367 0 250 0 0 0 0 0
195.46001 143.02631 -15.57305 0 250 0 0 0 0 0
196.21381 143.2937 -15.62684 0 250 0 0 0 0 0
196.9859 143.5675 -15.68196 0 250 0 0 0 0 0
197.77209 143.8336 -15.74033 0 250 0 0 0 0 0
198.5592 144.09669 -15.79846 0 250 0 0 0 0 0
199.33859 144.35001 -15.85428 0 250 0 0 0 0 0
200.1451 144.60741 -15.92437 0 250 0 0 0 0 0
200.9751 144.8679 -16.00532 0 250 0 0 0 0 0
201.8244 145.1297 -16.08857 0 250 0 0 0 0 0
202.6924 145.3976 -16.17598 0 250 0 0 0 0 0
203.5316 145.6544 -16.26124 0 250 0 0 0 0 0
204.36729 145.908 -16.33869 0 250 0 0 0 0 0
205.2495 146.17191 -16.42655 0 250 0 0 0 0 0
206.1048 146.42281 -16.51609 0 250 0 0 0 0 0
206.9819 146.6776 -16.6098 0 250 0 0 0 0 0
207.8609 146.92599 -16.69858 0 250 0 0 0 0 0
208.7471 147.17081 -16.784389 0 250 0 0 0 0 0
209.644 147.4068 -16.873899 0 250 0 0 0 0 0
210.54919 147.6436 -16.96319 0 250 0 0 0 0 0
211.46201 147.88071 -17.05443 0 250 0 0 0 0 0
212.3811 148.11481 -17.143881 0 250 0 0 0 0 0
213.3004 148.34821 -17.233761 0 250 0 0 0 0 0
214.2272 148.5829 -17.32239 0 250 0 0 0 0 0
215.1568 148.8145 -17.411091 0 250 0 0 0 0 0
216.08411 149.0489 -17.50032 0 250 0 0 0 0 0
217.00929 149.2778 -17.589121 0 250 0 0 0 0 0
217.9343 149.50439 -17.677679 0 250 0 0 0 0 0
218.86031 149.7262 -17.76862 0 250 0 0 0 0 0
219.7937 149.94991 -17.85886 0 250 0 0 0 0 0
220.7197 150.1656 -17.94623 0 250 0 0 0 0 0
221.64481 150.3821 -18.03413 0 250 0 0 0 0 0
222.5742 150.6004 -18.12038 0 250 0 0 0 0 0
223.50751 150.81441 -18.208469 0 250 0 0 0 0 0
224.41209 151.0218 -18.293631 0 250 0 0 0 0 0
225.3277 151.2317 -18.386351 0 250 0 0 0 0 0
226.2731 151.4464 -18.480801 0 250 0 0 0 0 0
227.1676 151.6432 -18.56752 0 250 0 0 0 0 0
228.10381 151.845 -18.655081 0 250 0 0 0 0 0
229.0056 152.03819 -18.73661 0 250 0 0 0 0 0
229.9189 152.2303 -18.816521 0 250 0 0 0 0 0
230.8378 152.41811 -18.893761 0 250 0 0 0 0 0
231.7587 152.6032 -18.969919 0 250 0 0 0 0 0
232.6895 152.7858 -19.041121 0 250 0 0 0 0 0
233.61549 152.9646 -19.114941 0 250 0 0 0 0 0
234.5305 153.14011 -19.18701 0 250 0 0 0 0 0
235.4493 153.3132 -19.261181 0 250 0 0 0 0 0
236.37869 153.478 -19.33366 0 250 0 0 0 0 0
237.2897 153.6418 -19.41011 0 250 0 0 0 0 0
238.1998 153.80321 -19.49555 0 250 0 0 0 0 0
239.10539 153.959 -19.5793 0 250 0 0 0 0 0
240.0191 154.11 -19.66444 0 250 0 0 0 0 0
240.9342 154.25639 -19.752569 0 250 0 0 0 0 0
241.85001 154.39819 -19.839991 0 250 0 0 0 0 0
242.7628 154.5354 -19.92378 0 250 0 0 0 0 0
243.66879 154.6684 -20.004339 0 250 0 0 0 0 0
244.5757 154.7979 -20.083879 0 250 0 0 0 0 0
245.4743 154.9236 -20.16399 0 250 0 0 0 0 0
246.36839 155.0412 -20.245319 0 250 0 0 0 0 0
247.2733 155.14461 -20.3235 0 250 0 0 0 0 0
248.1739 155.2524 -20.40379 0 250 0 0 0 0 0
249.06979 155.3582 -20.48204 0 250 0 0 0 0 0
249.9549 155.4527 -20.557489 0 250 0 0 0 0 0
250.8345 155.5425 -20.6346 0 250 0 0 0 0 0
251.72591 155.6328 -20.719721 0 250 0 0 0 0 0
252.6209 155.7215 -20.80615 0 250 0 0 0 0 0
253.5136 155.80569 -20.894489 0 250 0 0 0 0 0
254.4024 155.8813 -20.98217 0 250 0 0 0 0 0
255.2821 155.9558 -21.065161 0 250 0 0 0 0 0
256.16211 156.0255 -21.144939 0 250 0 0 0 0 0
257.04279 156.08971 -21.22381 0 250 0 0 0 0 0
257.91989 156.1451 -21.30232 0 250 0 0 0 0 0
258.79071 156.18539 -21.3755 0 250 0 0 0 0 0
259.6601 156.224 -21.442051 0 250 0 0 0 0 0
260.52701 156.258 -21.51116 0 250 0 0 0 0 0
261.3989 156.2883 -21.584181 0 250 0 0 0 0 0
262.2717 156.3158 -21.653469 0 250 0 0 0 0 0
263.14029 156.3324 -21.72636 0 250 0 0 0 0 0
264.00601 156.34509 -21.796631 0 250 0 0 0 0 0
264.86569 156.3569 -21.867069 0 250 0 0 0 0 0
265.72949 156.3616 -21.941151 0 250 0 0 0 0 0
266.59451 156.35989 -22.017099 0 250 0 0 0 0 0
267.45941 156.3596 -22.093281 0 250 0 0 0 0 0
268.32059 156.3531 -22.16749 0 250 0 0 0 0 0
269.18259 156.34911 -22.242399 0 250 0 0 0 0 0
270.03949 156.3437 -22.31694 0 250 0 0 0 0 0
270.8934 156.3409 -22.392309 0 250 0 0 0 0 0
271.7439 156.334 -22.46937 0 250 0 0 0 0 0
272.5882 156.33 -22.55275 0 250 0 0 0 0 0
273.43671 156.32829 -22.637289 0 250 0 0 0 0 0
274.2406 156.32761 -22.71743 0 250 0 0 0 0 0
275.05621 156.33009 -22.79801 0 250 0 0 0 0 0
275.8616 156.33611 -22.877831 0 250 0 0 0 0 0
276.66559 156.3455 -22.954769 0 250 0 0 0 0 0
277.44839 156.3596 -23.02961 0 250 0 0 0 0 0
278.22379 156.37781 -23.10166 0 250 0 0 0 0 0
278.98621 156.40289 -23.17205 0 250 0 0 0 0 0
0 0 0 1 0 0 0 1 0 0 0 1 0 0 0 0 0 476 1 0 0
